<svg width="1068" height="565" viewBox="0 0 1068 565" fill="none" xmlns="http://www.w3.org/2000/svg">
<circle cx="881.62" cy="6.86092" r="6.86092" fill="#85B0EA"/>
<circle cx="917.524" cy="6.86092" r="6.86092" fill="#85B0EA"/>
<circle cx="953.427" cy="6.86092" r="6.86092" fill="#85B0EA"/>
<circle cx="989.332" cy="6.86092" r="6.86092" fill="#85B0EA"/>
<circle cx="1025.24" cy="6.86092" r="6.86092" fill="#85B0EA"/>
<circle cx="1061.14" cy="6.86092" r="6.86092" fill="#85B0EA"/>
<circle cx="881.62" cy="103.068" r="6.86092" fill="#85B0EA"/>
<circle cx="917.524" cy="103.068" r="6.86092" fill="#85B0EA"/>
<circle cx="953.427" cy="103.068" r="6.86092" fill="#85B0EA"/>
<circle cx="989.332" cy="103.068" r="6.86092" fill="#85B0EA"/>
<circle cx="1025.24" cy="103.068" r="6.86092" fill="#85B0EA"/>
<circle cx="1061.14" cy="103.068" r="6.86092" fill="#85B0EA"/>
<circle cx="881.62" cy="54.9903" r="6.86092" fill="#85B0EA"/>
<circle cx="917.524" cy="54.9903" r="6.86092" fill="#85B0EA"/>
<circle cx="953.427" cy="54.9903" r="6.86092" fill="#85B0EA"/>
<circle cx="989.332" cy="54.9903" r="6.86092" fill="#85B0EA"/>
<circle cx="1025.24" cy="54.9903" r="6.86092" fill="#85B0EA"/>
<circle cx="1061.14" cy="54.9903" r="6.86092" fill="#85B0EA"/>
<circle cx="881.62" cy="30.9" r="6.86092" fill="#85B0EA"/>
<circle cx="917.524" cy="30.9" r="6.86092" fill="#85B0EA"/>
<circle cx="953.427" cy="30.9" r="6.86092" fill="#85B0EA"/>
<circle cx="989.332" cy="30.9" r="6.86092" fill="#85B0EA"/>
<circle cx="1025.24" cy="30.9" r="6.86092" fill="#85B0EA"/>
<circle cx="1061.14" cy="30.9" r="6.86092" fill="#85B0EA"/>
<circle cx="881.62" cy="127.108" r="6.86092" fill="#85B0EA"/>
<circle cx="917.524" cy="127.108" r="6.86092" fill="#85B0EA"/>
<circle cx="953.427" cy="127.108" r="6.86092" fill="#85B0EA"/>
<circle cx="989.332" cy="127.108" r="6.86092" fill="#85B0EA"/>
<circle cx="1025.24" cy="127.108" r="6.86092" fill="#85B0EA"/>
<circle cx="1061.14" cy="127.108" r="6.86092" fill="#85B0EA"/>
<circle cx="881.62" cy="79.0299" r="6.86092" fill="#85B0EA"/>
<circle cx="917.524" cy="79.0299" r="6.86092" fill="#85B0EA"/>
<circle cx="953.427" cy="79.0299" r="6.86092" fill="#85B0EA"/>
<circle cx="989.332" cy="79.0299" r="6.86092" fill="#85B0EA"/>
<circle cx="1025.24" cy="79.0299" r="6.86092" fill="#85B0EA"/>
<circle cx="1061.14" cy="79.0299" r="6.86092" fill="#85B0EA"/>
<circle cx="6.29294" cy="448.293" r="6.29294" fill="#85B0EA"/>
<circle cx="39.2251" cy="448.293" r="6.29294" fill="#85B0EA"/>
<circle cx="72.1557" cy="448.293" r="6.29294" fill="#85B0EA"/>
<circle cx="105.087" cy="448.293" r="6.29294" fill="#85B0EA"/>
<circle cx="138.019" cy="448.293" r="6.29294" fill="#85B0EA"/>
<circle cx="170.951" cy="448.293" r="6.29294" fill="#85B0EA"/>
<circle cx="6.29294" cy="536.537" r="6.29294" fill="#85B0EA"/>
<circle cx="39.2251" cy="536.537" r="6.29294" fill="#85B0EA"/>
<circle cx="72.1557" cy="536.537" r="6.29294" fill="#85B0EA"/>
<circle cx="105.087" cy="536.537" r="6.29294" fill="#85B0EA"/>
<circle cx="138.019" cy="536.537" r="6.29294" fill="#85B0EA"/>
<circle cx="170.951" cy="536.537" r="6.29294" fill="#85B0EA"/>
<circle cx="6.29294" cy="492.438" r="6.29294" fill="#85B0EA"/>
<circle cx="39.2251" cy="492.438" r="6.29294" fill="#85B0EA"/>
<circle cx="72.1557" cy="492.438" r="6.29294" fill="#85B0EA"/>
<circle cx="105.087" cy="492.438" r="6.29294" fill="#85B0EA"/>
<circle cx="138.019" cy="492.438" r="6.29294" fill="#85B0EA"/>
<circle cx="170.951" cy="492.438" r="6.29294" fill="#85B0EA"/>
<circle cx="6.29294" cy="470.342" r="6.29294" fill="#85B0EA"/>
<circle cx="39.2251" cy="470.342" r="6.29294" fill="#85B0EA"/>
<circle cx="72.1557" cy="470.342" r="6.29294" fill="#85B0EA"/>
<circle cx="105.087" cy="470.342" r="6.29294" fill="#85B0EA"/>
<circle cx="138.019" cy="470.342" r="6.29294" fill="#85B0EA"/>
<circle cx="170.951" cy="470.342" r="6.29294" fill="#85B0EA"/>
<circle cx="6.29294" cy="558.584" r="6.29294" fill="#85B0EA"/>
<circle cx="39.2251" cy="558.584" r="6.29294" fill="#85B0EA"/>
<circle cx="72.1557" cy="558.584" r="6.29294" fill="#85B0EA"/>
<circle cx="105.087" cy="558.584" r="6.29294" fill="#85B0EA"/>
<circle cx="138.019" cy="558.584" r="6.29294" fill="#85B0EA"/>
<circle cx="170.951" cy="558.584" r="6.29294" fill="#85B0EA"/>
<circle cx="6.29294" cy="514.487" r="6.29294" fill="#85B0EA"/>
<circle cx="39.2251" cy="514.487" r="6.29294" fill="#85B0EA"/>
<circle cx="72.1557" cy="514.487" r="6.29294" fill="#85B0EA"/>
<circle cx="105.087" cy="514.487" r="6.29294" fill="#85B0EA"/>
<circle cx="138.019" cy="514.487" r="6.29294" fill="#85B0EA"/>
<circle cx="170.951" cy="514.487" r="6.29294" fill="#85B0EA"/>
</svg>
