<svg width="103" height="110" viewBox="0 0 103 110" fill="none" xmlns="http://www.w3.org/2000/svg">
<ellipse cx="44" cy="65.5" rx="44" ry="44.5" fill="#FDCE00"/>
<path d="M5.7614 93.0594C21.355 93.5319 36.4522 84.6501 42.0516 80.1501C41.6964 80.7313 41.4977 81.2137 41.5944 81.4663C41.6276 81.553 41.6955 81.6126 41.8038 81.6399C41.8508 81.6518 41.9053 81.6576 41.9679 81.6568C33.0262 93.9814 19.9692 96.359 13.4494 96.3996C10.6067 96.4173 11.2686 95.5882 11.9862 95.2452C10.4969 95.1636 9.10542 94.9886 7.79059 94.8053C3.52751 94.2107 1.89449 93.039 5.7614 93.0594Z" fill="url(#paint0_radial_1091_1227)"/>
<path d="M41.5944 81.4663C41.4977 81.2137 41.6964 80.7313 42.0516 80.1501C36.4522 84.6501 21.355 93.5319 5.7614 93.0594C1.89449 93.039 3.52751 94.2107 7.79059 94.8053C9.10542 94.9886 10.4969 95.1636 11.9862 95.2452M41.5944 81.4663C41.6276 81.553 41.6955 81.6126 41.8038 81.6399M41.5944 81.4663C35.3265 87.2717 29.9978 90.7398 25.388 92.7508M41.8038 81.6399C39.4433 84.5288 32.8554 90.7954 25.388 92.7508M41.8038 81.6399C41.8508 81.6518 41.9053 81.6576 41.9679 81.6568C33.0262 93.9814 19.9692 96.359 13.4494 96.3996C10.6067 96.4173 11.2686 95.5882 11.9862 95.2452M25.388 92.7508C20.0797 95.0665 15.7245 95.45 11.9862 95.2452" stroke="#006AC9"/>
<path d="M26.5937 100.028L28.137 100.082L31.402 100.028V99.8643L31.7829 97.6333L29.6954 97.1462C29.2798 97.0892 28.8247 97.0036 27.7364 97.198C26.6481 97.3923 26.2128 98.4495 26.1584 99.2114C26.1148 99.8208 26.4305 100.009 26.5937 100.028Z" fill="url(#paint1_linear_1091_1227)"/>
<path d="M35.7899 95.8044C37.2265 93.8019 39.8711 87.5555 41.0138 84.6827C41.5226 85.0874 42.2225 85.3341 43.0103 85.3566L40.6329 91.56L38.7283 96.1309C38.6886 96.2343 38.6439 96.3956 38.6283 96.5662L38.7283 96.5118C40.4152 95.8588 41.177 96.6751 41.4491 97.7634C41.6668 98.634 41.3584 98.8517 41.177 98.8517C40.7599 98.888 39.4902 99.004 37.7489 99.1782C35.5722 99.3958 34.756 99.5047 34.4295 99.7767C34.1683 99.9944 32.5031 100.103 32.3035 100.103H29.9637C29.6869 100.103 29.6478 100.057 29.6414 99.94C29.639 99.896 29.6412 99.842 29.6372 99.7767C29.619 99.4865 29.6481 98.7429 29.9092 98.0899C30.0787 97.6662 30.4534 97.3012 30.8887 97.1242C31.2922 96.9601 31.7477 96.9575 32.1403 97.2192C32.6844 97.709 34.0849 97.4006 34.2663 97.2736C34.3932 97.1829 34.8757 96.7621 35.7899 95.8044Z" fill="url(#paint2_linear_1091_1227)"/>
<path d="M51.136 84.1267C51.5102 84.3543 51.9826 84.5398 52.5508 84.5948C52.6806 84.6074 52.8077 84.6113 52.9317 84.6078C52.6415 85.6555 51.9196 88.306 51.3537 90.5261C50.483 93.2469 50.4649 94.4985 50.483 95.2603C50.483 96.0765 51.2448 97.3825 53.0406 96.6207C53.4247 96.5054 53.7681 96.4311 54.0745 96.3903C55.851 96.1537 56.3834 97.0432 56.4143 97.6001C56.4272 97.9343 56.4437 98.527 56.4367 98.9061C56.4339 99.0621 56.427 99.1819 56.4143 99.2326C56.3599 99.4503 53.6391 99.4503 53.0406 99.2326C52.5617 99.0585 50.3016 98.761 49.2315 98.634C47.726 98.5434 43.0825 98.4164 43.0825 98.2531C42.9519 97.7307 43.0644 97.1648 43.1369 96.9472C43.4816 96.1491 44.5191 94.8141 45.9121 95.8588C46.8916 96.6751 47.2907 96.0221 47.4358 95.5324L48.4152 92.6483L51.136 84.1267Z" fill="url(#paint3_linear_1091_1227)"/>
<path d="M60.217 96.6579C59.6118 96.12 58.1311 95.9584 57.3874 96.0167C56.6075 96.0789 54.9172 96.2417 54.3948 96.3956C55.9109 96.3038 56.379 97.1162 56.4079 97.6374C56.4189 97.9226 56.4325 98.3962 56.432 98.7645L59.5096 98.8346C60.5982 98.8734 60.7612 98.8164 60.7612 98.7257C60.8156 97.6918 60.7068 97.0933 60.217 96.6579Z" fill="url(#paint4_linear_1091_1227)"/>
<path d="M42.4937 34.7256L41.5864 37.5234C41.5098 37.7469 41.1581 38.297 40.3647 38.71C39.5713 39.1231 40.4554 37.6813 40.9966 36.9087C41.0768 36.7803 41.3631 36.1971 41.867 34.8911C40.4158 37.4257 39.0623 38.0866 38.5669 38.1003C38.4741 38.1561 38.5794 37.9312 39.573 36.7308C38.2431 38.2196 37.6276 38.1042 37.3339 37.8724L36.7296 37.3102C36.5655 37.0955 37.0821 36.8431 38.5239 35.8302C38.3315 35.6641 37.9013 35.1726 37.7199 34.5353C36.8864 34.5759 36.3023 33.4661 36.1145 32.9061C36.0556 32.7957 36.1397 32.6533 36.9468 32.9667C36.6194 32.4698 36.8143 32.422 36.9527 32.4603C37.4731 32.6794 39.3151 32.5147 42.5199 30.1034C45.7246 27.6921 43.8378 32.1801 42.4937 34.7256Z" fill="#005BB2"/>
<path d="M61.5312 52.0238C61.399 52.0863 56.9512 53.7642 56.7477 53.5738L57.2918 64.4569C57.7053 65.3185 61.3012 66.4876 61.8186 66.6187C77.1585 69.8166 89.9317 58.5922 94.5225 45.358C95.2723 43.1966 96.5196 39.0289 95.5109 39.6493C91.4126 42.388 87.347 42.8732 85.8265 42.7735C98.4257 39.6461 100.754 30.45 101.112 25.8385C101.169 25.3335 101.152 24.4771 100.624 25.0911C97.2771 28.5737 90.7967 31.0215 87.5556 31.9388C89.3789 31.3053 92.599 28.8757 94.0951 27.6413C95.4007 26.5236 98.2284 23.7483 99.0945 21.5887C99.9605 19.429 100.276 16.6772 100.325 15.5712C100.357 14.2274 100.314 11.215 99.8904 9.9159C99.4671 8.61686 98.9183 9.31294 98.6968 9.82336C98.4098 10.4742 97.404 12.2774 95.6767 14.283C92.516 17.8802 90.1843 18.9511 89.4135 19.0369C89.9493 18.6964 91.5615 17.2386 93.7236 14.1315C96.4262 10.2477 94.721 0.564128 93.4466 2.92137C89.3064 9.85935 82.6379 15.6189 78.4717 17.2607C75.1388 18.5741 74.5711 21.5792 74.7038 22.9176C75.0395 26.8006 74.8819 36.1068 71.5661 42.2682C68.2502 48.4295 63.4946 51.3392 61.5312 52.0238Z" fill="url(#paint5_linear_1091_1227)"/>
<path d="M55.5919 48.2116C54.7212 47.0363 56.1723 43.4693 56.6258 42.8122C52.5567 34.7489 55.1298 32.4229 58.3127 31.9414C55.5375 34.7166 60.2418 33.065 60.1967 32.9753C60.8565 31.506 60.9463 27.9255 56.0272 25.3571C51.2157 22.8449 46.6041 25.9968 44.6691 27.6432C44.4461 27.833 44.2586 28.0028 44.1105 28.1416C43.9014 28.3375 43.7708 28.4716 43.7292 28.5132C43.5717 28.6707 42.7172 29.6012 41.7162 31.1823C41.3644 31.7379 40.9946 32.3738 40.6305 33.0848C39.8835 34.5434 39.1608 36.3179 38.6686 38.3624C37.2538 44.2393 37.6347 48.3749 38.3965 51.1501C39.1583 53.9253 39.2128 52.6737 39.8113 55.3945L40.5732 68.6175C40.5732 70.5446 39.9637 74.2124 39.4942 76.671C39.4543 76.8799 39.4154 77.08 39.378 77.2696C39.3558 77.3823 39.3341 77.4912 39.313 77.5961L39.28 77.7593C39.2567 77.874 39.2342 77.983 39.2128 78.0858L38.0922 82.6023L37.9706 83.0921L37.4981 84.9966L37.4171 85.3231C37.3967 85.4247 37.3763 85.5339 37.3561 85.6496C37.3438 85.7198 37.3317 85.7925 37.3197 85.8673C37.2647 86.21 37.2135 86.5982 37.1741 87.01C37.0089 88.7387 37.0525 90.881 37.9068 91.7986C37.9899 91.8878 38.0809 91.9717 38.1789 92.0497C38.6877 92.4545 39.3876 92.7011 40.1754 92.7236C41.9194 92.7734 44.0942 91.7245 45.5794 88.8601C45.9267 88.1099 46.2796 87.5355 46.6133 87.1006V87.1188C46.7439 89.1648 47.103 90.0391 47.2663 90.2205C47.4028 90.462 47.7314 90.8543 48.2457 91.1672C48.6199 91.3947 49.0923 91.5803 49.6606 91.6353C49.7903 91.6479 49.9174 91.6518 50.0415 91.6483C51.208 91.6153 52.1079 90.9241 52.4358 90.547C53.9775 88.9145 57.6705 84.9639 60.1084 82.2214C60.9172 81.3114 61.6916 80.3286 62.3938 79.2861C64.337 76.4014 65.7276 73.06 65.7676 69.5426C65.8111 65.7117 64.516 62.3234 63.863 61.1081L60.2716 55.1768L60.058 54.8503C59.9681 54.713 59.8726 54.5674 59.7725 54.415C58.4593 52.4149 56.3556 49.2427 55.5919 48.2116Z" fill="url(#paint6_linear_1091_1227)"/>
<path d="M55.5919 48.2116C54.7212 47.0363 56.1723 43.4693 56.6258 42.8122C52.5567 34.7489 55.1298 32.4229 58.3127 31.9414C55.5375 34.7166 60.2418 33.065 60.1967 32.9753C60.8565 31.506 60.9463 27.9255 56.0272 25.3571C51.2157 22.8449 46.6041 25.9968 44.6691 27.6432C44.4461 27.833 44.2586 28.0028 44.1105 28.1416C43.9014 28.3375 43.7708 28.4716 43.7292 28.5132C43.5717 28.6707 42.7172 29.6012 41.7162 31.1823C41.3644 31.7379 40.9946 32.3738 40.6305 33.0848C39.8835 34.5434 39.1608 36.3179 38.6686 38.3624C37.2538 44.2393 37.6347 48.3749 38.3965 51.1501C39.1583 53.9253 39.2128 52.6737 39.8113 55.3945L40.5732 68.6175C40.5732 70.5446 39.9637 74.2124 39.4942 76.671C39.4543 76.8799 39.4154 77.08 39.378 77.2696C39.3558 77.3823 39.3341 77.4912 39.313 77.5961L39.28 77.7593C39.2567 77.874 39.2342 77.983 39.2128 78.0858L38.0922 82.6023L37.9706 83.0921L37.4981 84.9966L37.4171 85.3231C37.3967 85.4247 37.3763 85.5339 37.3561 85.6496C37.3438 85.7198 37.3317 85.7925 37.3197 85.8673C37.2647 86.21 37.2135 86.5982 37.1741 87.01C37.0089 88.7387 37.0525 90.881 37.9068 91.7986C37.9899 91.8878 38.0809 91.9717 38.1789 92.0497C38.6877 92.4545 39.3876 92.7011 40.1754 92.7236C41.9194 92.7734 44.0942 91.7245 45.5794 88.8601C45.9267 88.1099 46.2796 87.5355 46.6133 87.1006V87.1188C46.7439 89.1648 47.103 90.0391 47.2663 90.2205C47.4028 90.462 47.7314 90.8543 48.2457 91.1672C48.6199 91.3947 49.0923 91.5803 49.6606 91.6353C49.7903 91.6479 49.9174 91.6518 50.0415 91.6483C51.208 91.6153 52.1079 90.9241 52.4358 90.547C53.9775 88.9145 57.6705 84.9639 60.1084 82.2214C60.9172 81.3114 61.6916 80.3286 62.3938 79.2861C64.337 76.4014 65.7276 73.06 65.7676 69.5426C65.8111 65.7117 64.516 62.3234 63.863 61.1081L60.2716 55.1768L60.058 54.8503C59.9681 54.713 59.8726 54.5674 59.7725 54.415C58.4593 52.4149 56.3556 49.2427 55.5919 48.2116Z" fill="url(#paint7_radial_1091_1227)"/>
<path d="M39.2802 77.7591L39.3132 77.5959C39.3343 77.491 39.356 77.3821 39.3782 77.2694C38.7824 78.3706 37.989 80.0017 37.6199 81.1873C37.4175 81.8376 37.3428 82.354 37.4983 82.5753C37.5516 82.6513 37.6321 82.6925 37.7438 82.6925C37.7922 82.6925 37.8465 82.6848 37.907 82.6688C37.9633 82.6539 38.025 82.6318 38.0924 82.6021L39.213 78.0856C39.2344 77.9828 39.2569 77.8738 39.2802 77.7591Z" fill="#023170"/>
<path d="M37.9708 83.0919L38.0924 82.6021M38.0924 82.6021L39.213 78.0856C39.2344 77.9828 39.2569 77.8738 39.2802 77.7591C39.291 77.7059 39.302 77.6515 39.3132 77.5959C39.3343 77.491 39.356 77.3821 39.3782 77.2694C38.7824 78.3706 37.989 80.0017 37.6199 81.1873C37.4175 81.8376 37.3428 82.354 37.4983 82.5753C37.5516 82.6513 37.6321 82.6925 37.7438 82.6925C37.7922 82.6925 37.8465 82.6848 37.907 82.6688C37.9633 82.6539 38.025 82.6318 38.0924 82.6021Z" stroke="#006AC9"/>
<path d="M40.5857 62.6506L43.8283 54.6941C43.8904 54.5557 43.4938 54.4083 43.5636 54.253C43.647 54.0675 43.7355 53.8708 43.8283 53.6648C39.4902 56.2106 33.7226 58.4099 31.3811 59.1913C25.7528 60.7222 14.692 65.7054 15.4754 73.3913C16.2589 81.0773 22.0485 82.1105 24.8455 81.6665C20.6924 82.599 19.1808 81.6784 18.574 81.2968C18.0886 80.9915 17.9722 81.233 17.9747 81.392C18.0808 82.4902 18.8619 85.088 21.1376 86.6929C24.171 88.9421 29.6507 87.7079 31.7239 86.7188C31.0069 87.2195 29.3591 88.3368 28.5042 88.8002C27.4356 89.3796 25.3501 89.5742 24.6873 89.2698C24.157 89.0262 24.1697 89.3064 24.2423 89.477C24.8205 90.6823 26.9214 93.1069 30.6989 93.1625C36.5963 93.1546 42.9924 87.4583 45.4532 84.6111C49.6882 79.7113 51.4998 70.1319 34.5358 69.4714C34.4829 69.4693 34.4298 69.4673 34.3766 69.4655C32.3538 69.3543 31.2723 67.8698 40.5857 62.6506Z" fill="#014D9B"/>
<path d="M55.8647 41.0839L58.0414 40.0493C57.1526 37.3104 52.9154 34.3031 50.2599 34.3901C47.9744 34.7166 46.5584 39.4681 49.6614 41.5192C52.8719 43.6414 53.5248 42.6619 55.8647 41.0839Z" fill="url(#paint8_linear_1091_1227)"/>
<path d="M53.3073 31.7559C51.8272 33.4972 50.6228 34.1864 50.2057 34.3134C50.1411 34.3843 50.0537 34.548 49.9678 34.8254L50.5321 35.0208C50.849 35.2087 50.8243 35.192 51.111 35.4017C52.1293 36.1466 52.9558 37.0025 53.5794 37.7814C54.2034 38.5607 54.6242 39.2631 54.831 39.7005C54.9854 40.0384 55.2098 40.7534 55.3596 41.7683C55.4913 42.6604 55.5654 43.7843 55.484 45.0877C55.6498 45.0596 55.8131 45.0188 55.9737 44.9665C58.3005 44.2099 60.0512 41.0573 60.4358 39.4284C60.7441 38.1225 61.1758 35.097 60.4358 33.4427C60.3948 33.3511 60.3516 33.2604 60.3065 33.1706C59.5371 31.6409 58.2059 30.4056 57.6062 29.9601C56.7899 29.8332 54.7874 30.0146 53.3073 31.7559Z" fill="url(#paint9_radial_1091_1227)"/>
<path d="M50.5862 41.4642C50.2396 40.9097 49.6611 39.7116 49.6611 37.5785C49.6611 36.204 49.8118 35.3281 49.9674 34.8255L50.5318 35.0209C50.8486 35.2089 50.824 35.1921 51.1106 35.4018C52.129 36.1468 52.9555 37.0026 53.5791 37.7815C54.203 38.5609 54.6238 39.2633 54.8306 39.7007C54.9851 40.0385 55.2094 40.7535 55.3592 41.7685C55.3204 42.0628 55.1405 42.3591 54.8306 42.7158C53.5246 43.9129 51.4024 42.7702 50.5862 41.4642Z" fill="url(#paint10_radial_1091_1227)"/>
<path d="M49.7094 33.1425C46.8064 33.0149 44.2983 34.9544 43.4071 35.9401C43.139 33.6958 43.5924 31.9781 43.8526 31.3998C44.5178 30.0593 46.2191 27.5491 48.5501 27.8883C50.7267 28.2049 51.0781 29.9268 50.9912 30.6912C50.8567 31.5256 50.412 33.1841 49.7094 33.1425Z" fill="url(#paint11_linear_1091_1227)"/>
<path d="M48.0646 32.1578C47.484 32.0966 47.1097 31.9537 46.9951 31.8899C46.3712 31.4945 45.4366 30.3898 46.6895 29.1346C47.9423 27.8794 49.1623 28.4909 49.5825 29.1346C50.079 29.8954 50.4633 31.1935 49.516 32.5405C48.7903 32.0813 48.7903 32.2343 48.0646 32.1578Z" fill="url(#paint12_radial_1091_1227)"/>
<ellipse cx="48.7908" cy="30.5266" rx="0.435325" ry="0.272078" fill="#D9D9D9"/>
<path d="M30.6996 93.1625C36.597 93.1546 42.9931 87.4582 45.4539 84.611C49.6889 79.7113 51.5005 70.1318 34.5365 69.4713C33.6511 69.4369 32.7145 69.4267 31.7245 69.4428C27.1609 69.1666 18.6546 67.6719 21.1383 63.9027C17.7118 66.3101 15.08 69.5052 15.4761 73.3913C16.2596 81.0772 22.0492 82.1105 24.8462 81.6664C20.6931 82.5989 19.1815 81.6783 18.5747 81.2968C18.0893 80.9915 17.9729 81.233 17.9754 81.3919C18.0815 82.4902 18.8626 85.0879 21.1383 86.6928C24.1717 88.9421 29.6514 87.7079 31.7246 86.7187C31.0076 87.2195 29.3598 88.3368 28.5049 88.8002C27.4363 89.3795 25.3507 89.5741 24.688 89.2697C24.1577 89.0262 24.1704 89.3064 24.243 89.4769C24.8212 90.6823 26.9221 93.1069 30.6996 93.1625Z" fill="url(#paint13_radial_1091_1227)"/>
<defs>
<radialGradient id="paint0_radial_1091_1227" cx="0" cy="0" r="1" gradientUnits="userSpaceOnUse" gradientTransform="translate(39.1227 83.5647) rotate(138.749) scale(13.2224 19.7451)">
<stop stop-color="#02387B"/>
<stop offset="1" stop-color="#006AC9"/>
</radialGradient>
<linearGradient id="paint1_linear_1091_1227" x1="29.9326" y1="101.769" x2="28.6266" y2="96.4362" gradientUnits="userSpaceOnUse">
<stop offset="0.120044"/>
<stop offset="1" stop-color="#838383"/>
</linearGradient>
<linearGradient id="paint2_linear_1091_1227" x1="36.6021" y1="99.3085" x2="29.256" y2="92.3978" gradientUnits="userSpaceOnUse">
<stop/>
<stop offset="1" stop-color="#D5D4D4"/>
</linearGradient>
<linearGradient id="paint3_linear_1091_1227" x1="43.4034" y1="96.0437" x2="55.1571" y2="97.6762" gradientUnits="userSpaceOnUse">
<stop stop-color="#737373"/>
<stop offset="1"/>
</linearGradient>
<linearGradient id="paint4_linear_1091_1227" x1="54.7211" y1="97.1865" x2="56.9041" y2="99.4332" gradientUnits="userSpaceOnUse">
<stop stop-color="#575757"/>
<stop offset="0.734831"/>
</linearGradient>
<linearGradient id="paint5_linear_1091_1227" x1="71.7542" y1="68.1283" x2="85.6301" y2="-3.75466" gradientUnits="userSpaceOnUse">
<stop stop-color="#023170"/>
<stop offset="0.720241" stop-color="#006AC9"/>
</linearGradient>
<linearGradient id="paint6_linear_1091_1227" x1="51.4332" y1="24.4197" x2="51.4332" y2="92.7253" gradientUnits="userSpaceOnUse">
<stop offset="0.569099" stop-color="#006AC9"/>
<stop offset="1" stop-color="#023271"/>
</linearGradient>
<radialGradient id="paint7_radial_1091_1227" cx="0" cy="0" r="1" gradientUnits="userSpaceOnUse" gradientTransform="translate(29.2006 25.9563) rotate(57.8455) scale(68.7092 28.8404)">
<stop offset="0.14659" stop-color="#006AC9"/>
<stop offset="0.817017" stop-color="#023271"/>
</radialGradient>
<linearGradient id="paint8_linear_1091_1227" x1="54.831" y1="34.3907" x2="48.1923" y2="44.1311" gradientUnits="userSpaceOnUse">
<stop stop-color="#FDCE00"/>
<stop offset="1" stop-color="#FFEEA6"/>
</linearGradient>
<radialGradient id="paint9_radial_1091_1227" cx="0" cy="0" r="1" gradientUnits="userSpaceOnUse" gradientTransform="translate(54.7765 37.5462) rotate(85.2281) scale(7.56773 5.42963)">
<stop stop-color="#4B4B4B"/>
<stop offset="0.787641" stop-color="#100F0F"/>
</radialGradient>
<radialGradient id="paint10_radial_1091_1227" cx="0" cy="0" r="1" gradientUnits="userSpaceOnUse" gradientTransform="translate(52.2187 38.7979) rotate(59.8194) scale(8.87575 6.54741)">
<stop stop-color="#4D4949"/>
<stop offset="0.443776"/>
</radialGradient>
<linearGradient id="paint11_linear_1091_1227" x1="49.6076" y1="29.3299" x2="43.4042" y2="36.404" gradientUnits="userSpaceOnUse">
<stop stop-color="#FDCE00"/>
<stop offset="1" stop-color="#FEEB99"/>
</linearGradient>
<radialGradient id="paint12_radial_1091_1227" cx="0" cy="0" r="1" gradientUnits="userSpaceOnUse" gradientTransform="translate(48.4646 30.4727) rotate(104.036) scale(2.69234 3.602)">
<stop stop-color="#4F4F4F"/>
<stop offset="0.598958"/>
</radialGradient>
<radialGradient id="paint13_radial_1091_1227" cx="0" cy="0" r="1" gradientUnits="userSpaceOnUse" gradientTransform="translate(23.1074 84.7795) rotate(-16.607) scale(22.6569 18.7778)">
<stop stop-color="#006AC9"/>
<stop offset="1" stop-color="#006AC9" stop-opacity="0"/>
</radialGradient>
</defs>
</svg>
