<svg width="35" height="35" viewBox="0 0 35 35" fill="none" xmlns="http://www.w3.org/2000/svg">
<path d="M8.75 2.91675L4.375 8.75008V29.1668C4.375 29.9403 4.68229 30.6822 5.22927 31.2291C5.77625 31.7761 6.51812 32.0834 7.29167 32.0834H27.7083C28.4819 32.0834 29.2237 31.7761 29.7707 31.2291C30.3177 30.6822 30.625 29.9403 30.625 29.1668V8.75008L26.25 2.91675H8.75Z" stroke="white" stroke-width="3" stroke-linecap="round" stroke-linejoin="round"/>
<path d="M4.375 8.75H30.625" stroke="white" stroke-width="3" stroke-linecap="round" stroke-linejoin="round"/>
<path d="M23.3337 14.5833C23.3337 16.1303 22.7191 17.6141 21.6251 18.708C20.5312 19.802 19.0474 20.4166 17.5003 20.4166C15.9532 20.4166 14.4695 19.802 13.3755 18.708C12.2816 17.6141 11.667 16.1303 11.667 14.5833" stroke="white" stroke-width="3" stroke-linecap="round" stroke-linejoin="round"/>
</svg>
