<svg width="241" height="357" viewBox="0 0 241 357" fill="none" xmlns="http://www.w3.org/2000/svg">
<g filter="url(#filter0_d_1400_1626)">
<rect x="3" y="1" width="225" height="341" rx="26.4649" fill="#00202A"/>
<path d="M52.8953 155.112C52.1486 155.112 51.4766 154.984 50.8793 154.728C50.2819 154.461 49.8126 154.088 49.4713 153.608C49.1299 153.128 48.9593 152.568 48.9593 151.928H50.9113C50.9539 152.408 51.1406 152.803 51.4713 153.112C51.8126 153.421 52.2873 153.576 52.8953 153.576C53.5246 153.576 54.0153 153.427 54.3673 153.128C54.7193 152.819 54.8953 152.424 54.8953 151.944C54.8953 151.571 54.7833 151.267 54.5593 151.032C54.3459 150.797 54.0739 150.616 53.7433 150.488C53.4233 150.36 52.9753 150.221 52.3993 150.072C51.6739 149.88 51.0819 149.688 50.6233 149.496C50.1753 149.293 49.7913 148.984 49.4713 148.568C49.1513 148.152 48.9913 147.597 48.9913 146.904C48.9913 146.264 49.1513 145.704 49.4713 145.224C49.7913 144.744 50.2393 144.376 50.8153 144.12C51.3913 143.864 52.0579 143.736 52.8153 143.736C53.8926 143.736 54.7726 144.008 55.4553 144.552C56.1486 145.085 56.5326 145.821 56.6073 146.76H54.5913C54.5593 146.355 54.3673 146.008 54.0153 145.72C53.6633 145.432 53.1993 145.288 52.6233 145.288C52.1006 145.288 51.6739 145.421 51.3433 145.688C51.0126 145.955 50.8473 146.339 50.8473 146.84C50.8473 147.181 50.9486 147.464 51.1513 147.688C51.3646 147.901 51.6313 148.072 51.9513 148.2C52.2713 148.328 52.7086 148.467 53.2633 148.616C53.9993 148.819 54.5966 149.021 55.0553 149.224C55.5246 149.427 55.9193 149.741 56.2393 150.168C56.5699 150.584 56.7353 151.144 56.7353 151.848C56.7353 152.413 56.5806 152.947 56.2713 153.448C55.9726 153.949 55.5299 154.355 54.9433 154.664C54.3673 154.963 53.6846 155.112 52.8953 155.112ZM66.9675 150.376C66.9675 150.707 66.9462 151.005 66.9035 151.272H60.1675C60.2208 151.976 60.4822 152.541 60.9515 152.968C61.4208 153.395 61.9968 153.608 62.6795 153.608C63.6608 153.608 64.3542 153.197 64.7595 152.376H66.7275C66.4608 153.187 65.9755 153.853 65.2715 154.376C64.5782 154.888 63.7142 155.144 62.6795 155.144C61.8368 155.144 61.0795 154.957 60.4075 154.584C59.7462 154.2 59.2235 153.667 58.8395 152.984C58.4662 152.291 58.2795 151.491 58.2795 150.584C58.2795 149.677 58.4608 148.883 58.8235 148.2C59.1968 147.507 59.7142 146.973 60.3755 146.6C61.0475 146.227 61.8155 146.04 62.6795 146.04C63.5115 146.04 64.2528 146.221 64.9035 146.584C65.5542 146.947 66.0608 147.459 66.4235 148.12C66.7862 148.771 66.9675 149.523 66.9675 150.376ZM65.0635 149.8C65.0528 149.128 64.8128 148.589 64.3435 148.184C63.8742 147.779 63.2928 147.576 62.5995 147.576C61.9702 147.576 61.4315 147.779 60.9835 148.184C60.5355 148.579 60.2688 149.117 60.1835 149.8H65.0635ZM70.5865 147.464C70.8532 147.016 71.2052 146.669 71.6425 146.424C72.0905 146.168 72.6185 146.04 73.2265 146.04V147.928H72.7625C72.0478 147.928 71.5038 148.109 71.1305 148.472C70.7678 148.835 70.5865 149.464 70.5865 150.36V155H68.7625V146.184H70.5865V147.464ZM87.0434 146.184V155H85.2194V153.96C84.9314 154.323 84.5527 154.611 84.0834 154.824C83.6247 155.027 83.134 155.128 82.6114 155.128C81.918 155.128 81.294 154.984 80.7394 154.696C80.1954 154.408 79.7634 153.981 79.4434 153.416C79.134 152.851 78.9794 152.168 78.9794 151.368V146.184H80.7874V151.096C80.7874 151.885 80.9847 152.493 81.3794 152.92C81.774 153.336 82.3127 153.544 82.9954 153.544C83.678 153.544 84.2167 153.336 84.6114 152.92C85.0167 152.493 85.2194 151.885 85.2194 151.096V146.184H87.0434ZM100.122 146.04C100.815 146.04 101.434 146.184 101.978 146.472C102.533 146.76 102.965 147.187 103.274 147.752C103.594 148.317 103.754 149 103.754 149.8V155H101.946V150.072C101.946 149.283 101.749 148.68 101.354 148.264C100.959 147.837 100.421 147.624 99.738 147.624C99.0553 147.624 98.5113 147.837 98.106 148.264C97.7113 148.68 97.514 149.283 97.514 150.072V155H95.706V150.072C95.706 149.283 95.5087 148.68 95.114 148.264C94.7193 147.837 94.1807 147.624 93.498 147.624C92.8153 147.624 92.2713 147.837 91.866 148.264C91.4713 148.68 91.274 149.283 91.274 150.072V155H89.45V146.184H91.274V147.192C91.5727 146.829 91.9513 146.547 92.41 146.344C92.8687 146.141 93.3593 146.04 93.882 146.04C94.586 146.04 95.2153 146.189 95.77 146.488C96.3247 146.787 96.7513 147.219 97.05 147.784C97.3167 147.251 97.7327 146.829 98.298 146.52C98.8633 146.2 99.4713 146.04 100.122 146.04ZM105.467 150.552C105.467 149.667 105.648 148.883 106.011 148.2C106.384 147.517 106.886 146.989 107.515 146.616C108.155 146.232 108.859 146.04 109.627 146.04C110.32 146.04 110.923 146.179 111.435 146.456C111.958 146.723 112.374 147.059 112.683 147.464V146.184H114.523V155H112.683V153.688C112.374 154.104 111.952 154.451 111.419 154.728C110.886 155.005 110.278 155.144 109.595 155.144C108.838 155.144 108.144 154.952 107.515 154.568C106.886 154.173 106.384 153.629 106.011 152.936C105.648 152.232 105.467 151.437 105.467 150.552ZM112.683 150.584C112.683 149.976 112.555 149.448 112.299 149C112.054 148.552 111.728 148.211 111.323 147.976C110.918 147.741 110.48 147.624 110.011 147.624C109.542 147.624 109.104 147.741 108.699 147.976C108.294 148.2 107.963 148.536 107.707 148.984C107.462 149.421 107.339 149.944 107.339 150.552C107.339 151.16 107.462 151.693 107.707 152.152C107.963 152.611 108.294 152.963 108.699 153.208C109.115 153.443 109.552 153.56 110.011 153.56C110.48 153.56 110.918 153.443 111.323 153.208C111.728 152.973 112.054 152.632 112.299 152.184C112.555 151.725 112.683 151.192 112.683 150.584ZM124.627 146.04C125.31 146.04 125.912 146.179 126.435 146.456C126.968 146.723 127.384 147.059 127.683 147.464V146.184H129.523V155.144C129.523 155.955 129.352 156.675 129.011 157.304C128.67 157.944 128.174 158.445 127.523 158.808C126.883 159.171 126.115 159.352 125.219 159.352C124.024 159.352 123.032 159.069 122.243 158.504C121.454 157.949 121.006 157.192 120.899 156.232H122.707C122.846 156.691 123.139 157.059 123.587 157.336C124.046 157.624 124.59 157.768 125.219 157.768C125.955 157.768 126.547 157.544 126.995 157.096C127.454 156.648 127.683 155.997 127.683 155.144V153.672C127.374 154.088 126.952 154.44 126.419 154.728C125.896 155.005 125.299 155.144 124.627 155.144C123.859 155.144 123.155 154.952 122.515 154.568C121.886 154.173 121.384 153.629 121.011 152.936C120.648 152.232 120.467 151.437 120.467 150.552C120.467 149.667 120.648 148.883 121.011 148.2C121.384 147.517 121.886 146.989 122.515 146.616C123.155 146.232 123.859 146.04 124.627 146.04ZM127.683 150.584C127.683 149.976 127.555 149.448 127.299 149C127.054 148.552 126.728 148.211 126.323 147.976C125.918 147.741 125.48 147.624 125.011 147.624C124.542 147.624 124.104 147.741 123.699 147.976C123.294 148.2 122.963 148.536 122.707 148.984C122.462 149.421 122.339 149.944 122.339 150.552C122.339 151.16 122.462 151.693 122.707 152.152C122.963 152.611 123.294 152.963 123.699 153.208C124.115 153.443 124.552 153.56 125.011 153.56C125.48 153.56 125.918 153.443 126.323 153.208C126.728 152.973 127.054 152.632 127.299 152.184C127.555 151.725 127.683 151.192 127.683 150.584ZM133.743 147.464C134.009 147.016 134.361 146.669 134.799 146.424C135.247 146.168 135.775 146.04 136.383 146.04V147.928H135.919C135.204 147.928 134.66 148.109 134.287 148.472C133.924 148.835 133.743 149.464 133.743 150.36V155H131.919V146.184H133.743V147.464ZM137.451 150.552C137.451 149.667 137.633 148.883 137.995 148.2C138.369 147.517 138.87 146.989 139.499 146.616C140.139 146.232 140.843 146.04 141.611 146.04C142.305 146.04 142.907 146.179 143.419 146.456C143.942 146.723 144.358 147.059 144.667 147.464V146.184H146.507V155H144.667V153.688C144.358 154.104 143.937 154.451 143.403 154.728C142.87 155.005 142.262 155.144 141.579 155.144C140.822 155.144 140.129 154.952 139.499 154.568C138.87 154.173 138.369 153.629 137.995 152.936C137.633 152.232 137.451 151.437 137.451 150.552ZM144.667 150.584C144.667 149.976 144.539 149.448 144.283 149C144.038 148.552 143.713 148.211 143.307 147.976C142.902 147.741 142.465 147.624 141.995 147.624C141.526 147.624 141.089 147.741 140.683 147.976C140.278 148.2 139.947 148.536 139.691 148.984C139.446 149.421 139.323 149.944 139.323 150.552C139.323 151.16 139.446 151.693 139.691 152.152C139.947 152.611 140.278 152.963 140.683 153.208C141.099 153.443 141.537 153.56 141.995 153.56C142.465 153.56 142.902 153.443 143.307 153.208C143.713 152.973 144.038 152.632 144.283 152.184C144.539 151.725 144.667 151.192 144.667 150.584ZM153.351 146.04C154.044 146.04 154.663 146.184 155.207 146.472C155.762 146.76 156.194 147.187 156.503 147.752C156.812 148.317 156.967 149 156.967 149.8V155H155.159V150.072C155.159 149.283 154.962 148.68 154.567 148.264C154.172 147.837 153.634 147.624 152.951 147.624C152.268 147.624 151.724 147.837 151.319 148.264C150.924 148.68 150.727 149.283 150.727 150.072V155H148.903V146.184H150.727V147.192C151.026 146.829 151.404 146.547 151.863 146.344C152.332 146.141 152.828 146.04 153.351 146.04ZM158.686 150.552C158.686 149.667 158.867 148.883 159.23 148.2C159.603 147.517 160.104 146.989 160.734 146.616C161.374 146.232 162.083 146.04 162.862 146.04C163.438 146.04 164.003 146.168 164.558 146.424C165.123 146.669 165.571 147 165.902 147.416V143.16H167.742V155H165.902V153.672C165.603 154.099 165.187 154.451 164.654 154.728C164.131 155.005 163.528 155.144 162.846 155.144C162.078 155.144 161.374 154.952 160.734 154.568C160.104 154.173 159.603 153.629 159.23 152.936C158.867 152.232 158.686 151.437 158.686 150.552ZM165.902 150.584C165.902 149.976 165.774 149.448 165.518 149C165.272 148.552 164.947 148.211 164.542 147.976C164.136 147.741 163.699 147.624 163.23 147.624C162.76 147.624 162.323 147.741 161.918 147.976C161.512 148.2 161.182 148.536 160.926 148.984C160.68 149.421 160.558 149.944 160.558 150.552C160.558 151.16 160.68 151.693 160.926 152.152C161.182 152.611 161.512 152.963 161.918 153.208C162.334 153.443 162.771 153.56 163.23 153.56C163.699 153.56 164.136 153.443 164.542 153.208C164.947 152.973 165.272 152.632 165.518 152.184C165.774 151.725 165.902 151.192 165.902 150.584ZM178.218 150.376C178.218 150.707 178.196 151.005 178.154 151.272H171.418C171.471 151.976 171.732 152.541 172.202 152.968C172.671 153.395 173.247 153.608 173.93 153.608C174.911 153.608 175.604 153.197 176.01 152.376H177.977C177.711 153.187 177.226 153.853 176.522 154.376C175.828 154.888 174.964 155.144 173.93 155.144C173.087 155.144 172.33 154.957 171.658 154.584C170.996 154.2 170.474 153.667 170.09 152.984C169.716 152.291 169.53 151.491 169.53 150.584C169.53 149.677 169.711 148.883 170.074 148.2C170.447 147.507 170.964 146.973 171.626 146.6C172.298 146.227 173.066 146.04 173.93 146.04C174.762 146.04 175.503 146.221 176.154 146.584C176.804 146.947 177.311 147.459 177.674 148.12C178.036 148.771 178.218 149.523 178.218 150.376ZM176.314 149.8C176.303 149.128 176.063 148.589 175.594 148.184C175.124 147.779 174.543 147.576 173.85 147.576C173.22 147.576 172.682 147.779 172.234 148.184C171.786 148.579 171.519 149.117 171.434 149.8H176.314ZM27.9675 174.376C27.9675 174.707 27.9462 175.005 27.9035 175.272H21.1675C21.2208 175.976 21.4822 176.541 21.9515 176.968C22.4208 177.395 22.9968 177.608 23.6795 177.608C24.6608 177.608 25.3542 177.197 25.7595 176.376H27.7275C27.4608 177.187 26.9755 177.853 26.2715 178.376C25.5782 178.888 24.7142 179.144 23.6795 179.144C22.8368 179.144 22.0795 178.957 21.4075 178.584C20.7462 178.2 20.2235 177.667 19.8395 176.984C19.4662 176.291 19.2795 175.491 19.2795 174.584C19.2795 173.677 19.4608 172.883 19.8235 172.2C20.1968 171.507 20.7142 170.973 21.3755 170.6C22.0475 170.227 22.8155 170.04 23.6795 170.04C24.5115 170.04 25.2528 170.221 25.9035 170.584C26.5542 170.947 27.0608 171.459 27.4235 172.12C27.7862 172.771 27.9675 173.523 27.9675 174.376ZM26.0635 173.8C26.0528 173.128 25.8128 172.589 25.3435 172.184C24.8742 171.779 24.2928 171.576 23.5995 171.576C22.9702 171.576 22.4315 171.779 21.9835 172.184C21.5355 172.579 21.2688 173.117 21.1835 173.8H26.0635ZM40.4345 170.04C41.1278 170.04 41.7465 170.184 42.2905 170.472C42.8452 170.76 43.2772 171.187 43.5865 171.752C43.9065 172.317 44.0665 173 44.0665 173.8V179H42.2585V174.072C42.2585 173.283 42.0612 172.68 41.6665 172.264C41.2718 171.837 40.7332 171.624 40.0505 171.624C39.3678 171.624 38.8238 171.837 38.4185 172.264C38.0238 172.68 37.8265 173.283 37.8265 174.072V179H36.0185V174.072C36.0185 173.283 35.8212 172.68 35.4265 172.264C35.0318 171.837 34.4932 171.624 33.8105 171.624C33.1278 171.624 32.5838 171.837 32.1785 172.264C31.7838 172.68 31.5865 173.283 31.5865 174.072V179H29.7625V170.184H31.5865V171.192C31.8852 170.829 32.2638 170.547 32.7225 170.344C33.1812 170.141 33.6718 170.04 34.1945 170.04C34.8985 170.04 35.5278 170.189 36.0825 170.488C36.6372 170.787 37.0638 171.219 37.3625 171.784C37.6292 171.251 38.0452 170.829 38.6105 170.52C39.1758 170.2 39.7838 170.04 40.4345 170.04ZM48.2115 171.48C48.5208 171.075 48.9422 170.733 49.4755 170.456C50.0088 170.179 50.6115 170.04 51.2835 170.04C52.0515 170.04 52.7502 170.232 53.3795 170.616C54.0195 170.989 54.5208 171.517 54.8835 172.2C55.2462 172.883 55.4275 173.667 55.4275 174.552C55.4275 175.437 55.2462 176.232 54.8835 176.936C54.5208 177.629 54.0195 178.173 53.3795 178.568C52.7502 178.952 52.0515 179.144 51.2835 179.144C50.6115 179.144 50.0142 179.011 49.4915 178.744C48.9688 178.467 48.5422 178.125 48.2115 177.72V183.192H46.3875V170.184H48.2115V171.48ZM53.5715 174.552C53.5715 173.944 53.4435 173.421 53.1875 172.984C52.9422 172.536 52.6115 172.2 52.1955 171.976C51.7902 171.741 51.3528 171.624 50.8835 171.624C50.4248 171.624 49.9875 171.741 49.5715 171.976C49.1662 172.211 48.8355 172.552 48.5795 173C48.3342 173.448 48.2115 173.976 48.2115 174.584C48.2115 175.192 48.3342 175.725 48.5795 176.184C48.8355 176.632 49.1662 176.973 49.5715 177.208C49.9875 177.443 50.4248 177.56 50.8835 177.56C51.3528 177.56 51.7902 177.443 52.1955 177.208C52.6115 176.963 52.9422 176.611 53.1875 176.152C53.4435 175.693 53.5715 175.16 53.5715 174.552ZM59.0553 171.464C59.3219 171.016 59.6739 170.669 60.1113 170.424C60.5593 170.168 61.0873 170.04 61.6953 170.04V171.928H61.2313C60.5166 171.928 59.9726 172.109 59.5993 172.472C59.2366 172.835 59.0553 173.464 59.0553 174.36V179H57.2313V170.184H59.0553V171.464ZM71.4519 174.376C71.4519 174.707 71.4305 175.005 71.3879 175.272H64.6519C64.7052 175.976 64.9665 176.541 65.4359 176.968C65.9052 177.395 66.4812 177.608 67.1639 177.608C68.1452 177.608 68.8385 177.197 69.2439 176.376H71.2119C70.9452 177.187 70.4599 177.853 69.7559 178.376C69.0625 178.888 68.1985 179.144 67.1639 179.144C66.3212 179.144 65.5639 178.957 64.8919 178.584C64.2305 178.2 63.7079 177.667 63.3239 176.984C62.9505 176.291 62.7639 175.491 62.7639 174.584C62.7639 173.677 62.9452 172.883 63.3079 172.2C63.6812 171.507 64.1985 170.973 64.8599 170.6C65.5319 170.227 66.2999 170.04 67.1639 170.04C67.9959 170.04 68.7372 170.221 69.3879 170.584C70.0385 170.947 70.5452 171.459 70.9079 172.12C71.2705 172.771 71.4519 173.523 71.4519 174.376ZM69.5479 173.8C69.5372 173.128 69.2972 172.589 68.8279 172.184C68.3585 171.779 67.7772 171.576 67.0839 171.576C66.4545 171.576 65.9159 171.779 65.4679 172.184C65.0199 172.579 64.7532 173.117 64.6679 173.8H69.5479ZM76.4469 179.144C75.7535 179.144 75.1295 179.021 74.5749 178.776C74.0309 178.52 73.5989 178.179 73.2789 177.752C72.9589 177.315 72.7882 176.829 72.7669 176.296H74.6549C74.6869 176.669 74.8629 176.984 75.1829 177.24C75.5135 177.485 75.9242 177.608 76.4149 177.608C76.9269 177.608 77.3215 177.512 77.5989 177.32C77.8869 177.117 78.0309 176.861 78.0309 176.552C78.0309 176.221 77.8709 175.976 77.5509 175.816C77.2415 175.656 76.7455 175.48 76.0629 175.288C75.4015 175.107 74.8629 174.931 74.4469 174.76C74.0309 174.589 73.6682 174.328 73.3589 173.976C73.0602 173.624 72.9109 173.16 72.9109 172.584C72.9109 172.115 73.0495 171.688 73.3269 171.304C73.6042 170.909 73.9989 170.6 74.5109 170.376C75.0335 170.152 75.6309 170.04 76.3029 170.04C77.3055 170.04 78.1109 170.296 78.7189 170.808C79.3375 171.309 79.6682 171.997 79.7109 172.872H77.8869C77.8549 172.477 77.6949 172.163 77.4069 171.928C77.1189 171.693 76.7295 171.576 76.2389 171.576C75.7589 171.576 75.3909 171.667 75.1349 171.848C74.8789 172.029 74.7509 172.269 74.7509 172.568C74.7509 172.803 74.8362 173 75.0069 173.16C75.1775 173.32 75.3855 173.448 75.6309 173.544C75.8762 173.629 76.2389 173.741 76.7189 173.88C77.3589 174.051 77.8815 174.227 78.2869 174.408C78.7029 174.579 79.0602 174.835 79.3589 175.176C79.6575 175.517 79.8122 175.971 79.8229 176.536C79.8229 177.037 79.6842 177.485 79.4069 177.88C79.1295 178.275 78.7349 178.584 78.2229 178.808C77.7215 179.032 77.1295 179.144 76.4469 179.144ZM81.1858 174.552C81.1858 173.667 81.3671 172.883 81.7298 172.2C82.1031 171.517 82.6044 170.989 83.2338 170.616C83.8738 170.232 84.5778 170.04 85.3458 170.04C86.0391 170.04 86.6418 170.179 87.1538 170.456C87.6764 170.723 88.0924 171.059 88.4018 171.464V170.184H90.2418V179H88.4018V177.688C88.0924 178.104 87.6711 178.451 87.1378 178.728C86.6044 179.005 85.9964 179.144 85.3138 179.144C84.5564 179.144 83.8631 178.952 83.2338 178.568C82.6044 178.173 82.1031 177.629 81.7298 176.936C81.3671 176.232 81.1858 175.437 81.1858 174.552ZM88.4018 174.584C88.4018 173.976 88.2738 173.448 88.0178 173C87.7724 172.552 87.4471 172.211 87.0418 171.976C86.6364 171.741 86.1991 171.624 85.7298 171.624C85.2604 171.624 84.8231 171.741 84.4178 171.976C84.0124 172.2 83.6818 172.536 83.4258 172.984C83.1804 173.421 83.0578 173.944 83.0578 174.552C83.0578 175.16 83.1804 175.693 83.4258 176.152C83.6818 176.611 84.0124 176.963 84.4178 177.208C84.8338 177.443 85.2711 177.56 85.7298 177.56C86.1991 177.56 86.6364 177.443 87.0418 177.208C87.4471 176.973 87.7724 176.632 88.0178 176.184C88.2738 175.725 88.4018 175.192 88.4018 174.584ZM96.1858 174.584C96.1858 173.677 96.3671 172.883 96.7298 172.2C97.1031 171.507 97.6151 170.973 98.2658 170.6C98.9164 170.227 99.6631 170.04 100.506 170.04C101.572 170.04 102.452 170.296 103.146 170.808C103.85 171.309 104.324 172.029 104.57 172.968H102.602C102.442 172.531 102.186 172.189 101.834 171.944C101.482 171.699 101.039 171.576 100.506 171.576C99.7591 171.576 99.1618 171.843 98.7138 172.376C98.2764 172.899 98.0578 173.635 98.0578 174.584C98.0578 175.533 98.2764 176.275 98.7138 176.808C99.1618 177.341 99.7591 177.608 100.506 177.608C101.562 177.608 102.26 177.144 102.602 176.216H104.57C104.314 177.112 103.834 177.827 103.13 178.36C102.426 178.883 101.551 179.144 100.506 179.144C99.6631 179.144 98.9164 178.957 98.2658 178.584C97.6151 178.2 97.1031 177.667 96.7298 176.984C96.3671 176.291 96.1858 175.491 96.1858 174.584ZM110.212 179.144C109.38 179.144 108.628 178.957 107.956 178.584C107.284 178.2 106.756 177.667 106.372 176.984C105.988 176.291 105.796 175.491 105.796 174.584C105.796 173.688 105.993 172.893 106.388 172.2C106.782 171.507 107.321 170.973 108.004 170.6C108.686 170.227 109.449 170.04 110.292 170.04C111.134 170.04 111.897 170.227 112.58 170.6C113.262 170.973 113.801 171.507 114.196 172.2C114.59 172.893 114.788 173.688 114.788 174.584C114.788 175.48 114.585 176.275 114.18 176.968C113.774 177.661 113.22 178.2 112.516 178.584C111.822 178.957 111.054 179.144 110.212 179.144ZM110.212 177.56C110.681 177.56 111.118 177.448 111.524 177.224C111.94 177 112.276 176.664 112.532 176.216C112.788 175.768 112.916 175.224 112.916 174.584C112.916 173.944 112.793 173.405 112.548 172.968C112.302 172.52 111.977 172.184 111.572 171.96C111.166 171.736 110.729 171.624 110.26 171.624C109.79 171.624 109.353 171.736 108.948 171.96C108.553 172.184 108.238 172.52 108.004 172.968C107.769 173.405 107.652 173.944 107.652 174.584C107.652 175.533 107.892 176.269 108.372 176.792C108.862 177.304 109.476 177.56 110.212 177.56ZM127.263 170.04C127.956 170.04 128.575 170.184 129.119 170.472C129.673 170.76 130.105 171.187 130.415 171.752C130.735 172.317 130.895 173 130.895 173.8V179H129.087V174.072C129.087 173.283 128.889 172.68 128.495 172.264C128.1 171.837 127.561 171.624 126.879 171.624C126.196 171.624 125.652 171.837 125.247 172.264C124.852 172.68 124.655 173.283 124.655 174.072V179H122.847V174.072C122.847 173.283 122.649 172.68 122.255 172.264C121.86 171.837 121.321 171.624 120.639 171.624C119.956 171.624 119.412 171.837 119.007 172.264C118.612 172.68 118.415 173.283 118.415 174.072V179H116.591V170.184H118.415V171.192C118.713 170.829 119.092 170.547 119.551 170.344C120.009 170.141 120.5 170.04 121.023 170.04C121.727 170.04 122.356 170.189 122.911 170.488C123.465 170.787 123.892 171.219 124.191 171.784C124.457 171.251 124.873 170.829 125.439 170.52C126.004 170.2 126.612 170.04 127.263 170.04ZM139.196 171.48C139.505 171.075 139.927 170.733 140.46 170.456C140.993 170.179 141.596 170.04 142.268 170.04C143.036 170.04 143.735 170.232 144.364 170.616C145.004 170.989 145.505 171.517 145.868 172.2C146.231 172.883 146.412 173.667 146.412 174.552C146.412 175.437 146.231 176.232 145.868 176.936C145.505 177.629 145.004 178.173 144.364 178.568C143.735 178.952 143.036 179.144 142.268 179.144C141.596 179.144 140.999 179.011 140.476 178.744C139.953 178.467 139.527 178.125 139.196 177.72V183.192H137.372V170.184H139.196V171.48ZM144.556 174.552C144.556 173.944 144.428 173.421 144.172 172.984C143.927 172.536 143.596 172.2 143.18 171.976C142.775 171.741 142.337 171.624 141.868 171.624C141.409 171.624 140.972 171.741 140.556 171.976C140.151 172.211 139.82 172.552 139.564 173C139.319 173.448 139.196 173.976 139.196 174.584C139.196 175.192 139.319 175.725 139.564 176.184C139.82 176.632 140.151 176.973 140.556 177.208C140.972 177.443 141.409 177.56 141.868 177.56C142.337 177.56 142.775 177.443 143.18 177.208C143.596 176.963 143.927 176.611 144.172 176.152C144.428 175.693 144.556 175.16 144.556 174.552ZM152.04 179.144C151.208 179.144 150.456 178.957 149.784 178.584C149.112 178.2 148.584 177.667 148.2 176.984C147.816 176.291 147.624 175.491 147.624 174.584C147.624 173.688 147.821 172.893 148.216 172.2C148.61 171.507 149.149 170.973 149.832 170.6C150.514 170.227 151.277 170.04 152.12 170.04C152.962 170.04 153.725 170.227 154.408 170.6C155.09 170.973 155.629 171.507 156.024 172.2C156.418 172.893 156.616 173.688 156.616 174.584C156.616 175.48 156.413 176.275 156.008 176.968C155.602 177.661 155.048 178.2 154.344 178.584C153.65 178.957 152.882 179.144 152.04 179.144ZM152.04 177.56C152.509 177.56 152.946 177.448 153.352 177.224C153.768 177 154.104 176.664 154.36 176.216C154.616 175.768 154.744 175.224 154.744 174.584C154.744 173.944 154.621 173.405 154.376 172.968C154.13 172.52 153.805 172.184 153.4 171.96C152.994 171.736 152.557 171.624 152.088 171.624C151.618 171.624 151.181 171.736 150.776 171.96C150.381 172.184 150.066 172.52 149.832 172.968C149.597 173.405 149.48 173.944 149.48 174.584C149.48 175.533 149.72 176.269 150.2 176.792C150.69 177.304 151.304 177.56 152.04 177.56ZM160.547 171.672V176.552C160.547 176.883 160.621 177.123 160.771 177.272C160.931 177.411 161.197 177.48 161.571 177.48H162.691V179H161.251C160.429 179 159.8 178.808 159.363 178.424C158.925 178.04 158.707 177.416 158.707 176.552V171.672H157.667V170.184H158.707V167.992H160.547V170.184H162.691V171.672H160.547ZM172.452 174.376C172.452 174.707 172.431 175.005 172.388 175.272H165.652C165.705 175.976 165.967 176.541 166.436 176.968C166.905 177.395 167.481 177.608 168.164 177.608C169.145 177.608 169.839 177.197 170.244 176.376H172.212C171.945 177.187 171.46 177.853 170.756 178.376C170.063 178.888 169.199 179.144 168.164 179.144C167.321 179.144 166.564 178.957 165.892 178.584C165.231 178.2 164.708 177.667 164.324 176.984C163.951 176.291 163.764 175.491 163.764 174.584C163.764 173.677 163.945 172.883 164.308 172.2C164.681 171.507 165.199 170.973 165.86 170.6C166.532 170.227 167.3 170.04 168.164 170.04C168.996 170.04 169.737 170.221 170.388 170.584C171.039 170.947 171.545 171.459 171.908 172.12C172.271 172.771 172.452 173.523 172.452 174.376ZM170.548 173.8C170.537 173.128 170.297 172.589 169.828 172.184C169.359 171.779 168.777 171.576 168.084 171.576C167.455 171.576 166.916 171.779 166.468 172.184C166.02 172.579 165.753 173.117 165.668 173.8H170.548ZM178.695 170.04C179.388 170.04 180.007 170.184 180.551 170.472C181.106 170.76 181.538 171.187 181.847 171.752C182.156 172.317 182.311 173 182.311 173.8V179H180.503V174.072C180.503 173.283 180.306 172.68 179.911 172.264C179.516 171.837 178.978 171.624 178.295 171.624C177.612 171.624 177.068 171.837 176.663 172.264C176.268 172.68 176.071 173.283 176.071 174.072V179H174.247V170.184H176.071V171.192C176.37 170.829 176.748 170.547 177.207 170.344C177.676 170.141 178.172 170.04 178.695 170.04ZM184.03 174.584C184.03 173.677 184.211 172.883 184.574 172.2C184.947 171.507 185.459 170.973 186.11 170.6C186.76 170.227 187.507 170.04 188.35 170.04C189.416 170.04 190.296 170.296 190.99 170.808C191.694 171.309 192.168 172.029 192.414 172.968H190.446C190.286 172.531 190.03 172.189 189.678 171.944C189.326 171.699 188.883 171.576 188.35 171.576C187.603 171.576 187.006 171.843 186.558 172.376C186.12 172.899 185.902 173.635 185.902 174.584C185.902 175.533 186.12 176.275 186.558 176.808C187.006 177.341 187.603 177.608 188.35 177.608C189.406 177.608 190.104 177.144 190.446 176.216H192.414C192.158 177.112 191.678 177.827 190.974 178.36C190.27 178.883 189.395 179.144 188.35 179.144C187.507 179.144 186.76 178.957 186.11 178.584C185.459 178.2 184.947 177.667 184.574 176.984C184.211 176.291 184.03 175.491 184.03 174.584ZM195.159 169.016C194.829 169.016 194.551 168.904 194.327 168.68C194.103 168.456 193.991 168.179 193.991 167.848C193.991 167.517 194.103 167.24 194.327 167.016C194.551 166.792 194.829 166.68 195.159 166.68C195.479 166.68 195.751 166.792 195.975 167.016C196.199 167.24 196.311 167.517 196.311 167.848C196.311 168.179 196.199 168.456 195.975 168.68C195.751 168.904 195.479 169.016 195.159 169.016ZM196.055 170.184V179H194.231V170.184H196.055ZM197.842 174.552C197.842 173.667 198.023 172.883 198.386 172.2C198.759 171.517 199.261 170.989 199.89 170.616C200.53 170.232 201.234 170.04 202.002 170.04C202.695 170.04 203.298 170.179 203.81 170.456C204.333 170.723 204.749 171.059 205.058 171.464V170.184H206.898V179H205.058V177.688C204.749 178.104 204.327 178.451 203.794 178.728C203.261 179.005 202.653 179.144 201.97 179.144C201.213 179.144 200.519 178.952 199.89 178.568C199.261 178.173 198.759 177.629 198.386 176.936C198.023 176.232 197.842 175.437 197.842 174.552ZM205.058 174.584C205.058 173.976 204.93 173.448 204.674 173C204.429 172.552 204.103 172.211 203.698 171.976C203.293 171.741 202.855 171.624 202.386 171.624C201.917 171.624 201.479 171.741 201.074 171.976C200.669 172.2 200.338 172.536 200.082 172.984C199.837 173.421 199.714 173.944 199.714 174.552C199.714 175.16 199.837 175.693 200.082 176.152C200.338 176.611 200.669 176.963 201.074 177.208C201.49 177.443 201.927 177.56 202.386 177.56C202.855 177.56 203.293 177.443 203.698 177.208C204.103 176.973 204.429 176.632 204.674 176.184C204.93 175.725 205.058 175.192 205.058 174.584ZM211.118 167.16V179H209.294V167.16H211.118ZM50.6514 193.016C50.3208 193.016 50.0434 192.904 49.8194 192.68C49.5954 192.456 49.4834 192.179 49.4834 191.848C49.4834 191.517 49.5954 191.24 49.8194 191.016C50.0434 190.792 50.3208 190.68 50.6514 190.68C50.9714 190.68 51.2434 190.792 51.4674 191.016C51.6914 191.24 51.8034 191.517 51.8034 191.848C51.8034 192.179 51.6914 192.456 51.4674 192.68C51.2434 192.904 50.9714 193.016 50.6514 193.016ZM51.5474 194.184V203H49.7234V194.184H51.5474ZM58.3902 194.04C59.0835 194.04 59.7022 194.184 60.2462 194.472C60.8009 194.76 61.2329 195.187 61.5422 195.752C61.8515 196.317 62.0062 197 62.0062 197.8V203H60.1982V198.072C60.1982 197.283 60.0009 196.68 59.6062 196.264C59.2115 195.837 58.6729 195.624 57.9902 195.624C57.3075 195.624 56.7635 195.837 56.3582 196.264C55.9635 196.68 55.7662 197.283 55.7662 198.072V203H53.9422V194.184H55.7662V195.192C56.0649 194.829 56.4435 194.547 56.9022 194.344C57.3715 194.141 57.8675 194.04 58.3902 194.04ZM68.1568 203.144C67.3248 203.144 66.5728 202.957 65.9008 202.584C65.2288 202.2 64.7008 201.667 64.3168 200.984C63.9328 200.291 63.7408 199.491 63.7408 198.584C63.7408 197.688 63.9381 196.893 64.3328 196.2C64.7275 195.507 65.2661 194.973 65.9488 194.6C66.6315 194.227 67.3941 194.04 68.2368 194.04C69.0795 194.04 69.8421 194.227 70.5248 194.6C71.2075 194.973 71.7461 195.507 72.1408 196.2C72.5355 196.893 72.7328 197.688 72.7328 198.584C72.7328 199.48 72.5301 200.275 72.1248 200.968C71.7195 201.661 71.1648 202.2 70.4608 202.584C69.7675 202.957 68.9995 203.144 68.1568 203.144ZM68.1568 201.56C68.6261 201.56 69.0635 201.448 69.4688 201.224C69.8848 201 70.2208 200.664 70.4768 200.216C70.7328 199.768 70.8608 199.224 70.8608 198.584C70.8608 197.944 70.7381 197.405 70.4928 196.968C70.2475 196.52 69.9221 196.184 69.5168 195.96C69.1115 195.736 68.6741 195.624 68.2048 195.624C67.7355 195.624 67.2981 195.736 66.8928 195.96C66.4981 196.184 66.1835 196.52 65.9488 196.968C65.7141 197.405 65.5968 197.944 65.5968 198.584C65.5968 199.533 65.8368 200.269 66.3168 200.792C66.8075 201.304 67.4208 201.56 68.1568 201.56ZM77.9439 201.368L80.4399 194.184H82.3759L79.0159 203H76.8399L73.4959 194.184H75.4479L77.9439 201.368ZM83.1467 198.552C83.1467 197.667 83.328 196.883 83.6907 196.2C84.064 195.517 84.5654 194.989 85.1947 194.616C85.8347 194.232 86.5387 194.04 87.3067 194.04C88 194.04 88.6027 194.179 89.1147 194.456C89.6374 194.723 90.0534 195.059 90.3627 195.464V194.184H92.2027V203H90.3627V201.688C90.0534 202.104 89.632 202.451 89.0987 202.728C88.5654 203.005 87.9574 203.144 87.2747 203.144C86.5174 203.144 85.824 202.952 85.1947 202.568C84.5654 202.173 84.064 201.629 83.6907 200.936C83.328 200.232 83.1467 199.437 83.1467 198.552ZM90.3627 198.584C90.3627 197.976 90.2347 197.448 89.9787 197C89.7334 196.552 89.408 196.211 89.0027 195.976C88.5974 195.741 88.16 195.624 87.6907 195.624C87.2214 195.624 86.784 195.741 86.3787 195.976C85.9734 196.2 85.6427 196.536 85.3867 196.984C85.1414 197.421 85.0187 197.944 85.0187 198.552C85.0187 199.16 85.1414 199.693 85.3867 200.152C85.6427 200.611 85.9734 200.963 86.3787 201.208C86.7947 201.443 87.232 201.56 87.6907 201.56C88.16 201.56 88.5974 201.443 89.0027 201.208C89.408 200.973 89.7334 200.632 89.9787 200.184C90.2347 199.725 90.3627 199.192 90.3627 198.584ZM93.9904 198.552C93.9904 197.667 94.1718 196.883 94.5344 196.2C94.9078 195.517 95.4091 194.989 96.0384 194.616C96.6784 194.232 97.3878 194.04 98.1664 194.04C98.7424 194.04 99.3078 194.168 99.8624 194.424C100.428 194.669 100.876 195 101.206 195.416V191.16H103.046V203H101.206V201.672C100.908 202.099 100.492 202.451 99.9584 202.728C99.4358 203.005 98.8331 203.144 98.1504 203.144C97.3824 203.144 96.6784 202.952 96.0384 202.568C95.4091 202.173 94.9078 201.629 94.5344 200.936C94.1718 200.232 93.9904 199.437 93.9904 198.552ZM101.206 198.584C101.206 197.976 101.078 197.448 100.822 197C100.577 196.552 100.252 196.211 99.8464 195.976C99.4411 195.741 99.0038 195.624 98.5344 195.624C98.0651 195.624 97.6278 195.741 97.2224 195.976C96.8171 196.2 96.4864 196.536 96.2304 196.984C95.9851 197.421 95.8624 197.944 95.8624 198.552C95.8624 199.16 95.9851 199.693 96.2304 200.152C96.4864 200.611 96.8171 200.963 97.2224 201.208C97.6384 201.443 98.0758 201.56 98.5344 201.56C99.0038 201.56 99.4411 201.443 99.8464 201.208C100.252 200.973 100.577 200.632 100.822 200.184C101.078 199.725 101.206 199.192 101.206 198.584ZM109.266 203.144C108.434 203.144 107.682 202.957 107.01 202.584C106.338 202.2 105.81 201.667 105.426 200.984C105.042 200.291 104.85 199.491 104.85 198.584C104.85 197.688 105.048 196.893 105.442 196.2C105.837 195.507 106.376 194.973 107.058 194.6C107.741 194.227 108.504 194.04 109.346 194.04C110.189 194.04 110.952 194.227 111.634 194.6C112.317 194.973 112.856 195.507 113.25 196.2C113.645 196.893 113.842 197.688 113.842 198.584C113.842 199.48 113.64 200.275 113.234 200.968C112.829 201.661 112.274 202.2 111.57 202.584C110.877 202.957 110.109 203.144 109.266 203.144ZM109.266 201.56C109.736 201.56 110.173 201.448 110.578 201.224C110.994 201 111.33 200.664 111.586 200.216C111.842 199.768 111.97 199.224 111.97 198.584C111.97 197.944 111.848 197.405 111.602 196.968C111.357 196.52 111.032 196.184 110.626 195.96C110.221 195.736 109.784 195.624 109.314 195.624C108.845 195.624 108.408 195.736 108.002 195.96C107.608 196.184 107.293 196.52 107.058 196.968C106.824 197.405 106.706 197.944 106.706 198.584C106.706 199.533 106.946 200.269 107.426 200.792C107.917 201.304 108.53 201.56 109.266 201.56ZM117.469 195.464C117.736 195.016 118.088 194.669 118.525 194.424C118.973 194.168 119.501 194.04 120.109 194.04V195.928H119.645C118.931 195.928 118.387 196.109 118.013 196.472C117.651 196.835 117.469 197.464 117.469 198.36V203H115.645V194.184H117.469V195.464ZM134.022 198.376C134.022 198.707 134.001 199.005 133.958 199.272H127.222C127.276 199.976 127.537 200.541 128.006 200.968C128.476 201.395 129.052 201.608 129.734 201.608C130.716 201.608 131.409 201.197 131.814 200.376H133.782C133.516 201.187 133.03 201.853 132.326 202.376C131.633 202.888 130.769 203.144 129.734 203.144C128.892 203.144 128.134 202.957 127.462 202.584C126.801 202.2 126.278 201.667 125.894 200.984C125.521 200.291 125.334 199.491 125.334 198.584C125.334 197.677 125.516 196.883 125.878 196.2C126.252 195.507 126.769 194.973 127.43 194.6C128.102 194.227 128.87 194.04 129.734 194.04C130.566 194.04 131.308 194.221 131.958 194.584C132.609 194.947 133.116 195.459 133.478 196.12C133.841 196.771 134.022 197.523 134.022 198.376ZM132.118 197.8C132.108 197.128 131.868 196.589 131.398 196.184C130.929 195.779 130.348 195.576 129.654 195.576C129.025 195.576 128.486 195.779 128.038 196.184C127.59 196.579 127.324 197.117 127.238 197.8H132.118ZM148.053 198.376C148.053 198.707 148.032 199.005 147.989 199.272H141.253C141.307 199.976 141.568 200.541 142.037 200.968C142.507 201.395 143.083 201.608 143.765 201.608C144.747 201.608 145.44 201.197 145.845 200.376H147.813C147.547 201.187 147.061 201.853 146.357 202.376C145.664 202.888 144.8 203.144 143.765 203.144C142.923 203.144 142.165 202.957 141.493 202.584C140.832 202.2 140.309 201.667 139.925 200.984C139.552 200.291 139.365 199.491 139.365 198.584C139.365 197.677 139.547 196.883 139.909 196.2C140.283 195.507 140.8 194.973 141.461 194.6C142.133 194.227 142.901 194.04 143.765 194.04C144.597 194.04 145.339 194.221 145.989 194.584C146.64 194.947 147.147 195.459 147.509 196.12C147.872 196.771 148.053 197.523 148.053 198.376ZM146.149 197.8C146.139 197.128 145.899 196.589 145.429 196.184C144.96 195.779 144.379 195.576 143.685 195.576C143.056 195.576 142.517 195.779 142.069 196.184C141.621 196.579 141.355 197.117 141.269 197.8H146.149ZM145.365 191.816L141.829 193.56V192.216L145.365 190.264V191.816ZM151.976 195.672V200.552C151.976 200.883 152.051 201.123 152.2 201.272C152.36 201.411 152.627 201.48 153 201.48H154.12V203H152.68C151.859 203 151.23 202.808 150.792 202.424C150.355 202.04 150.136 201.416 150.136 200.552V195.672H149.096V194.184H150.136V191.992H151.976V194.184H154.12V195.672H151.976ZM156.73 193.016C156.399 193.016 156.122 192.904 155.898 192.68C155.674 192.456 155.562 192.179 155.562 191.848C155.562 191.517 155.674 191.24 155.898 191.016C156.122 190.792 156.399 190.68 156.73 190.68C157.05 190.68 157.322 190.792 157.546 191.016C157.77 191.24 157.882 191.517 157.882 191.848C157.882 192.179 157.77 192.456 157.546 192.68C157.322 192.904 157.05 193.016 156.73 193.016ZM157.626 194.184V203H155.802V194.184H157.626ZM159.412 198.584C159.412 197.677 159.594 196.883 159.956 196.2C160.33 195.507 160.842 194.973 161.492 194.6C162.143 194.227 162.89 194.04 163.732 194.04C164.799 194.04 165.679 194.296 166.372 194.808C167.076 195.309 167.551 196.029 167.796 196.968H165.828C165.668 196.531 165.412 196.189 165.06 195.944C164.708 195.699 164.266 195.576 163.732 195.576C162.986 195.576 162.388 195.843 161.94 196.376C161.503 196.899 161.284 197.635 161.284 198.584C161.284 199.533 161.503 200.275 161.94 200.808C162.388 201.341 162.986 201.608 163.732 201.608C164.788 201.608 165.487 201.144 165.828 200.216H167.796C167.54 201.112 167.06 201.827 166.356 202.36C165.652 202.883 164.778 203.144 163.732 203.144C162.89 203.144 162.143 202.957 161.492 202.584C160.842 202.2 160.33 201.667 159.956 200.984C159.594 200.291 159.412 199.491 159.412 198.584ZM173.438 203.144C172.606 203.144 171.854 202.957 171.182 202.584C170.51 202.2 169.982 201.667 169.598 200.984C169.214 200.291 169.022 199.491 169.022 198.584C169.022 197.688 169.219 196.893 169.614 196.2C170.009 195.507 170.547 194.973 171.23 194.6C171.913 194.227 172.675 194.04 173.518 194.04C174.361 194.04 175.123 194.227 175.806 194.6C176.489 194.973 177.027 195.507 177.422 196.2C177.817 196.893 178.014 197.688 178.014 198.584C178.014 199.48 177.811 200.275 177.406 200.968C177.001 201.661 176.446 202.2 175.742 202.584C175.049 202.957 174.281 203.144 173.438 203.144ZM173.438 201.56C173.907 201.56 174.345 201.448 174.75 201.224C175.166 201 175.502 200.664 175.758 200.216C176.014 199.768 176.142 199.224 176.142 198.584C176.142 197.944 176.019 197.405 175.774 196.968C175.529 196.52 175.203 196.184 174.798 195.96C174.393 195.736 173.955 195.624 173.486 195.624C173.017 195.624 172.579 195.736 172.174 195.96C171.779 196.184 171.465 196.52 171.23 196.968C170.995 197.405 170.878 197.944 170.878 198.584C170.878 199.533 171.118 200.269 171.598 200.792C172.089 201.304 172.702 201.56 173.438 201.56ZM180.553 203.112C180.223 203.112 179.945 203 179.721 202.776C179.497 202.552 179.385 202.275 179.385 201.944C179.385 201.613 179.497 201.336 179.721 201.112C179.945 200.888 180.223 200.776 180.553 200.776C180.873 200.776 181.145 200.888 181.369 201.112C181.593 201.336 181.705 201.613 181.705 201.944C181.705 202.275 181.593 202.552 181.369 202.776C181.145 203 180.873 203.112 180.553 203.112Z" fill="#EBEBEB"/>
<path d="M98.0228 64.152L92.0468 81H86.9108L80.9348 64.152H85.3028L89.4788 76.872L93.6788 64.152H98.0228ZM101.802 66.216C101.082 66.216 100.49 66.008 100.026 65.592C99.578 65.16 99.354 64.632 99.354 64.008C99.354 63.368 99.578 62.84 100.026 62.424C100.49 61.992 101.082 61.776 101.802 61.776C102.506 61.776 103.082 61.992 103.53 62.424C103.994 62.84 104.226 63.368 104.226 64.008C104.226 64.632 103.994 65.16 103.53 65.592C103.082 66.008 102.506 66.216 101.802 66.216ZM103.842 67.608V81H99.738V67.608H103.842ZM112.264 81.192C111.096 81.192 110.056 80.992 109.144 80.592C108.232 80.192 107.512 79.648 106.984 78.96C106.456 78.256 106.16 77.472 106.096 76.608H110.152C110.2 77.072 110.416 77.448 110.8 77.736C111.184 78.024 111.656 78.168 112.216 78.168C112.728 78.168 113.12 78.072 113.392 77.88C113.68 77.672 113.824 77.408 113.824 77.088C113.824 76.704 113.624 76.424 113.224 76.248C112.824 76.056 112.176 75.848 111.28 75.624C110.32 75.4 109.52 75.168 108.88 74.928C108.24 74.672 107.688 74.28 107.224 73.752C106.76 73.208 106.528 72.48 106.528 71.568C106.528 70.8 106.736 70.104 107.152 69.48C107.584 68.84 108.208 68.336 109.024 67.968C109.856 67.6 110.84 67.416 111.976 67.416C113.656 67.416 114.976 67.832 115.936 68.664C116.912 69.496 117.472 70.6 117.616 71.976H113.824C113.76 71.512 113.552 71.144 113.2 70.872C112.864 70.6 112.416 70.464 111.856 70.464C111.376 70.464 111.008 70.56 110.752 70.752C110.496 70.928 110.368 71.176 110.368 71.496C110.368 71.88 110.568 72.168 110.968 72.36C111.384 72.552 112.024 72.744 112.888 72.936C113.88 73.192 114.688 73.448 115.312 73.704C115.936 73.944 116.48 74.344 116.944 74.904C117.424 75.448 117.672 76.184 117.688 77.112C117.688 77.896 117.464 78.6 117.016 79.224C116.584 79.832 115.952 80.312 115.12 80.664C114.304 81.016 113.352 81.192 112.264 81.192ZM119.383 74.28C119.383 72.904 119.639 71.696 120.151 70.656C120.679 69.616 121.391 68.816 122.287 68.256C123.183 67.696 124.183 67.416 125.287 67.416C126.231 67.416 127.055 67.608 127.759 67.992C128.479 68.376 129.031 68.88 129.415 69.504V67.608H133.519V81H129.415V79.104C129.015 79.728 128.455 80.232 127.735 80.616C127.031 81 126.207 81.192 125.263 81.192C124.175 81.192 123.183 80.912 122.287 80.352C121.391 79.776 120.679 78.968 120.151 77.928C119.639 76.872 119.383 75.656 119.383 74.28ZM129.415 74.304C129.415 73.28 129.127 72.472 128.551 71.88C127.991 71.288 127.303 70.992 126.487 70.992C125.671 70.992 124.975 71.288 124.399 71.88C123.839 72.456 123.559 73.256 123.559 74.28C123.559 75.304 123.839 76.12 124.399 76.728C124.975 77.32 125.671 77.616 126.487 77.616C127.303 77.616 127.991 77.32 128.551 76.728C129.127 76.136 129.415 75.328 129.415 74.304ZM122.143 66.48C122.527 64.112 123.631 62.928 125.455 62.928C125.807 62.928 126.111 62.984 126.367 63.096C126.639 63.192 126.967 63.344 127.351 63.552C127.639 63.712 127.871 63.832 128.047 63.912C128.223 63.976 128.407 64.008 128.599 64.008C129.191 64.008 129.535 63.648 129.631 62.928H131.743C131.359 65.296 130.255 66.48 128.431 66.48C128.079 66.48 127.767 66.432 127.495 66.336C127.239 66.224 126.919 66.064 126.535 65.856C126.247 65.696 126.015 65.584 125.839 65.52C125.663 65.44 125.479 65.4 125.287 65.4C124.695 65.4 124.343 65.76 124.231 66.48H122.143ZM142.584 81.192C141.272 81.192 140.088 80.912 139.032 80.352C137.992 79.792 137.168 78.992 136.56 77.952C135.968 76.912 135.672 75.696 135.672 74.304C135.672 72.928 135.976 71.72 136.584 70.68C137.192 69.624 138.024 68.816 139.08 68.256C140.136 67.696 141.32 67.416 142.632 67.416C143.944 67.416 145.128 67.696 146.184 68.256C147.24 68.816 148.072 69.624 148.68 70.68C149.288 71.72 149.592 72.928 149.592 74.304C149.592 75.68 149.28 76.896 148.656 77.952C148.048 78.992 147.208 79.792 146.136 80.352C145.08 80.912 143.896 81.192 142.584 81.192ZM142.584 77.64C143.368 77.64 144.032 77.352 144.576 76.776C145.136 76.2 145.416 75.376 145.416 74.304C145.416 73.232 145.144 72.408 144.6 71.832C144.072 71.256 143.416 70.968 142.632 70.968C141.832 70.968 141.168 71.256 140.64 71.832C140.112 72.392 139.848 73.216 139.848 74.304C139.848 75.376 140.104 76.2 140.616 76.776C141.144 77.352 141.8 77.64 142.584 77.64Z" fill="#EBEBEB"/>
<g clip-path="url(#clip0_1400_1626)">
<path fill-rule="evenodd" clip-rule="evenodd" d="M111.006 269.52C108.561 270.094 105.082 271.912 102.222 274.111C99.4724 276.224 94.9965 281.413 95.0069 282.475C95.0181 283.641 99.2989 289.065 101.713 290.973C109.973 297.502 120.459 297.506 128.71 290.984C132.156 288.259 137.447 280.691 135.505 281.264C135.295 281.326 134.091 280.144 132.828 278.638C126.532 271.127 118.484 267.764 111.006 269.52ZM111.399 273.917C105.095 276.835 103.879 284.998 109.07 289.555C112.835 292.861 118.208 292.658 121.792 289.074C125.376 285.489 125.58 280.117 122.274 276.352C119.527 273.223 115.058 272.222 111.399 273.917ZM112.488 279.769C111.592 280.666 111.175 281.533 111.175 282.5C111.175 284.433 113.285 286.543 115.218 286.543C117.151 286.543 119.262 284.433 119.262 282.5C119.262 280.567 117.151 278.456 115.218 278.456C114.251 278.456 113.384 278.873 112.488 279.769ZM95.0711 282.5C95.0711 283.118 95.1731 283.371 95.2975 283.061C95.4224 282.753 95.4224 282.247 95.2975 281.938C95.1731 281.63 95.0711 281.882 95.0711 282.5Z" fill="#EBEBEB"/>
</g>
</g>
<defs>
<filter id="filter0_d_1400_1626" x="0" y="0" width="241" height="357" filterUnits="userSpaceOnUse" color-interpolation-filters="sRGB">
<feFlood flood-opacity="0" result="BackgroundImageFix"/>
<feColorMatrix in="SourceAlpha" type="matrix" values="0 0 0 0 0 0 0 0 0 0 0 0 0 0 0 0 0 0 127 0" result="hardAlpha"/>
<feOffset dx="5" dy="7"/>
<feGaussianBlur stdDeviation="4"/>
<feComposite in2="hardAlpha" operator="out"/>
<feColorMatrix type="matrix" values="0 0 0 0 0 0 0 0 0 0 0 0 0 0 0 0 0 0 0.1 0"/>
<feBlend mode="normal" in2="BackgroundImageFix" result="effect1_dropShadow_1400_1626"/>
<feBlend mode="normal" in="SourceGraphic" in2="effect1_dropShadow_1400_1626" result="shape"/>
</filter>
<clipPath id="clip0_1400_1626">
<rect width="40.4362" height="40.4362" fill="white" transform="translate(95 262.282)"/>
</clipPath>
</defs>
</svg>
