<svg width="26" height="25" viewBox="0 0 36 35" fill="none" xmlns="http://www.w3.org/2000/svg">
<path d="M15.9375 0.124513C7.66245 1.02397 1.00646 7.67996 0.107003 15.7751C-0.792456 24.23 4.06462 31.7854 11.4402 34.6637C11.9799 34.8436 12.5195 34.4838 12.5195 33.7643V30.886C12.5195 30.886 11.8 31.0659 10.9005 31.0659C8.38202 31.0659 7.30267 28.9072 7.12278 27.6479C6.94289 26.9284 6.5831 26.3887 6.04343 25.849C5.50375 25.6691 5.32386 25.6691 5.32386 25.4892C5.32386 25.1295 5.86354 25.1295 6.04343 25.1295C7.12278 25.1295 8.02224 26.3887 8.38202 26.9284C9.28148 28.3675 10.3608 28.7273 10.9005 28.7273C11.6201 28.7273 12.1597 28.5474 12.5195 28.3675C12.6994 27.1083 13.2391 25.849 14.3184 25.1295C10.1809 24.23 7.12278 21.8914 7.12278 17.9338C7.12278 15.955 8.02224 13.9762 9.28148 12.537C9.10159 12.1773 8.92169 11.2778 8.92169 10.0186C8.92169 9.29899 8.9217 8.21964 9.46137 7.14029C9.46137 7.14029 11.9799 7.14029 14.4983 9.47888C15.3978 9.1191 16.657 8.9392 17.9163 8.9392C19.1755 8.9392 20.4348 9.1191 21.5141 9.47888C23.8527 7.14029 26.5511 7.14029 26.5511 7.14029C26.9109 8.21964 26.9109 9.29899 26.9109 10.0186C26.9109 11.4577 26.731 12.1773 26.5511 12.537C27.8103 13.9762 28.7098 15.7751 28.7098 17.9338C28.7098 21.8914 25.6516 24.23 21.5141 25.1295C22.5935 26.0289 23.313 27.6479 23.313 29.267V33.9441C23.313 34.4838 23.8527 35.0235 24.5723 34.8436C31.2283 32.1452 35.9054 25.6691 35.9054 18.1137C35.9054 7.32018 26.731 -1.13473 15.9375 0.124513Z" fill="#EBEBEB"/>
</svg>
