<svg width="70" height="70" viewBox="0 0 41 41" fill="none" xmlns="http://www.w3.org/2000/svg">
<path fill-rule="evenodd" clip-rule="evenodd" d="M9.19205 6.51789C4.15999 8.80344 2.80627 14.1576 5.65478 20.5057C7.62807 24.9024 8.08724 24.8638 8.08724 20.3004V16.3965L9.32279 16.5389C10.5112 16.6755 10.5637 16.7909 10.694 19.5694L10.8302 22.4578L15.24 18.0647C18.2781 15.0378 19.9108 13.7218 20.4904 13.8337C22.2233 14.1671 21.7107 15.6124 18.8267 18.5221C17.2721 20.0905 16.1466 21.5202 16.3254 21.699C16.5043 21.8783 18.2358 20.4486 20.1736 18.5225C23.7379 14.9789 25.1832 14.3481 25.5364 16.1826C25.6455 16.7492 24.5619 18.164 22.1954 20.5443C20.2693 22.4821 18.8397 24.2137 19.0189 24.3925C19.1978 24.5713 20.6274 23.4458 22.1959 21.8913C25.1037 19.0095 26.5509 18.4946 26.8838 20.224C26.9903 20.7766 26.0836 22.0315 24.2181 23.9136C21.3584 26.7989 20.7429 28.6486 23.5469 25.9309C25.1765 24.3512 26.6142 24.2168 26.8842 25.6191C26.9952 26.1955 25.7368 27.7743 22.8734 30.6498C19.4678 34.0693 18.8451 34.8956 19.488 35.1422C20.6517 35.5888 21.9802 34.8255 25.7354 31.5502C35.5605 22.9813 38.8331 14.2035 34.2382 8.74278C31.0752 4.98356 25.7107 4.71578 21.6783 8.11602L20.2181 9.34753L18.7579 8.11602C15.745 5.57528 12.4705 5.02849 9.19205 6.51789Z" fill="#FFF"/>
</svg>