<svg width="25" height="25" viewBox="0 0 35 35" fill="none" xmlns="http://www.w3.org/2000/svg">
<path d="M17.2735 8.41418C12.3729 8.41418 8.42001 12.3679 8.42001 17.2696C8.42001 22.1713 12.3729 26.125 17.2735 26.125C22.174 26.125 26.1269 22.1713 26.1269 17.2696C26.1269 12.3679 22.174 8.41418 17.2735 8.41418ZM17.2735 23.0268C14.1066 23.0268 11.5176 20.4449 11.5176 17.2696C11.5176 14.0943 14.0989 11.5124 17.2735 11.5124C20.4481 11.5124 23.0293 14.0943 23.0293 17.2696C23.0293 20.4449 20.4403 23.0268 17.2735 23.0268ZM28.5541 8.05195C28.5541 9.20031 27.6294 10.1174 26.489 10.1174C25.3409 10.1174 24.424 9.1926 24.424 8.05195C24.424 6.91131 25.3487 5.98646 26.489 5.98646C27.6294 5.98646 28.5541 6.91131 28.5541 8.05195ZM34.4178 10.1483C34.2868 7.38144 33.655 4.93059 31.6285 2.91134C29.6097 0.892092 27.1594 0.260113 24.3932 0.121386C21.5422 -0.0404621 12.997 -0.0404621 10.146 0.121386C7.3875 0.252406 4.9372 0.884385 2.91069 2.90364C0.884188 4.92289 0.260055 7.37373 0.121359 10.1406C-0.040453 12.9922 -0.040453 21.5393 0.121359 24.3909C0.25235 27.1578 0.884188 29.6086 2.91069 31.6279C4.9372 33.6471 7.37979 34.2791 10.146 34.4178C12.997 34.5797 21.5422 34.5797 24.3932 34.4178C27.1594 34.2868 29.6097 33.6548 31.6285 31.6279C33.6473 29.6086 34.2791 27.1578 34.4178 24.3909C34.5797 21.5393 34.5797 12.9999 34.4178 10.1483ZM30.7347 27.4506C30.1337 28.9612 28.9702 30.125 27.4522 30.7338C25.1791 31.6356 19.7854 31.4275 17.2735 31.4275C14.7615 31.4275 9.36006 31.6279 7.09469 30.7338C5.58445 30.1327 4.42094 28.9689 3.81222 27.4506C2.91069 25.177 3.11874 19.7821 3.11874 17.2696C3.11874 14.7571 2.9184 9.35445 3.81222 7.08857C4.41324 5.57799 5.57674 4.41422 7.09469 3.80536C9.36777 2.90364 14.7615 3.11173 17.2735 3.11173C19.7854 3.11173 25.1868 2.91134 27.4522 3.80536C28.9625 4.40651 30.126 5.57028 30.7347 7.08857C31.6362 9.36215 31.4282 14.7571 31.4282 17.2696C31.4282 19.7821 31.6362 25.1848 30.7347 27.4506Z" fill="#EBEBEB"/>
</svg>
