<svg width="25" height="25" viewBox="0 0 35 35" fill="none" xmlns="http://www.w3.org/2000/svg">
<path d="M7.73123 34.5392H0.570514V11.4791H7.73123V34.5392ZM4.14702 8.33354C1.85725 8.33354 0 6.43692 0 4.14711C1.63891e-08 3.04723 0.436917 1.99239 1.21463 1.21466C1.99235 0.436926 3.04716 0 4.14702 0C5.24687 0 6.30168 0.436926 7.0794 1.21466C7.85712 1.99239 8.29403 3.04723 8.29403 4.14711C8.29403 6.43692 6.43601 8.33354 4.14702 8.33354ZM34.5315 34.5392H27.3862V23.3137C27.3862 20.6384 27.3322 17.2075 23.6632 17.2075C19.9402 17.2075 19.3697 20.1141 19.3697 23.121V34.5392H12.2167V11.4791H19.0844V14.6247H19.1847C20.1407 12.8129 22.4759 10.9009 25.9599 10.9009C33.207 10.9009 34.5392 15.6733 34.5392 21.872V34.5392H34.5315Z" fill="#EBEBEB"/>
</svg>
