<svg width="242" height="356" viewBox="0 0 242 356" fill="none" xmlns="http://www.w3.org/2000/svg">
<g filter="url(#filter0_d_1379_1421)">
<rect x="3" y="1" width="227.039" height="341" rx="26.5026" fill="#00202A"/>
<path d="M77.8031 135.176V136.491H75.1882V145H73.5768V136.491H70.9478V135.176H77.8031ZM81.0464 138.343C81.282 137.947 81.5929 137.641 81.9793 137.424C82.375 137.198 82.8415 137.085 83.3786 137.085V138.752H82.9687C82.3373 138.752 81.8568 138.913 81.527 139.233C81.2066 139.553 81.0464 140.109 81.0464 140.901V145H79.435V137.212H81.0464V138.343ZM84.3227 141.071C84.3227 140.288 84.4828 139.596 84.8032 138.993C85.133 138.39 85.5759 137.923 86.1319 137.593C86.6973 137.254 87.3192 137.085 87.9977 137.085C88.6102 137.085 89.1426 137.207 89.5949 137.452C90.0566 137.688 90.4241 137.984 90.6974 138.343V137.212H92.3229V145H90.6974V143.841C90.4241 144.208 90.0519 144.515 89.5808 144.76C89.1096 145.005 88.5725 145.127 87.9694 145.127C87.3004 145.127 86.6879 144.958 86.1319 144.618C85.5759 144.27 85.133 143.789 84.8032 143.177C84.4828 142.555 84.3227 141.853 84.3227 141.071ZM90.6974 141.099C90.6974 140.562 90.5843 140.095 90.3582 139.699C90.1414 139.304 89.854 139.002 89.496 138.795C89.1379 138.588 88.7515 138.484 88.3369 138.484C87.9223 138.484 87.5359 138.588 87.1779 138.795C86.8198 138.993 86.5277 139.29 86.3015 139.685C86.0848 140.072 85.9764 140.533 85.9764 141.071C85.9764 141.608 86.0848 142.079 86.3015 142.484C86.5277 142.889 86.8198 143.2 87.1779 143.417C87.5454 143.624 87.9317 143.728 88.3369 143.728C88.7515 143.728 89.1379 143.624 89.496 143.417C89.854 143.21 90.1414 142.908 90.3582 142.512C90.5843 142.107 90.6974 141.636 90.6974 141.099ZM98.3688 137.085C98.9813 137.085 99.5278 137.212 100.008 137.466C100.498 137.721 100.88 138.098 101.153 138.597C101.427 139.096 101.563 139.699 101.563 140.406V145H99.966V140.647C99.966 139.949 99.7917 139.417 99.443 139.049C99.0944 138.672 98.6185 138.484 98.0154 138.484C97.4123 138.484 96.9318 138.672 96.5737 139.049C96.225 139.417 96.0507 139.949 96.0507 140.647V145H94.4393V137.212H96.0507V138.102C96.3146 137.782 96.6491 137.532 97.0543 137.353C97.4689 137.174 97.9071 137.085 98.3688 137.085ZM106.446 145.127C105.833 145.127 105.282 145.019 104.792 144.802C104.311 144.576 103.93 144.274 103.647 143.897C103.364 143.511 103.213 143.082 103.195 142.611H104.862C104.891 142.941 105.046 143.219 105.329 143.445C105.621 143.662 105.984 143.77 106.417 143.77C106.87 143.77 107.218 143.685 107.463 143.516C107.718 143.337 107.845 143.111 107.845 142.837C107.845 142.545 107.704 142.329 107.421 142.187C107.148 142.046 106.709 141.89 106.106 141.721C105.522 141.561 105.046 141.405 104.679 141.254C104.311 141.104 103.991 140.873 103.718 140.562C103.454 140.251 103.322 139.841 103.322 139.332C103.322 138.917 103.444 138.54 103.689 138.201C103.934 137.853 104.283 137.579 104.735 137.381C105.197 137.184 105.725 137.085 106.318 137.085C107.204 137.085 107.916 137.311 108.453 137.763C108.999 138.206 109.291 138.814 109.329 139.586H107.718C107.689 139.238 107.548 138.96 107.294 138.752C107.039 138.545 106.695 138.441 106.262 138.441C105.838 138.441 105.513 138.522 105.287 138.682C105.06 138.842 104.947 139.054 104.947 139.318C104.947 139.525 105.023 139.699 105.173 139.841C105.324 139.982 105.508 140.095 105.725 140.18C105.941 140.255 106.262 140.354 106.686 140.477C107.251 140.628 107.713 140.783 108.071 140.943C108.439 141.094 108.754 141.32 109.018 141.622C109.282 141.923 109.419 142.324 109.428 142.823C109.428 143.266 109.306 143.662 109.061 144.011C108.816 144.359 108.467 144.632 108.015 144.83C107.572 145.028 107.049 145.127 106.446 145.127ZM114.434 138.526H112.992V145H111.367V138.526H110.448V137.212H111.367V136.661C111.367 135.765 111.603 135.115 112.074 134.71C112.554 134.295 113.303 134.088 114.321 134.088V135.431C113.831 135.431 113.487 135.525 113.289 135.713C113.091 135.893 112.992 136.208 112.992 136.661V137.212H114.434V138.526ZM119.24 145.127C118.505 145.127 117.841 144.962 117.247 144.632C116.654 144.293 116.187 143.822 115.848 143.219C115.509 142.607 115.339 141.9 115.339 141.099C115.339 140.307 115.514 139.605 115.862 138.993C116.211 138.38 116.687 137.909 117.29 137.579C117.893 137.249 118.567 137.085 119.311 137.085C120.056 137.085 120.729 137.249 121.332 137.579C121.935 137.909 122.411 138.38 122.76 138.993C123.109 139.605 123.283 140.307 123.283 141.099C123.283 141.89 123.104 142.592 122.746 143.205C122.388 143.817 121.898 144.293 121.276 144.632C120.663 144.962 119.985 145.127 119.24 145.127ZM119.24 143.728C119.655 143.728 120.041 143.629 120.4 143.431C120.767 143.233 121.064 142.936 121.29 142.541C121.516 142.145 121.629 141.664 121.629 141.099C121.629 140.533 121.521 140.058 121.304 139.671C121.087 139.275 120.8 138.979 120.442 138.781C120.084 138.583 119.697 138.484 119.283 138.484C118.868 138.484 118.482 138.583 118.124 138.781C117.775 138.979 117.497 139.275 117.29 139.671C117.083 140.058 116.979 140.533 116.979 141.099C116.979 141.937 117.191 142.588 117.615 143.049C118.048 143.502 118.59 143.728 119.24 143.728ZM126.487 138.343C126.723 137.947 127.034 137.641 127.42 137.424C127.816 137.198 128.282 137.085 128.82 137.085V138.752H128.41C127.778 138.752 127.298 138.913 126.968 139.233C126.647 139.553 126.487 140.109 126.487 140.901V145H124.876V137.212H126.487V138.343ZM139.729 137.085C140.341 137.085 140.888 137.212 141.368 137.466C141.858 137.721 142.24 138.098 142.513 138.597C142.796 139.096 142.937 139.699 142.937 140.406V145H141.34V140.647C141.34 139.949 141.166 139.417 140.817 139.049C140.468 138.672 139.992 138.484 139.389 138.484C138.786 138.484 138.306 138.672 137.948 139.049C137.599 139.417 137.425 139.949 137.425 140.647V145H135.827V140.647C135.827 139.949 135.653 139.417 135.304 139.049C134.956 138.672 134.48 138.484 133.877 138.484C133.274 138.484 132.793 138.672 132.435 139.049C132.086 139.417 131.912 139.949 131.912 140.647V145H130.301V137.212H131.912V138.102C132.176 137.782 132.51 137.532 132.916 137.353C133.321 137.174 133.754 137.085 134.216 137.085C134.838 137.085 135.394 137.216 135.884 137.48C136.374 137.744 136.751 138.126 137.015 138.625C137.25 138.154 137.618 137.782 138.117 137.509C138.617 137.226 139.154 137.085 139.729 137.085ZM144.45 141.071C144.45 140.288 144.611 139.596 144.931 138.993C145.261 138.39 145.704 137.923 146.26 137.593C146.825 137.254 147.447 137.085 148.125 137.085C148.738 137.085 149.27 137.207 149.723 137.452C150.184 137.688 150.552 137.984 150.825 138.343V137.212H152.451V145H150.825V143.841C150.552 144.208 150.18 144.515 149.709 144.76C149.237 145.005 148.7 145.127 148.097 145.127C147.428 145.127 146.816 144.958 146.26 144.618C145.704 144.27 145.261 143.789 144.931 143.177C144.611 142.555 144.45 141.853 144.45 141.071ZM150.825 141.099C150.825 140.562 150.712 140.095 150.486 139.699C150.269 139.304 149.982 139.002 149.624 138.795C149.266 138.588 148.879 138.484 148.465 138.484C148.05 138.484 147.664 138.588 147.306 138.795C146.948 138.993 146.655 139.29 146.429 139.685C146.213 140.072 146.104 140.533 146.104 141.071C146.104 141.608 146.213 142.079 146.429 142.484C146.655 142.889 146.948 143.2 147.306 143.417C147.673 143.624 148.059 143.728 148.465 143.728C148.879 143.728 149.266 143.624 149.624 143.417C149.982 143.21 150.269 142.908 150.486 142.512C150.712 142.107 150.825 141.636 150.825 141.099ZM156.178 138.343C156.414 137.947 156.725 137.641 157.111 137.424C157.507 137.198 157.974 137.085 158.511 137.085V138.752H158.101C157.469 138.752 156.989 138.913 156.659 139.233C156.339 139.553 156.178 140.109 156.178 140.901V145H154.567V137.212H156.178V138.343ZM32.831 166.127C32.096 166.127 31.4317 165.962 30.838 165.632C30.2443 165.293 29.7779 164.822 29.4387 164.219C29.0994 163.607 28.9298 162.9 28.9298 162.099C28.9298 161.307 29.1041 160.605 29.4528 159.993C29.8015 159.38 30.2773 158.909 30.8804 158.579C31.4835 158.249 32.1572 158.085 32.9017 158.085C33.6461 158.085 34.3199 158.249 34.9229 158.579C35.526 158.909 36.0019 159.38 36.3505 159.993C36.6992 160.605 36.8735 161.307 36.8735 162.099C36.8735 162.89 36.6945 163.592 36.3364 164.205C35.9783 164.817 35.4883 165.293 34.8664 165.632C34.2539 165.962 33.5754 166.127 32.831 166.127ZM32.831 164.728C33.2456 164.728 33.632 164.629 33.99 164.431C34.3575 164.233 34.6544 163.936 34.8805 163.541C35.1067 163.145 35.2198 162.664 35.2198 162.099C35.2198 161.533 35.1114 161.058 34.8947 160.671C34.6779 160.275 34.3905 159.979 34.0324 159.781C33.6744 159.583 33.288 159.484 32.8734 159.484C32.4588 159.484 32.0724 159.583 31.7144 159.781C31.3657 159.979 31.0877 160.275 30.8804 160.671C30.6731 161.058 30.5694 161.533 30.5694 162.099C30.5694 162.937 30.7815 163.588 31.2055 164.049C31.639 164.502 32.1808 164.728 32.831 164.728ZM41.601 162.071C41.601 161.288 41.7612 160.596 42.0816 159.993C42.4114 159.39 42.8543 158.923 43.4103 158.593C43.9757 158.254 44.5976 158.085 45.2761 158.085C45.8886 158.085 46.421 158.207 46.8733 158.452C47.335 158.688 47.7025 158.984 47.9758 159.343V158.212H49.6013V166H47.9758V164.841C47.7025 165.208 47.3303 165.515 46.8591 165.76C46.388 166.005 45.8509 166.127 45.2478 166.127C44.5787 166.127 43.9662 165.958 43.4103 165.618C42.8543 165.27 42.4114 164.789 42.0816 164.177C41.7612 163.555 41.601 162.853 41.601 162.071ZM47.9758 162.099C47.9758 161.562 47.8627 161.095 47.6366 160.699C47.4198 160.304 47.1324 160.002 46.7743 159.795C46.4163 159.588 46.0299 159.484 45.6153 159.484C45.2007 159.484 44.8143 159.588 44.4562 159.795C44.0982 159.993 43.806 160.29 43.5799 160.685C43.3632 161.072 43.2548 161.533 43.2548 162.071C43.2548 162.608 43.3632 163.079 43.5799 163.484C43.806 163.889 44.0982 164.2 44.4562 164.417C44.8237 164.624 45.2101 164.728 45.6153 164.728C46.0299 164.728 46.4163 164.624 46.7743 164.417C47.1324 164.21 47.4198 163.908 47.6366 163.512C47.8627 163.107 47.9758 162.636 47.9758 162.099ZM61.1456 158.085C61.7581 158.085 62.3046 158.212 62.7852 158.466C63.2752 158.721 63.6569 159.098 63.9301 159.597C64.2128 160.096 64.3542 160.699 64.3542 161.406V166H62.7569V161.647C62.7569 160.949 62.5826 160.417 62.234 160.049C61.8853 159.672 61.4094 159.484 60.8064 159.484C60.2033 159.484 59.7227 159.672 59.3646 160.049C59.016 160.417 58.8416 160.949 58.8416 161.647V166H57.2444V161.647C57.2444 160.949 57.0701 160.417 56.7214 160.049C56.3728 159.672 55.8969 159.484 55.2938 159.484C54.6907 159.484 54.2102 159.672 53.8521 160.049C53.5034 160.417 53.3291 160.949 53.3291 161.647V166H51.7177V158.212H53.3291V159.102C53.5929 158.782 53.9275 158.532 54.3327 158.353C54.7379 158.174 55.1713 158.085 55.6331 158.085C56.255 158.085 56.8109 158.216 57.3009 158.48C57.791 158.744 58.1679 159.126 58.4317 159.625C58.6673 159.154 59.0348 158.782 59.5342 158.509C60.0337 158.226 60.5708 158.085 61.1456 158.085ZM68.0159 159.371C68.2892 158.994 68.6614 158.688 69.1326 158.452C69.6132 158.207 70.1456 158.085 70.7298 158.085C71.4177 158.085 72.0396 158.249 72.5956 158.579C73.1516 158.909 73.5897 159.38 73.9101 159.993C74.2305 160.596 74.3907 161.288 74.3907 162.071C74.3907 162.853 74.2305 163.555 73.9101 164.177C73.5897 164.789 73.1468 165.27 72.5815 165.618C72.0255 165.958 71.4083 166.127 70.7298 166.127C70.1267 166.127 69.5896 166.009 69.1185 165.774C68.6567 165.538 68.2892 165.237 68.0159 164.869V166H66.4046V155.54H68.0159V159.371ZM72.7511 162.071C72.7511 161.533 72.638 161.072 72.4118 160.685C72.1951 160.29 71.903 159.993 71.5355 159.795C71.1774 159.588 70.7911 159.484 70.3764 159.484C69.9712 159.484 69.5849 159.588 69.2174 159.795C68.8593 160.002 68.5672 160.304 68.341 160.699C68.1243 161.095 68.0159 161.562 68.0159 162.099C68.0159 162.636 68.1243 163.107 68.341 163.512C68.5672 163.908 68.8593 164.21 69.2174 164.417C69.5849 164.624 69.9712 164.728 70.3764 164.728C70.7911 164.728 71.1774 164.624 71.5355 164.417C71.903 164.2 72.1951 163.889 72.4118 163.484C72.638 163.079 72.7511 162.608 72.7511 162.071ZM76.804 157.18C76.5119 157.18 76.2669 157.081 76.069 156.883C75.8711 156.685 75.7721 156.44 75.7721 156.148C75.7721 155.856 75.8711 155.611 76.069 155.413C76.2669 155.215 76.5119 155.116 76.804 155.116C77.0867 155.116 77.327 155.215 77.5249 155.413C77.7227 155.611 77.8217 155.856 77.8217 156.148C77.8217 156.44 77.7227 156.685 77.5249 156.883C77.327 157.081 77.0867 157.18 76.804 157.18ZM77.5955 158.212V166H75.9842V158.212H77.5955ZM86.8491 161.915C86.8491 162.207 86.8303 162.471 86.7926 162.707H80.8419C80.889 163.329 81.1198 163.828 81.5345 164.205C81.9491 164.582 82.4579 164.77 83.061 164.77C83.9279 164.77 84.5405 164.407 84.8985 163.682H86.6371C86.4015 164.398 85.9728 164.987 85.3508 165.449C84.7383 165.901 83.9751 166.127 83.061 166.127C82.3166 166.127 81.6475 165.962 81.0539 165.632C80.4697 165.293 80.0079 164.822 79.6687 164.219C79.3389 163.607 79.174 162.9 79.174 162.099C79.174 161.298 79.3342 160.596 79.6546 159.993C79.9844 159.38 80.4414 158.909 81.0256 158.579C81.6193 158.249 82.2977 158.085 83.061 158.085C83.796 158.085 84.4509 158.245 85.0257 158.565C85.6006 158.886 86.0482 159.338 86.3685 159.922C86.6889 160.497 86.8491 161.161 86.8491 161.915ZM85.1671 161.406C85.1577 160.813 84.9456 160.337 84.531 159.979C84.1164 159.621 83.6028 159.441 82.9903 159.441C82.4344 159.441 81.9585 159.621 81.5627 159.979C81.167 160.327 80.9314 160.803 80.856 161.406H85.1671ZM92.3643 158.085C92.9768 158.085 93.5234 158.212 94.0039 158.466C94.4939 158.721 94.8756 159.098 95.1488 159.597C95.4221 160.096 95.5588 160.699 95.5588 161.406V166H93.9615V161.647C93.9615 160.949 93.7872 160.417 93.4385 160.049C93.0899 159.672 92.614 159.484 92.0109 159.484C91.4079 159.484 90.9273 159.672 90.5692 160.049C90.2205 160.417 90.0462 160.949 90.0462 161.647V166H88.4349V158.212H90.0462V159.102C90.3101 158.782 90.6446 158.532 91.0498 158.353C91.4644 158.174 91.9026 158.085 92.3643 158.085ZM99.4941 159.526V163.837C99.4941 164.13 99.56 164.342 99.692 164.473C99.8333 164.596 100.069 164.657 100.399 164.657H101.388V166H100.116C99.3904 166 98.8344 165.83 98.4481 165.491C98.0617 165.152 97.8686 164.601 97.8686 163.837V159.526H96.9498V158.212H97.8686V156.275H99.4941V158.212H101.388V159.526H99.4941ZM110.011 161.915C110.011 162.207 109.992 162.471 109.955 162.707H104.004C104.051 163.329 104.282 163.828 104.697 164.205C105.111 164.582 105.62 164.77 106.223 164.77C107.09 164.77 107.703 164.407 108.061 163.682H109.799C109.564 164.398 109.135 164.987 108.513 165.449C107.9 165.901 107.137 166.127 106.223 166.127C105.479 166.127 104.81 165.962 104.216 165.632C103.632 165.293 103.17 164.822 102.831 164.219C102.501 163.607 102.336 162.9 102.336 162.099C102.336 161.298 102.496 160.596 102.817 159.993C103.147 159.38 103.604 158.909 104.188 158.579C104.781 158.249 105.46 158.085 106.223 158.085C106.958 158.085 107.613 158.245 108.188 158.565C108.763 158.886 109.21 159.338 109.531 159.922C109.851 160.497 110.011 161.161 110.011 161.915ZM108.329 161.406C108.32 160.813 108.108 160.337 107.693 159.979C107.279 159.621 106.765 159.441 106.153 159.441C105.597 159.441 105.121 159.621 104.725 159.979C104.329 160.327 104.094 160.803 104.018 161.406H108.329ZM122.407 161.915C122.407 162.207 122.388 162.471 122.35 162.707H116.4C116.447 163.329 116.677 163.828 117.092 164.205C117.507 164.582 118.016 164.77 118.619 164.77C119.486 164.77 120.098 164.407 120.456 163.682H122.195C121.959 164.398 121.53 164.987 120.908 165.449C120.296 165.901 119.533 166.127 118.619 166.127C117.874 166.127 117.205 165.962 116.612 165.632C116.027 165.293 115.566 164.822 115.226 164.219C114.897 163.607 114.732 162.9 114.732 162.099C114.732 161.298 114.892 160.596 115.212 159.993C115.542 159.38 115.999 158.909 116.583 158.579C117.177 158.249 117.855 158.085 118.619 158.085C119.354 158.085 120.009 158.245 120.583 158.565C121.158 158.886 121.606 159.338 121.926 159.922C122.247 160.497 122.407 161.161 122.407 161.915ZM120.725 161.406C120.715 160.813 120.503 160.337 120.089 159.979C119.674 159.621 119.16 159.441 118.548 159.441C117.992 159.441 117.516 159.621 117.12 159.979C116.725 160.327 116.489 160.803 116.414 161.406H120.725ZM133.42 158.085C134.033 158.085 134.579 158.212 135.06 158.466C135.55 158.721 135.932 159.098 136.205 159.597C136.488 160.096 136.629 160.699 136.629 161.406V166H135.032V161.647C135.032 160.949 134.857 160.417 134.509 160.049C134.16 159.672 133.684 159.484 133.081 159.484C132.478 159.484 131.997 159.672 131.639 160.049C131.291 160.417 131.116 160.949 131.116 161.647V166H129.519V161.647C129.519 160.949 129.345 160.417 128.996 160.049C128.648 159.672 128.172 159.484 127.569 159.484C126.966 159.484 126.485 159.672 126.127 160.049C125.778 160.417 125.604 160.949 125.604 161.647V166H123.993V158.212H125.604V159.102C125.868 158.782 126.202 158.532 126.607 158.353C127.013 158.174 127.446 158.085 127.908 158.085C128.53 158.085 129.086 158.216 129.576 158.48C130.066 158.744 130.443 159.126 130.706 159.625C130.942 159.154 131.31 158.782 131.809 158.509C132.308 158.226 132.846 158.085 133.42 158.085ZM140.291 159.357C140.564 158.999 140.936 158.697 141.407 158.452C141.879 158.207 142.411 158.085 143.005 158.085C143.683 158.085 144.3 158.254 144.856 158.593C145.422 158.923 145.865 159.39 146.185 159.993C146.505 160.596 146.665 161.288 146.665 162.071C146.665 162.853 146.505 163.555 146.185 164.177C145.865 164.789 145.422 165.27 144.856 165.618C144.3 165.958 143.683 166.127 143.005 166.127C142.411 166.127 141.883 166.009 141.422 165.774C140.96 165.529 140.583 165.227 140.291 164.869V169.703H138.679V158.212H140.291V159.357ZM145.026 162.071C145.026 161.533 144.913 161.072 144.687 160.685C144.47 160.29 144.178 159.993 143.81 159.795C143.452 159.588 143.066 159.484 142.651 159.484C142.246 159.484 141.86 159.588 141.492 159.795C141.134 160.002 140.842 160.304 140.616 160.699C140.399 161.095 140.291 161.562 140.291 162.099C140.291 162.636 140.399 163.107 140.616 163.512C140.842 163.908 141.134 164.21 141.492 164.417C141.86 164.624 142.246 164.728 142.651 164.728C143.066 164.728 143.452 164.624 143.81 164.417C144.178 164.2 144.47 163.889 144.687 163.484C144.913 163.079 145.026 162.608 145.026 162.071ZM149.87 159.343C150.106 158.947 150.417 158.641 150.803 158.424C151.199 158.198 151.665 158.085 152.203 158.085V159.752H151.793C151.161 159.752 150.681 159.913 150.351 160.233C150.03 160.553 149.87 161.109 149.87 161.901V166H148.259V158.212H149.87V159.343ZM160.822 161.915C160.822 162.207 160.803 162.471 160.765 162.707H154.814C154.862 163.329 155.092 163.828 155.507 164.205C155.922 164.582 156.431 164.77 157.034 164.77C157.901 164.77 158.513 164.407 158.871 163.682H160.61C160.374 164.398 159.945 164.987 159.323 165.449C158.711 165.901 157.948 166.127 157.034 166.127C156.289 166.127 155.62 165.962 155.026 165.632C154.442 165.293 153.981 164.822 153.641 164.219C153.311 163.607 153.147 162.9 153.147 162.099C153.147 161.298 153.307 160.596 153.627 159.993C153.957 159.38 154.414 158.909 154.998 158.579C155.592 158.249 156.27 158.085 157.034 158.085C157.769 158.085 158.424 158.245 158.998 158.565C159.573 158.886 160.021 159.338 160.341 159.922C160.662 160.497 160.822 161.161 160.822 161.915ZM159.14 161.406C159.13 160.813 158.918 160.337 158.504 159.979C158.089 159.621 157.575 159.441 156.963 159.441C156.407 159.441 155.931 159.621 155.535 159.979C155.14 160.327 154.904 160.803 154.829 161.406H159.14ZM165.234 166.127C164.622 166.127 164.071 166.019 163.581 165.802C163.1 165.576 162.718 165.274 162.436 164.897C162.153 164.511 162.002 164.082 161.983 163.611H163.651C163.68 163.941 163.835 164.219 164.118 164.445C164.41 164.662 164.773 164.77 165.206 164.77C165.658 164.77 166.007 164.685 166.252 164.516C166.507 164.337 166.634 164.111 166.634 163.837C166.634 163.545 166.492 163.329 166.21 163.187C165.936 163.046 165.498 162.89 164.895 162.721C164.311 162.561 163.835 162.405 163.468 162.254C163.1 162.104 162.78 161.873 162.506 161.562C162.243 161.251 162.111 160.841 162.111 160.332C162.111 159.917 162.233 159.54 162.478 159.201C162.723 158.853 163.072 158.579 163.524 158.381C163.986 158.184 164.514 158.085 165.107 158.085C165.993 158.085 166.704 158.311 167.242 158.763C167.788 159.206 168.08 159.814 168.118 160.586H166.507C166.478 160.238 166.337 159.96 166.082 159.752C165.828 159.545 165.484 159.441 165.051 159.441C164.627 159.441 164.302 159.522 164.075 159.682C163.849 159.842 163.736 160.054 163.736 160.318C163.736 160.525 163.812 160.699 163.962 160.841C164.113 160.982 164.297 161.095 164.514 161.18C164.73 161.255 165.051 161.354 165.475 161.477C166.04 161.628 166.502 161.783 166.86 161.943C167.227 162.094 167.543 162.32 167.807 162.622C168.071 162.923 168.207 163.324 168.217 163.823C168.217 164.266 168.094 164.662 167.849 165.011C167.604 165.359 167.256 165.632 166.803 165.83C166.36 166.028 165.837 166.127 165.234 166.127ZM169.421 162.071C169.421 161.288 169.581 160.596 169.901 159.993C170.231 159.39 170.674 158.923 171.23 158.593C171.795 158.254 172.417 158.085 173.096 158.085C173.708 158.085 174.241 158.207 174.693 158.452C175.155 158.688 175.522 158.984 175.796 159.343V158.212H177.421V166H175.796V164.841C175.522 165.208 175.15 165.515 174.679 165.76C174.208 166.005 173.671 166.127 173.068 166.127C172.399 166.127 171.786 165.958 171.23 165.618C170.674 165.27 170.231 164.789 169.901 164.177C169.581 163.555 169.421 162.853 169.421 162.071ZM175.796 162.099C175.796 161.562 175.682 161.095 175.456 160.699C175.24 160.304 174.952 160.002 174.594 159.795C174.236 159.588 173.85 159.484 173.435 159.484C173.02 159.484 172.634 159.588 172.276 159.795C171.918 159.993 171.626 160.29 171.4 160.685C171.183 161.072 171.075 161.533 171.075 162.071C171.075 162.608 171.183 163.079 171.4 163.484C171.626 163.889 171.918 164.2 172.276 164.417C172.644 164.624 173.03 164.728 173.435 164.728C173.85 164.728 174.236 164.624 174.594 164.417C174.952 164.21 175.24 163.908 175.456 163.512C175.682 163.107 175.796 162.636 175.796 162.099ZM181.149 159.343C181.384 158.947 181.695 158.641 182.082 158.424C182.478 158.198 182.944 158.085 183.481 158.085V159.752H183.071C182.44 159.752 181.959 159.913 181.629 160.233C181.309 160.553 181.149 161.109 181.149 161.901V166H179.538V158.212H181.149V159.343ZM185.782 157.18C185.49 157.18 185.245 157.081 185.047 156.883C184.849 156.685 184.75 156.44 184.75 156.148C184.75 155.856 184.849 155.611 185.047 155.413C185.245 155.215 185.49 155.116 185.782 155.116C186.065 155.116 186.305 155.215 186.503 155.413C186.701 155.611 186.8 155.856 186.8 156.148C186.8 156.44 186.701 156.685 186.503 156.883C186.305 157.081 186.065 157.18 185.782 157.18ZM186.574 158.212V166H184.962V158.212H186.574ZM188.152 162.071C188.152 161.288 188.312 160.596 188.633 159.993C188.962 159.39 189.405 158.923 189.961 158.593C190.527 158.254 191.149 158.085 191.827 158.085C192.44 158.085 192.972 158.207 193.424 158.452C193.886 158.688 194.254 158.984 194.527 159.343V158.212H196.152V166H194.527V164.841C194.254 165.208 193.881 165.515 193.41 165.76C192.939 166.005 192.402 166.127 191.799 166.127C191.13 166.127 190.517 165.958 189.961 165.618C189.405 165.27 188.962 164.789 188.633 164.177C188.312 163.555 188.152 162.853 188.152 162.071ZM194.527 162.099C194.527 161.562 194.414 161.095 194.188 160.699C193.971 160.304 193.683 160.002 193.325 159.795C192.967 159.588 192.581 159.484 192.166 159.484C191.752 159.484 191.365 159.588 191.007 159.795C190.649 159.993 190.357 160.29 190.131 160.685C189.914 161.072 189.806 161.533 189.806 162.071C189.806 162.608 189.914 163.079 190.131 163.484C190.357 163.889 190.649 164.2 191.007 164.417C191.375 164.624 191.761 164.728 192.166 164.728C192.581 164.728 192.967 164.624 193.325 164.417C193.683 164.21 193.971 163.908 194.188 163.512C194.414 163.107 194.527 162.636 194.527 162.099ZM199.88 155.54V166H198.269V155.54H199.88ZM41.9397 182.915C41.9397 183.207 41.9208 183.471 41.8831 183.707H35.9324C35.9795 184.329 36.2104 184.828 36.625 185.205C37.0396 185.582 37.5485 185.77 38.1515 185.77C39.0185 185.77 39.631 185.407 39.9891 184.682H41.7276C41.4921 185.398 41.0633 185.987 40.4414 186.449C39.8289 186.901 39.0656 187.127 38.1515 187.127C37.4071 187.127 36.7381 186.962 36.1444 186.632C35.5602 186.293 35.0984 185.822 34.7592 185.219C34.4294 184.607 34.2645 183.9 34.2645 183.099C34.2645 182.298 34.4247 181.596 34.7451 180.993C35.0749 180.38 35.5319 179.909 36.1161 179.579C36.7098 179.249 37.3883 179.085 38.1515 179.085C38.8866 179.085 39.5415 179.245 40.1163 179.565C40.6911 179.886 41.1387 180.338 41.4591 180.922C41.7795 181.497 41.9397 182.161 41.9397 182.915ZM40.2576 182.406C40.2482 181.813 40.0362 181.337 39.6216 180.979C39.2069 180.621 38.6934 180.441 38.0809 180.441C37.5249 180.441 37.049 180.621 36.6533 180.979C36.2575 181.327 36.0219 181.803 35.9465 182.406H40.2576ZM52.9532 179.085C53.5657 179.085 54.1123 179.212 54.5929 179.466C55.0829 179.721 55.4645 180.098 55.7378 180.597C56.0205 181.096 56.1618 181.699 56.1618 182.406V187H54.5646V182.647C54.5646 181.949 54.3903 181.417 54.0416 181.049C53.693 180.672 53.2171 180.484 52.614 180.484C52.0109 180.484 51.5304 180.672 51.1723 181.049C50.8236 181.417 50.6493 181.949 50.6493 182.647V187H49.0521V182.647C49.0521 181.949 48.8777 181.417 48.5291 181.049C48.1804 180.672 47.7046 180.484 47.1015 180.484C46.4984 180.484 46.0178 180.672 45.6597 181.049C45.3111 181.417 45.1367 181.949 45.1367 182.647V187H43.5254V179.212H45.1367V180.102C45.4006 179.782 45.7351 179.532 46.1403 179.353C46.5455 179.174 46.979 179.085 47.4407 179.085C48.0626 179.085 48.6186 179.216 49.1086 179.48C49.5986 179.744 49.9755 180.126 50.2394 180.625C50.475 180.154 50.8425 179.782 51.3419 179.509C51.8413 179.226 52.3784 179.085 52.9532 179.085ZM68.9372 179.212V187H67.3258V186.081C67.0714 186.402 66.7369 186.656 66.3223 186.845C65.9171 187.024 65.4836 187.113 65.0219 187.113C64.4094 187.113 63.8581 186.986 63.3681 186.731C62.8875 186.477 62.5059 186.1 62.2232 185.601C61.9499 185.101 61.8133 184.498 61.8133 183.791V179.212H63.4105V183.551C63.4105 184.248 63.5848 184.786 63.9335 185.162C64.2821 185.53 64.758 185.714 65.3611 185.714C65.9642 185.714 66.44 185.53 66.7887 185.162C67.1468 184.786 67.3258 184.248 67.3258 183.551V179.212H68.9372ZM80.4911 179.085C81.1036 179.085 81.6501 179.212 82.1307 179.466C82.6207 179.721 83.0024 180.098 83.2756 180.597C83.5583 181.096 83.6997 181.699 83.6997 182.406V187H82.1025V182.647C82.1025 181.949 81.9281 181.417 81.5795 181.049C81.2308 180.672 80.7549 180.484 80.1519 180.484C79.5488 180.484 79.0682 180.672 78.7101 181.049C78.3615 181.417 78.1871 181.949 78.1871 182.647V187H76.5899V182.647C76.5899 181.949 76.4156 181.417 76.0669 181.049C75.7183 180.672 75.2424 180.484 74.6393 180.484C74.0362 180.484 73.5557 180.672 73.1976 181.049C72.8489 181.417 72.6746 181.949 72.6746 182.647V187H71.0632V179.212H72.6746V180.102C72.9384 179.782 73.273 179.532 73.6782 179.353C74.0834 179.174 74.5168 179.085 74.9786 179.085C75.6005 179.085 76.1564 179.216 76.6465 179.48C77.1365 179.744 77.5134 180.126 77.7772 180.625C78.0128 180.154 78.3803 179.782 78.8797 179.509C79.3792 179.226 79.9163 179.085 80.4911 179.085ZM91.0332 176.54V187H89.4218V176.54H91.0332ZM100.202 179.212V187H98.5906V186.081C98.3362 186.402 98.0016 186.656 97.587 186.845C97.1818 187.024 96.7484 187.113 96.2866 187.113C95.6741 187.113 95.1229 186.986 94.6329 186.731C94.1523 186.477 93.7707 186.1 93.488 185.601C93.2147 185.101 93.0781 184.498 93.0781 183.791V179.212H94.6753V183.551C94.6753 184.248 94.8496 184.786 95.1983 185.162C95.5469 185.53 96.0228 185.714 96.6259 185.714C97.2289 185.714 97.7048 185.53 98.0535 185.162C98.4116 184.786 98.5906 184.248 98.5906 183.551V179.212H100.202ZM105.466 179.085C106.069 179.085 106.601 179.207 107.063 179.452C107.534 179.688 107.902 179.984 108.166 180.343V179.212H109.791V187.127C109.791 187.843 109.64 188.479 109.339 189.035C109.037 189.601 108.599 190.044 108.024 190.364C107.459 190.684 106.78 190.845 105.989 190.845C104.934 190.845 104.057 190.595 103.36 190.096C102.663 189.605 102.267 188.936 102.173 188.088H103.77C103.892 188.494 104.151 188.819 104.547 189.064C104.952 189.318 105.433 189.445 105.989 189.445C106.639 189.445 107.162 189.247 107.558 188.852C107.963 188.456 108.166 187.881 108.166 187.127V185.827C107.892 186.194 107.52 186.505 107.049 186.76C106.587 187.005 106.06 187.127 105.466 187.127C104.787 187.127 104.166 186.958 103.6 186.618C103.044 186.27 102.601 185.789 102.271 185.177C101.951 184.555 101.791 183.853 101.791 183.071C101.791 182.288 101.951 181.596 102.271 180.993C102.601 180.39 103.044 179.923 103.6 179.593C104.166 179.254 104.787 179.085 105.466 179.085ZM108.166 183.099C108.166 182.562 108.053 182.095 107.826 181.699C107.61 181.304 107.322 181.002 106.964 180.795C106.606 180.588 106.22 180.484 105.805 180.484C105.391 180.484 105.004 180.588 104.646 180.795C104.288 180.993 103.996 181.29 103.77 181.685C103.553 182.072 103.445 182.533 103.445 183.071C103.445 183.608 103.553 184.079 103.77 184.484C103.996 184.889 104.288 185.2 104.646 185.417C105.014 185.624 105.4 185.728 105.805 185.728C106.22 185.728 106.606 185.624 106.964 185.417C107.322 185.21 107.61 184.908 107.826 184.512C108.053 184.107 108.166 183.636 108.166 183.099ZM111.37 183.071C111.37 182.288 111.531 181.596 111.851 180.993C112.181 180.39 112.624 179.923 113.18 179.593C113.745 179.254 114.367 179.085 115.045 179.085C115.658 179.085 116.19 179.207 116.643 179.452C117.104 179.688 117.472 179.984 117.745 180.343V179.212H119.371V187H117.745V185.841C117.472 186.208 117.1 186.515 116.629 186.76C116.157 187.005 115.62 187.127 115.017 187.127C114.348 187.127 113.736 186.958 113.18 186.618C112.624 186.27 112.181 185.789 111.851 185.177C111.531 184.555 111.37 183.853 111.37 183.071ZM117.745 183.099C117.745 182.562 117.632 182.095 117.406 181.699C117.189 181.304 116.902 181.002 116.544 180.795C116.186 180.588 115.799 180.484 115.385 180.484C114.97 180.484 114.584 180.588 114.226 180.795C113.868 180.993 113.575 181.29 113.349 181.685C113.133 182.072 113.024 182.533 113.024 183.071C113.024 183.608 113.133 184.079 113.349 184.484C113.575 184.889 113.868 185.2 114.226 185.417C114.593 185.624 114.98 185.728 115.385 185.728C115.799 185.728 116.186 185.624 116.544 185.417C116.902 185.21 117.189 184.908 117.406 184.512C117.632 184.107 117.745 183.636 117.745 183.099ZM123.099 180.343C123.334 179.947 123.645 179.641 124.031 179.424C124.427 179.198 124.894 179.085 125.431 179.085V180.752H125.021C124.39 180.752 123.909 180.913 123.579 181.233C123.259 181.553 123.099 182.109 123.099 182.901V187H121.487V179.212H123.099V180.343ZM133.411 187.127C132.798 187.127 132.247 187.019 131.757 186.802C131.276 186.576 130.895 186.274 130.612 185.897C130.329 185.511 130.178 185.082 130.16 184.611H131.827C131.856 184.941 132.011 185.219 132.294 185.445C132.586 185.662 132.949 185.77 133.382 185.77C133.835 185.77 134.183 185.685 134.428 185.516C134.683 185.337 134.81 185.111 134.81 184.837C134.81 184.545 134.669 184.329 134.386 184.187C134.113 184.046 133.674 183.89 133.071 183.721C132.487 183.561 132.011 183.405 131.644 183.254C131.276 183.104 130.956 182.873 130.683 182.562C130.419 182.251 130.287 181.841 130.287 181.332C130.287 180.917 130.409 180.54 130.654 180.201C130.899 179.853 131.248 179.579 131.7 179.381C132.162 179.184 132.69 179.085 133.283 179.085C134.169 179.085 134.881 179.311 135.418 179.763C135.964 180.206 136.256 180.814 136.294 181.586H134.683C134.654 181.238 134.513 180.96 134.259 180.752C134.004 180.545 133.66 180.441 133.227 180.441C132.803 180.441 132.478 180.522 132.252 180.682C132.025 180.842 131.912 181.054 131.912 181.318C131.912 181.525 131.988 181.699 132.138 181.841C132.289 181.982 132.473 182.095 132.69 182.18C132.906 182.255 133.227 182.354 133.651 182.477C134.216 182.628 134.678 182.783 135.036 182.943C135.404 183.094 135.719 183.32 135.983 183.622C136.247 183.923 136.384 184.324 136.393 184.823C136.393 185.266 136.271 185.662 136.026 186.011C135.781 186.359 135.432 186.632 134.98 186.83C134.537 187.028 134.014 187.127 133.411 187.127ZM137.597 183.071C137.597 182.288 137.757 181.596 138.078 180.993C138.407 180.39 138.85 179.923 139.406 179.593C139.972 179.254 140.594 179.085 141.272 179.085C141.885 179.085 142.417 179.207 142.869 179.452C143.331 179.688 143.698 179.984 143.972 180.343V179.212H145.597V187H143.972V185.841C143.698 186.208 143.326 186.515 142.855 186.76C142.384 187.005 141.847 187.127 141.244 187.127C140.575 187.127 139.962 186.958 139.406 186.618C138.85 186.27 138.407 185.789 138.078 185.177C137.757 184.555 137.597 183.853 137.597 183.071ZM143.972 183.099C143.972 182.562 143.859 182.095 143.633 181.699C143.416 181.304 143.128 181.002 142.77 180.795C142.412 180.588 142.026 180.484 141.611 180.484C141.197 180.484 140.81 180.588 140.452 180.795C140.094 180.993 139.802 181.29 139.576 181.685C139.359 182.072 139.251 182.533 139.251 183.071C139.251 183.608 139.359 184.079 139.576 184.484C139.802 184.889 140.094 185.2 140.452 185.417C140.82 185.624 141.206 185.728 141.611 185.728C142.026 185.728 142.412 185.624 142.77 185.417C143.128 185.21 143.416 184.908 143.633 184.512C143.859 184.107 143.972 183.636 143.972 183.099ZM154.767 179.212V187H153.156V186.081C152.901 186.402 152.567 186.656 152.152 186.845C151.747 187.024 151.313 187.113 150.852 187.113C150.239 187.113 149.688 186.986 149.198 186.731C148.717 186.477 148.336 186.1 148.053 185.601C147.78 185.101 147.643 184.498 147.643 183.791V179.212H149.24V183.551C149.24 184.248 149.415 184.786 149.763 185.162C150.112 185.53 150.588 185.714 151.191 185.714C151.794 185.714 152.27 185.53 152.618 185.162C152.977 184.786 153.156 184.248 153.156 183.551V179.212H154.767ZM156.356 183.071C156.356 182.288 156.516 181.596 156.836 180.993C157.166 180.39 157.609 179.923 158.165 179.593C158.731 179.254 159.357 179.085 160.045 179.085C160.554 179.085 161.053 179.198 161.543 179.424C162.043 179.641 162.439 179.933 162.731 180.3V176.54H164.356V187H162.731V185.827C162.467 186.204 162.099 186.515 161.628 186.76C161.166 187.005 160.634 187.127 160.031 187.127C159.352 187.127 158.731 186.958 158.165 186.618C157.609 186.27 157.166 185.789 156.836 185.177C156.516 184.555 156.356 183.853 156.356 183.071ZM162.731 183.099C162.731 182.562 162.618 182.095 162.391 181.699C162.175 181.304 161.887 181.002 161.529 180.795C161.171 180.588 160.785 180.484 160.37 180.484C159.956 180.484 159.569 180.588 159.211 180.795C158.853 180.993 158.561 181.29 158.335 181.685C158.118 182.072 158.01 182.533 158.01 183.071C158.01 183.608 158.118 184.079 158.335 184.484C158.561 184.889 158.853 185.2 159.211 185.417C159.579 185.624 159.965 185.728 160.37 185.728C160.785 185.728 161.171 185.624 161.529 185.417C161.887 185.21 162.175 184.908 162.391 184.512C162.618 184.107 162.731 183.636 162.731 183.099ZM165.935 183.071C165.935 182.288 166.096 181.596 166.416 180.993C166.746 180.39 167.189 179.923 167.745 179.593C168.31 179.254 168.932 179.085 169.61 179.085C170.223 179.085 170.755 179.207 171.208 179.452C171.669 179.688 172.037 179.984 172.31 180.343V179.212H173.936V187H172.31V185.841C172.037 186.208 171.665 186.515 171.194 186.76C170.722 187.005 170.185 187.127 169.582 187.127C168.913 187.127 168.301 186.958 167.745 186.618C167.189 186.27 166.746 185.789 166.416 185.177C166.096 184.555 165.935 183.853 165.935 183.071ZM172.31 183.099C172.31 182.562 172.197 182.095 171.971 181.699C171.754 181.304 171.467 181.002 171.109 180.795C170.751 180.588 170.364 180.484 169.95 180.484C169.535 180.484 169.149 180.588 168.791 180.795C168.433 180.993 168.14 181.29 167.914 181.685C167.698 182.072 167.589 182.533 167.589 183.071C167.589 183.608 167.698 184.079 167.914 184.484C168.14 184.889 168.433 185.2 168.791 185.417C169.158 185.624 169.545 185.728 169.95 185.728C170.364 185.728 170.751 185.624 171.109 185.417C171.467 185.21 171.754 184.908 171.971 184.512C172.197 184.107 172.31 183.636 172.31 183.099ZM171.66 177.12L168.536 178.661V177.473L171.66 175.749V177.12ZM179.063 185.558L181.268 179.212H182.978L180.01 187H178.088L175.133 179.212H176.858L179.063 185.558ZM191.334 182.915C191.334 183.207 191.315 183.471 191.278 183.707H185.327C185.374 184.329 185.605 184.828 186.02 185.205C186.434 185.582 186.943 185.77 187.546 185.77C188.413 185.77 189.026 185.407 189.384 184.682H191.122C190.887 185.398 190.458 185.987 189.836 186.449C189.223 186.901 188.46 187.127 187.546 187.127C186.802 187.127 186.133 186.962 185.539 186.632C184.955 186.293 184.493 185.822 184.154 185.219C183.824 184.607 183.659 183.9 183.659 183.099C183.659 182.298 183.819 181.596 184.14 180.993C184.469 180.38 184.926 179.909 185.511 179.579C186.104 179.249 186.783 179.085 187.546 179.085C188.281 179.085 188.936 179.245 189.511 179.565C190.086 179.886 190.533 180.338 190.854 180.922C191.174 181.497 191.334 182.161 191.334 182.915ZM189.652 182.406C189.643 181.813 189.431 181.337 189.016 180.979C188.601 180.621 188.088 180.441 187.475 180.441C186.919 180.441 186.444 180.621 186.048 180.979C185.652 181.327 185.416 181.803 185.341 182.406H189.652ZM194.531 176.54V187H192.92V176.54H194.531ZM78.3409 201.357C78.6142 200.999 78.9864 200.697 79.4576 200.452C79.9287 200.207 80.4611 200.085 81.0548 200.085C81.7332 200.085 82.3505 200.254 82.9064 200.593C83.4718 200.923 83.9147 201.39 84.2351 201.993C84.5555 202.596 84.7157 203.288 84.7157 204.071C84.7157 204.853 84.5555 205.555 84.2351 206.177C83.9147 206.789 83.4718 207.27 82.9064 207.618C82.3505 207.958 81.7332 208.127 81.0548 208.127C80.4611 208.127 79.9334 208.009 79.4717 207.774C79.01 207.529 78.633 207.227 78.3409 206.869V211.703H76.7296V200.212H78.3409V201.357ZM83.076 204.071C83.076 203.533 82.963 203.072 82.7368 202.685C82.5201 202.29 82.228 201.993 81.8605 201.795C81.5024 201.588 81.116 201.484 80.7014 201.484C80.2962 201.484 79.9099 201.588 79.5424 201.795C79.1843 202.002 78.8922 202.304 78.666 202.699C78.4493 203.095 78.3409 203.562 78.3409 204.099C78.3409 204.636 78.4493 205.107 78.666 205.512C78.8922 205.908 79.1843 206.21 79.5424 206.417C79.9099 206.624 80.2962 206.728 80.7014 206.728C81.116 206.728 81.5024 206.624 81.8605 206.417C82.228 206.2 82.5201 205.889 82.7368 205.484C82.963 205.079 83.076 204.608 83.076 204.071ZM85.772 204.071C85.772 203.288 85.9322 202.596 86.2526 201.993C86.5824 201.39 87.0253 200.923 87.5813 200.593C88.1466 200.254 88.7686 200.085 89.447 200.085C90.0595 200.085 90.592 200.207 91.0443 200.452C91.506 200.688 91.8735 200.984 92.1468 201.343V200.212H93.7723V208H92.1468V206.841C91.8735 207.208 91.5013 207.515 91.0301 207.76C90.559 208.005 90.0219 208.127 89.4188 208.127C88.7497 208.127 88.1372 207.958 87.5813 207.618C87.0253 207.27 86.5824 206.789 86.2526 206.177C85.9322 205.555 85.772 204.853 85.772 204.071ZM92.1468 204.099C92.1468 203.562 92.0337 203.095 91.8075 202.699C91.5908 202.304 91.3034 202.002 90.9453 201.795C90.5872 201.588 90.2009 201.484 89.7863 201.484C89.3717 201.484 88.9853 201.588 88.6272 201.795C88.2691 201.993 87.977 202.29 87.7509 202.685C87.5341 203.072 87.4258 203.533 87.4258 204.071C87.4258 204.608 87.5341 205.079 87.7509 205.484C87.977 205.889 88.2691 206.2 88.6272 206.417C88.9947 206.624 89.3811 206.728 89.7863 206.728C90.2009 206.728 90.5872 206.624 90.9453 206.417C91.3034 206.21 91.5908 205.908 91.8075 205.512C92.0337 205.107 92.1468 204.636 92.1468 204.099ZM97.5001 201.343C97.7357 200.947 98.0466 200.641 98.433 200.424C98.8287 200.198 99.2952 200.085 99.8323 200.085V201.752H99.4224C98.791 201.752 98.3105 201.913 97.9807 202.233C97.6603 202.553 97.5001 203.109 97.5001 203.901V208H95.8887V200.212H97.5001V201.343ZM100.776 204.071C100.776 203.288 100.937 202.596 101.257 201.993C101.587 201.39 102.03 200.923 102.586 200.593C103.151 200.254 103.773 200.085 104.451 200.085C105.064 200.085 105.596 200.207 106.049 200.452C106.51 200.688 106.878 200.984 107.151 201.343V200.212H108.777V208H107.151V206.841C106.878 207.208 106.506 207.515 106.034 207.76C105.563 208.005 105.026 208.127 104.423 208.127C103.754 208.127 103.142 207.958 102.586 207.618C102.03 207.27 101.587 206.789 101.257 206.177C100.937 205.555 100.776 204.853 100.776 204.071ZM107.151 204.099C107.151 203.562 107.038 203.095 106.812 202.699C106.595 202.304 106.308 202.002 105.95 201.795C105.592 201.588 105.205 201.484 104.791 201.484C104.376 201.484 103.99 201.588 103.632 201.795C103.273 201.993 102.981 202.29 102.755 202.685C102.538 203.072 102.43 203.533 102.43 204.071C102.43 204.608 102.538 205.079 102.755 205.484C102.981 205.889 103.273 206.2 103.632 206.417C103.999 206.624 104.385 206.728 104.791 206.728C105.205 206.728 105.592 206.624 105.95 206.417C106.308 206.21 106.595 205.908 106.812 205.512C107.038 205.107 107.151 204.636 107.151 204.099ZM116.445 201.526V205.837C116.445 206.13 116.511 206.342 116.643 206.473C116.784 206.596 117.019 206.657 117.349 206.657H118.339V208H117.067C116.341 208 115.785 207.83 115.399 207.491C115.012 207.152 114.819 206.601 114.819 205.837V201.526H113.9V200.212H114.819V198.275H116.445V200.212H118.339V201.526H116.445ZM123.202 208.127C122.467 208.127 121.803 207.962 121.209 207.632C120.615 207.293 120.149 206.822 119.81 206.219C119.47 205.607 119.301 204.9 119.301 204.099C119.301 203.307 119.475 202.605 119.824 201.993C120.173 201.38 120.648 200.909 121.251 200.579C121.855 200.249 122.528 200.085 123.273 200.085C124.017 200.085 124.691 200.249 125.294 200.579C125.897 200.909 126.373 201.38 126.722 201.993C127.07 202.605 127.245 203.307 127.245 204.099C127.245 204.89 127.066 205.592 126.707 206.205C126.349 206.817 125.859 207.293 125.237 207.632C124.625 207.962 123.946 208.127 123.202 208.127ZM123.202 206.728C123.617 206.728 124.003 206.629 124.361 206.431C124.729 206.233 125.025 205.936 125.252 205.541C125.478 205.145 125.591 204.664 125.591 204.099C125.591 203.533 125.482 203.058 125.266 202.671C125.049 202.275 124.762 201.979 124.404 201.781C124.045 201.583 123.659 201.484 123.244 201.484C122.83 201.484 122.444 201.583 122.085 201.781C121.737 201.979 121.459 202.275 121.251 202.671C121.044 203.058 120.941 203.533 120.941 204.099C120.941 204.937 121.153 205.588 121.577 206.049C122.01 206.502 122.552 206.728 123.202 206.728ZM128.3 204.071C128.3 203.288 128.461 202.596 128.781 201.993C129.111 201.39 129.554 200.923 130.11 200.593C130.675 200.254 131.302 200.085 131.99 200.085C132.498 200.085 132.998 200.198 133.488 200.424C133.987 200.641 134.383 200.933 134.675 201.3V197.54H136.301V208H134.675V206.827C134.411 207.204 134.044 207.515 133.573 207.76C133.111 208.005 132.578 208.127 131.975 208.127C131.297 208.127 130.675 207.958 130.11 207.618C129.554 207.27 129.111 206.789 128.781 206.177C128.461 205.555 128.3 204.853 128.3 204.071ZM134.675 204.099C134.675 203.562 134.562 203.095 134.336 202.699C134.119 202.304 133.832 202.002 133.474 201.795C133.116 201.588 132.729 201.484 132.315 201.484C131.9 201.484 131.514 201.588 131.156 201.795C130.798 201.993 130.505 202.29 130.279 202.685C130.063 203.072 129.954 203.533 129.954 204.071C129.954 204.608 130.063 205.079 130.279 205.484C130.505 205.889 130.798 206.2 131.156 206.417C131.523 206.624 131.909 206.728 132.315 206.728C132.729 206.728 133.116 206.624 133.474 206.417C133.832 206.21 134.119 205.908 134.336 205.512C134.562 205.107 134.675 204.636 134.675 204.099ZM141.795 208.127C141.06 208.127 140.396 207.962 139.802 207.632C139.209 207.293 138.742 206.822 138.403 206.219C138.064 205.607 137.894 204.9 137.894 204.099C137.894 203.307 138.068 202.605 138.417 201.993C138.766 201.38 139.242 200.909 139.845 200.579C140.448 200.249 141.122 200.085 141.866 200.085C142.61 200.085 143.284 200.249 143.887 200.579C144.49 200.909 144.966 201.38 145.315 201.993C145.663 202.605 145.838 203.307 145.838 204.099C145.838 204.89 145.659 205.592 145.301 206.205C144.943 206.817 144.453 207.293 143.831 207.632C143.218 207.962 142.54 208.127 141.795 208.127ZM141.795 206.728C142.21 206.728 142.596 206.629 142.954 206.431C143.322 206.233 143.619 205.936 143.845 205.541C144.071 205.145 144.184 204.664 144.184 204.099C144.184 203.533 144.076 203.058 143.859 202.671C143.642 202.275 143.355 201.979 142.997 201.781C142.639 201.583 142.252 201.484 141.838 201.484C141.423 201.484 141.037 201.583 140.679 201.781C140.33 201.979 140.052 202.275 139.845 202.671C139.637 203.058 139.534 203.533 139.534 204.099C139.534 204.937 139.746 205.588 140.17 206.049C140.603 206.502 141.145 206.728 141.795 206.728ZM150.258 208.127C149.645 208.127 149.094 208.019 148.604 207.802C148.123 207.576 147.742 207.274 147.459 206.897C147.176 206.511 147.026 206.082 147.007 205.611H148.675C148.703 205.941 148.858 206.219 149.141 206.445C149.433 206.662 149.796 206.77 150.229 206.77C150.682 206.77 151.03 206.685 151.275 206.516C151.53 206.337 151.657 206.111 151.657 205.837C151.657 205.545 151.516 205.329 151.233 205.187C150.96 205.046 150.522 204.89 149.918 204.721C149.334 204.561 148.858 204.405 148.491 204.254C148.123 204.104 147.803 203.873 147.53 203.562C147.266 203.251 147.134 202.841 147.134 202.332C147.134 201.917 147.256 201.54 147.501 201.201C147.746 200.853 148.095 200.579 148.547 200.381C149.009 200.184 149.537 200.085 150.13 200.085C151.016 200.085 151.728 200.311 152.265 200.763C152.811 201.206 153.103 201.814 153.141 202.586H151.53C151.502 202.238 151.36 201.96 151.106 201.752C150.851 201.545 150.507 201.441 150.074 201.441C149.65 201.441 149.325 201.522 149.099 201.682C148.872 201.842 148.759 202.054 148.759 202.318C148.759 202.525 148.835 202.699 148.986 202.841C149.136 202.982 149.32 203.095 149.537 203.18C149.754 203.255 150.074 203.354 150.498 203.477C151.063 203.628 151.525 203.783 151.883 203.943C152.251 204.094 152.566 204.32 152.83 204.622C153.094 204.923 153.231 205.324 153.24 205.823C153.24 206.266 153.118 206.662 152.873 207.011C152.628 207.359 152.279 207.632 151.827 207.83C151.384 208.028 150.861 208.127 150.258 208.127ZM155.631 208.099C155.339 208.099 155.094 208 154.896 207.802C154.699 207.604 154.6 207.359 154.6 207.067C154.6 206.775 154.699 206.53 154.896 206.332C155.094 206.134 155.339 206.035 155.631 206.035C155.914 206.035 156.154 206.134 156.352 206.332C156.55 206.53 156.649 206.775 156.649 207.067C156.649 207.359 156.55 207.604 156.352 207.802C156.154 208 155.914 208.099 155.631 208.099Z" fill="#EBEBEB"/>
<path d="M96.0447 66.1161V81H92.4192V72.0739L89.0904 81H86.1646L82.8146 72.0527V81H79.1891V66.1161H83.4719L87.6487 76.4204L91.7831 66.1161H96.0447ZM100.475 67.9395C99.8392 67.9395 99.3162 67.7558 98.9063 67.3883C98.5106 67.0066 98.3127 66.5402 98.3127 65.9889C98.3127 65.4235 98.5106 64.9571 98.9063 64.5896C99.3162 64.208 99.8392 64.0171 100.475 64.0171C101.097 64.0171 101.606 64.208 102.002 64.5896C102.412 64.9571 102.617 65.4235 102.617 65.9889C102.617 66.5402 102.412 67.0066 102.002 67.3883C101.606 67.7558 101.097 67.9395 100.475 67.9395ZM102.277 69.1692V81H98.6519V69.1692H102.277ZM109.718 81.1696C108.686 81.1696 107.767 80.9929 106.961 80.6396C106.156 80.2862 105.52 79.8056 105.053 79.1978C104.587 78.5759 104.325 77.8833 104.269 77.12H107.852C107.894 77.5299 108.085 77.8621 108.424 78.1165C108.764 78.3709 109.181 78.4982 109.675 78.4982C110.128 78.4982 110.474 78.4133 110.714 78.2437C110.969 78.06 111.096 77.8268 111.096 77.5441C111.096 77.2048 110.919 76.9575 110.566 76.802C110.212 76.6324 109.64 76.4486 108.848 76.2507C108 76.0528 107.294 75.8479 106.728 75.6359C106.163 75.4097 105.675 75.0634 105.265 74.597C104.855 74.1164 104.65 73.4733 104.65 72.6676C104.65 71.9891 104.834 71.3743 105.202 70.823C105.583 70.2576 106.135 69.8124 106.855 69.4873C107.59 69.1622 108.46 68.9996 109.463 68.9996C110.947 68.9996 112.114 69.3671 112.962 70.1021C113.824 70.8371 114.319 71.8124 114.446 73.028H111.096C111.039 72.6181 110.856 72.293 110.545 72.0527C110.248 71.8124 109.852 71.6923 109.357 71.6923C108.933 71.6923 108.608 71.7771 108.382 71.9467C108.156 72.1022 108.043 72.3213 108.043 72.604C108.043 72.9432 108.219 73.1976 108.573 73.3673C108.94 73.5369 109.506 73.7065 110.269 73.8761C111.145 74.1023 111.859 74.3284 112.41 74.5546C112.962 74.7666 113.442 75.12 113.852 75.6147C114.276 76.0953 114.495 76.7455 114.509 77.5653C114.509 78.2579 114.312 78.8798 113.916 79.431C113.534 79.9682 112.976 80.3922 112.241 80.7032C111.52 81.0141 110.679 81.1696 109.718 81.1696ZM121.54 81.1696C120.509 81.1696 119.59 80.9929 118.784 80.6396C117.978 80.2862 117.342 79.8056 116.876 79.1978C116.409 78.5759 116.148 77.8833 116.091 77.12H119.675C119.717 77.5299 119.908 77.8621 120.247 78.1165C120.586 78.3709 121.003 78.4982 121.498 78.4982C121.95 78.4982 122.297 78.4133 122.537 78.2437C122.791 78.06 122.919 77.8268 122.919 77.5441C122.919 77.2048 122.742 76.9575 122.388 76.802C122.035 76.6324 121.463 76.4486 120.671 76.2507C119.823 76.0528 119.116 75.8479 118.551 75.6359C117.985 75.4097 117.498 75.0634 117.088 74.597C116.678 74.1164 116.473 73.4733 116.473 72.6676C116.473 71.9891 116.657 71.3743 117.024 70.823C117.406 70.2576 117.957 69.8124 118.678 69.4873C119.413 69.1622 120.282 68.9996 121.286 68.9996C122.77 68.9996 123.936 69.3671 124.784 70.1021C125.647 70.8371 126.141 71.8124 126.268 73.028H122.919C122.862 72.6181 122.678 72.293 122.367 72.0527C122.07 71.8124 121.675 71.6923 121.18 71.6923C120.756 71.6923 120.431 71.7771 120.205 71.9467C119.978 72.1022 119.865 72.3213 119.865 72.604C119.865 72.9432 120.042 73.1976 120.395 73.3673C120.763 73.5369 121.328 73.7065 122.092 73.8761C122.968 74.1023 123.682 74.3284 124.233 74.5546C124.784 74.7666 125.265 75.12 125.675 75.6147C126.099 76.0953 126.318 76.7455 126.332 77.5653C126.332 78.2579 126.134 78.8798 125.738 79.431C125.357 79.9682 124.798 80.3922 124.063 80.7032C123.343 81.0141 122.502 81.1696 121.54 81.1696ZM127.829 75.0634C127.829 73.8478 128.055 72.7807 128.508 71.8619C128.974 70.9431 129.603 70.2364 130.395 69.7417C131.186 69.247 132.07 68.9996 133.045 68.9996C133.879 68.9996 134.607 69.1692 135.229 69.5085C135.865 69.8477 136.353 70.293 136.692 70.8442V69.1692H140.317V81H136.692V79.325C136.338 79.8763 135.844 80.3215 135.208 80.6608C134.586 81 133.858 81.1696 133.024 81.1696C132.063 81.1696 131.186 80.9223 130.395 80.4275C129.603 79.9187 128.974 79.2049 128.508 78.2861C128.055 77.3532 127.829 76.279 127.829 75.0634ZM136.692 75.0846C136.692 74.18 136.437 73.4662 135.928 72.9432C135.434 72.4202 134.826 72.1587 134.105 72.1587C133.384 72.1587 132.769 72.4202 132.261 72.9432C131.766 73.4521 131.518 74.1588 131.518 75.0634C131.518 75.968 131.766 76.6889 132.261 77.226C132.769 77.749 133.384 78.0105 134.105 78.0105C134.826 78.0105 135.434 77.749 135.928 77.226C136.437 76.703 136.692 75.9892 136.692 75.0846ZM130.268 68.1727C130.607 66.0808 131.582 65.0348 133.193 65.0348C133.504 65.0348 133.773 65.0843 133.999 65.1833C134.239 65.2681 134.529 65.4023 134.868 65.5861C135.123 65.7274 135.328 65.8335 135.483 65.9041C135.639 65.9607 135.801 65.9889 135.971 65.9889C136.494 65.9889 136.798 65.6709 136.883 65.0348H138.748C138.409 67.1268 137.434 68.1727 135.822 68.1727C135.511 68.1727 135.236 68.1303 134.996 68.0455C134.769 67.9466 134.487 67.8052 134.147 67.6215C133.893 67.4801 133.688 67.3812 133.533 67.3247C133.377 67.254 133.215 67.2187 133.045 67.2187C132.522 67.2187 132.211 67.5367 132.112 68.1727H130.268ZM148.326 81.1696C147.167 81.1696 146.121 80.9223 145.188 80.4275C144.269 79.9328 143.541 79.2261 143.004 78.3073C142.481 77.3886 142.219 76.3143 142.219 75.0846C142.219 73.869 142.488 72.8019 143.025 71.8831C143.562 70.9502 144.297 70.2364 145.23 69.7417C146.163 69.247 147.209 68.9996 148.368 68.9996C149.527 68.9996 150.573 69.247 151.506 69.7417C152.439 70.2364 153.174 70.9502 153.711 71.8831C154.248 72.8019 154.517 73.869 154.517 75.0846C154.517 76.3002 154.241 77.3744 153.69 78.3073C153.153 79.2261 152.41 79.9328 151.463 80.4275C150.531 80.9223 149.485 81.1696 148.326 81.1696ZM148.326 78.0317C149.018 78.0317 149.605 77.7773 150.085 77.2684C150.58 76.7596 150.827 76.0316 150.827 75.0846C150.827 74.1376 150.587 73.4097 150.107 72.9008C149.64 72.392 149.061 72.1375 148.368 72.1375C147.661 72.1375 147.075 72.392 146.608 72.9008C146.142 73.3955 145.909 74.1235 145.909 75.0846C145.909 76.0316 146.135 76.7596 146.587 77.2684C147.053 77.7773 147.633 78.0317 148.326 78.0317Z" fill="#EBEBEB"/>
<path fill-rule="evenodd" clip-rule="evenodd" d="M127.45 266.998C121.644 268.167 116.369 270.826 112.201 274.685C110.224 276.515 109.248 277.108 108.212 277.108C106.345 277.108 104.621 277.819 103.566 279.024C102.657 280.06 100.819 283.713 100.266 285.58C99.9259 286.73 99.7583 286.723 105.323 285.79C106.663 285.565 106.783 285.643 106.783 286.728C106.783 288.505 110.102 291.935 111.822 291.935C113.282 291.935 113.256 291.647 112.31 297.263C112.071 298.686 112.118 298.754 113.126 298.447C118.442 296.832 121.135 294.498 121.504 291.187C121.712 289.322 122.113 288.613 124.341 286.177C128.368 281.773 131.245 275.332 132.154 268.684C132.529 265.946 132.582 265.965 127.45 266.998ZM119.812 275.311C119.318 275.805 118.914 276.614 118.914 277.108C118.914 277.603 119.318 278.411 119.812 278.906C120.307 279.4 121.115 279.804 121.61 279.804C122.767 279.804 124.305 278.266 124.305 277.108C124.305 276.614 123.901 275.805 123.407 275.311C122.913 274.817 122.104 274.413 121.61 274.413C121.115 274.413 120.307 274.817 119.812 275.311ZM104.413 290.026C103.451 291.089 102.739 293.059 102.739 294.66C102.739 295.829 102.894 295.979 104.102 295.979C106.827 295.979 110.209 293.833 109.151 292.775C108.825 292.449 108.59 292.455 108.38 292.794C108.214 293.063 107.483 293.283 106.756 293.283C105.594 293.283 105.435 293.124 105.435 291.961C105.435 291.235 105.64 290.513 105.892 290.358C106.376 290.058 106.074 289.239 105.478 289.239C105.284 289.239 104.805 289.593 104.413 290.026Z" fill="#EBEBEB"/>
</g>
<defs>
<filter id="filter0_d_1379_1421" x="0.349741" y="0.11658" width="241.174" height="355.135" filterUnits="userSpaceOnUse" color-interpolation-filters="sRGB">
<feFlood flood-opacity="0" result="BackgroundImageFix"/>
<feColorMatrix in="SourceAlpha" type="matrix" values="0 0 0 0 0 0 0 0 0 0 0 0 0 0 0 0 0 0 127 0" result="hardAlpha"/>
<feOffset dx="4.4171" dy="6.18394"/>
<feGaussianBlur stdDeviation="3.53368"/>
<feComposite in2="hardAlpha" operator="out"/>
<feColorMatrix type="matrix" values="0 0 0 0 0 0 0 0 0 0 0 0 0 0 0 0 0 0 0.1 0"/>
<feBlend mode="normal" in2="BackgroundImageFix" result="effect1_dropShadow_1379_1421"/>
<feBlend mode="normal" in="SourceGraphic" in2="effect1_dropShadow_1379_1421" result="shape"/>
</filter>
</defs>
</svg>
