<svg width="25" height="25" viewBox="0 0 35 35" fill="none" xmlns="http://www.w3.org/2000/svg">
<path d="M8.75 2.9165L4.375 8.74984V29.1665C4.375 29.9401 4.68229 30.6819 5.22927 31.2289C5.77625 31.7759 6.51812 32.0832 7.29167 32.0832H27.7083C28.4819 32.0832 29.2237 31.7759 29.7707 31.2289C30.3177 30.6819 30.625 29.9401 30.625 29.1665V8.74984L26.25 2.9165H8.75Z" stroke="white" stroke-width="3" stroke-linecap="round" stroke-linejoin="round"/>
<path d="M4.375 8.75H30.625" stroke="white" stroke-width="3" stroke-linecap="round" stroke-linejoin="round"/>
<path d="M23.3337 14.5835C23.3337 16.1306 22.7191 17.6143 21.6251 18.7083C20.5312 19.8022 19.0474 20.4168 17.5003 20.4168C15.9532 20.4168 14.4695 19.8022 13.3755 18.7083C12.2816 17.6143 11.667 16.1306 11.667 14.5835" stroke="white" stroke-width="3" stroke-linecap="round" stroke-linejoin="round"/>
</svg>
