<svg width="241" height="357" viewBox="0 0 241 357" fill="none" xmlns="http://www.w3.org/2000/svg">
<g filter="url(#filter0_d_1379_1427)">
<rect x="3" y="1" width="225" height="341" rx="26.4649" fill="#00202A"/>
<path d="M32.7963 167L30.2363 162.552H28.8443V167H27.0203V155.88H30.8603C31.7136 155.88 32.4336 156.029 33.0203 156.328C33.6176 156.627 34.0603 157.027 34.3483 157.528C34.647 158.029 34.7963 158.589 34.7963 159.208C34.7963 159.933 34.583 160.595 34.1563 161.192C33.7403 161.779 33.095 162.179 32.2203 162.392L34.9723 167H32.7963ZM28.8443 161.096H30.8603C31.543 161.096 32.055 160.925 32.3963 160.584C32.7483 160.243 32.9243 159.784 32.9243 159.208C32.9243 158.632 32.7536 158.184 32.4123 157.864C32.071 157.533 31.5536 157.368 30.8603 157.368H28.8443V161.096ZM45.2097 162.376C45.2097 162.707 45.1884 163.005 45.1457 163.272H38.4097C38.463 163.976 38.7244 164.541 39.1937 164.968C39.663 165.395 40.239 165.608 40.9217 165.608C41.903 165.608 42.5964 165.197 43.0017 164.376H44.9697C44.703 165.187 44.2177 165.853 43.5137 166.376C42.8204 166.888 41.9564 167.144 40.9217 167.144C40.079 167.144 39.3217 166.957 38.6497 166.584C37.9884 166.2 37.4657 165.667 37.0817 164.984C36.7084 164.291 36.5217 163.491 36.5217 162.584C36.5217 161.677 36.703 160.883 37.0657 160.2C37.439 159.507 37.9564 158.973 38.6177 158.6C39.2897 158.227 40.0577 158.04 40.9217 158.04C41.7537 158.04 42.495 158.221 43.1457 158.584C43.7964 158.947 44.303 159.459 44.6657 160.12C45.0284 160.771 45.2097 161.523 45.2097 162.376ZM43.3057 161.8C43.295 161.128 43.055 160.589 42.5857 160.184C42.1164 159.779 41.535 159.576 40.8417 159.576C40.2124 159.576 39.6737 159.779 39.2257 160.184C38.7777 160.579 38.511 161.117 38.4257 161.8H43.3057ZM50.2047 167.144C49.5114 167.144 48.8874 167.021 48.3327 166.776C47.7887 166.52 47.3567 166.179 47.0367 165.752C46.7167 165.315 46.546 164.829 46.5247 164.296H48.4127C48.4447 164.669 48.6207 164.984 48.9407 165.24C49.2714 165.485 49.682 165.608 50.1727 165.608C50.6847 165.608 51.0794 165.512 51.3567 165.32C51.6447 165.117 51.7887 164.861 51.7887 164.552C51.7887 164.221 51.6287 163.976 51.3087 163.816C50.9994 163.656 50.5034 163.48 49.8207 163.288C49.1594 163.107 48.6207 162.931 48.2047 162.76C47.7887 162.589 47.426 162.328 47.1167 161.976C46.818 161.624 46.6687 161.16 46.6687 160.584C46.6687 160.115 46.8074 159.688 47.0847 159.304C47.362 158.909 47.7567 158.6 48.2687 158.376C48.7914 158.152 49.3887 158.04 50.0607 158.04C51.0634 158.04 51.8687 158.296 52.4767 158.808C53.0954 159.309 53.426 159.997 53.4687 160.872H51.6447C51.6127 160.477 51.4527 160.163 51.1647 159.928C50.8767 159.693 50.4874 159.576 49.9967 159.576C49.5167 159.576 49.1487 159.667 48.8927 159.848C48.6367 160.029 48.5087 160.269 48.5087 160.568C48.5087 160.803 48.594 161 48.7647 161.16C48.9354 161.32 49.1434 161.448 49.3887 161.544C49.634 161.629 49.9967 161.741 50.4767 161.88C51.1167 162.051 51.6394 162.227 52.0447 162.408C52.4607 162.579 52.818 162.835 53.1167 163.176C53.4154 163.517 53.57 163.971 53.5807 164.536C53.5807 165.037 53.442 165.485 53.1647 165.88C52.8874 166.275 52.4927 166.584 51.9807 166.808C51.4794 167.032 50.8874 167.144 50.2047 167.144ZM57.3756 159.48C57.6849 159.075 58.1062 158.733 58.6396 158.456C59.1729 158.179 59.7756 158.04 60.4476 158.04C61.2156 158.04 61.9142 158.232 62.5436 158.616C63.1836 158.989 63.6849 159.517 64.0476 160.2C64.4102 160.883 64.5916 161.667 64.5916 162.552C64.5916 163.437 64.4102 164.232 64.0476 164.936C63.6849 165.629 63.1836 166.173 62.5436 166.568C61.9142 166.952 61.2156 167.144 60.4476 167.144C59.7756 167.144 59.1782 167.011 58.6556 166.744C58.1329 166.467 57.7062 166.125 57.3756 165.72V171.192H55.5516V158.184H57.3756V159.48ZM62.7356 162.552C62.7356 161.944 62.6076 161.421 62.3516 160.984C62.1062 160.536 61.7756 160.2 61.3596 159.976C60.9542 159.741 60.5169 159.624 60.0476 159.624C59.5889 159.624 59.1516 159.741 58.7356 159.976C58.3302 160.211 57.9996 160.552 57.7436 161C57.4982 161.448 57.3756 161.976 57.3756 162.584C57.3756 163.192 57.4982 163.725 57.7436 164.184C57.9996 164.632 58.3302 164.973 58.7356 165.208C59.1516 165.443 59.5889 165.56 60.0476 165.56C60.5169 165.56 60.9542 165.443 61.3596 165.208C61.7756 164.963 62.1062 164.611 62.3516 164.152C62.6076 163.693 62.7356 163.16 62.7356 162.552ZM74.4753 162.376C74.4753 162.707 74.454 163.005 74.4113 163.272H67.6753C67.7286 163.976 67.99 164.541 68.4593 164.968C68.9286 165.395 69.5046 165.608 70.1873 165.608C71.1686 165.608 71.862 165.197 72.2673 164.376H74.2353C73.9686 165.187 73.4833 165.853 72.7793 166.376C72.086 166.888 71.222 167.144 70.1873 167.144C69.3446 167.144 68.5873 166.957 67.9153 166.584C67.254 166.2 66.7313 165.667 66.3473 164.984C65.974 164.291 65.7873 163.491 65.7873 162.584C65.7873 161.677 65.9686 160.883 66.3313 160.2C66.7046 159.507 67.222 158.973 67.8833 158.6C68.5553 158.227 69.3233 158.04 70.1873 158.04C71.0193 158.04 71.7606 158.221 72.4113 158.584C73.062 158.947 73.5686 159.459 73.9313 160.12C74.294 160.771 74.4753 161.523 74.4753 162.376ZM72.5713 161.8C72.5606 161.128 72.3206 160.589 71.8513 160.184C71.382 159.779 70.8006 159.576 70.1073 159.576C69.478 159.576 68.9393 159.779 68.4913 160.184C68.0433 160.579 67.7766 161.117 67.6913 161.8H72.5713ZM77.1983 157.016C76.8676 157.016 76.5903 156.904 76.3663 156.68C76.1423 156.456 76.0303 156.179 76.0303 155.848C76.0303 155.517 76.1423 155.24 76.3663 155.016C76.5903 154.792 76.8676 154.68 77.1983 154.68C77.5183 154.68 77.7903 154.792 78.0143 155.016C78.2383 155.24 78.3503 155.517 78.3503 155.848C78.3503 156.179 78.2383 156.456 78.0143 156.68C77.7903 156.904 77.5183 157.016 77.1983 157.016ZM78.0943 158.184V167H76.2703V158.184H78.0943ZM82.6171 159.672V164.552C82.6171 164.883 82.6917 165.123 82.8411 165.272C83.0011 165.411 83.2677 165.48 83.6411 165.48H84.7611V167H83.3211C82.4997 167 81.8704 166.808 81.4331 166.424C80.9957 166.04 80.7771 165.416 80.7771 164.552V159.672H79.7371V158.184H80.7771V155.992H82.6171V158.184H84.7611V159.672H82.6171ZM90.2662 167.144C89.4342 167.144 88.6822 166.957 88.0102 166.584C87.3382 166.2 86.8102 165.667 86.4262 164.984C86.0422 164.291 85.8502 163.491 85.8502 162.584C85.8502 161.688 86.0475 160.893 86.4422 160.2C86.8369 159.507 87.3755 158.973 88.0582 158.6C88.7409 158.227 89.5035 158.04 90.3462 158.04C91.1889 158.04 91.9515 158.227 92.6342 158.6C93.3169 158.973 93.8555 159.507 94.2502 160.2C94.6449 160.893 94.8422 161.688 94.8422 162.584C94.8422 163.48 94.6395 164.275 94.2342 164.968C93.8289 165.661 93.2742 166.2 92.5702 166.584C91.8769 166.957 91.1089 167.144 90.2662 167.144ZM90.2662 165.56C90.7355 165.56 91.1729 165.448 91.5782 165.224C91.9942 165 92.3302 164.664 92.5862 164.216C92.8422 163.768 92.9702 163.224 92.9702 162.584C92.9702 161.944 92.8475 161.405 92.6022 160.968C92.3569 160.52 92.0315 160.184 91.6262 159.96C91.2209 159.736 90.7835 159.624 90.3142 159.624C89.8449 159.624 89.4075 159.736 89.0022 159.96C88.6075 160.184 88.2929 160.52 88.0582 160.968C87.8235 161.405 87.7062 161.944 87.7062 162.584C87.7062 163.533 87.9462 164.269 88.4262 164.792C88.9169 165.304 89.5302 165.56 90.2662 165.56ZM98.6453 164.808L96.7093 169.224H95.5253L96.6613 164.808H98.6453ZM108.955 158.04C109.627 158.04 110.225 158.184 110.747 158.472C111.281 158.76 111.697 159.187 111.995 159.752C112.305 160.317 112.459 161 112.459 161.8V167H110.651V162.072C110.651 161.283 110.454 160.68 110.059 160.264C109.665 159.837 109.126 159.624 108.443 159.624C107.761 159.624 107.217 159.837 106.811 160.264C106.417 160.68 106.219 161.283 106.219 162.072V167H104.395V155.16H106.219V159.208C106.529 158.835 106.918 158.547 107.387 158.344C107.867 158.141 108.39 158.04 108.955 158.04ZM118.61 167.144C117.778 167.144 117.026 166.957 116.354 166.584C115.682 166.2 115.154 165.667 114.77 164.984C114.386 164.291 114.194 163.491 114.194 162.584C114.194 161.688 114.391 160.893 114.786 160.2C115.181 159.507 115.719 158.973 116.402 158.6C117.085 158.227 117.847 158.04 118.69 158.04C119.533 158.04 120.295 158.227 120.978 158.6C121.661 158.973 122.199 159.507 122.594 160.2C122.989 160.893 123.186 161.688 123.186 162.584C123.186 163.48 122.983 164.275 122.578 164.968C122.173 165.661 121.618 166.2 120.914 166.584C120.221 166.957 119.453 167.144 118.61 167.144ZM118.61 165.56C119.079 165.56 119.517 165.448 119.922 165.224C120.338 165 120.674 164.664 120.93 164.216C121.186 163.768 121.314 163.224 121.314 162.584C121.314 161.944 121.191 161.405 120.946 160.968C120.701 160.52 120.375 160.184 119.97 159.96C119.565 159.736 119.127 159.624 118.658 159.624C118.189 159.624 117.751 159.736 117.346 159.96C116.951 160.184 116.637 160.52 116.402 160.968C116.167 161.405 116.05 161.944 116.05 162.584C116.05 163.533 116.29 164.269 116.77 164.792C117.261 165.304 117.874 165.56 118.61 165.56ZM129.437 158.04C130.13 158.04 130.749 158.184 131.293 158.472C131.848 158.76 132.28 159.187 132.589 159.752C132.898 160.317 133.053 161 133.053 161.8V167H131.245V162.072C131.245 161.283 131.048 160.68 130.653 160.264C130.258 159.837 129.72 159.624 129.037 159.624C128.354 159.624 127.81 159.837 127.405 160.264C127.01 160.68 126.813 161.283 126.813 162.072V167H124.989V158.184H126.813V159.192C127.112 158.829 127.49 158.547 127.949 158.344C128.418 158.141 128.914 158.04 129.437 158.04ZM143.46 162.376C143.46 162.707 143.438 163.005 143.396 163.272H136.66C136.713 163.976 136.974 164.541 137.444 164.968C137.913 165.395 138.489 165.608 139.172 165.608C140.153 165.608 140.846 165.197 141.252 164.376H143.22C142.953 165.187 142.468 165.853 141.764 166.376C141.07 166.888 140.206 167.144 139.172 167.144C138.329 167.144 137.572 166.957 136.9 166.584C136.238 166.2 135.716 165.667 135.332 164.984C134.958 164.291 134.772 163.491 134.772 162.584C134.772 161.677 134.953 160.883 135.316 160.2C135.689 159.507 136.206 158.973 136.868 158.6C137.54 158.227 138.308 158.04 139.172 158.04C140.004 158.04 140.745 158.221 141.396 158.584C142.046 158.947 142.553 159.459 142.916 160.12C143.278 160.771 143.46 161.523 143.46 162.376ZM141.556 161.8C141.545 161.128 141.305 160.589 140.836 160.184C140.366 159.779 139.785 159.576 139.092 159.576C138.462 159.576 137.924 159.779 137.476 160.184C137.028 160.579 136.761 161.117 136.676 161.8H141.556ZM148.455 167.144C147.761 167.144 147.137 167.021 146.583 166.776C146.039 166.52 145.607 166.179 145.287 165.752C144.967 165.315 144.796 164.829 144.775 164.296H146.663C146.695 164.669 146.871 164.984 147.191 165.24C147.521 165.485 147.932 165.608 148.423 165.608C148.935 165.608 149.329 165.512 149.607 165.32C149.895 165.117 150.039 164.861 150.039 164.552C150.039 164.221 149.879 163.976 149.559 163.816C149.249 163.656 148.753 163.48 148.071 163.288C147.409 163.107 146.871 162.931 146.455 162.76C146.039 162.589 145.676 162.328 145.367 161.976C145.068 161.624 144.919 161.16 144.919 160.584C144.919 160.115 145.057 159.688 145.335 159.304C145.612 158.909 146.007 158.6 146.519 158.376C147.041 158.152 147.639 158.04 148.311 158.04C149.313 158.04 150.119 158.296 150.727 158.808C151.345 159.309 151.676 159.997 151.719 160.872H149.895C149.863 160.477 149.703 160.163 149.415 159.928C149.127 159.693 148.737 159.576 148.247 159.576C147.767 159.576 147.399 159.667 147.143 159.848C146.887 160.029 146.759 160.269 146.759 160.568C146.759 160.803 146.844 161 147.015 161.16C147.185 161.32 147.393 161.448 147.639 161.544C147.884 161.629 148.247 161.741 148.727 161.88C149.367 162.051 149.889 162.227 150.295 162.408C150.711 162.579 151.068 162.835 151.367 163.176C151.665 163.517 151.82 163.971 151.831 164.536C151.831 165.037 151.692 165.485 151.415 165.88C151.137 166.275 150.743 166.584 150.231 166.808C149.729 167.032 149.137 167.144 148.455 167.144ZM155.93 159.672V164.552C155.93 164.883 156.004 165.123 156.154 165.272C156.314 165.411 156.58 165.48 156.954 165.48H158.074V167H156.634C155.812 167 155.183 166.808 154.746 166.424C154.308 166.04 154.09 165.416 154.09 164.552V159.672H153.05V158.184H154.09V155.992H155.93V158.184H158.074V159.672H155.93ZM160.683 157.016C160.352 157.016 160.075 156.904 159.851 156.68C159.627 156.456 159.515 156.179 159.515 155.848C159.515 155.517 159.627 155.24 159.851 155.016C160.075 154.792 160.352 154.68 160.683 154.68C161.003 154.68 161.275 154.792 161.499 155.016C161.723 155.24 161.835 155.517 161.835 155.848C161.835 156.179 161.723 156.456 161.499 156.68C161.275 156.904 161.003 157.016 160.683 157.016ZM161.579 158.184V167H159.755V158.184H161.579ZM163.365 162.552C163.365 161.667 163.547 160.883 163.909 160.2C164.283 159.517 164.784 158.989 165.413 158.616C166.053 158.232 166.763 158.04 167.541 158.04C168.117 158.04 168.683 158.168 169.237 158.424C169.803 158.669 170.251 159 170.581 159.416V155.16H172.421V167H170.581V165.672C170.283 166.099 169.867 166.451 169.333 166.728C168.811 167.005 168.208 167.144 167.525 167.144C166.757 167.144 166.053 166.952 165.413 166.568C164.784 166.173 164.283 165.629 163.909 164.936C163.547 164.232 163.365 163.437 163.365 162.552ZM170.581 162.584C170.581 161.976 170.453 161.448 170.197 161C169.952 160.552 169.627 160.211 169.221 159.976C168.816 159.741 168.379 159.624 167.909 159.624C167.44 159.624 167.003 159.741 166.597 159.976C166.192 160.2 165.861 160.536 165.605 160.984C165.36 161.421 165.237 161.944 165.237 162.552C165.237 163.16 165.36 163.693 165.605 164.152C165.861 164.611 166.192 164.963 166.597 165.208C167.013 165.443 167.451 165.56 167.909 165.56C168.379 165.56 168.816 165.443 169.221 165.208C169.627 164.973 169.952 164.632 170.197 164.184C170.453 163.725 170.581 163.192 170.581 162.584ZM174.209 162.552C174.209 161.667 174.391 160.883 174.753 160.2C175.127 159.517 175.628 158.989 176.257 158.616C176.897 158.232 177.601 158.04 178.369 158.04C179.063 158.04 179.665 158.179 180.177 158.456C180.7 158.723 181.116 159.059 181.425 159.464V158.184H183.265V167H181.425V165.688C181.116 166.104 180.695 166.451 180.161 166.728C179.628 167.005 179.02 167.144 178.337 167.144C177.58 167.144 176.887 166.952 176.257 166.568C175.628 166.173 175.127 165.629 174.753 164.936C174.391 164.232 174.209 163.437 174.209 162.552ZM181.425 162.584C181.425 161.976 181.297 161.448 181.041 161C180.796 160.552 180.471 160.211 180.065 159.976C179.66 159.741 179.223 159.624 178.753 159.624C178.284 159.624 177.847 159.741 177.441 159.976C177.036 160.2 176.705 160.536 176.449 160.984C176.204 161.421 176.081 161.944 176.081 162.552C176.081 163.16 176.204 163.693 176.449 164.152C176.705 164.611 177.036 164.963 177.441 165.208C177.857 165.443 178.295 165.56 178.753 165.56C179.223 165.56 179.66 165.443 180.065 165.208C180.471 164.973 180.796 164.632 181.041 164.184C181.297 163.725 181.425 163.192 181.425 162.584ZM185.053 162.552C185.053 161.667 185.234 160.883 185.597 160.2C185.97 159.517 186.472 158.989 187.101 158.616C187.741 158.232 188.45 158.04 189.229 158.04C189.805 158.04 190.37 158.168 190.925 158.424C191.49 158.669 191.938 159 192.269 159.416V155.16H194.109V167H192.269V165.672C191.97 166.099 191.554 166.451 191.021 166.728C190.498 167.005 189.896 167.144 189.213 167.144C188.445 167.144 187.741 166.952 187.101 166.568C186.472 166.173 185.97 165.629 185.597 164.936C185.234 164.232 185.053 163.437 185.053 162.552ZM192.269 162.584C192.269 161.976 192.141 161.448 191.885 161C191.64 160.552 191.314 160.211 190.909 159.976C190.504 159.741 190.066 159.624 189.597 159.624C189.128 159.624 188.69 159.741 188.285 159.976C187.88 160.2 187.549 160.536 187.293 160.984C187.048 161.421 186.925 161.944 186.925 162.552C186.925 163.16 187.048 163.693 187.293 164.152C187.549 164.611 187.88 164.963 188.285 165.208C188.701 165.443 189.138 165.56 189.597 165.56C190.066 165.56 190.504 165.443 190.909 165.208C191.314 164.973 191.64 164.632 191.885 164.184C192.141 163.725 192.269 163.192 192.269 162.584ZM204.585 162.376C204.585 162.707 204.563 163.005 204.521 163.272H197.785C197.838 163.976 198.099 164.541 198.569 164.968C199.038 165.395 199.614 165.608 200.297 165.608C201.278 165.608 201.971 165.197 202.377 164.376H204.345C204.078 165.187 203.593 165.853 202.889 166.376C202.195 166.888 201.331 167.144 200.297 167.144C199.454 167.144 198.697 166.957 198.025 166.584C197.363 166.2 196.841 165.667 196.457 164.984C196.083 164.291 195.897 163.491 195.897 162.584C195.897 161.677 196.078 160.883 196.441 160.2C196.814 159.507 197.331 158.973 197.993 158.6C198.665 158.227 199.433 158.04 200.297 158.04C201.129 158.04 201.87 158.221 202.521 158.584C203.171 158.947 203.678 159.459 204.041 160.12C204.403 160.771 204.585 161.523 204.585 162.376ZM202.681 161.8C202.67 161.128 202.43 160.589 201.961 160.184C201.491 159.779 200.91 159.576 200.217 159.576C199.587 159.576 199.049 159.779 198.601 160.184C198.153 160.579 197.886 161.117 197.801 161.8H202.681ZM85.2409 186.376C85.2409 186.707 85.2196 187.005 85.1769 187.272H78.4409C78.4943 187.976 78.7556 188.541 79.2249 188.968C79.6943 189.395 80.2703 189.608 80.9529 189.608C81.9343 189.608 82.6276 189.197 83.0329 188.376H85.0009C84.7343 189.187 84.2489 189.853 83.5449 190.376C82.8516 190.888 81.9876 191.144 80.9529 191.144C80.1103 191.144 79.3529 190.957 78.6809 190.584C78.0196 190.2 77.4969 189.667 77.1129 188.984C76.7396 188.291 76.5529 187.491 76.5529 186.584C76.5529 185.677 76.7343 184.883 77.0969 184.2C77.4703 183.507 77.9876 182.973 78.6489 182.6C79.3209 182.227 80.0889 182.04 80.9529 182.04C81.7849 182.04 82.5263 182.221 83.1769 182.584C83.8276 182.947 84.3343 183.459 84.6969 184.12C85.0596 184.771 85.2409 185.523 85.2409 186.376ZM83.3369 185.8C83.3263 185.128 83.0863 184.589 82.6169 184.184C82.1476 183.779 81.5663 183.576 80.8729 183.576C80.2436 183.576 79.7049 183.779 79.2569 184.184C78.8089 184.579 78.5423 185.117 78.4569 185.8H83.3369ZM99.2722 186.376C99.2722 186.707 99.2509 187.005 99.2082 187.272H92.4722C92.5255 187.976 92.7869 188.541 93.2562 188.968C93.7255 189.395 94.3015 189.608 94.9842 189.608C95.9655 189.608 96.6589 189.197 97.0642 188.376H99.0322C98.7655 189.187 98.2802 189.853 97.5762 190.376C96.8829 190.888 96.0189 191.144 94.9842 191.144C94.1415 191.144 93.3842 190.957 92.7122 190.584C92.0509 190.2 91.5282 189.667 91.1442 188.984C90.7709 188.291 90.5842 187.491 90.5842 186.584C90.5842 185.677 90.7655 184.883 91.1282 184.2C91.5015 183.507 92.0189 182.973 92.6802 182.6C93.3522 182.227 94.1202 182.04 94.9842 182.04C95.8162 182.04 96.5575 182.221 97.2082 182.584C97.8589 182.947 98.3655 183.459 98.7282 184.12C99.0909 184.771 99.2722 185.523 99.2722 186.376ZM97.3682 185.8C97.3575 185.128 97.1175 184.589 96.6482 184.184C96.1789 183.779 95.5975 183.576 94.9042 183.576C94.2749 183.576 93.7362 183.779 93.2882 184.184C92.8402 184.579 92.5735 185.117 92.4882 185.8H97.3682ZM111.739 182.04C112.433 182.04 113.051 182.184 113.595 182.472C114.15 182.76 114.582 183.187 114.891 183.752C115.211 184.317 115.371 185 115.371 185.8V191H113.563V186.072C113.563 185.283 113.366 184.68 112.971 184.264C112.577 183.837 112.038 183.624 111.355 183.624C110.673 183.624 110.129 183.837 109.723 184.264C109.329 184.68 109.131 185.283 109.131 186.072V191H107.323V186.072C107.323 185.283 107.126 184.68 106.731 184.264C106.337 183.837 105.798 183.624 105.115 183.624C104.433 183.624 103.889 183.837 103.483 184.264C103.089 184.68 102.891 185.283 102.891 186.072V191H101.067V182.184H102.891V183.192C103.19 182.829 103.569 182.547 104.027 182.344C104.486 182.141 104.977 182.04 105.499 182.04C106.203 182.04 106.833 182.189 107.387 182.488C107.942 182.787 108.369 183.219 108.667 183.784C108.934 183.251 109.35 182.829 109.915 182.52C110.481 182.2 111.089 182.04 111.739 182.04ZM119.516 183.48C119.826 183.075 120.247 182.733 120.78 182.456C121.314 182.179 121.916 182.04 122.588 182.04C123.356 182.04 124.055 182.232 124.684 182.616C125.324 182.989 125.826 183.517 126.188 184.2C126.551 184.883 126.732 185.667 126.732 186.552C126.732 187.437 126.551 188.232 126.188 188.936C125.826 189.629 125.324 190.173 124.684 190.568C124.055 190.952 123.356 191.144 122.588 191.144C121.916 191.144 121.319 191.011 120.796 190.744C120.274 190.467 119.847 190.125 119.516 189.72V195.192H117.692V182.184H119.516V183.48ZM124.876 186.552C124.876 185.944 124.748 185.421 124.492 184.984C124.247 184.536 123.916 184.2 123.5 183.976C123.095 183.741 122.658 183.624 122.188 183.624C121.73 183.624 121.292 183.741 120.876 183.976C120.471 184.211 120.14 184.552 119.884 185C119.639 185.448 119.516 185.976 119.516 186.584C119.516 187.192 119.639 187.725 119.884 188.184C120.14 188.632 120.471 188.973 120.876 189.208C121.292 189.443 121.73 189.56 122.188 189.56C122.658 189.56 123.095 189.443 123.5 189.208C123.916 188.963 124.247 188.611 124.492 188.152C124.748 187.693 124.876 187.16 124.876 186.552ZM127.928 186.552C127.928 185.667 128.109 184.883 128.472 184.2C128.845 183.517 129.347 182.989 129.976 182.616C130.616 182.232 131.32 182.04 132.088 182.04C132.781 182.04 133.384 182.179 133.896 182.456C134.419 182.723 134.835 183.059 135.144 183.464V182.184H136.984V191H135.144V189.688C134.835 190.104 134.413 190.451 133.88 190.728C133.347 191.005 132.739 191.144 132.056 191.144C131.299 191.144 130.605 190.952 129.976 190.568C129.347 190.173 128.845 189.629 128.472 188.936C128.109 188.232 127.928 187.437 127.928 186.552ZM135.144 186.584C135.144 185.976 135.016 185.448 134.76 185C134.515 184.552 134.189 184.211 133.784 183.976C133.379 183.741 132.941 183.624 132.472 183.624C132.003 183.624 131.565 183.741 131.16 183.976C130.755 184.2 130.424 184.536 130.168 184.984C129.923 185.421 129.8 185.944 129.8 186.552C129.8 187.16 129.923 187.693 130.168 188.152C130.424 188.611 130.755 188.963 131.16 189.208C131.576 189.443 132.013 189.56 132.472 189.56C132.941 189.56 133.379 189.443 133.784 189.208C134.189 188.973 134.515 188.632 134.76 188.184C135.016 187.725 135.144 187.192 135.144 186.584ZM141.508 183.672V188.552C141.508 188.883 141.582 189.123 141.732 189.272C141.892 189.411 142.158 189.48 142.532 189.48H143.652V191H142.212C141.39 191 140.761 190.808 140.324 190.424C139.886 190.04 139.668 189.416 139.668 188.552V183.672H138.628V182.184H139.668V179.992H141.508V182.184H143.652V183.672H141.508ZM146.261 181.016C145.93 181.016 145.653 180.904 145.429 180.68C145.205 180.456 145.093 180.179 145.093 179.848C145.093 179.517 145.205 179.24 145.429 179.016C145.653 178.792 145.93 178.68 146.261 178.68C146.581 178.68 146.853 178.792 147.077 179.016C147.301 179.24 147.413 179.517 147.413 179.848C147.413 180.179 147.301 180.456 147.077 180.68C146.853 180.904 146.581 181.016 146.261 181.016ZM147.157 182.184V191H145.333V182.184H147.157ZM148.944 186.552C148.944 185.667 149.125 184.883 149.488 184.2C149.861 183.517 150.362 182.989 150.992 182.616C151.632 182.232 152.336 182.04 153.104 182.04C153.797 182.04 154.4 182.179 154.912 182.456C155.434 182.723 155.85 183.059 156.16 183.464V182.184H158V191H156.16V189.688C155.85 190.104 155.429 190.451 154.896 190.728C154.362 191.005 153.754 191.144 153.072 191.144C152.314 191.144 151.621 190.952 150.992 190.568C150.362 190.173 149.861 189.629 149.488 188.936C149.125 188.232 148.944 187.437 148.944 186.552ZM156.16 186.584C156.16 185.976 156.032 185.448 155.776 185C155.53 184.552 155.205 184.211 154.8 183.976C154.394 183.741 153.957 183.624 153.488 183.624C153.018 183.624 152.581 183.741 152.176 183.976C151.77 184.2 151.44 184.536 151.184 184.984C150.938 185.421 150.816 185.944 150.816 186.552C150.816 187.16 150.938 187.693 151.184 188.152C151.44 188.611 151.77 188.963 152.176 189.208C152.592 189.443 153.029 189.56 153.488 189.56C153.957 189.56 154.394 189.443 154.8 189.208C155.205 188.973 155.53 188.632 155.776 188.184C156.032 187.725 156.16 187.192 156.16 186.584Z" fill="#EBEBEB"/>
<path d="M85.4954 64.152L79.5194 81H74.3834L68.4074 64.152H72.7754L76.9514 76.872L81.1514 64.152H85.4954ZM86.3947 74.28C86.3947 72.904 86.6507 71.696 87.1627 70.656C87.6907 69.616 88.4027 68.816 89.2987 68.256C90.1947 67.696 91.1947 67.416 92.2987 67.416C93.2427 67.416 94.0667 67.608 94.7707 67.992C95.4907 68.376 96.0427 68.88 96.4267 69.504V67.608H100.531V81H96.4267V79.104C96.0267 79.728 95.4667 80.232 94.7467 80.616C94.0427 81 93.2187 81.192 92.2747 81.192C91.1867 81.192 90.1947 80.912 89.2987 80.352C88.4027 79.776 87.6907 78.968 87.1627 77.928C86.6507 76.872 86.3947 75.656 86.3947 74.28ZM96.4267 74.304C96.4267 73.28 96.1387 72.472 95.5627 71.88C95.0027 71.288 94.3147 70.992 93.4987 70.992C92.6827 70.992 91.9867 71.288 91.4107 71.88C90.8507 72.456 90.5707 73.256 90.5707 74.28C90.5707 75.304 90.8507 76.12 91.4107 76.728C91.9867 77.32 92.6827 77.616 93.4987 77.616C94.3147 77.616 95.0027 77.32 95.5627 76.728C96.1387 76.136 96.4267 75.328 96.4267 74.304ZM107.604 63.24V81H103.5V63.24H107.604ZM116.674 81.192C115.362 81.192 114.178 80.912 113.122 80.352C112.082 79.792 111.258 78.992 110.65 77.952C110.058 76.912 109.762 75.696 109.762 74.304C109.762 72.928 110.066 71.72 110.674 70.68C111.282 69.624 112.114 68.816 113.17 68.256C114.226 67.696 115.41 67.416 116.722 67.416C118.034 67.416 119.218 67.696 120.274 68.256C121.33 68.816 122.162 69.624 122.77 70.68C123.378 71.72 123.682 72.928 123.682 74.304C123.682 75.68 123.37 76.896 122.746 77.952C122.138 78.992 121.298 79.792 120.226 80.352C119.17 80.912 117.986 81.192 116.674 81.192ZM116.674 77.64C117.458 77.64 118.122 77.352 118.666 76.776C119.226 76.2 119.506 75.376 119.506 74.304C119.506 73.232 119.234 72.408 118.69 71.832C118.162 71.256 117.506 70.968 116.722 70.968C115.922 70.968 115.258 71.256 114.73 71.832C114.202 72.392 113.938 73.216 113.938 74.304C113.938 75.376 114.194 76.2 114.706 76.776C115.234 77.352 115.89 77.64 116.674 77.64ZM129.963 69.84C130.443 69.104 131.043 68.528 131.763 68.112C132.483 67.68 133.283 67.464 134.163 67.464V71.808H133.035C132.011 71.808 131.243 72.032 130.731 72.48C130.219 72.912 129.963 73.68 129.963 74.784V81H125.859V67.608H129.963V69.84ZM148.749 74.088C148.749 74.472 148.725 74.872 148.677 75.288H139.389C139.453 76.12 139.717 76.76 140.181 77.208C140.661 77.64 141.245 77.856 141.933 77.856C142.957 77.856 143.669 77.424 144.069 76.56H148.437C148.213 77.44 147.805 78.232 147.213 78.936C146.637 79.64 145.909 80.192 145.029 80.592C144.149 80.992 143.165 81.192 142.077 81.192C140.765 81.192 139.597 80.912 138.573 80.352C137.549 79.792 136.749 78.992 136.173 77.952C135.597 76.912 135.309 75.696 135.309 74.304C135.309 72.912 135.589 71.696 136.149 70.656C136.725 69.616 137.525 68.816 138.549 68.256C139.573 67.696 140.749 67.416 142.077 67.416C143.373 67.416 144.525 67.688 145.533 68.232C146.541 68.776 147.325 69.552 147.885 70.56C148.461 71.568 148.749 72.744 148.749 74.088ZM144.549 73.008C144.549 72.304 144.309 71.744 143.829 71.328C143.349 70.912 142.749 70.704 142.029 70.704C141.341 70.704 140.757 70.904 140.277 71.304C139.813 71.704 139.525 72.272 139.413 73.008H144.549ZM156.362 81.192C155.194 81.192 154.154 80.992 153.242 80.592C152.33 80.192 151.61 79.648 151.082 78.96C150.554 78.256 150.258 77.472 150.194 76.608H154.25C154.298 77.072 154.514 77.448 154.898 77.736C155.282 78.024 155.754 78.168 156.314 78.168C156.826 78.168 157.218 78.072 157.49 77.88C157.778 77.672 157.922 77.408 157.922 77.088C157.922 76.704 157.722 76.424 157.322 76.248C156.922 76.056 156.274 75.848 155.378 75.624C154.418 75.4 153.618 75.168 152.978 74.928C152.338 74.672 151.786 74.28 151.322 73.752C150.858 73.208 150.626 72.48 150.626 71.568C150.626 70.8 150.834 70.104 151.25 69.48C151.682 68.84 152.306 68.336 153.122 67.968C153.954 67.6 154.938 67.416 156.074 67.416C157.754 67.416 159.074 67.832 160.034 68.664C161.01 69.496 161.57 70.6 161.714 71.976H157.922C157.858 71.512 157.65 71.144 157.298 70.872C156.962 70.6 156.514 70.464 155.954 70.464C155.474 70.464 155.106 70.56 154.85 70.752C154.594 70.928 154.466 71.176 154.466 71.496C154.466 71.88 154.666 72.168 155.066 72.36C155.482 72.552 156.122 72.744 156.986 72.936C157.978 73.192 158.786 73.448 159.41 73.704C160.034 73.944 160.578 74.344 161.042 74.904C161.522 75.448 161.77 76.184 161.786 77.112C161.786 77.896 161.562 78.6 161.114 79.224C160.682 79.832 160.05 80.312 159.218 80.664C158.402 81.016 157.45 81.192 156.362 81.192Z" fill="#EBEBEB"/>
<path fill-rule="evenodd" clip-rule="evenodd" d="M104.192 268.518C99.16 270.803 97.8063 276.158 100.655 282.506C102.628 286.902 103.087 286.864 103.087 282.3V278.396L104.323 278.539C105.511 278.675 105.564 278.791 105.694 281.569L105.83 284.458L110.24 280.065C113.278 277.038 114.911 275.722 115.49 275.834C117.223 276.167 116.711 277.612 113.827 280.522C112.272 282.091 111.147 283.52 111.325 283.699C111.504 283.878 113.236 282.449 115.174 280.523C118.738 276.979 120.183 276.348 120.536 278.183C120.646 278.749 119.562 280.164 117.195 282.544C115.269 284.482 113.84 286.214 114.019 286.392C114.198 286.571 115.627 285.446 117.196 283.891C120.104 281.01 121.551 280.495 121.884 282.224C121.99 282.777 121.084 284.031 119.218 285.914C116.358 288.799 115.743 290.649 118.547 287.931C120.176 286.351 121.614 286.217 121.884 287.619C121.995 288.196 120.737 289.774 117.873 292.65C114.468 296.069 113.845 296.896 114.488 297.142C115.652 297.589 116.98 296.825 120.735 293.55C130.561 284.981 133.833 276.203 129.238 270.743C126.075 266.984 120.711 266.716 116.678 270.116L115.218 271.348L113.758 270.116C110.745 267.575 107.471 267.028 104.192 268.518Z" fill="#EBEBEB"/>
</g>
<defs>
<filter id="filter0_d_1379_1427" x="0" y="0" width="241" height="357" filterUnits="userSpaceOnUse" color-interpolation-filters="sRGB">
<feFlood flood-opacity="0" result="BackgroundImageFix"/>
<feColorMatrix in="SourceAlpha" type="matrix" values="0 0 0 0 0 0 0 0 0 0 0 0 0 0 0 0 0 0 127 0" result="hardAlpha"/>
<feOffset dx="5" dy="7"/>
<feGaussianBlur stdDeviation="4"/>
<feComposite in2="hardAlpha" operator="out"/>
<feColorMatrix type="matrix" values="0 0 0 0 0 0 0 0 0 0 0 0 0 0 0 0 0 0 0.1 0"/>
<feBlend mode="normal" in2="BackgroundImageFix" result="effect1_dropShadow_1379_1427"/>
<feBlend mode="normal" in="SourceGraphic" in2="effect1_dropShadow_1379_1427" result="shape"/>
</filter>
</defs>
</svg>
