<svg width="315" height="149" viewBox="0 0 356 189" fill="none" xmlns="http://www.w3.org/2000/svg">
<path d="M9.16895 25.6245C9.16895 14.0599 18.5438 4.68506 30.1084 4.68506H84.5509H306.09H334.149C345.713 4.68506 355.088 14.06 355.088 25.6245V144.56C355.088 156.125 345.713 165.5 334.149 165.5H70.7309H30.1084C18.5438 165.5 9.16895 156.125 9.16895 144.56V112.504V59.5083V25.6245Z" fill="#FFDE4E"/>
<mask id="mask0_1231_2033" style="mask-type:alpha" maskUnits="userSpaceOnUse" x="0" y="0" width="356" height="189">
<path fill-rule="evenodd" clip-rule="evenodd" d="M307.696 6.44456L308.455 2.32597L300.217 0.808594L299.459 4.92718C297.351 16.3679 298.301 43.6645 319.208 62.409C323.248 66.0305 326.283 71.7281 328.365 79.0652C330.436 86.3604 331.465 94.9244 331.753 103.859C332.092 114.356 331.403 125.16 330.292 134.673H65.5799C60.0848 125.598 52.2447 118.672 43.9603 113.526C31.003 105.478 16.6054 101.543 7.17565 100.364L3.0201 99.8449L1.98122 108.156L6.13676 108.675C14.5753 109.73 27.7758 113.334 39.541 120.641C45.5438 124.37 51.0795 128.998 55.4416 134.673H9.16952V145.73C9.16952 157.295 18.5444 166.67 30.1089 166.67H253.151L273.205 188.278L284.902 166.67H334.149C345.714 166.67 355.089 157.295 355.089 145.73V134.673H338.722C339.81 125.037 340.467 114.191 340.125 103.589C339.823 94.251 338.743 84.9536 336.423 76.7781C334.114 68.6445 330.476 61.2619 324.8 56.1726C306.843 40.0739 305.895 16.2224 307.696 6.44456ZM86.2251 5.59583L86.135 1.40891L77.7612 1.589L77.8512 5.77591C77.9815 11.8337 76.774 20.4472 73.0738 26.8416C71.2599 29.9762 68.9449 32.4136 66.0491 33.8821C63.1932 35.3305 59.4192 36.0175 54.3252 35.0715C28.8542 30.3411 9.84336 45.1757 3.37397 53.3395L0.772949 56.6217L7.33742 61.8237L9.93844 58.5415C15.1951 51.9081 31.3626 39.326 52.7958 43.3064C59.4279 44.5381 65.1115 43.7489 69.8374 41.3522C74.5235 38.9758 77.9145 35.1994 80.3233 31.0366C85.0687 22.8362 86.374 12.5205 86.2251 5.59583Z" fill="#2F88FF"/>
</mask>
<g mask="url(#mask0_1231_2033)">
<path d="M9.16895 26.6255C9.16895 15.061 18.5438 5.68604 30.1084 5.68604H84.5509H306.09H334.149C345.713 5.68604 355.088 15.0609 355.088 26.6255V169.851C355.088 181.416 345.713 190.791 334.149 190.791H70.7309H30.1084C18.5438 190.791 9.16895 181.416 9.16895 169.851V129.79V68.7898V26.6255Z" fill="#2F88FF"/>
</g>
<path d="M62.1122 92.481C61.3903 92.481 60.7242 92.3135 60.1139 91.9786C59.511 91.6362 59.031 91.1636 58.6737 90.5608C58.3239 89.9505 58.149 89.2658 58.149 88.5066C58.149 87.7475 58.3239 87.0665 58.6737 86.4636C59.031 85.8608 59.511 85.3919 60.1139 85.057C60.7242 84.7146 61.3903 84.5434 62.1122 84.5434C62.8416 84.5434 63.5077 84.7146 64.1106 85.057C64.7209 85.3919 65.2009 85.8608 65.5507 86.4636C65.9005 87.0665 66.0754 87.7475 66.0754 88.5066C66.0754 89.2658 65.9005 89.9505 65.5507 90.5608C65.2009 91.1636 64.7209 91.6362 64.1106 91.9786C63.5077 92.3135 62.8416 92.481 62.1122 92.481ZM62.1122 91.3757C62.6258 91.3757 63.0835 91.2604 63.4854 91.0297C63.8873 90.7915 64.1999 90.4566 64.4232 90.0249C64.6539 89.5858 64.7692 89.0797 64.7692 88.5066C64.7692 87.9335 64.6539 87.4312 64.4232 86.9995C64.1999 86.5678 63.8873 86.2366 63.4854 86.0059C63.0835 85.7752 62.6258 85.6598 62.1122 85.6598C61.5987 85.6598 61.141 85.7752 60.7391 86.0059C60.3372 86.2366 60.0208 86.5678 59.7901 86.9995C59.5668 87.4312 59.4552 87.9335 59.4552 88.5066C59.4552 89.0797 59.5668 89.5858 59.7901 90.0249C60.0208 90.4566 60.3372 90.7915 60.7391 91.0297C61.141 91.2604 61.5987 91.3757 62.1122 91.3757ZM69.5606 92.5033C69.0768 92.5033 68.6414 92.4177 68.2544 92.2465C67.8748 92.0679 67.5734 91.8297 67.3501 91.532C67.1268 91.2269 67.0078 90.8883 66.9929 90.5161H68.3102C68.3325 90.7766 68.4554 90.9962 68.6786 91.1748C68.9094 91.346 69.1959 91.4316 69.5383 91.4316C69.8955 91.4316 70.1709 91.3646 70.3644 91.2306C70.5653 91.0892 70.6658 90.9106 70.6658 90.6947C70.6658 90.464 70.5542 90.2928 70.3309 90.1812C70.1151 90.0696 69.769 89.9468 69.2926 89.8128C68.8312 89.6863 68.4554 89.5635 68.1651 89.4444C67.8748 89.3253 67.6218 89.143 67.4059 88.8974C67.1975 88.6517 67.0934 88.328 67.0934 87.9261C67.0934 87.5986 67.1901 87.3009 67.3836 87.033C67.5771 86.7576 67.8525 86.5418 68.2097 86.3855C68.5744 86.2292 68.9912 86.151 69.4601 86.151C70.1597 86.151 70.7216 86.3296 71.1459 86.6869C71.5775 87.0367 71.8083 87.5167 71.838 88.127H70.5653C70.543 87.8517 70.4314 87.6321 70.2304 87.4684C70.0295 87.3046 69.7578 87.2228 69.4155 87.2228C69.0805 87.2228 68.8238 87.286 68.6451 87.4125C68.4665 87.5391 68.3772 87.7065 68.3772 87.9149C68.3772 88.0787 68.4367 88.2164 68.5558 88.328C68.6749 88.4396 68.82 88.5289 68.9912 88.5959C69.1624 88.6555 69.4155 88.7336 69.7504 88.8304C70.1969 88.9495 70.5616 89.0723 70.8444 89.1988C71.1347 89.3179 71.384 89.4965 71.5924 89.7346C71.8008 89.9728 71.9087 90.2891 71.9162 90.6836C71.9162 91.0334 71.8194 91.346 71.6259 91.6214C71.4324 91.8967 71.157 92.1126 70.7998 92.2689C70.45 92.4252 70.0369 92.5033 69.5606 92.5033ZM78.4241 92.5033C77.9404 92.5033 77.505 92.4177 77.118 92.2465C76.7384 92.0679 76.437 91.8297 76.2137 91.532C75.9904 91.2269 75.8713 90.8883 75.8564 90.5161H77.1738C77.1961 90.7766 77.3189 90.9962 77.5422 91.1748C77.7729 91.346 78.0595 91.4316 78.4018 91.4316C78.7591 91.4316 79.0344 91.3646 79.2279 91.2306C79.4289 91.0892 79.5294 90.9106 79.5294 90.6947C79.5294 90.464 79.4177 90.2928 79.1945 90.1812C78.9786 90.0696 78.6325 89.9468 78.1562 89.8128C77.6948 89.6863 77.3189 89.5635 77.0286 89.4444C76.7384 89.3253 76.4853 89.143 76.2695 88.8974C76.0611 88.6517 75.9569 88.328 75.9569 87.9261C75.9569 87.5986 76.0537 87.3009 76.2472 87.033C76.4407 86.7576 76.7161 86.5418 77.0733 86.3855C77.438 86.2292 77.8548 86.151 78.3237 86.151C79.0233 86.151 79.5852 86.3296 80.0094 86.6869C80.4411 87.0367 80.6718 87.5167 80.7016 88.127H79.4289C79.4066 87.8517 79.2949 87.6321 79.094 87.4684C78.893 87.3046 78.6214 87.2228 78.279 87.2228C77.9441 87.2228 77.6873 87.286 77.5087 87.4125C77.3301 87.5391 77.2408 87.7065 77.2408 87.9149C77.2408 88.0787 77.3003 88.2164 77.4194 88.328C77.5385 88.4396 77.6836 88.5289 77.8548 88.5959C78.026 88.6555 78.279 88.7336 78.6139 88.8304C79.0605 88.9495 79.4252 89.0723 79.708 89.1988C79.9983 89.3179 80.2476 89.4965 80.456 89.7346C80.6644 89.9728 80.7723 90.2891 80.7797 90.6836C80.7797 91.0334 80.683 91.346 80.4895 91.6214C80.296 91.8967 80.0206 92.1126 79.6633 92.2689C79.3135 92.4252 78.9005 92.5033 78.4241 92.5033ZM87.7927 89.1765C87.7927 89.4072 87.7778 89.6156 87.748 89.8016H83.048C83.0852 90.2928 83.2676 90.6873 83.5951 90.985C83.9225 91.2827 84.3244 91.4316 84.8008 91.4316C85.4855 91.4316 85.9693 91.145 86.2521 90.5719H87.6252C87.4392 91.1376 87.1005 91.6027 86.6093 91.9674C86.1255 92.3247 85.5227 92.5033 84.8008 92.5033C84.2128 92.5033 83.6844 92.3731 83.2155 92.1126C82.754 91.8446 82.3893 91.4725 82.1214 90.9962C81.8609 90.5124 81.7307 89.9542 81.7307 89.3216C81.7307 88.689 81.8572 88.1345 82.1102 87.6582C82.3707 87.1744 82.7317 86.8023 83.1932 86.5418C83.662 86.2813 84.1979 86.151 84.8008 86.151C85.3813 86.151 85.8985 86.2775 86.3525 86.5306C86.8065 86.7836 87.1601 87.1409 87.4131 87.6023C87.6662 88.0563 87.7927 88.581 87.7927 89.1765ZM86.4642 88.7746C86.4567 88.3057 86.2893 87.9298 85.9618 87.647C85.6343 87.3642 85.2287 87.2228 84.7449 87.2228C84.3058 87.2228 83.93 87.3642 83.6174 87.647C83.3048 87.9224 83.1187 88.2982 83.0592 88.7746H86.4642ZM90.3178 87.1446C90.5039 86.832 90.7495 86.5901 91.0547 86.419C91.3673 86.2403 91.7357 86.151 92.1599 86.151V87.4684H91.8361C91.3375 87.4684 90.9579 87.5949 90.6974 87.8479C90.4444 88.101 90.3178 88.5401 90.3178 89.1653V92.4028H89.0452V86.2515H90.3178V87.1446ZM95.7077 91.2641L97.4492 86.2515H98.8001L96.4557 92.4028H94.9374L92.6041 86.2515H93.9661L95.7077 91.2641ZM100.41 85.4365C100.179 85.4365 99.9854 85.3584 99.8291 85.2021C99.6728 85.0458 99.5946 84.8523 99.5946 84.6216C99.5946 84.3908 99.6728 84.1973 99.8291 84.041C99.9854 83.8847 100.179 83.8066 100.41 83.8066C100.633 83.8066 100.823 83.8847 100.979 84.041C101.135 84.1973 101.213 84.3908 101.213 84.6216C101.213 84.8523 101.135 85.0458 100.979 85.2021C100.823 85.3584 100.633 85.4365 100.41 85.4365ZM101.035 86.2515V92.4028H99.7621V86.2515H101.035ZM105.296 91.4316C106.033 91.4316 106.52 91.1078 106.758 90.4603H108.131C107.968 91.0259 107.674 91.4911 107.249 91.8558C106.833 92.213 106.308 92.4214 105.675 92.481V92.9387C106.107 92.9387 106.457 93.0392 106.725 93.2401C106.993 93.4485 107.127 93.7388 107.127 94.1109C107.127 94.483 106.993 94.777 106.725 94.9929C106.457 95.2161 106.118 95.3278 105.709 95.3278H104.235V94.524H105.452C105.66 94.524 105.817 94.4942 105.921 94.4347C106.025 94.3751 106.077 94.2672 106.077 94.1109C106.077 93.9546 106.025 93.8467 105.921 93.7872C105.817 93.7276 105.66 93.6978 105.452 93.6978H104.838V92.4698C104.332 92.4103 103.885 92.2428 103.498 91.9674C103.111 91.6846 102.81 91.3199 102.594 90.8734C102.386 90.4194 102.281 89.9021 102.281 89.3216C102.281 88.689 102.408 88.1345 102.661 87.6582C102.922 87.1744 103.279 86.8023 103.733 86.5418C104.187 86.2813 104.708 86.151 105.296 86.151C106.04 86.151 106.654 86.3296 107.138 86.6869C107.629 87.0367 107.96 87.5391 108.131 88.194H106.758C106.647 87.8889 106.468 87.6507 106.222 87.4795C105.977 87.3084 105.668 87.2228 105.296 87.2228C104.775 87.2228 104.358 87.4088 104.045 87.781C103.74 88.1456 103.588 88.6592 103.588 89.3216C103.588 89.984 103.74 90.5012 104.045 90.8734C104.358 91.2455 104.775 91.4316 105.296 91.4316ZM112.068 92.5033C111.487 92.5033 110.963 92.3731 110.494 92.1126C110.025 91.8446 109.656 91.4725 109.389 90.9962C109.121 90.5124 108.987 89.9542 108.987 89.3216C108.987 88.6964 109.124 88.1419 109.4 87.6582C109.675 87.1744 110.051 86.8023 110.527 86.5418C111.004 86.2813 111.536 86.151 112.124 86.151C112.712 86.151 113.244 86.2813 113.72 86.5418C114.196 86.8023 114.572 87.1744 114.848 87.6582C115.123 88.1419 115.261 88.6964 115.261 89.3216C115.261 89.9468 115.119 90.5012 114.837 90.985C114.554 91.4688 114.167 91.8446 113.676 92.1126C113.192 92.3731 112.656 92.5033 112.068 92.5033ZM112.068 91.3981C112.395 91.3981 112.701 91.3199 112.983 91.1636C113.274 91.0073 113.508 90.7729 113.687 90.4603C113.865 90.1477 113.955 89.7681 113.955 89.3216C113.955 88.875 113.869 88.4992 113.698 88.194C113.527 87.8814 113.3 87.647 113.017 87.4907C112.734 87.3344 112.429 87.2563 112.101 87.2563C111.774 87.2563 111.469 87.3344 111.186 87.4907C110.911 87.647 110.691 87.8814 110.527 88.194C110.364 88.4992 110.282 88.875 110.282 89.3216C110.282 89.984 110.449 90.4975 110.784 90.8622C111.126 91.2195 111.554 91.3981 112.068 91.3981ZM118.752 92.5033C118.268 92.5033 117.833 92.4177 117.446 92.2465C117.066 92.0679 116.765 91.8297 116.541 91.532C116.318 91.2269 116.199 90.8883 116.184 90.5161H117.501C117.524 90.7766 117.646 90.9962 117.87 91.1748C118.1 91.346 118.387 91.4316 118.729 91.4316C119.087 91.4316 119.362 91.3646 119.556 91.2306C119.756 91.0892 119.857 90.9106 119.857 90.6947C119.857 90.464 119.745 90.2928 119.522 90.1812C119.306 90.0696 118.96 89.9468 118.484 89.8128C118.022 89.6863 117.646 89.5635 117.356 89.4444C117.066 89.3253 116.813 89.143 116.597 88.8974C116.389 88.6517 116.284 88.328 116.284 87.9261C116.284 87.5986 116.381 87.3009 116.575 87.033C116.768 86.7576 117.044 86.5418 117.401 86.3855C117.766 86.2292 118.182 86.151 118.651 86.151C119.351 86.151 119.913 86.3296 120.337 86.6869C120.769 87.0367 120.999 87.5167 121.029 88.127H119.756C119.734 87.8517 119.622 87.6321 119.422 87.4684C119.221 87.3046 118.949 87.2228 118.607 87.2228C118.272 87.2228 118.015 87.286 117.836 87.4125C117.658 87.5391 117.568 87.7065 117.568 87.9149C117.568 88.0787 117.628 88.2164 117.747 88.328C117.866 88.4396 118.011 88.5289 118.182 88.5959C118.354 88.6555 118.607 88.7336 118.941 88.8304C119.388 88.9495 119.753 89.0723 120.036 89.1988C120.326 89.3179 120.575 89.4965 120.784 89.7346C120.992 89.9728 121.1 90.2891 121.107 90.6836C121.107 91.0334 121.011 91.346 120.817 91.6214C120.624 91.8967 120.348 92.1126 119.991 92.2689C119.641 92.4252 119.228 92.5033 118.752 92.5033ZM127.615 92.5033C127.131 92.5033 126.696 92.4177 126.309 92.2465C125.93 92.0679 125.628 91.8297 125.405 91.532C125.182 91.2269 125.062 90.8883 125.048 90.5161H126.365C126.387 90.7766 126.51 90.9962 126.733 91.1748C126.964 91.346 127.251 91.4316 127.593 91.4316C127.95 91.4316 128.226 91.3646 128.419 91.2306C128.62 91.0892 128.72 90.9106 128.72 90.6947C128.72 90.464 128.609 90.2928 128.386 90.1812C128.17 90.0696 127.824 89.9468 127.347 89.8128C126.886 89.6863 126.51 89.5635 126.22 89.4444C125.93 89.3253 125.676 89.143 125.461 88.8974C125.252 88.6517 125.148 88.328 125.148 87.9261C125.148 87.5986 125.245 87.3009 125.438 87.033C125.632 86.7576 125.907 86.5418 126.264 86.3855C126.629 86.2292 127.046 86.151 127.515 86.151C128.214 86.151 128.776 86.3296 129.201 86.6869C129.632 87.0367 129.863 87.5167 129.893 88.127H128.62C128.598 87.8517 128.486 87.6321 128.285 87.4684C128.084 87.3046 127.812 87.2228 127.47 87.2228C127.135 87.2228 126.878 87.286 126.7 87.4125C126.521 87.5391 126.432 87.7065 126.432 87.9149C126.432 88.0787 126.491 88.2164 126.611 88.328C126.73 88.4396 126.875 88.5289 127.046 88.5959C127.217 88.6555 127.47 88.7336 127.805 88.8304C128.252 88.9495 128.616 89.0723 128.899 89.1988C129.189 89.3179 129.439 89.4965 129.647 89.7346C129.855 89.9728 129.963 90.2891 129.971 90.6836C129.971 91.0334 129.874 91.346 129.681 91.6214C129.487 91.8967 129.212 92.1126 128.854 92.2689C128.505 92.4252 128.092 92.5033 127.615 92.5033ZM130.922 89.2993C130.922 88.6815 131.048 88.1345 131.301 87.6582C131.562 87.1818 131.912 86.8134 132.351 86.5529C132.797 86.285 133.289 86.151 133.824 86.151C134.308 86.151 134.729 86.2478 135.086 86.4413C135.451 86.6274 135.741 86.8618 135.957 87.1446V86.2515H137.241V92.4028H135.957V91.4874C135.741 91.7777 135.447 92.0195 135.075 92.213C134.703 92.4066 134.278 92.5033 133.802 92.5033C133.274 92.5033 132.79 92.3693 132.351 92.1014C131.912 91.826 131.562 91.4465 131.301 90.9627C131.048 90.4715 130.922 89.917 130.922 89.2993ZM135.957 89.3216C135.957 88.8974 135.867 88.5289 135.689 88.2164C135.518 87.9038 135.291 87.6656 135.008 87.5019C134.725 87.3381 134.42 87.2563 134.092 87.2563C133.765 87.2563 133.46 87.3381 133.177 87.5019C132.894 87.6582 132.663 87.8926 132.485 88.2052C132.314 88.5103 132.228 88.875 132.228 89.2993C132.228 89.7235 132.314 90.0956 132.485 90.4157C132.663 90.7357 132.894 90.9813 133.177 91.1525C133.467 91.3162 133.772 91.3981 134.092 91.3981C134.42 91.3981 134.725 91.3162 135.008 91.1525C135.291 90.9887 135.518 90.7506 135.689 90.438C135.867 90.1179 135.957 89.7458 135.957 89.3216ZM132.474 85.6152C132.533 85.1835 132.675 84.8597 132.898 84.6439C133.121 84.4206 133.4 84.309 133.735 84.309C133.877 84.309 133.999 84.3313 134.104 84.376C134.208 84.4206 134.334 84.4876 134.483 84.5769C134.595 84.6513 134.688 84.7072 134.762 84.7444C134.844 84.7816 134.933 84.8002 135.03 84.8002C135.157 84.8002 135.261 84.763 135.343 84.6885C135.432 84.6067 135.488 84.4876 135.51 84.3313H136.225C136.165 84.763 136.024 85.0904 135.8 85.3137C135.577 85.5296 135.298 85.6375 134.963 85.6375C134.822 85.6375 134.695 85.6152 134.584 85.5705C134.472 85.5184 134.349 85.4477 134.215 85.3584C134.081 85.2765 133.977 85.2207 133.903 85.1909C133.836 85.1537 133.757 85.1351 133.668 85.1351C133.542 85.1351 133.434 85.176 133.344 85.2579C133.263 85.3398 133.21 85.4589 133.188 85.6152H132.474ZM141.58 92.5033C141 92.5033 140.475 92.3731 140.006 92.1126C139.537 91.8446 139.169 91.4725 138.901 90.9962C138.633 90.5124 138.499 89.9542 138.499 89.3216C138.499 88.6964 138.637 88.1419 138.912 87.6582C139.188 87.1744 139.563 86.8023 140.04 86.5418C140.516 86.2813 141.048 86.151 141.636 86.151C142.224 86.151 142.756 86.2813 143.233 86.5418C143.709 86.8023 144.085 87.1744 144.36 87.6582C144.636 88.1419 144.773 88.6964 144.773 89.3216C144.773 89.9468 144.632 90.5012 144.349 90.985C144.066 91.4688 143.679 91.8446 143.188 92.1126C142.704 92.3731 142.168 92.5033 141.58 92.5033ZM141.58 91.3981C141.908 91.3981 142.213 91.3199 142.496 91.1636C142.786 91.0073 143.021 90.7729 143.199 90.4603C143.378 90.1477 143.467 89.7681 143.467 89.3216C143.467 88.875 143.382 88.4992 143.21 88.194C143.039 87.8814 142.812 87.647 142.529 87.4907C142.247 87.3344 141.941 87.2563 141.614 87.2563C141.286 87.2563 140.981 87.3344 140.698 87.4907C140.423 87.647 140.204 87.8814 140.04 88.194C139.876 88.4992 139.794 88.875 139.794 89.3216C139.794 89.984 139.962 90.4975 140.297 90.8622C140.639 91.2195 141.067 91.3981 141.58 91.3981ZM154.569 89.1765C154.569 89.4072 154.554 89.6156 154.525 89.8016H149.825C149.862 90.2928 150.044 90.6873 150.372 90.985C150.699 91.2827 151.101 91.4316 151.577 91.4316C152.262 91.4316 152.746 91.145 153.029 90.5719H154.402C154.216 91.1376 153.877 91.6027 153.386 91.9674C152.902 92.3247 152.299 92.5033 151.577 92.5033C150.989 92.5033 150.461 92.3731 149.992 92.1126C149.531 91.8446 149.166 91.4725 148.898 90.9962C148.637 90.5124 148.507 89.9542 148.507 89.3216C148.507 88.689 148.634 88.1345 148.887 87.6582C149.147 87.1744 149.508 86.8023 149.97 86.5418C150.439 86.2813 150.974 86.151 151.577 86.151C152.158 86.151 152.675 86.2775 153.129 86.5306C153.583 86.7836 153.937 87.1409 154.19 87.6023C154.443 88.0563 154.569 88.581 154.569 89.1765ZM153.241 88.7746C153.233 88.3057 153.066 87.9298 152.738 87.647C152.411 87.3642 152.005 87.2228 151.521 87.2228C151.082 87.2228 150.706 87.3642 150.394 87.647C150.081 87.9224 149.895 88.2982 149.836 88.7746H153.241ZM158.054 92.5033C157.571 92.5033 157.135 92.4177 156.748 92.2465C156.369 92.0679 156.067 91.8297 155.844 91.532C155.621 91.2269 155.502 90.8883 155.487 90.5161H156.804C156.826 90.7766 156.949 90.9962 157.173 91.1748C157.403 91.346 157.69 91.4316 158.032 91.4316C158.389 91.4316 158.665 91.3646 158.858 91.2306C159.059 91.0892 159.16 90.9106 159.16 90.6947C159.16 90.464 159.048 90.2928 158.825 90.1812C158.609 90.0696 158.263 89.9468 157.787 89.8128C157.325 89.6863 156.949 89.5635 156.659 89.4444C156.369 89.3253 156.116 89.143 155.9 88.8974C155.691 88.6517 155.587 88.328 155.587 87.9261C155.587 87.5986 155.684 87.3009 155.877 87.033C156.071 86.7576 156.346 86.5418 156.704 86.3855C157.068 86.2292 157.485 86.151 157.954 86.151C158.654 86.151 159.216 86.3296 159.64 86.6869C160.071 87.0367 160.302 87.5167 160.332 88.127H159.059C159.037 87.8517 158.925 87.6321 158.724 87.4684C158.523 87.3046 158.252 87.2228 157.909 87.2228C157.574 87.2228 157.318 87.286 157.139 87.4125C156.96 87.5391 156.871 87.7065 156.871 87.9149C156.871 88.0787 156.931 88.2164 157.05 88.328C157.169 88.4396 157.314 88.5289 157.485 88.5959C157.656 88.6555 157.909 88.7336 158.244 88.8304C158.691 88.9495 159.055 89.0723 159.338 89.1988C159.629 89.3179 159.878 89.4965 160.086 89.7346C160.295 89.9728 160.403 90.2891 160.41 90.6836C160.41 91.0334 160.313 91.346 160.12 91.6214C159.926 91.8967 159.651 92.1126 159.294 92.2689C158.944 92.4252 158.531 92.5033 158.054 92.5033ZM161.361 89.3216C161.361 88.689 161.488 88.1345 161.741 87.6582C162.001 87.1744 162.358 86.8023 162.812 86.5418C163.266 86.2813 163.787 86.151 164.375 86.151C165.12 86.151 165.734 86.3296 166.217 86.6869C166.709 87.0367 167.04 87.5391 167.211 88.194H165.838C165.726 87.8889 165.547 87.6507 165.302 87.4795C165.056 87.3084 164.747 87.2228 164.375 87.2228C163.854 87.2228 163.437 87.4088 163.125 87.781C162.82 88.1456 162.667 88.6592 162.667 89.3216C162.667 89.984 162.82 90.5012 163.125 90.8734C163.437 91.2455 163.854 91.4316 164.375 91.4316C165.112 91.4316 165.6 91.1078 165.838 90.4603H167.211C167.032 91.0855 166.697 91.5841 166.206 91.9563C165.715 92.321 165.105 92.5033 164.375 92.5033C163.787 92.5033 163.266 92.3731 162.812 92.1126C162.358 91.8446 162.001 91.4725 161.741 90.9962C161.488 90.5124 161.361 89.9542 161.361 89.3216ZM171.147 92.5033C170.567 92.5033 170.042 92.3731 169.573 92.1126C169.104 91.8446 168.736 91.4725 168.468 90.9962C168.2 90.5124 168.066 89.9542 168.066 89.3216C168.066 88.6964 168.204 88.1419 168.479 87.6582C168.755 87.1744 169.13 86.8023 169.607 86.5418C170.083 86.2813 170.615 86.151 171.203 86.151C171.791 86.151 172.323 86.2813 172.8 86.5418C173.276 86.8023 173.652 87.1744 173.927 87.6582C174.203 88.1419 174.34 88.6964 174.34 89.3216C174.34 89.9468 174.199 90.5012 173.916 90.985C173.633 91.4688 173.246 91.8446 172.755 92.1126C172.271 92.3731 171.735 92.5033 171.147 92.5033ZM171.147 91.3981C171.475 91.3981 171.78 91.3199 172.063 91.1636C172.353 91.0073 172.588 90.7729 172.766 90.4603C172.945 90.1477 173.034 89.7681 173.034 89.3216C173.034 88.875 172.949 88.4992 172.777 88.194C172.606 87.8814 172.379 87.647 172.096 87.4907C171.814 87.3344 171.508 87.2563 171.181 87.2563C170.853 87.2563 170.548 87.3344 170.265 87.4907C169.99 87.647 169.771 87.8814 169.607 88.194C169.443 88.4992 169.361 88.875 169.361 89.3216C169.361 89.984 169.529 90.4975 169.864 90.8622C170.206 91.2195 170.634 91.3981 171.147 91.3981ZM176.871 84.1415V92.4028H175.598V84.1415H176.871ZM181.724 86.151C182.193 86.151 182.609 86.2515 182.974 86.4525C183.346 86.6534 183.637 86.9511 183.845 87.3456C184.061 87.74 184.169 88.2164 184.169 88.7746V92.4028H182.907V88.9643C182.907 88.4136 182.769 87.9931 182.494 87.7028C182.219 87.4051 181.843 87.2563 181.367 87.2563C180.89 87.2563 180.511 87.4051 180.228 87.7028C179.952 87.9931 179.815 88.4136 179.815 88.9643V92.4028H178.542V84.1415H179.815V86.966C180.031 86.7055 180.302 86.5045 180.63 86.3631C180.965 86.2217 181.329 86.151 181.724 86.151ZM186.44 85.4365C186.209 85.4365 186.015 85.3584 185.859 85.2021C185.703 85.0458 185.625 84.8523 185.625 84.6216C185.625 84.3908 185.703 84.1973 185.859 84.041C186.015 83.8847 186.209 83.8066 186.44 83.8066C186.663 83.8066 186.853 83.8847 187.009 84.041C187.165 84.1973 187.243 84.3908 187.243 84.6216C187.243 84.8523 187.165 85.0458 187.009 85.2021C186.853 85.3584 186.663 85.4365 186.44 85.4365ZM187.065 86.2515V92.4028H185.792V86.2515H187.065ZM188.311 89.2993C188.311 88.6815 188.438 88.1345 188.691 87.6582C188.952 87.1818 189.301 86.8134 189.74 86.5529C190.187 86.285 190.682 86.151 191.225 86.151C191.627 86.151 192.022 86.2403 192.409 86.419C192.803 86.5901 193.116 86.8209 193.346 87.1111V84.1415H194.63V92.4028H193.346V91.4762C193.138 91.7739 192.848 92.0195 192.476 92.213C192.111 92.4066 191.69 92.5033 191.214 92.5033C190.678 92.5033 190.187 92.3693 189.74 92.1014C189.301 91.826 188.952 91.4465 188.691 90.9627C188.438 90.4715 188.311 89.917 188.311 89.2993ZM193.346 89.3216C193.346 88.8974 193.257 88.5289 193.078 88.2164C192.907 87.9038 192.68 87.6656 192.397 87.5019C192.115 87.3381 191.809 87.2563 191.482 87.2563C191.155 87.2563 190.849 87.3381 190.567 87.5019C190.284 87.6582 190.053 87.8926 189.874 88.2052C189.703 88.5103 189.618 88.875 189.618 89.2993C189.618 89.7235 189.703 90.0956 189.874 90.4157C190.053 90.7357 190.284 90.9813 190.567 91.1525C190.857 91.3162 191.162 91.3981 191.482 91.3981C191.809 91.3981 192.115 91.3162 192.397 91.1525C192.68 90.9887 192.907 90.7506 193.078 90.438C193.257 90.1179 193.346 89.7458 193.346 89.3216ZM198.97 92.5033C198.39 92.5033 197.865 92.3731 197.396 92.1126C196.927 91.8446 196.559 91.4725 196.291 90.9962C196.023 90.5124 195.889 89.9542 195.889 89.3216C195.889 88.6964 196.026 88.1419 196.302 87.6582C196.577 87.1744 196.953 86.8023 197.429 86.5418C197.906 86.2813 198.438 86.151 199.026 86.151C199.614 86.151 200.146 86.2813 200.622 86.5418C201.099 86.8023 201.474 87.1744 201.75 87.6582C202.025 88.1419 202.163 88.6964 202.163 89.3216C202.163 89.9468 202.022 90.5012 201.739 90.985C201.456 91.4688 201.069 91.8446 200.578 92.1126C200.094 92.3731 199.558 92.5033 198.97 92.5033ZM198.97 91.3981C199.298 91.3981 199.603 91.3199 199.885 91.1636C200.176 91.0073 200.41 90.7729 200.589 90.4603C200.767 90.1477 200.857 89.7681 200.857 89.3216C200.857 88.875 200.771 88.4992 200.6 88.194C200.429 87.8814 200.202 87.647 199.919 87.4907C199.636 87.3344 199.331 87.2563 199.004 87.2563C198.676 87.2563 198.371 87.3344 198.088 87.4907C197.813 87.647 197.593 87.8814 197.429 88.194C197.266 88.4992 197.184 88.875 197.184 89.3216C197.184 89.984 197.351 90.4975 197.686 90.8622C198.029 91.2195 198.456 91.3981 198.97 91.3981ZM205.654 92.5033C205.17 92.5033 204.735 92.4177 204.348 92.2465C203.968 92.0679 203.667 91.8297 203.443 91.532C203.22 91.2269 203.101 90.8883 203.086 90.5161H204.403C204.426 90.7766 204.549 90.9962 204.772 91.1748C205.003 91.346 205.289 91.4316 205.632 91.4316C205.989 91.4316 206.264 91.3646 206.458 91.2306C206.659 91.0892 206.759 90.9106 206.759 90.6947C206.759 90.464 206.647 90.2928 206.424 90.1812C206.208 90.0696 205.862 89.9468 205.386 89.8128C204.924 89.6863 204.549 89.5635 204.258 89.4444C203.968 89.3253 203.715 89.143 203.499 88.8974C203.291 88.6517 203.187 88.328 203.187 87.9261C203.187 87.5986 203.283 87.3009 203.477 87.033C203.67 86.7576 203.946 86.5418 204.303 86.3855C204.668 86.2292 205.084 86.151 205.553 86.151C206.253 86.151 206.815 86.3296 207.239 86.6869C207.671 87.0367 207.902 87.5167 207.931 88.127H206.659C206.636 87.8517 206.525 87.6321 206.324 87.4684C206.123 87.3046 205.851 87.2228 205.509 87.2228C205.174 87.2228 204.917 87.286 204.738 87.4125C204.56 87.5391 204.47 87.7065 204.47 87.9149C204.47 88.0787 204.53 88.2164 204.649 88.328C204.768 88.4396 204.913 88.5289 205.084 88.5959C205.256 88.6555 205.509 88.7336 205.844 88.8304C206.29 88.9495 206.655 89.0723 206.938 89.1988C207.228 89.3179 207.477 89.4965 207.686 89.7346C207.894 89.9728 208.002 90.2891 208.009 90.6836C208.009 91.0334 207.913 91.346 207.719 91.6214C207.526 91.8967 207.25 92.1126 206.893 92.2689C206.543 92.4252 206.13 92.5033 205.654 92.5033ZM211.86 89.2993C211.86 88.6815 211.987 88.1345 212.24 87.6582C212.5 87.1818 212.85 86.8134 213.289 86.5529C213.736 86.285 214.231 86.151 214.774 86.151C215.176 86.151 215.571 86.2403 215.958 86.419C216.352 86.5901 216.665 86.8209 216.895 87.1111V84.1415H218.179V92.4028H216.895V91.4762C216.687 91.7739 216.397 92.0195 216.025 92.213C215.66 92.4066 215.239 92.5033 214.763 92.5033C214.227 92.5033 213.736 92.3693 213.289 92.1014C212.85 91.826 212.5 91.4465 212.24 90.9627C211.987 90.4715 211.86 89.917 211.86 89.2993ZM216.895 89.3216C216.895 88.8974 216.806 88.5289 216.627 88.2164C216.456 87.9038 216.229 87.6656 215.946 87.5019C215.664 87.3381 215.358 87.2563 215.031 87.2563C214.703 87.2563 214.398 87.3381 214.115 87.5019C213.833 87.6582 213.602 87.8926 213.423 88.2052C213.252 88.5103 213.167 88.875 213.167 89.2993C213.167 89.7235 213.252 90.0956 213.423 90.4157C213.602 90.7357 213.833 90.9813 214.115 91.1525C214.406 91.3162 214.711 91.3981 215.031 91.3981C215.358 91.3981 215.664 91.3162 215.946 91.1525C216.229 90.9887 216.456 90.7506 216.627 90.438C216.806 90.1179 216.895 89.7458 216.895 89.3216ZM225.489 89.1765C225.489 89.4072 225.474 89.6156 225.444 89.8016H220.744C220.781 90.2928 220.963 90.6873 221.291 90.985C221.618 91.2827 222.02 91.4316 222.497 91.4316C223.181 91.4316 223.665 91.145 223.948 90.5719H225.321C225.135 91.1376 224.796 91.6027 224.305 91.9674C223.821 92.3247 223.219 92.5033 222.497 92.5033C221.909 92.5033 221.38 92.3731 220.911 92.1126C220.45 91.8446 220.085 91.4725 219.817 90.9962C219.557 90.5124 219.427 89.9542 219.427 89.3216C219.427 88.689 219.553 88.1345 219.806 87.6582C220.067 87.1744 220.428 86.8023 220.889 86.5418C221.358 86.2813 221.894 86.151 222.497 86.151C223.077 86.151 223.594 86.2775 224.048 86.5306C224.502 86.7836 224.856 87.1409 225.109 87.6023C225.362 88.0563 225.489 88.581 225.489 89.1765ZM224.16 88.7746C224.153 88.3057 223.985 87.9298 223.658 87.647C223.33 87.3642 222.925 87.2228 222.441 87.2228C222.002 87.2228 221.626 87.3642 221.313 87.647C221.001 87.9224 220.815 88.2982 220.755 88.7746H224.16ZM229.217 89.2993C229.217 88.6815 229.343 88.1345 229.596 87.6582C229.857 87.1818 230.207 86.8134 230.646 86.5529C231.092 86.285 231.584 86.151 232.119 86.151C232.603 86.151 233.024 86.2478 233.381 86.4413C233.746 86.6274 234.036 86.8618 234.252 87.1446V86.2515H235.536V92.4028H234.252V91.4874C234.036 91.7777 233.742 92.0195 233.37 92.213C232.998 92.4066 232.573 92.5033 232.097 92.5033C231.569 92.5033 231.085 92.3693 230.646 92.1014C230.207 91.826 229.857 91.4465 229.596 90.9627C229.343 90.4715 229.217 89.917 229.217 89.2993ZM234.252 89.3216C234.252 88.8974 234.162 88.5289 233.984 88.2164C233.813 87.9038 233.586 87.6656 233.303 87.5019C233.02 87.3381 232.715 87.2563 232.387 87.2563C232.06 87.2563 231.755 87.3381 231.472 87.5019C231.189 87.6582 230.958 87.8926 230.78 88.2052C230.609 88.5103 230.523 88.875 230.523 89.2993C230.523 89.7235 230.609 90.0956 230.78 90.4157C230.958 90.7357 231.189 90.9813 231.472 91.1525C231.762 91.3162 232.067 91.3981 232.387 91.3981C232.715 91.3981 233.02 91.3162 233.303 91.1525C233.586 90.9887 233.813 90.7506 233.984 90.438C234.162 90.1179 234.252 89.7458 234.252 89.3216ZM236.783 89.3216C236.783 88.689 236.91 88.1345 237.163 87.6582C237.423 87.1744 237.78 86.8023 238.234 86.5418C238.688 86.2813 239.209 86.151 239.797 86.151C240.542 86.151 241.156 86.3296 241.639 86.6869C242.131 87.0367 242.462 87.5391 242.633 88.194H241.26C241.148 87.8889 240.969 87.6507 240.724 87.4795C240.478 87.3084 240.169 87.2228 239.797 87.2228C239.276 87.2228 238.859 87.4088 238.547 87.781C238.242 88.1456 238.089 88.6592 238.089 89.3216C238.089 89.984 238.242 90.5012 238.547 90.8734C238.859 91.2455 239.276 91.4316 239.797 91.4316C240.534 91.4316 241.022 91.1078 241.26 90.4603H242.633C242.454 91.0855 242.119 91.5841 241.628 91.9563C241.137 92.321 240.527 92.5033 239.797 92.5033C239.209 92.5033 238.688 92.3731 238.234 92.1126C237.78 91.8446 237.423 91.4725 237.163 90.9962C236.91 90.5124 236.783 89.9542 236.783 89.3216ZM246.569 92.5033C245.989 92.5033 245.464 92.3731 244.995 92.1126C244.526 91.8446 244.158 91.4725 243.89 90.9962C243.622 90.5124 243.488 89.9542 243.488 89.3216C243.488 88.6964 243.626 88.1419 243.901 87.6582C244.177 87.1744 244.552 86.8023 245.029 86.5418C245.505 86.2813 246.037 86.151 246.625 86.151C247.213 86.151 247.745 86.2813 248.222 86.5418C248.698 86.8023 249.074 87.1744 249.349 87.6582C249.625 88.1419 249.762 88.6964 249.762 89.3216C249.762 89.9468 249.621 90.5012 249.338 90.985C249.055 91.4688 248.668 91.8446 248.177 92.1126C247.693 92.3731 247.157 92.5033 246.569 92.5033ZM246.569 91.3981C246.897 91.3981 247.202 91.3199 247.485 91.1636C247.775 91.0073 248.01 90.7729 248.188 90.4603C248.367 90.1477 248.456 89.7681 248.456 89.3216C248.456 88.875 248.371 88.4992 248.199 88.194C248.028 87.8814 247.801 87.647 247.518 87.4907C247.236 87.3344 246.93 87.2563 246.603 87.2563C246.275 87.2563 245.97 87.3344 245.687 87.4907C245.412 87.647 245.193 87.8814 245.029 88.194C244.865 88.4992 244.783 88.875 244.783 89.3216C244.783 89.984 244.951 90.4975 245.286 90.8622C245.628 91.2195 246.056 91.3981 246.569 91.3981ZM252.293 87.1446C252.479 86.832 252.725 86.5901 253.03 86.419C253.343 86.2403 253.711 86.151 254.135 86.151V87.4684H253.811C253.313 87.4684 252.933 87.5949 252.673 87.8479C252.42 88.101 252.293 88.5401 252.293 89.1653V92.4028H251.02V86.2515H252.293V87.1446ZM254.881 89.2993C254.881 88.6815 255.007 88.1345 255.26 87.6582C255.521 87.1818 255.871 86.8134 256.31 86.5529C256.756 86.285 257.251 86.151 257.795 86.151C258.196 86.151 258.591 86.2403 258.978 86.419C259.372 86.5901 259.685 86.8209 259.916 87.1111V84.1415H261.2V92.4028H259.916V91.4762C259.707 91.7739 259.417 92.0195 259.045 92.213C258.68 92.4066 258.26 92.5033 257.783 92.5033C257.248 92.5033 256.756 92.3693 256.31 92.1014C255.871 91.826 255.521 91.4465 255.26 90.9627C255.007 90.4715 254.881 89.917 254.881 89.2993ZM259.916 89.3216C259.916 88.8974 259.826 88.5289 259.648 88.2164C259.477 87.9038 259.25 87.6656 258.967 87.5019C258.684 87.3381 258.379 87.2563 258.051 87.2563C257.724 87.2563 257.419 87.3381 257.136 87.5019C256.853 87.6582 256.622 87.8926 256.444 88.2052C256.273 88.5103 256.187 88.875 256.187 89.2993C256.187 89.7235 256.273 90.0956 256.444 90.4157C256.622 90.7357 256.853 90.9813 257.136 91.1525C257.426 91.3162 257.731 91.3981 258.051 91.3981C258.379 91.3981 258.684 91.3162 258.967 91.1525C259.25 90.9887 259.477 90.7506 259.648 90.438C259.826 90.1179 259.916 89.7458 259.916 89.3216ZM265.539 92.5033C264.959 92.5033 264.434 92.3731 263.965 92.1126C263.496 91.8446 263.128 91.4725 262.86 90.9962C262.592 90.5124 262.458 89.9542 262.458 89.3216C262.458 88.6964 262.596 88.1419 262.871 87.6582C263.147 87.1744 263.522 86.8023 263.999 86.5418C264.475 86.2813 265.007 86.151 265.595 86.151C266.183 86.151 266.715 86.2813 267.192 86.5418C267.668 86.8023 268.044 87.1744 268.319 87.6582C268.595 88.1419 268.732 88.6964 268.732 89.3216C268.732 89.9468 268.591 90.5012 268.308 90.985C268.025 91.4688 267.638 91.8446 267.147 92.1126C266.663 92.3731 266.127 92.5033 265.539 92.5033ZM265.539 91.3981C265.867 91.3981 266.172 91.3199 266.455 91.1636C266.745 91.0073 266.98 90.7729 267.158 90.4603C267.337 90.1477 267.426 89.7681 267.426 89.3216C267.426 88.875 267.341 88.4992 267.169 88.194C266.998 87.8814 266.771 87.647 266.488 87.4907C266.206 87.3344 265.9 87.2563 265.573 87.2563C265.245 87.2563 264.94 87.3344 264.657 87.4907C264.382 87.647 264.163 87.8814 263.999 88.194C263.835 88.4992 263.753 88.875 263.753 89.3216C263.753 89.984 263.921 90.4975 264.256 90.8622C264.598 91.2195 265.026 91.3981 265.539 91.3981ZM272.466 89.3216C272.466 88.689 272.593 88.1345 272.846 87.6582C273.106 87.1744 273.464 86.8023 273.918 86.5418C274.372 86.2813 274.892 86.151 275.48 86.151C276.225 86.151 276.839 86.3296 277.323 86.6869C277.814 87.0367 278.145 87.5391 278.316 88.194H276.943C276.831 87.8889 276.653 87.6507 276.407 87.4795C276.161 87.3084 275.853 87.2228 275.48 87.2228C274.959 87.2228 274.543 87.4088 274.23 87.781C273.925 88.1456 273.772 88.6592 273.772 89.3216C273.772 89.984 273.925 90.5012 274.23 90.8734C274.543 91.2455 274.959 91.4316 275.48 91.4316C276.217 91.4316 276.705 91.1078 276.943 90.4603H278.316C278.137 91.0855 277.803 91.5841 277.311 91.9563C276.82 92.321 276.21 92.5033 275.48 92.5033C274.892 92.5033 274.372 92.3731 273.918 92.1126C273.464 91.8446 273.106 91.4725 272.846 90.9962C272.593 90.5124 272.466 89.9542 272.466 89.3216ZM282.253 92.5033C281.672 92.5033 281.147 92.3731 280.678 92.1126C280.21 91.8446 279.841 91.4725 279.573 90.9962C279.305 90.5124 279.171 89.9542 279.171 89.3216C279.171 88.6964 279.309 88.1419 279.584 87.6582C279.86 87.1744 280.236 86.8023 280.712 86.5418C281.188 86.2813 281.72 86.151 282.308 86.151C282.896 86.151 283.429 86.2813 283.905 86.5418C284.381 86.8023 284.757 87.1744 285.032 87.6582C285.308 88.1419 285.445 88.6964 285.445 89.3216C285.445 89.9468 285.304 90.5012 285.021 90.985C284.738 91.4688 284.351 91.8446 283.86 92.1126C283.376 92.3731 282.841 92.5033 282.253 92.5033ZM282.253 91.3981C282.58 91.3981 282.885 91.3199 283.168 91.1636C283.458 91.0073 283.693 90.7729 283.871 90.4603C284.05 90.1477 284.139 89.7681 284.139 89.3216C284.139 88.875 284.054 88.4992 283.883 88.194C283.711 87.8814 283.484 87.647 283.202 87.4907C282.919 87.3344 282.614 87.2563 282.286 87.2563C281.959 87.2563 281.653 87.3344 281.371 87.4907C281.095 87.647 280.876 87.8814 280.712 88.194C280.548 88.4992 280.466 88.875 280.466 89.3216C280.466 89.984 280.634 90.4975 280.969 90.8622C281.311 91.2195 281.739 91.3981 282.253 91.3981ZM294.15 86.151C294.634 86.151 295.065 86.2515 295.445 86.4525C295.832 86.6534 296.133 86.9511 296.349 87.3456C296.573 87.74 296.684 88.2164 296.684 88.7746V92.4028H295.423V88.9643C295.423 88.4136 295.285 87.9931 295.01 87.7028C294.734 87.4051 294.358 87.2563 293.882 87.2563C293.406 87.2563 293.026 87.4051 292.743 87.7028C292.468 87.9931 292.33 88.4136 292.33 88.9643V92.4028H291.069V88.9643C291.069 88.4136 290.931 87.9931 290.656 87.7028C290.38 87.4051 290.004 87.2563 289.528 87.2563C289.052 87.2563 288.672 87.4051 288.389 87.7028C288.114 87.9931 287.976 88.4136 287.976 88.9643V92.4028H286.704V86.2515H287.976V86.9548C288.185 86.7018 288.449 86.5045 288.769 86.3631C289.089 86.2217 289.431 86.151 289.796 86.151C290.287 86.151 290.726 86.2552 291.113 86.4636C291.5 86.672 291.798 86.9734 292.006 87.3679C292.193 86.9958 292.483 86.7018 292.877 86.4859C293.272 86.2627 293.696 86.151 294.15 86.151ZM135.343 106.299C135.343 105.682 135.469 105.134 135.722 104.658C135.983 104.182 136.333 103.813 136.772 103.553C137.218 103.285 137.709 103.151 138.245 103.151C138.729 103.151 139.15 103.248 139.507 103.441C139.872 103.627 140.162 103.862 140.378 104.145V103.251H141.661V109.403H140.378V108.487C140.162 108.778 139.868 109.02 139.496 109.213C139.124 109.407 138.699 109.503 138.223 109.503C137.695 109.503 137.211 109.369 136.772 109.101C136.333 108.826 135.983 108.446 135.722 107.963C135.469 107.471 135.343 106.917 135.343 106.299ZM140.378 106.322C140.378 105.897 140.288 105.529 140.11 105.216C139.939 104.904 139.712 104.666 139.429 104.502C139.146 104.338 138.841 104.256 138.513 104.256C138.186 104.256 137.881 104.338 137.598 104.502C137.315 104.658 137.084 104.893 136.906 105.205C136.734 105.51 136.649 105.875 136.649 106.299C136.649 106.723 136.734 107.096 136.906 107.416C137.084 107.736 137.315 107.981 137.598 108.152C137.888 108.316 138.193 108.398 138.513 108.398C138.841 108.398 139.146 108.316 139.429 108.152C139.712 107.989 139.939 107.751 140.11 107.438C140.288 107.118 140.378 106.746 140.378 106.322ZM149.337 103.151C149.82 103.151 150.252 103.251 150.632 103.452C151.019 103.653 151.32 103.951 151.536 104.346C151.752 104.74 151.86 105.216 151.86 105.775V109.403H150.598V105.964C150.598 105.414 150.461 104.993 150.185 104.703C149.91 104.405 149.534 104.256 149.058 104.256C148.581 104.256 148.202 104.405 147.919 104.703C147.643 104.993 147.506 105.414 147.506 105.964V109.403H146.233V103.251H147.506V103.955C147.714 103.702 147.978 103.505 148.298 103.363C148.626 103.222 148.972 103.151 149.337 103.151ZM159.121 106.176C159.121 106.407 159.106 106.616 159.076 106.802H154.376C154.413 107.293 154.596 107.687 154.923 107.985C155.251 108.283 155.653 108.432 156.129 108.432C156.814 108.432 157.297 108.145 157.58 107.572H158.953C158.767 108.138 158.429 108.603 157.938 108.967C157.454 109.325 156.851 109.503 156.129 109.503C155.541 109.503 155.013 109.373 154.544 109.113C154.082 108.845 153.718 108.473 153.45 107.996C153.189 107.512 153.059 106.954 153.059 106.322C153.059 105.689 153.185 105.134 153.438 104.658C153.699 104.174 154.06 103.802 154.521 103.542C154.99 103.281 155.526 103.151 156.129 103.151C156.71 103.151 157.227 103.278 157.681 103.531C158.135 103.784 158.488 104.141 158.741 104.602C158.994 105.056 159.121 105.581 159.121 106.176ZM157.792 105.775C157.785 105.306 157.618 104.93 157.29 104.647C156.963 104.364 156.557 104.223 156.073 104.223C155.634 104.223 155.258 104.364 154.946 104.647C154.633 104.922 154.447 105.298 154.387 105.775H157.792ZM159.949 106.322C159.949 105.689 160.076 105.134 160.329 104.658C160.589 104.174 160.946 103.802 161.4 103.542C161.854 103.281 162.375 103.151 162.963 103.151C163.708 103.151 164.322 103.33 164.805 103.687C165.297 104.037 165.628 104.539 165.799 105.194H164.426C164.314 104.889 164.136 104.651 163.89 104.48C163.644 104.308 163.336 104.223 162.963 104.223C162.442 104.223 162.026 104.409 161.713 104.781C161.408 105.146 161.255 105.659 161.255 106.322C161.255 106.984 161.408 107.501 161.713 107.873C162.026 108.246 162.442 108.432 162.963 108.432C163.7 108.432 164.188 108.108 164.426 107.46H165.799C165.62 108.085 165.286 108.584 164.794 108.956C164.303 109.321 163.693 109.503 162.963 109.503C162.375 109.503 161.854 109.373 161.4 109.113C160.946 108.845 160.589 108.473 160.329 107.996C160.076 107.512 159.949 106.954 159.949 106.322ZM172.705 106.176C172.705 106.407 172.69 106.616 172.661 106.802H167.96C167.998 107.293 168.18 107.687 168.508 107.985C168.835 108.283 169.237 108.432 169.713 108.432C170.398 108.432 170.882 108.145 171.165 107.572H172.538C172.352 108.138 172.013 108.603 171.522 108.967C171.038 109.325 170.435 109.503 169.713 109.503C169.125 109.503 168.597 109.373 168.128 109.113C167.667 108.845 167.302 108.473 167.034 107.996C166.773 107.512 166.643 106.954 166.643 106.322C166.643 105.689 166.77 105.134 167.023 104.658C167.283 104.174 167.644 103.802 168.106 103.542C168.575 103.281 169.11 103.151 169.713 103.151C170.294 103.151 170.811 103.278 171.265 103.531C171.719 103.784 172.073 104.141 172.326 104.602C172.579 105.056 172.705 105.581 172.705 106.176ZM171.377 105.775C171.369 105.306 171.202 104.93 170.874 104.647C170.547 104.364 170.141 104.223 169.657 104.223C169.218 104.223 168.842 104.364 168.53 104.647C168.217 104.922 168.031 105.298 167.972 105.775H171.377ZM176.19 109.503C175.707 109.503 175.271 109.418 174.884 109.247C174.505 109.068 174.203 108.83 173.98 108.532C173.757 108.227 173.638 107.888 173.623 107.516H174.94C174.962 107.777 175.085 107.996 175.308 108.175C175.539 108.346 175.826 108.432 176.168 108.432C176.525 108.432 176.801 108.365 176.994 108.231C177.195 108.089 177.296 107.911 177.296 107.695C177.296 107.464 177.184 107.293 176.961 107.181C176.745 107.07 176.399 106.947 175.922 106.813C175.461 106.686 175.085 106.563 174.795 106.444C174.505 106.325 174.252 106.143 174.036 105.897C173.827 105.652 173.723 105.328 173.723 104.926C173.723 104.599 173.82 104.301 174.013 104.033C174.207 103.758 174.482 103.542 174.84 103.385C175.204 103.229 175.621 103.151 176.09 103.151C176.79 103.151 177.351 103.33 177.776 103.687C178.207 104.037 178.438 104.517 178.468 105.127H177.195C177.173 104.852 177.061 104.632 176.86 104.468C176.659 104.305 176.388 104.223 176.045 104.223C175.71 104.223 175.454 104.286 175.275 104.413C175.096 104.539 175.007 104.707 175.007 104.915C175.007 105.079 175.067 105.216 175.186 105.328C175.305 105.44 175.45 105.529 175.621 105.596C175.792 105.655 176.045 105.734 176.38 105.83C176.827 105.949 177.191 106.072 177.474 106.199C177.765 106.318 178.014 106.496 178.222 106.735C178.431 106.973 178.539 107.289 178.546 107.684C178.546 108.033 178.449 108.346 178.256 108.621C178.062 108.897 177.787 109.113 177.43 109.269C177.08 109.425 176.667 109.503 176.19 109.503ZM182.154 109.503C181.67 109.503 181.235 109.418 180.848 109.247C180.468 109.068 180.167 108.83 179.944 108.532C179.72 108.227 179.601 107.888 179.586 107.516H180.904C180.926 107.777 181.049 107.996 181.272 108.175C181.503 108.346 181.789 108.432 182.132 108.432C182.489 108.432 182.764 108.365 182.958 108.231C183.159 108.089 183.259 107.911 183.259 107.695C183.259 107.464 183.148 107.293 182.924 107.181C182.708 107.07 182.362 106.947 181.886 106.813C181.425 106.686 181.049 106.563 180.758 106.444C180.468 106.325 180.215 106.143 179.999 105.897C179.791 105.652 179.687 105.328 179.687 104.926C179.687 104.599 179.783 104.301 179.977 104.033C180.171 103.758 180.446 103.542 180.803 103.385C181.168 103.229 181.585 103.151 182.053 103.151C182.753 103.151 183.315 103.33 183.739 103.687C184.171 104.037 184.402 104.517 184.431 105.127H183.159C183.136 104.852 183.025 104.632 182.824 104.468C182.623 104.305 182.351 104.223 182.009 104.223C181.674 104.223 181.417 104.286 181.239 104.413C181.06 104.539 180.971 104.707 180.971 104.915C180.971 105.079 181.03 105.216 181.149 105.328C181.268 105.44 181.413 105.529 181.585 105.596C181.756 105.655 182.009 105.734 182.344 105.83C182.79 105.949 183.155 106.072 183.438 106.199C183.728 106.318 183.977 106.496 184.186 106.735C184.394 106.973 184.502 107.289 184.51 107.684C184.51 108.033 184.413 108.346 184.219 108.621C184.026 108.897 183.75 109.113 183.393 109.269C183.043 109.425 182.63 109.503 182.154 109.503ZM186.532 102.437C186.302 102.437 186.108 102.358 185.952 102.202C185.795 102.046 185.717 101.852 185.717 101.622C185.717 101.391 185.795 101.197 185.952 101.041C186.108 100.885 186.302 100.807 186.532 100.807C186.756 100.807 186.945 100.885 187.102 101.041C187.258 101.197 187.336 101.391 187.336 101.622C187.336 101.852 187.258 102.046 187.102 102.202C186.945 102.358 186.756 102.437 186.532 102.437ZM187.157 103.251V109.403H185.885V103.251H187.157ZM188.404 106.299C188.404 105.682 188.531 105.134 188.784 104.658C189.044 104.182 189.394 103.813 189.833 103.553C190.28 103.285 190.775 103.151 191.318 103.151C191.72 103.151 192.114 103.24 192.501 103.419C192.896 103.59 193.208 103.821 193.439 104.111V101.142H194.723V109.403H193.439V108.476C193.231 108.774 192.94 109.02 192.568 109.213C192.204 109.407 191.783 109.503 191.307 109.503C190.771 109.503 190.28 109.369 189.833 109.101C189.394 108.826 189.044 108.446 188.784 107.963C188.531 107.471 188.404 106.917 188.404 106.299ZM193.439 106.322C193.439 105.897 193.35 105.529 193.171 105.216C193 104.904 192.773 104.666 192.49 104.502C192.207 104.338 191.902 104.256 191.575 104.256C191.247 104.256 190.942 104.338 190.659 104.502C190.376 104.658 190.146 104.893 189.967 105.205C189.796 105.51 189.71 105.875 189.71 106.299C189.71 106.723 189.796 107.096 189.967 107.416C190.146 107.736 190.376 107.981 190.659 108.152C190.949 108.316 191.255 108.398 191.575 108.398C191.902 108.398 192.207 108.316 192.49 108.152C192.773 107.989 193 107.751 193.171 107.438C193.35 107.118 193.439 106.746 193.439 106.322ZM195.97 106.299C195.97 105.682 196.097 105.134 196.35 104.658C196.61 104.182 196.96 103.813 197.399 103.553C197.846 103.285 198.337 103.151 198.873 103.151C199.357 103.151 199.777 103.248 200.134 103.441C200.499 103.627 200.789 103.862 201.005 104.145V103.251H202.289V109.403H201.005V108.487C200.789 108.778 200.495 109.02 200.123 109.213C199.751 109.407 199.327 109.503 198.851 109.503C198.322 109.503 197.838 109.369 197.399 109.101C196.96 108.826 196.61 108.446 196.35 107.963C196.097 107.471 195.97 106.917 195.97 106.299ZM201.005 106.322C201.005 105.897 200.916 105.529 200.737 105.216C200.566 104.904 200.339 104.666 200.056 104.502C199.773 104.338 199.468 104.256 199.141 104.256C198.813 104.256 198.508 104.338 198.225 104.502C197.943 104.658 197.712 104.893 197.533 105.205C197.362 105.51 197.276 105.875 197.276 106.299C197.276 106.723 197.362 107.096 197.533 107.416C197.712 107.736 197.943 107.981 198.225 108.152C198.516 108.316 198.821 108.398 199.141 108.398C199.468 108.398 199.773 108.316 200.056 108.152C200.339 107.989 200.566 107.751 200.737 107.438C200.916 107.118 201.005 106.746 201.005 106.322ZM203.536 106.299C203.536 105.682 203.663 105.134 203.916 104.658C204.177 104.182 204.526 103.813 204.965 103.553C205.412 103.285 205.907 103.151 206.45 103.151C206.852 103.151 207.247 103.24 207.634 103.419C208.028 103.59 208.341 103.821 208.571 104.111V101.142H209.855V109.403H208.571V108.476C208.363 108.774 208.073 109.02 207.701 109.213C207.336 109.407 206.915 109.503 206.439 109.503C205.903 109.503 205.412 109.369 204.965 109.101C204.526 108.826 204.177 108.446 203.916 107.963C203.663 107.471 203.536 106.917 203.536 106.299ZM208.571 106.322C208.571 105.897 208.482 105.529 208.303 105.216C208.132 104.904 207.905 104.666 207.622 104.502C207.34 104.338 207.035 104.256 206.707 104.256C206.38 104.256 206.074 104.338 205.792 104.502C205.509 104.658 205.278 104.893 205.099 105.205C204.928 105.51 204.843 105.875 204.843 106.299C204.843 106.723 204.928 107.096 205.099 107.416C205.278 107.736 205.509 107.981 205.792 108.152C206.082 108.316 206.387 108.398 206.707 108.398C207.035 108.398 207.34 108.316 207.622 108.152C207.905 107.989 208.132 107.751 208.303 107.438C208.482 107.118 208.571 106.746 208.571 106.322ZM217.165 106.176C217.165 106.407 217.15 106.616 217.12 106.802H212.42C212.457 107.293 212.64 107.687 212.967 107.985C213.295 108.283 213.696 108.432 214.173 108.432C214.857 108.432 215.341 108.145 215.624 107.572H216.997C216.811 108.138 216.473 108.603 215.981 108.967C215.498 109.325 214.895 109.503 214.173 109.503C213.585 109.503 213.056 109.373 212.587 109.113C212.126 108.845 211.761 108.473 211.493 107.996C211.233 107.512 211.103 106.954 211.103 106.322C211.103 105.689 211.229 105.134 211.482 104.658C211.743 104.174 212.104 103.802 212.565 103.542C213.034 103.281 213.57 103.151 214.173 103.151C214.753 103.151 215.271 103.278 215.725 103.531C216.179 103.784 216.532 104.141 216.785 104.602C217.038 105.056 217.165 105.581 217.165 106.176ZM215.836 105.775C215.829 105.306 215.661 104.93 215.334 104.647C215.006 104.364 214.601 104.223 214.117 104.223C213.678 104.223 213.302 104.364 212.989 104.647C212.677 104.922 212.491 105.298 212.431 105.775H215.836ZM218.931 109.481C218.7 109.481 218.506 109.403 218.35 109.247C218.194 109.09 218.116 108.897 218.116 108.666C218.116 108.435 218.194 108.242 218.35 108.085C218.506 107.929 218.7 107.851 218.931 107.851C219.154 107.851 219.344 107.929 219.5 108.085C219.656 108.242 219.734 108.435 219.734 108.666C219.734 108.897 219.656 109.09 219.5 109.247C219.344 109.403 219.154 109.481 218.931 109.481Z" fill="black"/>
<path d="M76.8578 58.8359C76.8578 59.6387 76.6643 60.3913 76.2772 61.0938C75.9045 61.7962 75.3096 62.3625 74.4924 62.7926C73.6896 63.2227 72.6718 63.4377 71.4389 63.4377H68.923V69.2007H65.9125V54.1911H71.4389C72.6001 54.1911 73.5893 54.3918 74.4064 54.7932C75.2236 55.1946 75.8328 55.7465 76.2342 56.449C76.65 57.1515 76.8578 57.9471 76.8578 58.8359ZM71.3099 61.0078C72.1414 61.0078 72.7578 60.8214 73.1592 60.4487C73.5606 60.0616 73.7613 59.524 73.7613 58.8359C73.7613 57.3737 72.9442 56.6425 71.3099 56.6425H68.923V61.0078H71.3099ZM82.0058 53.288V69.2007H78.9953V53.288H82.0058ZM84.2061 63.2012C84.2061 61.9969 84.4426 60.9289 84.9157 59.9971C85.4031 59.0653 86.0554 58.3485 86.8725 57.8467C87.704 57.345 88.6286 57.0941 89.6465 57.0941C90.5353 57.0941 91.3094 57.2733 91.9689 57.6317C92.6427 57.9901 93.1803 58.4417 93.5817 58.9864V57.2876H96.6137V69.2007H93.5817V67.4589C93.1946 68.018 92.657 68.4839 91.9689 68.8566C91.2951 69.215 90.5138 69.3942 89.625 69.3942C88.6215 69.3942 87.704 69.1362 86.8725 68.6201C86.0554 68.104 85.4031 67.38 84.9157 66.4482C84.4426 65.502 84.2061 64.4197 84.2061 63.2012ZM93.5817 63.2442C93.5817 62.513 93.4383 61.8894 93.1516 61.3733C92.8649 60.8429 92.4778 60.4415 91.9904 60.1691C91.503 59.8824 90.9797 59.7391 90.4206 59.7391C89.8615 59.7391 89.3454 59.8753 88.8724 60.1476C88.3993 60.42 88.0122 60.8214 87.7112 61.3518C87.4244 61.8679 87.2811 62.4844 87.2811 63.2012C87.2811 63.9179 87.4244 64.5487 87.7112 65.0935C88.0122 65.6239 88.3993 66.0325 88.8724 66.3192C89.3598 66.6059 89.8759 66.7493 90.4206 66.7493C90.9797 66.7493 91.503 66.6131 91.9904 66.3407C92.4778 66.054 92.8649 65.6526 93.1516 65.1365C93.4383 64.6061 93.5817 63.9753 93.5817 63.2442ZM106.156 57.1156C107.575 57.1156 108.722 57.5672 109.596 58.4703C110.471 59.3592 110.908 60.6064 110.908 62.212V69.2007H107.897V62.6206C107.897 61.6744 107.661 60.9504 107.188 60.4487C106.715 59.9326 106.07 59.6745 105.252 59.6745C104.421 59.6745 103.762 59.9326 103.274 60.4487C102.801 60.9504 102.564 61.6744 102.564 62.6206V69.2007H99.554V57.2876H102.564V58.7714C102.966 58.2553 103.475 57.8539 104.091 57.5672C104.722 57.2661 105.41 57.1156 106.156 57.1156ZM119.061 69.3942C117.914 69.3942 116.882 69.1433 115.964 68.6416C115.047 68.1255 114.323 67.4015 113.792 66.4697C113.276 65.5379 113.018 64.4627 113.018 63.2442C113.018 62.0256 113.283 60.9504 113.814 60.0186C114.359 59.0868 115.097 58.37 116.029 57.8682C116.96 57.3522 118 57.0941 119.147 57.0941C120.294 57.0941 121.333 57.3522 122.265 57.8682C123.197 58.37 123.928 59.0868 124.458 60.0186C125.003 60.9504 125.275 62.0256 125.275 63.2442C125.275 64.4627 124.996 65.5379 124.437 66.4697C123.892 67.4015 123.146 68.1255 122.2 68.6416C121.268 69.1433 120.222 69.3942 119.061 69.3942ZM119.061 66.7708C119.605 66.7708 120.114 66.6417 120.587 66.3837C121.075 66.1113 121.462 65.7099 121.749 65.1795C122.035 64.6491 122.179 64.004 122.179 63.2442C122.179 62.1116 121.878 61.2443 121.276 60.6422C120.688 60.0258 119.964 59.7176 119.104 59.7176C118.244 59.7176 117.52 60.0258 116.932 60.6422C116.358 61.2443 116.072 62.1116 116.072 63.2442C116.072 64.3767 116.351 65.2512 116.91 65.8676C117.484 66.4697 118.201 66.7708 119.061 66.7708ZM132.042 69.3942C131.068 69.3942 130.193 69.2222 129.419 68.8781C128.645 68.5197 128.028 68.0395 127.57 67.4374C127.125 66.8353 126.881 66.1687 126.838 65.4375H129.87C129.928 65.8963 130.15 66.2762 130.537 66.5772C130.938 66.8783 131.433 67.0288 132.021 67.0288C132.594 67.0288 133.039 66.9141 133.354 66.6848C133.684 66.4554 133.849 66.1615 133.849 65.8031C133.849 65.416 133.648 65.1293 133.247 64.943C132.859 64.7423 132.236 64.5272 131.376 64.2978C130.487 64.0828 129.756 63.8606 129.182 63.6312C128.623 63.4019 128.136 63.0506 127.72 62.5775C127.319 62.1045 127.118 61.4665 127.118 60.6637C127.118 60.0043 127.304 59.4022 127.677 58.8574C128.064 58.3126 128.609 57.8826 129.311 57.5672C130.028 57.2518 130.867 57.0941 131.827 57.0941C133.247 57.0941 134.379 57.4525 135.225 58.1693C136.071 58.8717 136.537 59.8251 136.623 61.0293H133.741C133.698 60.5562 133.497 60.1835 133.139 59.9111C132.795 59.6244 132.329 59.481 131.741 59.481C131.197 59.481 130.774 59.5814 130.473 59.7821C130.186 59.9828 130.043 60.2623 130.043 60.6207C130.043 61.0221 130.243 61.3303 130.645 61.5454C131.046 61.7461 131.67 61.9539 132.515 62.169C133.376 62.384 134.085 62.6062 134.644 62.8356C135.203 63.065 135.684 63.4234 136.085 63.9108C136.501 64.3839 136.716 65.0146 136.73 65.8031C136.73 66.4912 136.537 67.1077 136.15 67.6524C135.777 68.1972 135.232 68.6273 134.515 68.9426C133.813 69.2437 132.989 69.3942 132.042 69.3942ZM143.551 63.2012C143.551 61.9969 143.788 60.9289 144.261 59.9971C144.748 59.0653 145.401 58.3485 146.218 57.8467C147.049 57.345 147.974 57.0941 148.992 57.0941C149.88 57.0941 150.655 57.2733 151.314 57.6317C151.988 57.9901 152.525 58.4417 152.927 58.9864V57.2876H155.959V69.2007H152.927V67.4589C152.54 68.018 152.002 68.4839 151.314 68.8566C150.64 69.215 149.859 69.3942 148.97 69.3942C147.967 69.3942 147.049 69.1362 146.218 68.6201C145.401 68.104 144.748 67.38 144.261 66.4482C143.788 65.502 143.551 64.4197 143.551 63.2012ZM152.927 63.2442C152.927 62.513 152.783 61.8894 152.497 61.3733C152.21 60.8429 151.823 60.4415 151.336 60.1691C150.848 59.8824 150.325 59.7391 149.766 59.7391C149.207 59.7391 148.691 59.8753 148.217 60.1476C147.744 60.42 147.357 60.8214 147.056 61.3518C146.77 61.8679 146.626 62.4844 146.626 63.2012C146.626 63.9179 146.77 64.5487 147.056 65.0935C147.357 65.6239 147.744 66.0325 148.217 66.3192C148.705 66.6059 149.221 66.7493 149.766 66.7493C150.325 66.7493 150.848 66.6131 151.336 66.3407C151.823 66.054 152.21 65.6526 152.497 65.1365C152.783 64.6061 152.927 63.9753 152.927 63.2442ZM158.125 63.2012C158.125 61.9969 158.362 60.9289 158.835 59.9971C159.322 59.0653 159.981 58.3485 160.813 57.8467C161.644 57.345 162.569 57.0941 163.587 57.0941C164.361 57.0941 165.099 57.2661 165.802 57.6102C166.504 57.9399 167.063 58.3843 167.479 58.9434V53.288H170.533V69.2007H167.479V67.4374C167.106 68.0251 166.583 68.4982 165.909 68.8566C165.236 69.215 164.454 69.3942 163.565 69.3942C162.562 69.3942 161.644 69.1362 160.813 68.6201C159.981 68.104 159.322 67.38 158.835 66.4482C158.362 65.502 158.125 64.4197 158.125 63.2012ZM167.501 63.2442C167.501 62.513 167.357 61.8894 167.071 61.3733C166.784 60.8429 166.397 60.4415 165.909 60.1691C165.422 59.8824 164.899 59.7391 164.34 59.7391C163.78 59.7391 163.264 59.8753 162.791 60.1476C162.318 60.42 161.931 60.8214 161.63 61.3518C161.343 61.8679 161.2 62.4844 161.2 63.2012C161.2 63.9179 161.343 64.5487 161.63 65.0935C161.931 65.6239 162.318 66.0325 162.791 66.3192C163.279 66.6059 163.795 66.7493 164.34 66.7493C164.899 66.7493 165.422 66.6131 165.909 66.3407C166.397 66.054 166.784 65.6526 167.071 65.1365C167.357 64.6061 167.501 63.9753 167.501 63.2442ZM172.699 63.2012C172.699 61.9969 172.935 60.9289 173.408 59.9971C173.896 59.0653 174.548 58.3485 175.365 57.8467C176.197 57.345 177.121 57.0941 178.139 57.0941C179.028 57.0941 179.802 57.2733 180.462 57.6317C181.135 57.9901 181.673 58.4417 182.074 58.9864V57.2876H185.106V69.2007H182.074V67.4589C181.687 68.018 181.15 68.4839 180.462 68.8566C179.788 69.215 179.007 69.3942 178.118 69.3942C177.114 69.3942 176.197 69.1362 175.365 68.6201C174.548 68.104 173.896 67.38 173.408 66.4482C172.935 65.502 172.699 64.4197 172.699 63.2012ZM182.074 63.2442C182.074 62.513 181.931 61.8894 181.644 61.3733C181.358 60.8429 180.971 60.4415 180.483 60.1691C179.996 59.8824 179.472 59.7391 178.913 59.7391C178.354 59.7391 177.838 59.8753 177.365 60.1476C176.892 60.42 176.505 60.8214 176.204 61.3518C175.917 61.8679 175.774 62.4844 175.774 63.2012C175.774 63.9179 175.917 64.5487 176.204 65.0935C176.505 65.6239 176.892 66.0325 177.365 66.3192C177.852 66.6059 178.369 66.7493 178.913 66.7493C179.472 66.7493 179.996 66.6131 180.483 66.3407C180.971 66.054 181.358 65.6526 181.644 65.1365C181.931 64.6061 182.074 63.9753 182.074 63.2442ZM191.057 59.0079C191.444 58.4632 191.975 58.0116 192.648 57.6532C193.337 57.2805 194.118 57.0941 194.992 57.0941C196.01 57.0941 196.928 57.345 197.745 57.8467C198.576 58.3485 199.229 59.0653 199.702 59.9971C200.189 60.9146 200.433 61.9826 200.433 63.2012C200.433 64.4197 200.189 65.502 199.702 66.4482C199.229 67.38 198.576 68.104 197.745 68.6201C196.928 69.1362 196.01 69.3942 194.992 69.3942C194.118 69.3942 193.344 69.215 192.67 68.8566C192.011 68.4982 191.473 68.0467 191.057 67.5019V74.8777H188.047V57.2876H191.057V59.0079ZM197.358 63.2012C197.358 62.4844 197.207 61.8679 196.906 61.3518C196.619 60.8214 196.232 60.42 195.745 60.1476C195.272 59.8753 194.756 59.7391 194.197 59.7391C193.652 59.7391 193.136 59.8824 192.648 60.1691C192.175 60.4415 191.788 60.8429 191.487 61.3733C191.201 61.9038 191.057 62.5274 191.057 63.2442C191.057 63.961 191.201 64.5846 191.487 65.115C191.788 65.6454 192.175 66.054 192.648 66.3407C193.136 66.6131 193.652 66.7493 194.197 66.7493C194.756 66.7493 195.272 66.6059 195.745 66.3192C196.232 66.0325 196.619 65.6239 196.906 65.0935C197.207 64.5631 197.358 63.9323 197.358 63.2012ZM206.126 59.7606V65.5236C206.126 65.925 206.219 66.2188 206.405 66.4052C206.606 66.5772 206.936 66.6632 207.394 66.6632H208.792V69.2007H206.9C204.362 69.2007 203.094 67.9678 203.094 65.502V59.7606H201.674V57.2876H203.094V54.3416H206.126V57.2876H208.792V59.7606H206.126ZM210.183 63.2012C210.183 61.9969 210.42 60.9289 210.893 59.9971C211.38 59.0653 212.033 58.3485 212.85 57.8467C213.681 57.345 214.606 57.0941 215.624 57.0941C216.512 57.0941 217.287 57.2733 217.946 57.6317C218.62 57.9901 219.157 58.4417 219.559 58.9864V57.2876H222.591V69.2007H219.559V67.4589C219.172 68.018 218.634 68.4839 217.946 68.8566C217.272 69.215 216.491 69.3942 215.602 69.3942C214.599 69.3942 213.681 69.1362 212.85 68.6201C212.033 68.104 211.38 67.38 210.893 66.4482C210.42 65.502 210.183 64.4197 210.183 63.2012ZM219.559 63.2442C219.559 62.513 219.415 61.8894 219.129 61.3733C218.842 60.8429 218.455 60.4415 217.968 60.1691C217.48 59.8824 216.957 59.7391 216.398 59.7391C215.839 59.7391 215.323 59.8753 214.85 60.1476C214.376 60.42 213.989 60.8214 213.688 61.3518C213.402 61.8679 213.258 62.4844 213.258 63.2012C213.258 63.9179 213.402 64.5487 213.688 65.0935C213.989 65.6239 214.376 66.0325 214.85 66.3192C215.337 66.6059 215.853 66.7493 216.398 66.7493C216.957 66.7493 217.48 66.6131 217.968 66.3407C218.455 66.054 218.842 65.6526 219.129 65.1365C219.415 64.6061 219.559 63.9753 219.559 63.2442ZM229.036 59.7606V65.5236C229.036 65.925 229.129 66.2188 229.316 66.4052C229.516 66.5772 229.846 66.6632 230.305 66.6632H231.703V69.2007H229.81C227.273 69.2007 226.004 67.9678 226.004 65.502V59.7606H224.585V57.2876H226.004V54.3416H229.036V57.2876H231.703V59.7606H229.036ZM235.395 55.8684C234.864 55.8684 234.42 55.7035 234.062 55.3738C233.717 55.0298 233.545 54.6068 233.545 54.1051C233.545 53.6033 233.717 53.1876 234.062 52.8579C234.42 52.5138 234.864 52.3418 235.395 52.3418C235.925 52.3418 236.362 52.5138 236.707 52.8579C237.065 53.1876 237.244 53.6033 237.244 54.1051C237.244 54.6068 237.065 55.0298 236.707 55.3738C236.362 55.7035 235.925 55.8684 235.395 55.8684ZM236.879 57.2876V69.2007H233.868V57.2876H236.879ZM244.82 66.4267L247.831 57.2876H251.035L246.627 69.2007H242.971L238.584 57.2876H241.81L244.82 66.4267ZM258.016 69.3942C256.869 69.3942 255.837 69.1433 254.919 68.6416C254.002 68.1255 253.278 67.4015 252.747 66.4697C252.231 65.5379 251.973 64.4627 251.973 63.2442C251.973 62.0256 252.238 60.9504 252.769 60.0186C253.314 59.0868 254.052 58.37 254.984 57.8682C255.915 57.3522 256.955 57.0941 258.102 57.0941C259.249 57.0941 260.288 57.3522 261.22 57.8682C262.152 58.37 262.883 59.0868 263.413 60.0186C263.958 60.9504 264.23 62.0256 264.23 63.2442C264.23 64.4627 263.951 65.5379 263.392 66.4697C262.847 67.4015 262.101 68.1255 261.155 68.6416C260.223 69.1433 259.177 69.3942 258.016 69.3942ZM258.016 66.7708C258.56 66.7708 259.069 66.6417 259.542 66.3837C260.03 66.1113 260.417 65.7099 260.704 65.1795C260.99 64.6491 261.134 64.004 261.134 63.2442C261.134 62.1116 260.833 61.2443 260.231 60.6422C259.643 60.0258 258.919 59.7176 258.059 59.7176C257.199 59.7176 256.475 60.0258 255.887 60.6422C255.313 61.2443 255.027 62.1116 255.027 63.2442C255.027 64.3767 255.306 65.2512 255.865 65.8676C256.439 66.4697 257.156 66.7708 258.016 66.7708ZM270.997 69.3942C270.022 69.3942 269.148 69.2222 268.374 68.8781C267.6 68.5197 266.983 68.0395 266.525 67.4374C266.08 66.8353 265.836 66.1687 265.793 65.4375H268.825C268.883 65.8963 269.105 66.2762 269.492 66.5772C269.893 66.8783 270.388 67.0288 270.976 67.0288C271.549 67.0288 271.994 66.9141 272.309 66.6848C272.639 66.4554 272.804 66.1615 272.804 65.8031C272.804 65.416 272.603 65.1293 272.202 64.943C271.814 64.7423 271.191 64.5272 270.331 64.2978C269.442 64.0828 268.711 63.8606 268.137 63.6312C267.578 63.4019 267.091 63.0506 266.675 62.5775C266.274 62.1045 266.073 61.4665 266.073 60.6637C266.073 60.0043 266.259 59.4022 266.632 58.8574C267.019 58.3126 267.564 57.8826 268.266 57.5672C268.983 57.2518 269.822 57.0941 270.782 57.0941C272.202 57.0941 273.334 57.4525 274.18 58.1693C275.026 58.8717 275.492 59.8251 275.578 61.0293H272.696C272.653 60.5562 272.452 60.1835 272.094 59.9111C271.75 59.6244 271.284 59.481 270.696 59.481C270.152 59.481 269.729 59.5814 269.428 59.7821C269.141 59.9828 268.997 60.2623 268.997 60.6207C268.997 61.0221 269.198 61.3303 269.6 61.5454C270.001 61.7461 270.625 61.9539 271.47 62.169C272.331 62.384 273.04 62.6062 273.599 62.8356C274.158 63.065 274.639 63.4234 275.04 63.9108C275.456 64.3839 275.671 65.0146 275.685 65.8031C275.685 66.4912 275.492 67.1077 275.105 67.6524C274.732 68.1972 274.187 68.6273 273.47 68.9426C272.768 69.2437 271.943 69.3942 270.997 69.3942Z" fill="black"/>
</svg>
