<svg width="315" height="149" viewBox="0 0 355 188" fill="none" xmlns="http://www.w3.org/2000/svg">
<path d="M8.51172 25.1704C8.51172 13.6058 17.8866 4.23096 29.4511 4.23096H83.8936H305.433H333.492C345.056 4.23096 354.431 13.6059 354.431 25.1704V144.106C354.431 155.671 345.056 165.046 333.492 165.046H70.0736H29.4511C17.8866 165.046 8.51172 155.671 8.51172 144.106V112.05V59.0542V25.1704Z" fill="#FFDE4E"/>
<mask id="mask0_1231_2032" style="mask-type:alpha" maskUnits="userSpaceOnUse" x="0" y="0" width="355" height="188">
<path fill-rule="evenodd" clip-rule="evenodd" d="M307.039 5.99046L307.797 1.87187L299.56 0.354492L298.801 4.47308C296.694 15.9138 297.644 43.2104 318.551 61.9549C322.59 65.5764 325.625 71.274 327.708 78.6111C329.778 85.9063 330.808 94.4703 331.096 103.405C331.435 113.902 330.746 124.705 329.634 134.219H64.9227C59.4275 125.144 51.5875 118.218 43.3031 113.072C30.3458 105.024 15.9482 101.089 6.51842 99.9103L2.36288 99.3908L1.32399 107.702L5.47954 108.221C13.9181 109.276 27.1186 112.879 38.8838 120.187C44.8866 123.915 50.4223 128.544 54.7843 134.219H8.5123V145.276C8.5123 156.841 17.8872 166.216 29.4517 166.216H252.494L272.547 187.824L284.245 166.216H333.492C345.057 166.216 354.432 156.841 354.432 145.276V134.219H338.065C339.153 124.583 339.81 113.737 339.468 103.135C339.166 93.7969 338.086 84.4995 335.765 76.324C333.457 68.1904 329.819 60.8078 324.142 55.7185C306.186 39.6198 305.237 15.7683 307.039 5.99046ZM85.5678 5.14173L85.4778 0.954808L77.1039 1.13489L77.194 5.32181C77.3243 11.3796 76.1168 19.9931 72.4166 26.3875C70.6027 29.5221 68.2877 31.9595 65.3919 33.428C62.536 34.8764 58.762 35.5634 53.668 34.6174C28.1969 29.887 9.18613 44.7216 2.71674 52.8854L0.115723 56.1676L6.6802 61.3696L9.28122 58.0874C14.5379 51.454 30.7053 38.8719 52.1386 42.8523C58.7707 44.084 64.4543 43.2948 69.1802 40.8981C73.8662 38.5217 77.2572 34.7453 79.6661 30.5825C84.4115 22.3821 85.7167 12.0664 85.5678 5.14173Z" fill="#2F88FF"/>
</mask>
<g mask="url(#mask0_1231_2032)">
<path d="M8.51172 26.1719C8.51172 14.6073 17.8866 5.23242 29.4511 5.23242H83.8936H305.433H333.492C345.056 5.23242 354.431 14.6073 354.431 26.1718V169.398C354.431 180.962 345.056 190.337 333.492 190.337H70.0736H29.4511C17.8866 190.337 8.51172 180.962 8.51172 169.398V129.337V68.3362V26.1719Z" fill="#2F88FF"/>
</g>
<path d="M76.2385 83.3514C77.0646 83.3514 77.7865 83.5114 78.4043 83.8315C79.0295 84.1441 79.5095 84.5981 79.8444 85.1935C80.1868 85.7814 80.358 86.4699 80.358 87.2588C80.358 88.0477 80.1868 88.7324 79.8444 89.313C79.5095 89.8935 79.0295 90.34 78.4043 90.6526C77.7865 90.9578 77.0646 91.1104 76.2385 91.1104H73.7043V83.3514H76.2385ZM76.2385 90.0721C77.1465 90.0721 77.8424 89.8265 78.3261 89.3353C78.8099 88.8441 79.0518 88.1519 79.0518 87.2588C79.0518 86.3582 78.8099 85.6549 78.3261 85.1488C77.8424 84.6427 77.1465 84.3897 76.2385 84.3897H74.977V90.0721H76.2385ZM87.2571 87.884C87.2571 88.1147 87.2422 88.3231 87.2125 88.5092H82.5124C82.5497 89.0004 82.732 89.3948 83.0595 89.6925C83.3869 89.9902 83.7888 90.1391 84.2652 90.1391C84.9499 90.1391 85.4337 89.8525 85.7165 89.2795H87.0897C86.9036 89.8451 86.5649 90.3103 86.0737 90.675C85.59 91.0322 84.9871 91.2108 84.2652 91.2108C83.6772 91.2108 83.1488 91.0806 82.6799 90.8201C82.2185 90.5522 81.8538 90.18 81.5858 89.7037C81.3253 89.2199 81.1951 88.6617 81.1951 88.0291C81.1951 87.3965 81.3216 86.842 81.5747 86.3657C81.8352 85.8819 82.1961 85.5098 82.6576 85.2493C83.1265 84.9888 83.6623 84.8585 84.2652 84.8585C84.8457 84.8585 85.363 84.9851 85.817 85.2381C86.271 85.4912 86.6245 85.8484 86.8775 86.3099C87.1306 86.7639 87.2571 87.2886 87.2571 87.884ZM85.9286 87.4821C85.9212 87.0132 85.7537 86.6373 85.4262 86.3545C85.0988 86.0717 84.6931 85.9303 84.2094 85.9303C83.7702 85.9303 83.3944 86.0717 83.0818 86.3545C82.7692 86.6299 82.5831 87.0057 82.5236 87.4821H85.9286ZM90.7424 91.2108C90.2586 91.2108 89.8232 91.1252 89.4362 90.9541C89.0566 90.7754 88.7552 90.5373 88.5319 90.2396C88.3086 89.9344 88.1895 89.5958 88.1746 89.2236H89.492C89.5143 89.4841 89.6371 89.7037 89.8604 89.8823C90.0911 90.0535 90.3777 90.1391 90.72 90.1391C91.0773 90.1391 91.3527 90.0721 91.5462 89.9381C91.7471 89.7967 91.8476 89.6181 91.8476 89.4023C91.8476 89.1715 91.7359 89.0004 91.5127 88.8887C91.2968 88.7771 90.9507 88.6543 90.4744 88.5203C90.013 88.3938 89.6371 88.271 89.3469 88.1519C89.0566 88.0328 88.8036 87.8505 88.5877 87.6049C88.3793 87.3593 88.2751 87.0355 88.2751 86.6336C88.2751 86.3061 88.3719 86.0084 88.5654 85.7405C88.7589 85.4651 89.0343 85.2493 89.3915 85.093C89.7562 84.9367 90.173 84.8585 90.6419 84.8585C91.3415 84.8585 91.9034 85.0372 92.3276 85.3944C92.7593 85.7442 92.99 86.2243 93.0198 86.8346H91.7471C91.7248 86.5592 91.6131 86.3396 91.4122 86.1759C91.2112 86.0122 90.9396 85.9303 90.5972 85.9303C90.2623 85.9303 90.0055 85.9935 89.8269 86.1201C89.6483 86.2466 89.559 86.4141 89.559 86.6224C89.559 86.7862 89.6185 86.9239 89.7376 87.0355C89.8567 87.1472 90.0018 87.2365 90.173 87.3034C90.3442 87.363 90.5972 87.4411 90.9321 87.5379C91.3787 87.657 91.7434 87.7798 92.0262 87.9063C92.3165 88.0254 92.5658 88.204 92.7742 88.4422C92.9826 88.6803 93.0905 88.9966 93.0979 89.3911C93.0979 89.7409 93.0012 90.0535 92.8077 90.3289C92.6142 90.6043 92.3388 90.8201 91.9816 90.9764C91.6318 91.1327 91.2187 91.2108 90.7424 91.2108ZM100.111 87.884C100.111 88.1147 100.096 88.3231 100.066 88.5092H95.3662C95.4034 89.0004 95.5858 89.3948 95.9133 89.6925C96.2407 89.9902 96.6426 90.1391 97.119 90.1391C97.8037 90.1391 98.2875 89.8525 98.5703 89.2795H99.9434C99.7574 89.8451 99.4187 90.3103 98.9275 90.675C98.4438 91.0322 97.8409 91.2108 97.119 91.2108C96.531 91.2108 96.0026 91.0806 95.5337 90.8201C95.0722 90.5522 94.7076 90.18 94.4396 89.7037C94.1791 89.2199 94.0489 88.6617 94.0489 88.0291C94.0489 87.3965 94.1754 86.842 94.4285 86.3657C94.689 85.8819 95.0499 85.5098 95.5114 85.2493C95.9803 84.9888 96.5161 84.8585 97.119 84.8585C97.6995 84.8585 98.2168 84.9851 98.6708 85.2381C99.1248 85.4912 99.4783 85.8484 99.7313 86.3099C99.9844 86.7639 100.111 87.2886 100.111 87.884ZM98.7824 87.4821C98.775 87.0132 98.6075 86.6373 98.28 86.3545C97.9525 86.0717 97.5469 85.9303 97.0632 85.9303C96.624 85.9303 96.2482 86.0717 95.9356 86.3545C95.623 86.6299 95.4369 87.0057 95.3774 87.4821H98.7824ZM104.467 84.8585C104.951 84.8585 105.382 84.959 105.762 85.16C106.149 85.3609 106.45 85.6586 106.666 86.0531C106.882 86.4475 106.99 86.9239 106.99 87.4821V91.1104H105.728V87.6719C105.728 87.1211 105.591 86.7006 105.315 86.4103C105.04 86.1126 104.664 85.9638 104.188 85.9638C103.712 85.9638 103.332 86.1126 103.049 86.4103C102.774 86.7006 102.636 87.1211 102.636 87.6719V91.1104H101.363V84.959H102.636V85.6623C102.844 85.4093 103.109 85.2121 103.429 85.0707C103.756 84.9292 104.102 84.8585 104.467 84.8585ZM110.991 89.9716L112.733 84.959H114.084L111.739 91.1104H110.221L107.888 84.959H109.25L110.991 89.9716ZM117.714 91.2108C117.133 91.2108 116.609 91.0806 116.14 90.8201C115.671 90.5522 115.303 90.18 115.035 89.7037C114.767 89.2199 114.633 88.6617 114.633 88.0291C114.633 87.4039 114.77 86.8494 115.046 86.3657C115.321 85.8819 115.697 85.5098 116.173 85.2493C116.65 84.9888 117.182 84.8585 117.77 84.8585C118.358 84.8585 118.89 84.9888 119.366 85.2493C119.843 85.5098 120.218 85.8819 120.494 86.3657C120.769 86.8494 120.907 87.4039 120.907 88.0291C120.907 88.6543 120.765 89.2088 120.483 89.6925C120.2 90.1763 119.813 90.5522 119.322 90.8201C118.838 91.0806 118.302 91.2108 117.714 91.2108ZM117.714 90.1056C118.041 90.1056 118.347 90.0274 118.629 89.8712C118.92 89.7149 119.154 89.4804 119.333 89.1678C119.511 88.8552 119.601 88.4757 119.601 88.0291C119.601 87.5825 119.515 87.2067 119.344 86.9015C119.173 86.589 118.946 86.3545 118.663 86.1982C118.38 86.0419 118.075 85.9638 117.747 85.9638C117.42 85.9638 117.115 86.0419 116.832 86.1982C116.557 86.3545 116.337 86.589 116.173 86.9015C116.01 87.2067 115.928 87.5825 115.928 88.0291C115.928 88.6915 116.095 89.205 116.43 89.5697C116.772 89.927 117.2 90.1056 117.714 90.1056ZM123.438 82.849V91.1104H122.165V82.849H123.438ZM127.486 89.9716L129.228 84.959H130.579L128.234 91.1104H126.716L124.383 84.959H125.745L127.486 89.9716ZM137.179 87.884C137.179 88.1147 137.164 88.3231 137.134 88.5092H132.434C132.471 89.0004 132.654 89.3948 132.981 89.6925C133.309 89.9902 133.71 90.1391 134.187 90.1391C134.871 90.1391 135.355 89.8525 135.638 89.2795H137.011C136.825 89.8451 136.487 90.3103 135.995 90.675C135.512 91.0322 134.909 91.2108 134.187 91.2108C133.599 91.2108 133.07 91.0806 132.601 90.8201C132.14 90.5522 131.775 90.18 131.507 89.7037C131.247 89.2199 131.117 88.6617 131.117 88.0291C131.117 87.3965 131.243 86.842 131.496 86.3657C131.757 85.8819 132.118 85.5098 132.579 85.2493C133.048 84.9888 133.584 84.8585 134.187 84.8585C134.767 84.8585 135.285 84.9851 135.739 85.2381C136.193 85.4912 136.546 85.8484 136.799 86.3099C137.052 86.7639 137.179 87.2886 137.179 87.884ZM135.85 87.4821C135.843 87.0132 135.675 86.6373 135.348 86.3545C135.02 86.0717 134.615 85.9303 134.131 85.9303C133.692 85.9303 133.316 86.0717 133.003 86.3545C132.691 86.6299 132.505 87.0057 132.445 87.4821H135.85ZM141.535 84.8585C142.018 84.8585 142.45 84.959 142.83 85.16C143.217 85.3609 143.518 85.6586 143.734 86.0531C143.95 86.4475 144.058 86.9239 144.058 87.4821V91.1104H142.796V87.6719C142.796 87.1211 142.659 86.7006 142.383 86.4103C142.108 86.1126 141.732 85.9638 141.256 85.9638C140.779 85.9638 140.4 86.1126 140.117 86.4103C139.842 86.7006 139.704 87.1211 139.704 87.6719V91.1104H138.431V84.959H139.704V85.6623C139.912 85.4093 140.176 85.2121 140.496 85.0707C140.824 84.9292 141.17 84.8585 141.535 84.8585ZM145.257 88.0068C145.257 87.389 145.383 86.842 145.637 86.3657C145.897 85.8893 146.247 85.5209 146.686 85.2604C147.132 84.9925 147.627 84.8585 148.171 84.8585C148.573 84.8585 148.967 84.9479 149.354 85.1265C149.749 85.2977 150.061 85.5284 150.292 85.8186V82.849H151.576V91.1104H150.292V90.1837C150.083 90.4814 149.793 90.7271 149.421 90.9206C149.056 91.1141 148.636 91.2108 148.16 91.2108C147.624 91.2108 147.132 91.0769 146.686 90.8089C146.247 90.5335 145.897 90.154 145.637 89.6702C145.383 89.179 145.257 88.6245 145.257 88.0068ZM150.292 88.0291C150.292 87.6049 150.203 87.2365 150.024 86.9239C149.853 86.6113 149.626 86.3731 149.343 86.2094C149.06 86.0456 148.755 85.9638 148.427 85.9638C148.1 85.9638 147.795 86.0456 147.512 86.2094C147.229 86.3657 146.999 86.6001 146.82 86.9127C146.649 87.2179 146.563 87.5825 146.563 88.0068C146.563 88.431 146.649 88.8031 146.82 89.1232C146.999 89.4432 147.229 89.6888 147.512 89.86C147.802 90.0237 148.107 90.1056 148.427 90.1056C148.755 90.1056 149.06 90.0237 149.343 89.86C149.626 89.6963 149.853 89.4581 150.024 89.1455C150.203 88.8255 150.292 88.4533 150.292 88.0291ZM155.916 91.2108C155.335 91.2108 154.81 91.0806 154.341 90.8201C153.873 90.5522 153.504 90.18 153.236 89.7037C152.968 89.2199 152.834 88.6617 152.834 88.0291C152.834 87.4039 152.972 86.8494 153.247 86.3657C153.523 85.8819 153.899 85.5098 154.375 85.2493C154.851 84.9888 155.383 84.8585 155.971 84.8585C156.559 84.8585 157.091 84.9888 157.568 85.2493C158.044 85.5098 158.42 85.8819 158.695 86.3657C158.971 86.8494 159.108 87.4039 159.108 88.0291C159.108 88.6543 158.967 89.2088 158.684 89.6925C158.401 90.1763 158.014 90.5522 157.523 90.8201C157.039 91.0806 156.504 91.2108 155.916 91.2108ZM155.916 90.1056C156.243 90.1056 156.548 90.0274 156.831 89.8712C157.121 89.7149 157.356 89.4804 157.534 89.1678C157.713 88.8552 157.802 88.4757 157.802 88.0291C157.802 87.5825 157.717 87.2067 157.545 86.9015C157.374 86.589 157.147 86.3545 156.864 86.1982C156.582 86.0419 156.277 85.9638 155.949 85.9638C155.622 85.9638 155.316 86.0419 155.034 86.1982C154.758 86.3545 154.539 86.589 154.375 86.9015C154.211 87.2067 154.129 87.5825 154.129 88.0291C154.129 88.6915 154.297 89.205 154.632 89.5697C154.974 89.927 155.402 90.1056 155.916 90.1056ZM165.499 91.2108C165.016 91.2108 164.58 91.1252 164.193 90.9541C163.814 90.7754 163.512 90.5373 163.289 90.2396C163.066 89.9344 162.947 89.5958 162.932 89.2236H164.249C164.271 89.4841 164.394 89.7037 164.617 89.8823C164.848 90.0535 165.135 90.1391 165.477 90.1391C165.834 90.1391 166.11 90.0721 166.303 89.9381C166.504 89.7967 166.605 89.6181 166.605 89.4023C166.605 89.1715 166.493 89.0004 166.27 88.8887C166.054 88.7771 165.708 88.6543 165.231 88.5203C164.77 88.3938 164.394 88.271 164.104 88.1519C163.814 88.0328 163.561 87.8505 163.345 87.6049C163.136 87.3593 163.032 87.0355 163.032 86.6336C163.032 86.3061 163.129 86.0084 163.322 85.7405C163.516 85.4651 163.791 85.2493 164.148 85.093C164.513 84.9367 164.93 84.8585 165.399 84.8585C166.098 84.8585 166.66 85.0372 167.085 85.3944C167.516 85.7442 167.747 86.2243 167.777 86.8346H166.504C166.482 86.5592 166.37 86.3396 166.169 86.1759C165.968 86.0122 165.697 85.9303 165.354 85.9303C165.019 85.9303 164.763 85.9935 164.584 86.1201C164.405 86.2466 164.316 86.4141 164.316 86.6224C164.316 86.7862 164.376 86.9239 164.495 87.0355C164.614 87.1472 164.759 87.2365 164.93 87.3034C165.101 87.363 165.354 87.4411 165.689 87.5379C166.136 87.657 166.5 87.7798 166.783 87.9063C167.073 88.0254 167.323 88.204 167.531 88.4422C167.74 88.6803 167.847 88.9966 167.855 89.3911C167.855 89.7409 167.758 90.0535 167.565 90.3289C167.371 90.6043 167.096 90.8201 166.739 90.9764C166.389 91.1327 165.976 91.2108 165.499 91.2108ZM174.868 87.884C174.868 88.1147 174.853 88.3231 174.823 88.5092H170.123C170.16 89.0004 170.343 89.3948 170.67 89.6925C170.998 89.9902 171.4 90.1391 171.876 90.1391C172.561 90.1391 173.044 89.8525 173.327 89.2795H174.7C174.514 89.8451 174.176 90.3103 173.685 90.675C173.201 91.0322 172.598 91.2108 171.876 91.2108C171.288 91.2108 170.76 91.0806 170.291 90.8201C169.829 90.5522 169.465 90.18 169.197 89.7037C168.936 89.2199 168.806 88.6617 168.806 88.0291C168.806 87.3965 168.932 86.842 169.185 86.3657C169.446 85.8819 169.807 85.5098 170.268 85.2493C170.737 84.9888 171.273 84.8585 171.876 84.8585C172.456 84.8585 172.974 84.9851 173.428 85.2381C173.882 85.4912 174.235 85.8484 174.488 86.3099C174.741 86.7639 174.868 87.2886 174.868 87.884ZM173.539 87.4821C173.532 87.0132 173.364 86.6373 173.037 86.3545C172.71 86.0717 172.304 85.9303 171.82 85.9303C171.381 85.9303 171.005 86.0717 170.693 86.3545C170.38 86.6299 170.194 87.0057 170.134 87.4821H173.539ZM181.691 84.959V91.1104H180.418V90.3847C180.218 90.6377 179.953 90.8387 179.626 90.9875C179.306 91.129 178.963 91.1997 178.599 91.1997C178.115 91.1997 177.68 91.0992 177.293 90.8982C176.913 90.6973 176.612 90.3996 176.388 90.0051C176.172 89.6107 176.065 89.1343 176.065 88.5761V84.959H177.326V88.3863C177.326 88.9371 177.464 89.3613 177.739 89.659C178.014 89.9493 178.39 90.0944 178.867 90.0944C179.343 90.0944 179.719 89.9493 179.994 89.659C180.277 89.3613 180.418 88.9371 180.418 88.3863V84.959H181.691ZM185.603 91.2108C185.119 91.2108 184.684 91.1252 184.297 90.9541C183.917 90.7754 183.616 90.5373 183.393 90.2396C183.169 89.9344 183.05 89.5958 183.035 89.2236H184.353C184.375 89.4841 184.498 89.7037 184.721 89.8823C184.952 90.0535 185.238 90.1391 185.581 90.1391C185.938 90.1391 186.213 90.0721 186.407 89.9381C186.608 89.7967 186.708 89.6181 186.708 89.4023C186.708 89.1715 186.597 89.0004 186.373 88.8887C186.158 88.7771 185.812 88.6543 185.335 88.5203C184.874 88.3938 184.498 88.271 184.208 88.1519C183.917 88.0328 183.664 87.8505 183.449 87.6049C183.24 87.3593 183.136 87.0355 183.136 86.6336C183.136 86.3061 183.233 86.0084 183.426 85.7405C183.62 85.4651 183.895 85.2493 184.252 85.093C184.617 84.9367 185.034 84.8585 185.503 84.8585C186.202 84.8585 186.764 85.0372 187.188 85.3944C187.62 85.7442 187.851 86.2243 187.881 86.8346H186.608C186.586 86.5592 186.474 86.3396 186.273 86.1759C186.072 86.0122 185.8 85.9303 185.458 85.9303C185.123 85.9303 184.866 85.9935 184.688 86.1201C184.509 86.2466 184.42 86.4141 184.42 86.6224C184.42 86.7862 184.479 86.9239 184.598 87.0355C184.717 87.1472 184.863 87.2365 185.034 87.3034C185.205 87.363 185.458 87.4411 185.793 87.5379C186.24 87.657 186.604 87.7798 186.887 87.9063C187.177 88.0254 187.427 88.204 187.635 88.4422C187.843 88.6803 187.951 88.9966 187.959 89.3911C187.959 89.7409 187.862 90.0535 187.668 90.3289C187.475 90.6043 187.2 90.8201 186.842 90.9764C186.493 91.1327 186.079 91.2108 185.603 91.2108ZM194.813 85.9973H193.674V91.1104H192.39V85.9973H191.665V84.959H192.39V84.5236C192.39 83.8166 192.576 83.303 192.948 82.983C193.328 82.6555 193.92 82.4918 194.723 82.4918V83.5524C194.336 83.5524 194.065 83.6268 193.909 83.7756C193.752 83.9171 193.674 84.1664 193.674 84.5236V84.959H194.813V85.9973ZM201.512 84.959V91.1104H200.239V90.3847C200.038 90.6377 199.774 90.8387 199.446 90.9875C199.126 91.129 198.784 91.1997 198.419 91.1997C197.935 91.1997 197.5 91.0992 197.113 90.8982C196.733 90.6973 196.432 90.3996 196.209 90.0051C195.993 89.6107 195.885 89.1343 195.885 88.5761V84.959H197.146V88.3863C197.146 88.9371 197.284 89.3613 197.559 89.659C197.835 89.9493 198.211 90.0944 198.687 90.0944C199.163 90.0944 199.539 89.9493 199.815 89.659C200.097 89.3613 200.239 88.9371 200.239 88.3863V84.959H201.512ZM206.294 84.8585C206.778 84.8585 207.21 84.959 207.589 85.16C207.976 85.3609 208.278 85.6586 208.494 86.0531C208.709 86.4475 208.817 86.9239 208.817 87.4821V91.1104H207.556V87.6719C207.556 87.1211 207.418 86.7006 207.143 86.4103C206.867 86.1126 206.492 85.9638 206.015 85.9638C205.539 85.9638 205.159 86.1126 204.876 86.4103C204.601 86.7006 204.463 87.1211 204.463 87.6719V91.1104H203.191V84.959H204.463V85.6623C204.672 85.4093 204.936 85.2121 205.256 85.0707C205.584 84.9292 205.93 84.8585 206.294 84.8585ZM210.017 88.0291C210.017 87.3965 210.143 86.842 210.396 86.3657C210.657 85.8819 211.014 85.5098 211.468 85.2493C211.922 84.9888 212.443 84.8585 213.031 84.8585C213.775 84.8585 214.389 85.0372 214.873 85.3944C215.364 85.7442 215.695 86.2466 215.866 86.9015H214.493C214.382 86.5964 214.203 86.3582 213.957 86.1871C213.712 86.0159 213.403 85.9303 213.031 85.9303C212.51 85.9303 212.093 86.1163 211.78 86.4885C211.475 86.8532 211.323 87.3667 211.323 88.0291C211.323 88.6915 211.475 89.2088 211.78 89.5809C212.093 89.953 212.51 90.1391 213.031 90.1391C213.768 90.1391 214.255 89.8153 214.493 89.1678H215.866C215.688 89.793 215.353 90.2917 214.862 90.6638C214.37 91.0285 213.76 91.2108 213.031 91.2108C212.443 91.2108 211.922 91.0806 211.468 90.8201C211.014 90.5522 210.657 90.18 210.396 89.7037C210.143 89.2199 210.017 88.6617 210.017 88.0291ZM217.782 84.1441C217.552 84.1441 217.358 84.0659 217.202 83.9096C217.045 83.7533 216.967 83.5598 216.967 83.3291C216.967 83.0984 217.045 82.9049 217.202 82.7486C217.358 82.5923 217.552 82.5141 217.782 82.5141C218.006 82.5141 218.195 82.5923 218.352 82.7486C218.508 82.9049 218.586 83.0984 218.586 83.3291C218.586 83.5598 218.508 83.7533 218.352 83.9096C218.195 84.0659 218.006 84.1441 217.782 84.1441ZM218.407 84.959V91.1104H217.135V84.959H218.407ZM222.747 91.2108C222.166 91.2108 221.641 91.0806 221.172 90.8201C220.704 90.5522 220.335 90.18 220.067 89.7037C219.799 89.2199 219.665 88.6617 219.665 88.0291C219.665 87.4039 219.803 86.8494 220.078 86.3657C220.354 85.8819 220.73 85.5098 221.206 85.2493C221.682 84.9888 222.214 84.8585 222.802 84.8585C223.39 84.8585 223.923 84.9888 224.399 85.2493C224.875 85.5098 225.251 85.8819 225.526 86.3657C225.802 86.8494 225.939 87.4039 225.939 88.0291C225.939 88.6543 225.798 89.2088 225.515 89.6925C225.232 90.1763 224.845 90.5522 224.354 90.8201C223.87 91.0806 223.335 91.2108 222.747 91.2108ZM222.747 90.1056C223.074 90.1056 223.379 90.0274 223.662 89.8712C223.952 89.7149 224.187 89.4804 224.365 89.1678C224.544 88.8552 224.633 88.4757 224.633 88.0291C224.633 87.5825 224.548 87.2067 224.377 86.9015C224.205 86.589 223.978 86.3545 223.696 86.1982C223.413 86.0419 223.108 85.9638 222.78 85.9638C222.453 85.9638 222.147 86.0419 221.865 86.1982C221.589 86.3545 221.37 86.589 221.206 86.9015C221.042 87.2067 220.96 87.5825 220.96 88.0291C220.96 88.6915 221.128 89.205 221.463 89.5697C221.805 89.927 222.233 90.1056 222.747 90.1056ZM230.301 84.8585C230.785 84.8585 231.217 84.959 231.596 85.16C231.983 85.3609 232.285 85.6586 232.5 86.0531C232.716 86.4475 232.824 86.9239 232.824 87.4821V91.1104H231.563V87.6719C231.563 87.1211 231.425 86.7006 231.15 86.4103C230.874 86.1126 230.498 85.9638 230.022 85.9638C229.546 85.9638 229.166 86.1126 228.883 86.4103C228.608 86.7006 228.47 87.1211 228.47 87.6719V91.1104H227.198V84.959H228.47V85.6623C228.679 85.4093 228.943 85.2121 229.263 85.0707C229.59 84.9292 229.936 84.8585 230.301 84.8585ZM234.023 88.0068C234.023 87.389 234.15 86.842 234.403 86.3657C234.663 85.8893 235.013 85.5209 235.452 85.2604C235.899 84.9925 236.39 84.8585 236.926 84.8585C237.41 84.8585 237.83 84.9553 238.188 85.1488C238.552 85.3349 238.842 85.5693 239.058 85.8521V84.959H240.342V91.1104H239.058V90.1949C238.842 90.4852 238.548 90.7271 238.176 90.9206C237.804 91.1141 237.38 91.2108 236.904 91.2108C236.375 91.2108 235.891 91.0769 235.452 90.8089C235.013 90.5335 234.663 90.154 234.403 89.6702C234.15 89.179 234.023 88.6245 234.023 88.0068ZM239.058 88.0291C239.058 87.6049 238.969 87.2365 238.79 86.9239C238.619 86.6113 238.392 86.3731 238.109 86.2094C237.827 86.0456 237.521 85.9638 237.194 85.9638C236.866 85.9638 236.561 86.0456 236.278 86.2094C235.996 86.3657 235.765 86.6001 235.586 86.9127C235.415 87.2179 235.33 87.5825 235.33 88.0068C235.33 88.431 235.415 88.8031 235.586 89.1232C235.765 89.4432 235.996 89.6888 236.278 89.86C236.569 90.0237 236.874 90.1056 237.194 90.1056C237.521 90.1056 237.827 90.0237 238.109 89.86C238.392 89.6963 238.619 89.4581 238.79 89.1455C238.969 88.8255 239.058 88.4533 239.058 88.0291ZM238.545 83.3068L236.078 84.5236V83.5859L238.545 82.2239V83.3068ZM243.286 85.8521C243.473 85.5395 243.718 85.2977 244.023 85.1265C244.336 84.9479 244.704 84.8585 245.129 84.8585V86.1759H244.805C244.306 86.1759 243.927 86.3024 243.666 86.5555C243.413 86.8085 243.286 87.2476 243.286 87.8728V91.1104H242.014V84.959H243.286V85.8521ZM246.946 84.1441C246.715 84.1441 246.522 84.0659 246.365 83.9096C246.209 83.7533 246.131 83.5598 246.131 83.3291C246.131 83.0984 246.209 82.9049 246.365 82.7486C246.522 82.5923 246.715 82.5141 246.946 82.5141C247.169 82.5141 247.359 82.5923 247.515 82.7486C247.672 82.9049 247.75 83.0984 247.75 83.3291C247.75 83.5598 247.672 83.7533 247.515 83.9096C247.359 84.0659 247.169 84.1441 246.946 84.1441ZM247.571 84.959V91.1104H246.298V84.959H247.571ZM251.91 91.2108C251.33 91.2108 250.805 91.0806 250.336 90.8201C249.867 90.5522 249.499 90.18 249.231 89.7037C248.963 89.2199 248.829 88.6617 248.829 88.0291C248.829 87.4039 248.967 86.8494 249.242 86.3657C249.517 85.8819 249.893 85.5098 250.37 85.2493C250.846 84.9888 251.378 84.8585 251.966 84.8585C252.554 84.8585 253.086 84.9888 253.562 85.2493C254.039 85.5098 254.415 85.8819 254.69 86.3657C254.965 86.8494 255.103 87.4039 255.103 88.0291C255.103 88.6543 254.962 89.2088 254.679 89.6925C254.396 90.1763 254.009 90.5522 253.518 90.8201C253.034 91.0806 252.498 91.2108 251.91 91.2108ZM251.91 90.1056C252.238 90.1056 252.543 90.0274 252.826 89.8712C253.116 89.7149 253.35 89.4804 253.529 89.1678C253.708 88.8552 253.797 88.4757 253.797 88.0291C253.797 87.5825 253.711 87.2067 253.54 86.9015C253.369 86.589 253.142 86.3545 252.859 86.1982C252.576 86.0419 252.271 85.9638 251.944 85.9638C251.616 85.9638 251.311 86.0419 251.028 86.1982C250.753 86.3545 250.533 86.589 250.37 86.9015C250.206 87.2067 250.124 87.5825 250.124 88.0291C250.124 88.6915 250.291 89.205 250.626 89.5697C250.969 89.927 251.397 90.1056 251.91 90.1056ZM258.594 91.2108C258.11 91.2108 257.675 91.1252 257.288 90.9541C256.908 90.7754 256.607 90.5373 256.384 90.2396C256.16 89.9344 256.041 89.5958 256.026 89.2236H257.344C257.366 89.4841 257.489 89.7037 257.712 89.8823C257.943 90.0535 258.229 90.1391 258.572 90.1391C258.929 90.1391 259.204 90.0721 259.398 89.9381C259.599 89.7967 259.699 89.6181 259.699 89.4023C259.699 89.1715 259.588 89.0004 259.364 88.8887C259.148 88.7771 258.802 88.6543 258.326 88.5203C257.865 88.3938 257.489 88.271 257.198 88.1519C256.908 88.0328 256.655 87.8505 256.439 87.6049C256.231 87.3593 256.127 87.0355 256.127 86.6336C256.127 86.3061 256.224 86.0084 256.417 85.7405C256.611 85.4651 256.886 85.2493 257.243 85.093C257.608 84.9367 258.025 84.8585 258.494 84.8585C259.193 84.8585 259.755 85.0372 260.179 85.3944C260.611 85.7442 260.842 86.2243 260.871 86.8346H259.599C259.576 86.5592 259.465 86.3396 259.264 86.1759C259.063 86.0122 258.791 85.9303 258.449 85.9303C258.114 85.9303 257.857 85.9935 257.679 86.1201C257.5 86.2466 257.411 86.4141 257.411 86.6224C257.411 86.7862 257.47 86.9239 257.589 87.0355C257.708 87.1472 257.853 87.2365 258.025 87.3034C258.196 87.363 258.449 87.4411 258.784 87.5379C259.23 87.657 259.595 87.7798 259.878 87.9063C260.168 88.0254 260.417 88.204 260.626 88.4422C260.834 88.6803 260.942 88.9966 260.95 89.3911C260.95 89.7409 260.853 90.0535 260.659 90.3289C260.466 90.6043 260.19 90.8201 259.833 90.9764C259.483 91.1327 259.07 91.2108 258.594 91.2108ZM267.603 89.9716L269.344 84.959H270.695L268.351 91.1104H266.832L264.499 84.959H265.861L267.603 89.9716ZM274.325 91.2108C273.745 91.2108 273.22 91.0806 272.751 90.8201C272.282 90.5522 271.914 90.18 271.646 89.7037C271.378 89.2199 271.244 88.6617 271.244 88.0291C271.244 87.4039 271.382 86.8494 271.657 86.3657C271.932 85.8819 272.308 85.5098 272.785 85.2493C273.261 84.9888 273.793 84.8585 274.381 84.8585C274.969 84.8585 275.501 84.9888 275.978 85.2493C276.454 85.5098 276.83 85.8819 277.105 86.3657C277.38 86.8494 277.518 87.4039 277.518 88.0291C277.518 88.6543 277.377 89.2088 277.094 89.6925C276.811 90.1763 276.424 90.5522 275.933 90.8201C275.449 91.0806 274.913 91.2108 274.325 91.2108ZM274.325 90.1056C274.653 90.1056 274.958 90.0274 275.241 89.8712C275.531 89.7149 275.765 89.4804 275.944 89.1678C276.123 88.8552 276.212 88.4757 276.212 88.0291C276.212 87.5825 276.126 87.2067 275.955 86.9015C275.784 86.589 275.557 86.3545 275.274 86.1982C274.991 86.0419 274.686 85.9638 274.359 85.9638C274.031 85.9638 273.726 86.0419 273.443 86.1982C273.168 86.3545 272.948 86.589 272.785 86.9015C272.621 87.2067 272.539 87.5825 272.539 88.0291C272.539 88.6915 272.707 89.205 273.041 89.5697C273.384 89.927 273.812 90.1056 274.325 90.1056ZM278.352 88.0291C278.352 87.3965 278.479 86.842 278.732 86.3657C278.992 85.8819 279.349 85.5098 279.803 85.2493C280.257 84.9888 280.778 84.8585 281.366 84.8585C282.111 84.8585 282.725 85.0372 283.208 85.3944C283.7 85.7442 284.031 86.2466 284.202 86.9015H282.829C282.717 86.5964 282.539 86.3582 282.293 86.1871C282.047 86.0159 281.738 85.9303 281.366 85.9303C280.845 85.9303 280.429 86.1163 280.116 86.4885C279.811 86.8532 279.658 87.3667 279.658 88.0291C279.658 88.6915 279.811 89.2088 280.116 89.5809C280.429 89.953 280.845 90.1391 281.366 90.1391C282.103 90.1391 282.591 89.8153 282.829 89.1678H284.202C284.023 89.793 283.688 90.2917 283.197 90.6638C282.706 91.0285 282.096 91.2108 281.366 91.2108C280.778 91.2108 280.257 91.0806 279.803 90.8201C279.349 90.5522 278.992 90.18 278.732 89.7037C278.479 89.2199 278.352 88.6617 278.352 88.0291ZM291.108 87.884C291.108 88.1147 291.093 88.3231 291.063 88.5092H286.363C286.401 89.0004 286.583 89.3948 286.91 89.6925C287.238 89.9902 287.64 90.1391 288.116 90.1391C288.801 90.1391 289.285 89.8525 289.567 89.2795H290.941C290.755 89.8451 290.416 90.3103 289.925 90.675C289.441 91.0322 288.838 91.2108 288.116 91.2108C287.528 91.2108 287 91.0806 286.531 90.8201C286.069 90.5522 285.705 90.18 285.437 89.7037C285.176 89.2199 285.046 88.6617 285.046 88.0291C285.046 87.3965 285.173 86.842 285.426 86.3657C285.686 85.8819 286.047 85.5098 286.509 85.2493C286.977 84.9888 287.513 84.8585 288.116 84.8585C288.697 84.8585 289.214 84.9851 289.668 85.2381C290.122 85.4912 290.475 85.8484 290.729 86.3099C290.982 86.7639 291.108 87.2886 291.108 87.884ZM289.78 87.4821C289.772 87.0132 289.605 86.6373 289.277 86.3545C288.95 86.0717 288.544 85.9303 288.06 85.9303C287.621 85.9303 287.245 86.0717 286.933 86.3545C286.62 86.6299 286.434 87.0057 286.375 87.4821H289.78ZM288.083 83.5635L286.486 84.5236V83.53L288.083 82.6034L289.679 83.53V84.5236L288.083 83.5635ZM103.06 105.007C103.06 104.389 103.186 103.842 103.439 103.366C103.7 102.889 104.049 102.521 104.489 102.26C104.935 101.993 105.43 101.859 105.973 101.859C106.375 101.859 106.77 101.948 107.157 102.126C107.551 102.298 107.864 102.528 108.095 102.819V99.849H109.378V108.11H108.095V107.184C107.886 107.481 107.596 107.727 107.224 107.921C106.859 108.114 106.439 108.211 105.962 108.211C105.426 108.211 104.935 108.077 104.489 107.809C104.049 107.534 103.7 107.154 103.439 106.67C103.186 106.179 103.06 105.625 103.06 105.007ZM108.095 105.029C108.095 104.605 108.005 104.236 107.827 103.924C107.655 103.611 107.428 103.373 107.146 103.209C106.863 103.046 106.558 102.964 106.23 102.964C105.903 102.964 105.598 103.046 105.315 103.209C105.032 103.366 104.801 103.6 104.623 103.913C104.451 104.218 104.366 104.583 104.366 105.007C104.366 105.431 104.451 105.803 104.623 106.123C104.801 106.443 105.032 106.689 105.315 106.86C105.605 107.024 105.91 107.106 106.23 107.106C106.558 107.106 106.863 107.024 107.146 106.86C107.428 106.696 107.655 106.458 107.827 106.145C108.005 105.825 108.095 105.453 108.095 105.029ZM116.688 104.884C116.688 105.115 116.673 105.323 116.643 105.509H111.943C111.98 106 112.163 106.395 112.49 106.693C112.818 106.99 113.22 107.139 113.696 107.139C114.381 107.139 114.864 106.853 115.147 106.279H116.52C116.334 106.845 115.996 107.31 115.504 107.675C115.021 108.032 114.418 108.211 113.696 108.211C113.108 108.211 112.58 108.081 112.111 107.82C111.649 107.552 111.284 107.18 111.017 106.704C110.756 106.22 110.626 105.662 110.626 105.029C110.626 104.396 110.752 103.842 111.005 103.366C111.266 102.882 111.627 102.51 112.088 102.249C112.557 101.989 113.093 101.859 113.696 101.859C114.276 101.859 114.794 101.985 115.248 102.238C115.702 102.491 116.055 102.848 116.308 103.31C116.561 103.764 116.688 104.289 116.688 104.884ZM115.359 104.482C115.352 104.013 115.184 103.637 114.857 103.355C114.529 103.072 114.124 102.93 113.64 102.93C113.201 102.93 112.825 103.072 112.513 103.355C112.2 103.63 112.014 104.006 111.954 104.482H115.359ZM120.173 108.211C119.689 108.211 119.254 108.125 118.867 107.954C118.487 107.775 118.186 107.537 117.963 107.24C117.739 106.934 117.62 106.596 117.605 106.224H118.923C118.945 106.484 119.068 106.704 119.291 106.882C119.522 107.053 119.808 107.139 120.151 107.139C120.508 107.139 120.783 107.072 120.977 106.938C121.178 106.797 121.278 106.618 121.278 106.402C121.278 106.172 121.167 106 120.943 105.889C120.728 105.777 120.381 105.654 119.905 105.52C119.444 105.394 119.068 105.271 118.778 105.152C118.487 105.033 118.234 104.85 118.018 104.605C117.81 104.359 117.706 104.036 117.706 103.634C117.706 103.306 117.803 103.008 117.996 102.74C118.19 102.465 118.465 102.249 118.822 102.093C119.187 101.937 119.604 101.859 120.073 101.859C120.772 101.859 121.334 102.037 121.758 102.394C122.19 102.744 122.421 103.224 122.451 103.835H121.178C121.156 103.559 121.044 103.34 120.843 103.176C120.642 103.012 120.37 102.93 120.028 102.93C119.693 102.93 119.436 102.994 119.258 103.12C119.079 103.247 118.99 103.414 118.99 103.622C118.99 103.786 119.049 103.924 119.168 104.036C119.287 104.147 119.433 104.236 119.604 104.303C119.775 104.363 120.028 104.441 120.363 104.538C120.809 104.657 121.174 104.78 121.457 104.906C121.747 105.025 121.997 105.204 122.205 105.442C122.413 105.68 122.521 105.997 122.529 106.391C122.529 106.741 122.432 107.053 122.238 107.329C122.045 107.604 121.77 107.82 121.412 107.976C121.062 108.133 120.649 108.211 120.173 108.211ZM129.542 104.884C129.542 105.115 129.527 105.323 129.497 105.509H124.797C124.834 106 125.017 106.395 125.344 106.693C125.671 106.99 126.073 107.139 126.55 107.139C127.234 107.139 127.718 106.853 128.001 106.279H129.374C129.188 106.845 128.849 107.31 128.358 107.675C127.874 108.032 127.272 108.211 126.55 108.211C125.962 108.211 125.433 108.081 124.964 107.82C124.503 107.552 124.138 107.18 123.87 106.704C123.61 106.22 123.48 105.662 123.48 105.029C123.48 104.396 123.606 103.842 123.859 103.366C124.12 102.882 124.481 102.51 124.942 102.249C125.411 101.989 125.947 101.859 126.55 101.859C127.13 101.859 127.647 101.985 128.101 102.238C128.555 102.491 128.909 102.848 129.162 103.31C129.415 103.764 129.542 104.289 129.542 104.884ZM128.213 104.482C128.206 104.013 128.038 103.637 127.711 103.355C127.383 103.072 126.978 102.93 126.494 102.93C126.055 102.93 125.679 103.072 125.366 103.355C125.054 103.63 124.868 104.006 124.808 104.482H128.213ZM133.898 101.859C134.381 101.859 134.813 101.959 135.193 102.16C135.58 102.361 135.881 102.659 136.097 103.053C136.313 103.448 136.421 103.924 136.421 104.482V108.11H135.159V104.672C135.159 104.121 135.021 103.701 134.746 103.41C134.471 103.113 134.095 102.964 133.619 102.964C133.142 102.964 132.763 103.113 132.48 103.41C132.204 103.701 132.067 104.121 132.067 104.672V108.11H130.794V101.959H132.067V102.662C132.275 102.409 132.539 102.212 132.859 102.071C133.187 101.929 133.533 101.859 133.898 101.859ZM140.422 106.972L142.164 101.959H143.514L141.17 108.11H139.652L137.318 101.959H138.68L140.422 106.972ZM147.145 108.211C146.564 108.211 146.039 108.081 145.571 107.82C145.102 107.552 144.733 107.18 144.465 106.704C144.197 106.22 144.063 105.662 144.063 105.029C144.063 104.404 144.201 103.849 144.476 103.366C144.752 102.882 145.128 102.51 145.604 102.249C146.08 101.989 146.612 101.859 147.2 101.859C147.788 101.859 148.321 101.989 148.797 102.249C149.273 102.51 149.649 102.882 149.924 103.366C150.2 103.849 150.338 104.404 150.338 105.029C150.338 105.654 150.196 106.209 149.913 106.693C149.63 107.176 149.243 107.552 148.752 107.82C148.268 108.081 147.733 108.211 147.145 108.211ZM147.145 107.106C147.472 107.106 147.777 107.027 148.06 106.871C148.35 106.715 148.585 106.48 148.763 106.168C148.942 105.855 149.031 105.476 149.031 105.029C149.031 104.583 148.946 104.207 148.775 103.902C148.603 103.589 148.376 103.355 148.094 103.198C147.811 103.042 147.506 102.964 147.178 102.964C146.851 102.964 146.546 103.042 146.263 103.198C145.987 103.355 145.768 103.589 145.604 103.902C145.44 104.207 145.358 104.583 145.358 105.029C145.358 105.691 145.526 106.205 145.861 106.57C146.203 106.927 146.631 107.106 147.145 107.106ZM152.868 99.849V108.11H151.596V99.849H152.868ZM156.917 106.972L158.659 101.959H160.01L157.665 108.11H156.147L153.814 101.959H155.176L156.917 106.972ZM166.609 104.884C166.609 105.115 166.595 105.323 166.565 105.509H161.865C161.902 106 162.084 106.395 162.412 106.693C162.739 106.99 163.141 107.139 163.617 107.139C164.302 107.139 164.786 106.853 165.069 106.279H166.442C166.256 106.845 165.917 107.31 165.426 107.675C164.942 108.032 164.339 108.211 163.617 108.211C163.03 108.211 162.501 108.081 162.032 107.82C161.571 107.552 161.206 107.18 160.938 106.704C160.678 106.22 160.547 105.662 160.547 105.029C160.547 104.396 160.674 103.842 160.927 103.366C161.187 102.882 161.548 102.51 162.01 102.249C162.479 101.989 163.015 101.859 163.617 101.859C164.198 101.859 164.715 101.985 165.169 102.238C165.623 102.491 165.977 102.848 166.23 103.31C166.483 103.764 166.609 104.289 166.609 104.884ZM165.281 104.482C165.273 104.013 165.106 103.637 164.779 103.355C164.451 103.072 164.045 102.93 163.562 102.93C163.123 102.93 162.747 103.072 162.434 103.355C162.122 103.63 161.935 104.006 161.876 104.482H165.281ZM170.338 105.007C170.338 104.389 170.464 103.842 170.717 103.366C170.978 102.889 171.328 102.521 171.767 102.26C172.213 101.993 172.704 101.859 173.24 101.859C173.724 101.859 174.145 101.955 174.502 102.149C174.866 102.335 175.157 102.569 175.373 102.852V101.959H176.656V108.11H175.373V107.195C175.157 107.485 174.863 107.727 174.491 107.921C174.118 108.114 173.694 108.211 173.218 108.211C172.69 108.211 172.206 108.077 171.767 107.809C171.328 107.534 170.978 107.154 170.717 106.67C170.464 106.179 170.338 105.625 170.338 105.007ZM175.373 105.029C175.373 104.605 175.283 104.236 175.105 103.924C174.933 103.611 174.706 103.373 174.424 103.209C174.141 103.046 173.836 102.964 173.508 102.964C173.181 102.964 172.876 103.046 172.593 103.209C172.31 103.366 172.079 103.6 171.901 103.913C171.729 104.218 171.644 104.583 171.644 105.007C171.644 105.431 171.729 105.803 171.901 106.123C172.079 106.443 172.31 106.689 172.593 106.86C172.883 107.024 173.188 107.106 173.508 107.106C173.836 107.106 174.141 107.024 174.424 106.86C174.706 106.696 174.933 106.458 175.105 106.145C175.283 105.825 175.373 105.453 175.373 105.029ZM183.461 108.211C182.977 108.211 182.542 108.125 182.155 107.954C181.775 107.775 181.474 107.537 181.25 107.24C181.027 106.934 180.908 106.596 180.893 106.224H182.21C182.233 106.484 182.356 106.704 182.579 106.882C182.81 107.053 183.096 107.139 183.439 107.139C183.796 107.139 184.071 107.072 184.265 106.938C184.466 106.797 184.566 106.618 184.566 106.402C184.566 106.172 184.454 106 184.231 105.889C184.015 105.777 183.669 105.654 183.193 105.52C182.731 105.394 182.356 105.271 182.065 105.152C181.775 105.033 181.522 104.85 181.306 104.605C181.098 104.359 180.994 104.036 180.994 103.634C180.994 103.306 181.09 103.008 181.284 102.74C181.477 102.465 181.753 102.249 182.11 102.093C182.475 101.937 182.891 101.859 183.36 101.859C184.06 101.859 184.622 102.037 185.046 102.394C185.478 102.744 185.709 103.224 185.738 103.835H184.466C184.443 103.559 184.332 103.34 184.131 103.176C183.93 103.012 183.658 102.93 183.316 102.93C182.981 102.93 182.724 102.994 182.545 103.12C182.367 103.247 182.277 103.414 182.277 103.622C182.277 103.786 182.337 103.924 182.456 104.036C182.575 104.147 182.72 104.236 182.891 104.303C183.063 104.363 183.316 104.441 183.651 104.538C184.097 104.657 184.462 104.78 184.745 104.906C185.035 105.025 185.284 105.204 185.493 105.442C185.701 105.68 185.809 105.997 185.816 106.391C185.816 106.741 185.72 107.053 185.526 107.329C185.333 107.604 185.057 107.82 184.7 107.976C184.35 108.133 183.937 108.211 183.461 108.211ZM192.762 101.959V108.11H191.49V107.385C191.289 107.638 191.025 107.839 190.697 107.988C190.377 108.129 190.035 108.2 189.67 108.2C189.186 108.2 188.751 108.099 188.364 107.898C187.984 107.697 187.683 107.4 187.46 107.005C187.244 106.611 187.136 106.134 187.136 105.576V101.959H188.397V105.386C188.397 105.937 188.535 106.361 188.81 106.659C189.086 106.949 189.462 107.094 189.938 107.094C190.414 107.094 190.79 106.949 191.066 106.659C191.348 106.361 191.49 105.937 191.49 105.386V101.959H192.762ZM194.017 105.007C194.017 104.389 194.144 103.842 194.397 103.366C194.657 102.889 195.007 102.521 195.446 102.26C195.893 101.993 196.384 101.859 196.92 101.859C197.404 101.859 197.824 101.955 198.182 102.149C198.546 102.335 198.837 102.569 199.052 102.852V101.959H200.336V108.11H199.052V107.195C198.837 107.485 198.543 107.727 198.17 107.921C197.798 108.114 197.374 108.211 196.898 108.211C196.369 108.211 195.886 108.077 195.446 107.809C195.007 107.534 194.657 107.154 194.397 106.67C194.144 106.179 194.017 105.625 194.017 105.007ZM199.052 105.029C199.052 104.605 198.963 104.236 198.784 103.924C198.613 103.611 198.386 103.373 198.103 103.209C197.821 103.046 197.515 102.964 197.188 102.964C196.86 102.964 196.555 103.046 196.273 103.209C195.99 103.366 195.759 103.6 195.58 103.913C195.409 104.218 195.324 104.583 195.324 105.007C195.324 105.431 195.409 105.803 195.58 106.123C195.759 106.443 195.99 106.689 196.273 106.86C196.563 107.024 196.868 107.106 197.188 107.106C197.515 107.106 197.821 107.024 198.103 106.86C198.386 106.696 198.613 106.458 198.784 106.145C198.963 105.825 199.052 105.453 199.052 105.029ZM210.546 104.884C210.546 105.115 210.531 105.323 210.501 105.509H205.801C205.838 106 206.021 106.395 206.348 106.693C206.675 106.99 207.077 107.139 207.554 107.139C208.238 107.139 208.722 106.853 209.005 106.279H210.378C210.192 106.845 209.853 107.31 209.362 107.675C208.878 108.032 208.276 108.211 207.554 108.211C206.966 108.211 206.437 108.081 205.968 107.82C205.507 107.552 205.142 107.18 204.874 106.704C204.614 106.22 204.484 105.662 204.484 105.029C204.484 104.396 204.61 103.842 204.863 103.366C205.124 102.882 205.485 102.51 205.946 102.249C206.415 101.989 206.951 101.859 207.554 101.859C208.134 101.859 208.651 101.985 209.105 102.238C209.559 102.491 209.913 102.848 210.166 103.31C210.419 103.764 210.546 104.289 210.546 104.884ZM209.217 104.482C209.21 104.013 209.042 103.637 208.715 103.355C208.387 103.072 207.982 102.93 207.498 102.93C207.059 102.93 206.683 103.072 206.37 103.355C206.058 103.63 205.872 104.006 205.812 104.482H209.217ZM219.244 101.859C219.728 101.859 220.16 101.959 220.539 102.16C220.926 102.361 221.228 102.659 221.444 103.053C221.667 103.448 221.779 103.924 221.779 104.482V108.11H220.517V104.672C220.517 104.121 220.379 103.701 220.104 103.41C219.829 103.113 219.453 102.964 218.976 102.964C218.5 102.964 218.121 103.113 217.838 103.41C217.562 103.701 217.425 104.121 217.425 104.672V108.11H216.163V104.672C216.163 104.121 216.025 103.701 215.75 103.41C215.475 103.113 215.099 102.964 214.623 102.964C214.146 102.964 213.767 103.113 213.484 103.41C213.208 103.701 213.071 104.121 213.071 104.672V108.11H211.798V101.959H213.071V102.662C213.279 102.409 213.543 102.212 213.863 102.071C214.183 101.929 214.526 101.859 214.89 101.859C215.382 101.859 215.821 101.963 216.208 102.171C216.595 102.38 216.893 102.681 217.101 103.075C217.287 102.703 217.577 102.409 217.972 102.193C218.366 101.97 218.79 101.859 219.244 101.859ZM226.066 108.211C225.486 108.211 224.961 108.081 224.492 107.82C224.023 107.552 223.655 107.18 223.387 106.704C223.119 106.22 222.985 105.662 222.985 105.029C222.985 104.404 223.123 103.849 223.398 103.366C223.673 102.882 224.049 102.51 224.526 102.249C225.002 101.989 225.534 101.859 226.122 101.859C226.71 101.859 227.242 101.989 227.719 102.249C228.195 102.51 228.571 102.882 228.846 103.366C229.121 103.849 229.259 104.404 229.259 105.029C229.259 105.654 229.118 106.209 228.835 106.693C228.552 107.176 228.165 107.552 227.674 107.82C227.19 108.081 226.654 108.211 226.066 108.211ZM226.066 107.106C226.394 107.106 226.699 107.027 226.982 106.871C227.272 106.715 227.506 106.48 227.685 106.168C227.864 105.855 227.953 105.476 227.953 105.029C227.953 104.583 227.867 104.207 227.696 103.902C227.525 103.589 227.298 103.355 227.015 103.198C226.732 103.042 226.427 102.964 226.1 102.964C225.772 102.964 225.467 103.042 225.184 103.198C224.909 103.355 224.689 103.589 224.526 103.902C224.362 104.207 224.28 104.583 224.28 105.029C224.28 105.691 224.448 106.205 224.782 106.57C225.125 106.927 225.553 107.106 226.066 107.106ZM231.79 102.863C232.006 102.58 232.3 102.342 232.672 102.149C233.044 101.955 233.465 101.859 233.933 101.859C234.469 101.859 234.957 101.993 235.396 102.26C235.843 102.521 236.192 102.889 236.445 103.366C236.698 103.842 236.825 104.389 236.825 105.007C236.825 105.625 236.698 106.179 236.445 106.67C236.192 107.154 235.843 107.534 235.396 107.809C234.957 108.077 234.469 108.211 233.933 108.211C233.465 108.211 233.048 108.118 232.683 107.932C232.318 107.738 232.021 107.5 231.79 107.217V111.035H230.517V101.959H231.79V102.863ZM235.53 105.007C235.53 104.583 235.441 104.218 235.262 103.913C235.091 103.6 234.86 103.366 234.57 103.209C234.287 103.046 233.982 102.964 233.654 102.964C233.334 102.964 233.029 103.046 232.739 103.209C232.456 103.373 232.225 103.611 232.047 103.924C231.876 104.236 231.79 104.605 231.79 105.029C231.79 105.453 231.876 105.825 232.047 106.145C232.225 106.458 232.456 106.696 232.739 106.86C233.029 107.024 233.334 107.106 233.654 107.106C233.982 107.106 234.287 107.024 234.57 106.86C234.86 106.689 235.091 106.443 235.262 106.123C235.441 105.803 235.53 105.431 235.53 105.007ZM239.356 102.852C239.542 102.54 239.788 102.298 240.093 102.126C240.406 101.948 240.774 101.859 241.198 101.859V103.176H240.874C240.376 103.176 239.996 103.302 239.736 103.555C239.483 103.809 239.356 104.248 239.356 104.873V108.11H238.083V101.959H239.356V102.852ZM248.006 104.884C248.006 105.115 247.991 105.323 247.961 105.509H243.261C243.298 106 243.481 106.395 243.808 106.693C244.136 106.99 244.538 107.139 245.014 107.139C245.699 107.139 246.182 106.853 246.465 106.279H247.838C247.652 106.845 247.314 107.31 246.823 107.675C246.339 108.032 245.736 108.211 245.014 108.211C244.426 108.211 243.898 108.081 243.429 107.82C242.967 107.552 242.603 107.18 242.335 106.704C242.074 106.22 241.944 105.662 241.944 105.029C241.944 104.396 242.07 103.842 242.323 103.366C242.584 102.882 242.945 102.51 243.406 102.249C243.875 101.989 244.411 101.859 245.014 101.859C245.594 101.859 246.112 101.985 246.566 102.238C247.02 102.491 247.373 102.848 247.626 103.31C247.879 103.764 248.006 104.289 248.006 104.884ZM246.677 104.482C246.67 104.013 246.502 103.637 246.175 103.355C245.848 103.072 245.442 102.93 244.958 102.93C244.519 102.93 244.143 103.072 243.831 103.355C243.518 103.63 243.332 104.006 243.272 104.482H246.677ZM251.491 108.211C251.007 108.211 250.572 108.125 250.185 107.954C249.805 107.775 249.504 107.537 249.281 107.24C249.057 106.934 248.938 106.596 248.923 106.224H250.241C250.263 106.484 250.386 106.704 250.609 106.882C250.84 107.053 251.126 107.139 251.469 107.139C251.826 107.139 252.101 107.072 252.295 106.938C252.496 106.797 252.596 106.618 252.596 106.402C252.596 106.172 252.485 106 252.261 105.889C252.046 105.777 251.7 105.654 251.223 105.52C250.762 105.394 250.386 105.271 250.096 105.152C249.805 105.033 249.552 104.85 249.336 104.605C249.128 104.359 249.024 104.036 249.024 103.634C249.024 103.306 249.121 103.008 249.314 102.74C249.508 102.465 249.783 102.249 250.14 102.093C250.505 101.937 250.922 101.859 251.391 101.859C252.09 101.859 252.652 102.037 253.076 102.394C253.508 102.744 253.739 103.224 253.769 103.835H252.496C252.474 103.559 252.362 103.34 252.161 103.176C251.96 103.012 251.688 102.93 251.346 102.93C251.011 102.93 250.754 102.994 250.576 103.12C250.397 103.247 250.308 103.414 250.308 103.622C250.308 103.786 250.367 103.924 250.486 104.036C250.605 104.147 250.751 104.236 250.922 104.303C251.093 104.363 251.346 104.441 251.681 104.538C252.127 104.657 252.492 104.78 252.775 104.906C253.065 105.025 253.315 105.204 253.523 105.442C253.731 105.68 253.839 105.997 253.847 106.391C253.847 106.741 253.75 107.053 253.556 107.329C253.363 107.604 253.088 107.82 252.73 107.976C252.381 108.133 251.967 108.211 251.491 108.211ZM254.798 105.007C254.798 104.389 254.924 103.842 255.177 103.366C255.438 102.889 255.788 102.521 256.227 102.26C256.673 101.993 257.164 101.859 257.7 101.859C258.184 101.859 258.605 101.955 258.962 102.149C259.327 102.335 259.617 102.569 259.833 102.852V101.959H261.116V108.11H259.833V107.195C259.617 107.485 259.323 107.727 258.951 107.921C258.579 108.114 258.154 108.211 257.678 108.211C257.15 108.211 256.666 108.077 256.227 107.809C255.788 107.534 255.438 107.154 255.177 106.67C254.924 106.179 254.798 105.625 254.798 105.007ZM259.833 105.029C259.833 104.605 259.743 104.236 259.565 103.924C259.393 103.611 259.166 103.373 258.884 103.209C258.601 103.046 258.296 102.964 257.968 102.964C257.641 102.964 257.336 103.046 257.053 103.209C256.77 103.366 256.539 103.6 256.361 103.913C256.189 104.218 256.104 104.583 256.104 105.007C256.104 105.431 256.189 105.803 256.361 106.123C256.539 106.443 256.77 106.689 257.053 106.86C257.343 107.024 257.648 107.106 257.968 107.106C258.296 107.106 258.601 107.024 258.884 106.86C259.166 106.696 259.393 106.458 259.565 106.145C259.743 105.825 259.833 105.453 259.833 105.029ZM263.302 108.188C263.071 108.188 262.877 108.11 262.721 107.954C262.565 107.798 262.487 107.604 262.487 107.374C262.487 107.143 262.565 106.949 262.721 106.793C262.877 106.637 263.071 106.559 263.302 106.559C263.525 106.559 263.715 106.637 263.871 106.793C264.027 106.949 264.105 107.143 264.105 107.374C264.105 107.604 264.027 107.798 263.871 107.954C263.715 108.11 263.525 108.188 263.302 108.188Z" fill="black"/>
<path d="M75.2617 63.7047C74.2422 63.7047 73.3205 63.5302 72.4965 63.181C71.6865 62.8319 71.0441 62.3291 70.5693 61.6728C70.0944 61.0164 69.85 60.2413 69.8361 59.3475H72.9783C73.0202 59.948 73.2297 60.4229 73.6068 60.772C73.9978 61.1211 74.5285 61.2957 75.1988 61.2957C75.8831 61.2957 76.4208 61.1351 76.8118 60.8139C77.2029 60.4787 77.3984 60.0458 77.3984 59.5151C77.3984 59.0822 77.2657 58.726 77.0004 58.4467C76.735 58.1674 76.3999 57.951 75.9949 57.7973C75.6038 57.6298 75.0592 57.4482 74.3609 57.2527C73.4113 56.9734 72.6362 56.701 72.0356 56.4357C71.4491 56.1564 70.9394 55.7444 70.5064 55.1998C70.0875 54.6411 69.878 53.901 69.878 52.9792C69.878 52.1134 70.0944 51.3592 70.5274 50.7168C70.9603 50.0744 71.5678 49.5856 72.3499 49.2505C73.1319 48.9013 74.0257 48.7267 75.0312 48.7267C76.5395 48.7267 77.7615 49.0968 78.6972 49.837C79.6468 50.5632 80.1706 51.5827 80.2683 52.8955H77.0423C77.0143 52.3927 76.7979 51.9807 76.3929 51.6595C76.0018 51.3243 75.4781 51.1567 74.8218 51.1567C74.2492 51.1567 73.7883 51.3034 73.4392 51.5967C73.104 51.8899 72.9364 52.3159 72.9364 52.8745C72.9364 53.2655 73.0621 53.5937 73.3135 53.8591C73.5788 54.1104 73.9 54.3199 74.2771 54.4875C74.6681 54.6411 75.2128 54.8227 75.9111 55.0322C76.8607 55.3115 77.6358 55.5908 78.2363 55.8701C78.8368 56.1494 79.3536 56.5684 79.7865 57.127C80.2194 57.6856 80.4359 58.4188 80.4359 59.3266C80.4359 60.1086 80.2334 60.8348 79.8284 61.5052C79.4234 62.1755 78.8299 62.7132 78.0478 63.1182C77.2657 63.5092 76.337 63.7047 75.2617 63.7047ZM93.9344 51.9528V63.5581H90.9807V62.0917C90.6036 62.5945 90.1079 62.9925 89.4934 63.2858C88.8929 63.5651 88.2365 63.7047 87.5243 63.7047C86.6165 63.7047 85.8135 63.5162 85.1152 63.1391C84.4169 62.7481 83.8653 62.1825 83.4603 61.4423C83.0693 60.6882 82.8737 59.7944 82.8737 58.761V51.9528H85.8065V58.342C85.8065 59.2637 86.0369 59.976 86.4978 60.4787C86.9587 60.9675 87.5871 61.2119 88.3831 61.2119C89.1931 61.2119 89.8286 60.9675 90.2894 60.4787C90.7503 59.976 90.9807 59.2637 90.9807 58.342V51.9528H93.9344ZM96.0739 57.7135C96.0739 56.5404 96.3044 55.5 96.7652 54.5923C97.24 53.6845 97.8755 52.9862 98.6715 52.4974C99.4815 52.0086 100.382 51.7642 101.374 51.7642C102.24 51.7642 102.994 51.9388 103.636 52.288C104.293 52.6371 104.816 53.077 105.207 53.6077V51.9528H108.161V63.5581H105.207V61.8613C104.83 62.406 104.307 62.8598 103.636 63.2229C102.98 63.5721 102.219 63.7466 101.353 63.7466C100.375 63.7466 99.4815 63.4953 98.6715 62.9925C97.8755 62.4897 97.24 61.7845 96.7652 60.8767C96.3044 59.955 96.0739 58.9006 96.0739 57.7135ZM105.207 57.7554C105.207 57.0432 105.068 56.4357 104.788 55.9329C104.509 55.4162 104.132 55.0252 103.657 54.7598C103.182 54.4805 102.673 54.3409 102.128 54.3409C101.583 54.3409 101.081 54.4736 100.62 54.7389C100.159 55.0042 99.7818 55.3953 99.4885 55.912C99.2092 56.4148 99.0695 57.0153 99.0695 57.7135C99.0695 58.4118 99.2092 59.0263 99.4885 59.557C99.7818 60.0737 100.159 60.4717 100.62 60.751C101.095 61.0304 101.597 61.17 102.128 61.17C102.673 61.17 103.182 61.0373 103.657 60.772C104.132 60.4927 104.509 60.1016 104.788 59.5989C105.068 59.0822 105.207 58.4677 105.207 57.7554ZM126.805 57.5041C126.805 57.923 126.777 58.3001 126.722 58.6353H118.237C118.307 59.4732 118.601 60.1296 119.117 60.6044C119.634 61.0792 120.269 61.3166 121.024 61.3166C122.113 61.3166 122.888 60.8488 123.349 59.9131H126.512C126.177 61.0304 125.534 61.9521 124.585 62.6783C123.635 63.3905 122.469 63.7466 121.086 63.7466C119.969 63.7466 118.964 63.5022 118.07 63.0135C117.19 62.5107 116.499 61.8054 115.996 60.8977C115.507 59.9899 115.263 58.9425 115.263 57.7554C115.263 56.5544 115.507 55.5 115.996 54.5923C116.485 53.6845 117.169 52.9862 118.049 52.4974C118.929 52.0086 119.941 51.7642 121.086 51.7642C122.19 51.7642 123.174 52.0017 124.04 52.4765C124.92 52.9513 125.597 53.6286 126.072 54.5085C126.561 55.3743 126.805 56.3729 126.805 57.5041ZM123.768 56.6661C123.754 55.912 123.482 55.3115 122.951 54.8646C122.42 54.4037 121.771 54.1733 121.003 54.1733C120.276 54.1733 119.662 54.3967 119.159 54.8436C118.67 55.2766 118.37 55.8841 118.258 56.6661H123.768ZM143.358 51.7852C144.783 51.7852 145.928 52.2251 146.794 53.1049C147.674 53.9708 148.114 55.1858 148.114 56.7499V63.5581H145.181V57.1479C145.181 56.2402 144.95 55.5489 144.49 55.0741C144.029 54.5853 143.4 54.3409 142.604 54.3409C141.808 54.3409 141.173 54.5853 140.698 55.0741C140.237 55.5489 140.007 56.2402 140.007 57.1479V63.5581H137.074V57.1479C137.074 56.2402 136.843 55.5489 136.383 55.0741C135.922 54.5853 135.293 54.3409 134.497 54.3409C133.687 54.3409 133.045 54.5853 132.57 55.0741C132.109 55.5489 131.879 56.2402 131.879 57.1479V63.5581H128.946V51.9528H131.879V53.3563C132.256 52.8675 132.738 52.4835 133.324 52.2042C133.925 51.9248 134.581 51.7852 135.293 51.7852C136.201 51.7852 137.011 51.9807 137.723 52.3717C138.436 52.7488 138.987 53.2935 139.378 54.0057C139.755 53.3354 140.3 52.7977 141.012 52.3927C141.738 51.9877 142.52 51.7852 143.358 51.7852ZM153.829 53.6286C154.206 53.0979 154.723 52.658 155.38 52.3089C156.05 51.9458 156.811 51.7642 157.663 51.7642C158.654 51.7642 159.548 52.0086 160.344 52.4974C161.154 52.9862 161.79 53.6845 162.251 54.5923C162.725 55.486 162.963 56.5265 162.963 57.7135C162.963 58.9006 162.725 59.955 162.251 60.8767C161.79 61.7845 161.154 62.4897 160.344 62.9925C159.548 63.4953 158.654 63.7466 157.663 63.7466C156.811 63.7466 156.057 63.5721 155.4 63.2229C154.758 62.8738 154.234 62.4339 153.829 61.9032V69.0884H150.897V51.9528H153.829V53.6286ZM159.967 57.7135C159.967 57.0153 159.821 56.4148 159.527 55.912C159.248 55.3953 158.871 55.0042 158.396 54.7389C157.935 54.4736 157.432 54.3409 156.888 54.3409C156.357 54.3409 155.854 54.4805 155.38 54.7598C154.919 55.0252 154.542 55.4162 154.248 55.9329C153.969 56.4497 153.829 57.0572 153.829 57.7554C153.829 58.4537 153.969 59.0612 154.248 59.5779C154.542 60.0947 154.919 60.4927 155.38 60.772C155.854 61.0373 156.357 61.17 156.888 61.17C157.432 61.17 157.935 61.0304 158.396 60.751C158.871 60.4717 159.248 60.0737 159.527 59.557C159.821 59.0403 159.967 58.4258 159.967 57.7135ZM168.027 53.7543C168.404 53.1398 168.893 52.658 169.493 52.3089C170.108 51.9598 170.806 51.7852 171.588 51.7852V54.8646H170.813C169.891 54.8646 169.193 55.081 168.718 55.514C168.257 55.9469 168.027 56.701 168.027 57.7764V63.5581H165.094V51.9528H168.027V53.7543ZM184.352 57.5041C184.352 57.923 184.324 58.3001 184.268 58.6353H175.784C175.854 59.4732 176.147 60.1296 176.664 60.6044C177.18 61.0792 177.816 61.3166 178.57 61.3166C179.659 61.3166 180.434 60.8488 180.895 59.9131H184.058C183.723 61.0304 183.081 61.9521 182.131 62.6783C181.181 63.3905 180.015 63.7466 178.633 63.7466C177.516 63.7466 176.51 63.5022 175.616 63.0135C174.736 62.5107 174.045 61.8054 173.542 60.8977C173.054 59.9899 172.809 58.9425 172.809 57.7554C172.809 56.5544 173.054 55.5 173.542 54.5923C174.031 53.6845 174.715 52.9862 175.595 52.4974C176.475 52.0086 177.488 51.7642 178.633 51.7642C179.736 51.7642 180.721 52.0017 181.586 52.4765C182.466 52.9513 183.144 53.6286 183.618 54.5085C184.107 55.3743 184.352 56.3729 184.352 57.5041ZM181.314 56.6661C181.3 55.912 181.028 55.3115 180.497 54.8646C179.966 54.4037 179.317 54.1733 178.549 54.1733C177.823 54.1733 177.208 54.3967 176.706 54.8436C176.217 55.2766 175.916 55.8841 175.805 56.6661H181.314ZM190.933 63.7466C189.984 63.7466 189.132 63.5791 188.378 63.2439C187.623 62.8947 187.023 62.4269 186.576 61.8403C186.143 61.2538 185.906 60.6044 185.864 59.8922H188.818C188.873 60.3391 189.09 60.7091 189.467 61.0024C189.858 61.2957 190.34 61.4423 190.912 61.4423C191.471 61.4423 191.904 61.3306 192.211 61.1072C192.532 60.8837 192.693 60.5974 192.693 60.2483C192.693 59.8712 192.497 59.5919 192.106 59.4104C191.729 59.2148 191.122 59.0054 190.284 58.7819C189.418 58.5724 188.706 58.356 188.147 58.1325C187.603 57.9091 187.128 57.5669 186.723 57.106C186.332 56.6452 186.136 56.0237 186.136 55.2417C186.136 54.5992 186.318 54.0127 186.681 53.482C187.058 52.9513 187.589 52.5323 188.273 52.2251C188.971 51.9179 189.788 51.7642 190.724 51.7642C192.106 51.7642 193.21 52.1134 194.034 52.8117C194.858 53.496 195.311 54.4247 195.395 55.5978H192.588C192.546 55.1369 192.351 54.7738 192.002 54.5085C191.666 54.2292 191.213 54.0895 190.64 54.0895C190.109 54.0895 189.697 54.1873 189.404 54.3828C189.125 54.5783 188.985 54.8506 188.985 55.1998C188.985 55.5908 189.181 55.891 189.572 56.1005C189.963 56.296 190.57 56.4985 191.394 56.708C192.232 56.9175 192.923 57.134 193.468 57.3574C194.013 57.5809 194.481 57.93 194.872 58.4048C195.277 58.8657 195.486 59.4802 195.5 60.2483C195.5 60.9186 195.311 61.5191 194.934 62.0498C194.571 62.5805 194.041 62.9995 193.342 63.3067C192.658 63.6 191.855 63.7466 190.933 63.7466ZM197.153 57.7135C197.153 56.5404 197.384 55.5 197.845 54.5923C198.319 53.6845 198.955 52.9862 199.751 52.4974C200.561 52.0086 201.462 51.7642 202.453 51.7642C203.319 51.7642 204.073 51.9388 204.716 52.288C205.372 52.6371 205.896 53.077 206.287 53.6077V51.9528H209.24V63.5581H206.287V61.8613C205.91 62.406 205.386 62.8598 204.716 63.2229C204.059 63.5721 203.298 63.7466 202.432 63.7466C201.455 63.7466 200.561 63.4953 199.751 62.9925C198.955 62.4897 198.319 61.7845 197.845 60.8767C197.384 59.955 197.153 58.9006 197.153 57.7135ZM206.287 57.7554C206.287 57.0432 206.147 56.4357 205.868 55.9329C205.588 55.4162 205.211 55.0252 204.737 54.7598C204.262 54.4805 203.752 54.3409 203.207 54.3409C202.663 54.3409 202.16 54.4736 201.699 54.7389C201.238 55.0042 200.861 55.3953 200.568 55.912C200.289 56.4148 200.149 57.0153 200.149 57.7135C200.149 58.4118 200.289 59.0263 200.568 59.557C200.861 60.0737 201.238 60.4717 201.699 60.751C202.174 61.0304 202.677 61.17 203.207 61.17C203.752 61.17 204.262 61.0373 204.737 60.772C205.211 60.4927 205.588 60.1016 205.868 59.5989C206.147 59.0822 206.287 58.4677 206.287 57.7554ZM216.342 57.7554C216.342 56.5544 216.587 55.507 217.075 54.6132C217.564 53.7054 218.242 53.0072 219.107 52.5184C219.973 52.0156 220.965 51.7642 222.082 51.7642C223.52 51.7642 224.708 52.1273 225.643 52.8536C226.593 53.5658 227.228 54.5713 227.55 55.8701H224.386C224.219 55.3673 223.932 54.9763 223.527 54.697C223.136 54.4037 222.648 54.2571 222.061 54.2571C221.223 54.2571 220.56 54.5643 220.071 55.1788C219.582 55.7793 219.338 56.6382 219.338 57.7554C219.338 58.8587 219.582 59.7176 220.071 60.3321C220.56 60.9326 221.223 61.2329 222.061 61.2329C223.248 61.2329 224.023 60.7022 224.386 59.6408H227.55C227.228 60.8977 226.593 61.8962 225.643 62.6364C224.694 63.3766 223.507 63.7466 222.082 63.7466C220.965 63.7466 219.973 63.5022 219.107 63.0135C218.242 62.5107 217.564 61.8124 217.075 60.9186C216.587 60.0109 216.342 58.9565 216.342 57.7554ZM232.631 53.7543C233.008 53.1398 233.497 52.658 234.097 52.3089C234.712 51.9598 235.41 51.7852 236.192 51.7852V54.8646H235.417C234.495 54.8646 233.797 55.081 233.322 55.514C232.861 55.9469 232.631 56.701 232.631 57.7764V63.5581H229.698V51.9528H232.631V53.7543ZM248.956 57.5041C248.956 57.923 248.928 58.3001 248.872 58.6353H240.388C240.458 59.4732 240.751 60.1296 241.268 60.6044C241.784 61.0792 242.42 61.3166 243.174 61.3166C244.263 61.3166 245.038 60.8488 245.499 59.9131H248.662C248.327 61.0304 247.685 61.9521 246.735 62.6783C245.785 63.3905 244.619 63.7466 243.237 63.7466C242.12 63.7466 241.114 63.5022 240.22 63.0135C239.34 62.5107 238.649 61.8054 238.146 60.8977C237.658 59.9899 237.413 58.9425 237.413 57.7554C237.413 56.5544 237.658 55.5 238.146 54.5923C238.635 53.6845 239.319 52.9862 240.199 52.4974C241.079 52.0086 242.092 51.7642 243.237 51.7642C244.34 51.7642 245.325 52.0017 246.19 52.4765C247.07 52.9513 247.748 53.6286 248.222 54.5085C248.711 55.3743 248.956 56.3729 248.956 57.5041ZM245.918 56.6661C245.904 55.912 245.632 55.3115 245.101 54.8646C244.571 54.4037 243.921 54.1733 243.153 54.1733C242.427 54.1733 241.812 54.3967 241.31 54.8436C240.821 55.2766 240.521 55.8841 240.409 56.6661H245.918ZM255.537 63.7466C254.588 63.7466 253.736 63.5791 252.982 63.2439C252.228 62.8947 251.627 62.4269 251.18 61.8403C250.747 61.2538 250.51 60.6044 250.468 59.8922H253.422C253.477 60.3391 253.694 60.7091 254.071 61.0024C254.462 61.2957 254.944 61.4423 255.516 61.4423C256.075 61.4423 256.508 61.3306 256.815 61.1072C257.136 60.8837 257.297 60.5974 257.297 60.2483C257.297 59.8712 257.101 59.5919 256.71 59.4104C256.333 59.2148 255.726 59.0054 254.888 58.7819C254.022 58.5724 253.31 58.356 252.751 58.1325C252.207 57.9091 251.732 57.5669 251.327 57.106C250.936 56.6452 250.74 56.0237 250.74 55.2417C250.74 54.5992 250.922 54.0127 251.285 53.482C251.662 52.9513 252.193 52.5323 252.877 52.2251C253.575 51.9179 254.392 51.7642 255.328 51.7642C256.71 51.7642 257.814 52.1134 258.638 52.8117C259.462 53.496 259.916 54.4247 259.999 55.5978H257.192C257.15 55.1369 256.955 54.7738 256.606 54.5085C256.271 54.2292 255.817 54.0895 255.244 54.0895C254.713 54.0895 254.301 54.1873 254.008 54.3828C253.729 54.5783 253.589 54.8506 253.589 55.1998C253.589 55.5908 253.785 55.891 254.176 56.1005C254.567 56.296 255.174 56.4985 255.998 56.708C256.836 56.9175 257.527 57.134 258.072 57.3574C258.617 57.5809 259.085 57.93 259.476 58.4048C259.881 58.8657 260.09 59.4802 260.104 60.2483C260.104 60.9186 259.916 61.5191 259.538 62.0498C259.175 62.5805 258.645 62.9995 257.946 63.3067C257.262 63.6 256.459 63.7466 255.537 63.7466ZM261.757 57.7554C261.757 56.5544 262.002 55.507 262.491 54.6132C262.979 53.7054 263.657 53.0072 264.523 52.5184C265.388 52.0156 266.38 51.7642 267.497 51.7642C268.936 51.7642 270.123 52.1273 271.058 52.8536C272.008 53.5658 272.643 54.5713 272.965 55.8701H269.801C269.634 55.3673 269.348 54.9763 268.943 54.697C268.552 54.4037 268.063 54.2571 267.476 54.2571C266.638 54.2571 265.975 54.5643 265.486 55.1788C264.997 55.7793 264.753 56.6382 264.753 57.7554C264.753 58.8587 264.997 59.7176 265.486 60.3321C265.975 60.9326 266.638 61.2329 267.476 61.2329C268.663 61.2329 269.438 60.7022 269.801 59.6408H272.965C272.643 60.8977 272.008 61.8962 271.058 62.6364C270.109 63.3766 268.922 63.7466 267.497 63.7466C266.38 63.7466 265.388 63.5022 264.523 63.0135C263.657 62.5107 262.979 61.8124 262.491 60.9186C262.002 60.0109 261.757 58.9565 261.757 57.7554ZM285.901 57.5041C285.901 57.923 285.874 58.3001 285.818 58.6353H277.334C277.403 59.4732 277.697 60.1296 278.213 60.6044C278.73 61.0792 279.366 61.3166 280.12 61.3166C281.209 61.3166 281.984 60.8488 282.445 59.9131H285.608C285.273 61.0304 284.631 61.9521 283.681 62.6783C282.731 63.3905 281.565 63.7466 280.183 63.7466C279.065 63.7466 278.06 63.5022 277.166 63.0135C276.286 62.5107 275.595 61.8054 275.092 60.8977C274.603 59.9899 274.359 58.9425 274.359 57.7554C274.359 56.5544 274.603 55.5 275.092 54.5923C275.581 53.6845 276.265 52.9862 277.145 52.4974C278.025 52.0086 279.037 51.7642 280.183 51.7642C281.286 51.7642 282.27 52.0017 283.136 52.4765C284.016 52.9513 284.693 53.6286 285.168 54.5085C285.657 55.3743 285.901 56.3729 285.901 57.5041ZM282.864 56.6661C282.85 55.912 282.578 55.3115 282.047 54.8646C281.516 54.4037 280.867 54.1733 280.099 54.1733C279.373 54.1733 278.758 54.3967 278.255 54.8436C277.767 55.2766 277.466 55.8841 277.355 56.6661H282.864Z" fill="black"/>
</svg>
