<svg width="315" height="149" viewBox="0 0 355 189" fill="none" xmlns="http://www.w3.org/2000/svg">
<path d="M8.99756 25.7016C8.99756 14.1371 18.3725 4.76221 29.937 4.76221H84.3795H305.919H333.977C345.542 4.76221 354.917 14.1371 354.917 25.7016V144.638C354.917 156.202 345.542 165.577 333.977 165.577H70.5595H29.937C18.3725 165.577 8.99756 156.202 8.99756 144.638V112.581V59.5854V25.7016Z" fill="#FFDE4E"/>
<mask id="mask0_1231_2031" style="mask-type:alpha" maskUnits="userSpaceOnUse" x="0" y="0" width="355" height="189">
<path fill-rule="evenodd" clip-rule="evenodd" d="M307.524 6.52024L308.283 2.40165L300.046 0.884277L299.287 5.00287C297.18 16.4436 298.13 43.7402 319.037 62.4846C323.076 66.1062 326.111 71.8037 328.194 79.1408C330.264 86.4361 331.294 95 331.582 103.935C331.921 114.432 331.232 125.235 330.12 134.749H65.4085C59.9134 125.674 52.0733 118.747 43.7889 113.602C30.8317 105.554 16.434 101.619 7.00426 100.44L2.84872 99.9206L1.80983 108.232L5.96538 108.751C14.4039 109.806 27.6045 113.409 39.3697 120.717C45.3724 124.445 50.9081 129.074 55.2702 134.749H8.99814V145.806C8.99814 157.371 18.373 166.745 29.9375 166.745H252.98L273.033 188.354L284.731 166.745H333.978C345.543 166.745 354.917 157.371 354.917 145.806V134.749H338.551C339.639 125.113 340.296 114.267 339.953 103.665C339.652 94.3267 338.572 85.0293 336.251 76.8538C333.943 68.7201 330.305 61.3376 324.628 56.2483C306.672 40.1496 305.723 16.2981 307.524 6.52024ZM86.0537 5.67151L85.9636 1.48459L77.5898 1.66468L77.6798 5.8516C77.8101 11.9094 76.6027 20.5229 72.9025 26.9173C71.0885 30.0519 68.7735 32.4893 65.8777 33.9578C63.0218 35.4062 59.2478 36.0932 54.1538 35.1471C28.6828 30.4168 9.67197 45.2514 3.20258 53.4151L0.601562 56.6974L7.16604 61.8994L9.76706 58.6172C15.0237 51.9837 31.1912 39.4016 52.6245 43.3821C59.2565 44.6138 64.9402 43.8246 69.6661 41.4279C74.3521 39.0515 77.7431 35.2751 80.1519 31.1123C84.8973 22.9119 86.2026 12.5962 86.0537 5.67151Z" fill="#2F88FF"/>
</mask>
<g mask="url(#mask0_1231_2031)">
<path d="M8.99756 26.7012C8.99756 15.1366 18.3725 5.76172 29.937 5.76172H84.3795H305.919H333.977C345.542 5.76172 354.917 15.1366 354.917 26.7011V169.927C354.917 181.491 345.542 190.866 333.977 190.866H70.5595H29.937C18.3725 190.866 8.99756 181.491 8.99756 169.927V129.866V68.8655V26.7012Z" fill="#2F88FF"/>
</g>
<path d="M66.9762 90.8729V91.9111H63.6829V94.1998H66.2506V95.238H63.6829V98.6318H62.4102V90.8729H66.9762ZM67.7315 95.5283C67.7315 94.9105 67.858 94.3635 68.111 93.8872C68.3715 93.4108 68.7213 93.0424 69.1604 92.7819C69.607 92.514 70.0982 92.38 70.6341 92.38C71.1179 92.38 71.5384 92.4768 71.8956 92.6703C72.2603 92.8564 72.5506 93.0908 72.7664 93.3736V92.4805H74.0503V98.6318H72.7664V97.7164C72.5506 98.0067 72.2566 98.2485 71.8844 98.442C71.5123 98.6356 71.0881 98.7323 70.6118 98.7323C70.0833 98.7323 69.5996 98.5983 69.1604 98.3304C68.7213 98.055 68.3715 97.6755 68.111 97.1917C67.858 96.7005 67.7315 96.146 67.7315 95.5283ZM72.7664 95.5506C72.7664 95.1264 72.6771 94.7579 72.4985 94.4454C72.3273 94.1328 72.1003 93.8946 71.8175 93.7309C71.5346 93.5671 71.2295 93.4853 70.902 93.4853C70.5745 93.4853 70.2694 93.5671 69.9866 93.7309C69.7038 93.8872 69.473 94.1216 69.2944 94.4342C69.1232 94.7393 69.0376 95.104 69.0376 95.5283C69.0376 95.9525 69.1232 96.3246 69.2944 96.6447C69.473 96.9647 69.7038 97.2103 69.9866 97.3815C70.2768 97.5452 70.582 97.6271 70.902 97.6271C71.2295 97.6271 71.5346 97.5452 71.8175 97.3815C72.1003 97.2177 72.3273 96.9796 72.4985 96.667C72.6771 96.3469 72.7664 95.9748 72.7664 95.5506ZM78.3119 97.6606C79.0487 97.6606 79.5362 97.3368 79.7744 96.6893H81.1476C80.9838 97.2549 80.6898 97.7201 80.2656 98.0848C79.8488 98.442 79.3241 98.6504 78.6915 98.71V99.1677C79.1232 99.1677 79.473 99.2682 79.7409 99.4691C80.0088 99.6775 80.1428 99.9678 80.1428 100.34C80.1428 100.712 80.0088 101.006 79.7409 101.222C79.473 101.445 79.1343 101.557 78.725 101.557H77.2513V100.753H78.4682C78.6766 100.753 78.8329 100.723 78.9371 100.664C79.0413 100.604 79.0934 100.496 79.0934 100.34C79.0934 100.184 79.0413 100.076 78.9371 100.016C78.8329 99.9566 78.6766 99.9269 78.4682 99.9269H77.8542V98.6988C77.3481 98.6393 76.9015 98.4718 76.5145 98.1964C76.1275 97.9136 75.8261 97.5489 75.6102 97.1024C75.4018 96.6484 75.2977 96.1311 75.2977 95.5506C75.2977 94.918 75.4242 94.3635 75.6772 93.8872C75.9377 93.4034 76.295 93.0313 76.749 92.7708C77.203 92.5103 77.7239 92.38 78.3119 92.38C79.0562 92.38 79.6702 92.5587 80.154 92.9159C80.6452 93.2657 80.9764 93.7681 81.1476 94.423H79.7744C79.6628 94.1179 79.4841 93.8797 79.2385 93.7085C78.9929 93.5374 78.684 93.4518 78.3119 93.4518C77.7909 93.4518 77.3741 93.6378 77.0616 94.01C76.7564 94.3747 76.6038 94.8882 76.6038 95.5506C76.6038 96.213 76.7564 96.7302 77.0616 97.1024C77.3741 97.4745 77.7909 97.6606 78.3119 97.6606ZM81.9917 95.5283C81.9917 94.9105 82.1182 94.3635 82.3712 93.8872C82.6317 93.4108 82.9815 93.0424 83.4206 92.7819C83.8672 92.514 84.3584 92.38 84.8943 92.38C85.3781 92.38 85.7986 92.4768 86.1558 92.6703C86.5205 92.8564 86.8108 93.0908 87.0266 93.3736V92.4805H88.3104V98.6318H87.0266V97.7164C86.8108 98.0067 86.5168 98.2485 86.1446 98.442C85.7725 98.6356 85.3483 98.7323 84.872 98.7323C84.3435 98.7323 83.8598 98.5983 83.4206 98.3304C82.9815 98.055 82.6317 97.6755 82.3712 97.1917C82.1182 96.7005 81.9917 96.146 81.9917 95.5283ZM87.0266 95.5506C87.0266 95.1264 86.9373 94.7579 86.7587 94.4454C86.5875 94.1328 86.3605 93.8946 86.0777 93.7309C85.7948 93.5671 85.4897 93.4853 85.1622 93.4853C84.8347 93.4853 84.5296 93.5671 84.2468 93.7309C83.964 93.8872 83.7332 94.1216 83.5546 94.4342C83.3834 94.7393 83.2978 95.104 83.2978 95.5283C83.2978 95.9525 83.3834 96.3246 83.5546 96.6447C83.7332 96.9647 83.964 97.2103 84.2468 97.3815C84.537 97.5452 84.8422 97.6271 85.1622 97.6271C85.4897 97.6271 85.7948 97.5452 86.0777 97.3815C86.3605 97.2177 86.5875 96.9796 86.7587 96.667C86.9373 96.3469 87.0266 95.9748 87.0266 95.5506ZM94.3669 93.5187V96.9238C94.3669 97.1545 94.419 97.3219 94.5232 97.4261C94.6348 97.5229 94.8209 97.5713 95.0814 97.5713H95.8629V98.6318H94.8581C94.285 98.6318 93.8459 98.4979 93.5408 98.2299C93.2356 97.962 93.083 97.5266 93.083 96.9238V93.5187H92.3574V92.4805H93.083V90.951H94.3669V92.4805H95.8629V93.5187H94.3669ZM102.607 92.4805V98.6318H101.334V97.9062C101.133 98.1592 100.869 98.3602 100.541 98.509C100.221 98.6504 99.8789 98.7211 99.5142 98.7211C99.0305 98.7211 98.5951 98.6207 98.2081 98.4197C97.8285 98.2188 97.5271 97.9211 97.3038 97.5266C97.0879 97.1321 96.98 96.6558 96.98 96.0976V92.4805H98.2416V95.9078C98.2416 96.4586 98.3792 96.8828 98.6546 97.1805C98.93 97.4708 99.3059 97.6159 99.7822 97.6159C100.259 97.6159 100.634 97.4708 100.91 97.1805C101.193 96.8828 101.334 96.4586 101.334 95.9078V92.4805H102.607ZM103.862 95.5283C103.862 94.9105 103.988 94.3635 104.241 93.8872C104.502 93.4108 104.852 93.0424 105.291 92.7819C105.737 92.514 106.232 92.38 106.775 92.38C107.177 92.38 107.572 92.4693 107.959 92.648C108.353 92.8191 108.666 93.0499 108.897 93.3401V90.3705H110.18V98.6318H108.897V97.7052C108.688 98.0029 108.398 98.2485 108.026 98.442C107.661 98.6356 107.241 98.7323 106.764 98.7323C106.228 98.7323 105.737 98.5983 105.291 98.3304C104.852 98.055 104.502 97.6755 104.241 97.1917C103.988 96.7005 103.862 96.146 103.862 95.5283ZM108.897 95.5506C108.897 95.1264 108.807 94.7579 108.629 94.4454C108.457 94.1328 108.23 93.8946 107.948 93.7309C107.665 93.5671 107.36 93.4853 107.032 93.4853C106.705 93.4853 106.4 93.5671 106.117 93.7309C105.834 93.8872 105.603 94.1216 105.425 94.4342C105.253 94.7393 105.168 95.104 105.168 95.5283C105.168 95.9525 105.253 96.3246 105.425 96.6447C105.603 96.9647 105.834 97.2103 106.117 97.3815C106.407 97.5452 106.712 97.6271 107.032 97.6271C107.36 97.6271 107.665 97.5452 107.948 97.3815C108.23 97.2177 108.457 96.9796 108.629 96.667C108.807 96.3469 108.897 95.9748 108.897 95.5506ZM114.52 98.7323C113.94 98.7323 113.415 98.6021 112.946 98.3416C112.477 98.0736 112.109 97.7015 111.841 97.2252C111.573 96.7414 111.439 96.1832 111.439 95.5506C111.439 94.9254 111.577 94.3709 111.852 93.8872C112.127 93.4034 112.503 93.0313 112.98 92.7708C113.456 92.5103 113.988 92.38 114.576 92.38C115.164 92.38 115.696 92.5103 116.173 92.7708C116.649 93.0313 117.025 93.4034 117.3 93.8872C117.575 94.3709 117.713 94.9254 117.713 95.5506C117.713 96.1758 117.572 96.7302 117.289 97.214C117.006 97.6978 116.619 98.0736 116.128 98.3416C115.644 98.6021 115.108 98.7323 114.52 98.7323ZM114.52 97.6271C114.848 97.6271 115.153 97.5489 115.436 97.3926C115.726 97.2363 115.96 97.0019 116.139 96.6893C116.318 96.3767 116.407 95.9971 116.407 95.5506C116.407 95.104 116.321 94.7282 116.15 94.423C115.979 94.1104 115.752 93.876 115.469 93.7197C115.186 93.5634 114.881 93.4853 114.554 93.4853C114.226 93.4853 113.921 93.5634 113.638 93.7197C113.363 93.876 113.143 94.1104 112.98 94.423C112.816 94.7282 112.734 95.104 112.734 95.5506C112.734 96.213 112.901 96.7265 113.236 97.0912C113.579 97.4485 114.007 97.6271 114.52 97.6271ZM124.975 92.38C125.459 92.38 125.89 92.4805 126.27 92.6815C126.657 92.8824 126.958 93.1801 127.174 93.5746C127.39 93.969 127.498 94.4454 127.498 95.0036V98.6318H126.236V95.1933C126.236 94.6426 126.099 94.2221 125.823 93.9318C125.548 93.6341 125.172 93.4853 124.696 93.4853C124.219 93.4853 123.84 93.6341 123.557 93.9318C123.282 94.2221 123.144 94.6426 123.144 95.1933V98.6318H121.871V92.4805H123.144V93.1838C123.352 92.9308 123.617 92.7336 123.937 92.5921C124.264 92.4507 124.61 92.38 124.975 92.38ZM131.789 98.7323C131.209 98.7323 130.684 98.6021 130.215 98.3416C129.746 98.0736 129.378 97.7015 129.11 97.2252C128.842 96.7414 128.708 96.1832 128.708 95.5506C128.708 94.9254 128.846 94.3709 129.121 93.8872C129.397 93.4034 129.773 93.0313 130.249 92.7708C130.725 92.5103 131.257 92.38 131.845 92.38C132.433 92.38 132.965 92.5103 133.442 92.7708C133.918 93.0313 134.294 93.4034 134.569 93.8872C134.845 94.3709 134.982 94.9254 134.982 95.5506C134.982 96.1758 134.841 96.7302 134.558 97.214C134.275 97.6978 133.888 98.0736 133.397 98.3416C132.913 98.6021 132.377 98.7323 131.789 98.7323ZM131.789 97.6271C132.117 97.6271 132.422 97.5489 132.705 97.3926C132.995 97.2363 133.23 97.0019 133.408 96.6893C133.587 96.3767 133.676 95.9971 133.676 95.5506C133.676 95.104 133.591 94.7282 133.419 94.423C133.248 94.1104 133.021 93.876 132.738 93.7197C132.456 93.5634 132.15 93.4853 131.823 93.4853C131.495 93.4853 131.19 93.5634 130.908 93.7197C130.632 93.876 130.413 94.1104 130.249 94.423C130.085 94.7282 130.003 95.104 130.003 95.5506C130.003 96.213 130.171 96.7265 130.506 97.0912C130.848 97.4485 131.276 97.6271 131.789 97.6271ZM138.473 98.7323C137.989 98.7323 137.554 98.6467 137.167 98.4755C136.788 98.2969 136.486 98.0588 136.263 97.761C136.04 97.4559 135.92 97.1173 135.906 96.7451H137.223C137.245 97.0056 137.368 97.2252 137.591 97.4038C137.822 97.575 138.109 97.6606 138.451 97.6606C138.808 97.6606 139.084 97.5936 139.277 97.4596C139.478 97.3182 139.578 97.1396 139.578 96.9238C139.578 96.693 139.467 96.5219 139.244 96.4102C139.028 96.2986 138.682 96.1758 138.205 96.0418C137.744 95.9153 137.368 95.7925 137.078 95.6734C136.788 95.5543 136.534 95.372 136.319 95.1264C136.11 94.8808 136.006 94.557 136.006 94.1551C136.006 93.8276 136.103 93.5299 136.296 93.262C136.49 92.9866 136.765 92.7708 137.122 92.6145C137.487 92.4582 137.904 92.38 138.373 92.38C139.072 92.38 139.634 92.5587 140.059 92.9159C140.49 93.2657 140.721 93.7458 140.751 94.356H139.478C139.456 94.0807 139.344 93.8611 139.143 93.6974C138.942 93.5336 138.67 93.4518 138.328 93.4518C137.993 93.4518 137.736 93.515 137.558 93.6416C137.379 93.7681 137.29 93.9355 137.29 94.1439C137.29 94.3077 137.349 94.4454 137.469 94.557C137.588 94.6686 137.733 94.7579 137.904 94.8249C138.075 94.8845 138.328 94.9626 138.663 95.0594C139.11 95.1785 139.474 95.3013 139.757 95.4278C140.047 95.5469 140.297 95.7255 140.505 95.9637C140.713 96.2018 140.821 96.5181 140.829 96.9126C140.829 97.2624 140.732 97.575 140.539 97.8504C140.345 98.1257 140.07 98.3416 139.712 98.4979C139.363 98.6542 138.95 98.7323 138.473 98.7323ZM144.437 98.7323C143.953 98.7323 143.518 98.6467 143.131 98.4755C142.751 98.2969 142.45 98.0588 142.226 97.761C142.003 97.4559 141.884 97.1173 141.869 96.7451H143.186C143.209 97.0056 143.332 97.2252 143.555 97.4038C143.786 97.575 144.072 97.6606 144.414 97.6606C144.772 97.6606 145.047 97.5936 145.241 97.4596C145.442 97.3182 145.542 97.1396 145.542 96.9238C145.542 96.693 145.43 96.5219 145.207 96.4102C144.991 96.2986 144.645 96.1758 144.169 96.0418C143.707 95.9153 143.332 95.7925 143.041 95.6734C142.751 95.5543 142.498 95.372 142.282 95.1264C142.074 94.8808 141.97 94.557 141.97 94.1551C141.97 93.8276 142.066 93.5299 142.26 93.262C142.453 92.9866 142.729 92.7708 143.086 92.6145C143.451 92.4582 143.867 92.38 144.336 92.38C145.036 92.38 145.598 92.5587 146.022 92.9159C146.454 93.2657 146.684 93.7458 146.714 94.356H145.442C145.419 94.0807 145.308 93.8611 145.107 93.6974C144.906 93.5336 144.634 93.4518 144.292 93.4518C143.957 93.4518 143.7 93.515 143.521 93.6416C143.343 93.7681 143.253 93.9355 143.253 94.1439C143.253 94.3077 143.313 94.4454 143.432 94.557C143.551 94.6686 143.696 94.7579 143.867 94.8249C144.039 94.8845 144.292 94.9626 144.627 95.0594C145.073 95.1785 145.438 95.3013 145.721 95.4278C146.011 95.5469 146.26 95.7255 146.469 95.9637C146.677 96.2018 146.785 96.5181 146.792 96.9126C146.792 97.2624 146.696 97.575 146.502 97.8504C146.309 98.1257 146.033 98.3416 145.676 98.4979C145.326 98.6542 144.913 98.7323 144.437 98.7323ZM150.836 98.7323C150.255 98.7323 149.731 98.6021 149.262 98.3416C148.793 98.0736 148.424 97.7015 148.156 97.2252C147.888 96.7414 147.755 96.1832 147.755 95.5506C147.755 94.9254 147.892 94.3709 148.168 93.8872C148.443 93.4034 148.819 93.0313 149.295 92.7708C149.771 92.5103 150.304 92.38 150.892 92.38C151.48 92.38 152.012 92.5103 152.488 92.7708C152.964 93.0313 153.34 93.4034 153.616 93.8872C153.891 94.3709 154.029 94.9254 154.029 95.5506C154.029 96.1758 153.887 96.7302 153.604 97.214C153.322 97.6978 152.935 98.0736 152.443 98.3416C151.96 98.6021 151.424 98.7323 150.836 98.7323ZM150.836 97.6271C151.163 97.6271 151.468 97.5489 151.751 97.3926C152.041 97.2363 152.276 97.0019 152.455 96.6893C152.633 96.3767 152.722 95.9971 152.722 95.5506C152.722 95.104 152.637 94.7282 152.466 94.423C152.295 94.1104 152.068 93.876 151.785 93.7197C151.502 93.5634 151.197 93.4853 150.869 93.4853C150.542 93.4853 150.237 93.5634 149.954 93.7197C149.678 93.876 149.459 94.1104 149.295 94.423C149.131 94.7282 149.05 95.104 149.05 95.5506C149.05 96.213 149.217 96.7265 149.552 97.0912C149.894 97.4485 150.322 97.6271 150.836 97.6271ZM160.42 98.7323C159.936 98.7323 159.5 98.6467 159.113 98.4755C158.734 98.2969 158.432 98.0588 158.209 97.761C157.986 97.4559 157.867 97.1173 157.852 96.7451H159.169C159.192 97.0056 159.314 97.2252 159.538 97.4038C159.768 97.575 160.055 97.6606 160.397 97.6606C160.754 97.6606 161.03 97.5936 161.223 97.4596C161.424 97.3182 161.525 97.1396 161.525 96.9238C161.525 96.693 161.413 96.5219 161.19 96.4102C160.974 96.2986 160.628 96.1758 160.152 96.0418C159.69 95.9153 159.314 95.7925 159.024 95.6734C158.734 95.5543 158.481 95.372 158.265 95.1264C158.057 94.8808 157.952 94.557 157.952 94.1551C157.952 93.8276 158.049 93.5299 158.243 93.262C158.436 92.9866 158.711 92.7708 159.069 92.6145C159.433 92.4582 159.85 92.38 160.319 92.38C161.019 92.38 161.581 92.5587 162.005 92.9159C162.437 93.2657 162.667 93.7458 162.697 94.356H161.424C161.402 94.0807 161.29 93.8611 161.089 93.6974C160.888 93.5336 160.617 93.4518 160.274 93.4518C159.94 93.4518 159.683 93.515 159.504 93.6416C159.326 93.7681 159.236 93.9355 159.236 94.1439C159.236 94.3077 159.296 94.4454 159.415 94.557C159.534 94.6686 159.679 94.7579 159.85 94.8249C160.021 94.8845 160.274 94.9626 160.609 95.0594C161.056 95.1785 161.421 95.3013 161.703 95.4278C161.994 95.5469 162.243 95.7255 162.451 95.9637C162.66 96.2018 162.768 96.5181 162.775 96.9126C162.775 97.2624 162.678 97.575 162.485 97.8504C162.291 98.1257 162.016 98.3416 161.659 98.4979C161.309 98.6542 160.896 98.7323 160.42 98.7323ZM164.798 91.6655C164.567 91.6655 164.374 91.5874 164.217 91.4311C164.061 91.2748 163.983 91.0813 163.983 90.8506C163.983 90.6198 164.061 90.4263 164.217 90.27C164.374 90.1137 164.567 90.0356 164.798 90.0356C165.021 90.0356 165.211 90.1137 165.367 90.27C165.523 90.4263 165.602 90.6198 165.602 90.8506C165.602 91.0813 165.523 91.2748 165.367 91.4311C165.211 91.5874 165.021 91.6655 164.798 91.6655ZM165.423 92.4805V98.6318H164.15V92.4805H165.423ZM168.579 93.5187V96.9238C168.579 97.1545 168.631 97.3219 168.735 97.4261C168.847 97.5229 169.033 97.5713 169.293 97.5713H170.075V98.6318H169.07C168.497 98.6318 168.058 98.4979 167.753 98.2299C167.447 97.962 167.295 97.5266 167.295 96.9238V93.5187H166.569V92.4805H167.295V90.951H168.579V92.4805H170.075V93.5187H168.579ZM176.886 95.4055C176.886 95.6362 176.871 95.8446 176.841 96.0306H172.141C172.178 96.5219 172.36 96.9163 172.688 97.214C173.015 97.5117 173.417 97.6606 173.894 97.6606C174.578 97.6606 175.062 97.374 175.345 96.8009H176.718C176.532 97.3666 176.193 97.8318 175.702 98.1964C175.218 98.5537 174.616 98.7323 173.894 98.7323C173.306 98.7323 172.777 98.6021 172.308 98.3416C171.847 98.0736 171.482 97.7015 171.214 97.2252C170.954 96.7414 170.823 96.1832 170.823 95.5506C170.823 94.918 170.95 94.3635 171.203 93.8872C171.464 93.4034 171.825 93.0313 172.286 92.7708C172.755 92.5103 173.291 92.38 173.894 92.38C174.474 92.38 174.991 92.5066 175.445 92.7596C175.899 93.0127 176.253 93.3699 176.506 93.8313C176.759 94.2853 176.886 94.81 176.886 95.4055ZM175.557 95.0036C175.55 94.5347 175.382 94.1588 175.055 93.876C174.727 93.5932 174.322 93.4518 173.838 93.4518C173.399 93.4518 173.023 93.5932 172.71 93.876C172.398 94.1514 172.212 94.5272 172.152 95.0036H175.557ZM181.685 91.6655C181.455 91.6655 181.261 91.5874 181.105 91.4311C180.949 91.2748 180.871 91.0813 180.871 90.8506C180.871 90.6198 180.949 90.4263 181.105 90.27C181.261 90.1137 181.455 90.0356 181.685 90.0356C181.909 90.0356 182.099 90.1137 182.255 90.27C182.411 90.4263 182.489 90.6198 182.489 90.8506C182.489 91.0813 182.411 91.2748 182.255 91.4311C182.099 91.5874 181.909 91.6655 181.685 91.6655ZM182.311 92.4805V98.6318H181.038V92.4805H182.311ZM187.085 92.38C187.569 92.38 188.001 92.4805 188.38 92.6815C188.767 92.8824 189.069 93.1801 189.284 93.5746C189.5 93.969 189.608 94.4454 189.608 95.0036V98.6318H188.347V95.1933C188.347 94.6426 188.209 94.2221 187.934 93.9318C187.658 93.6341 187.282 93.4853 186.806 93.4853C186.33 93.4853 185.95 93.6341 185.667 93.9318C185.392 94.2221 185.254 94.6426 185.254 95.1933V98.6318H183.982V92.4805H185.254V93.1838C185.463 92.9308 185.727 92.7336 186.047 92.5921C186.374 92.4507 186.72 92.38 187.085 92.38ZM192.716 93.5187V96.9238C192.716 97.1545 192.769 97.3219 192.873 97.4261C192.984 97.5229 193.17 97.5713 193.431 97.5713H194.212V98.6318H193.208C192.635 98.6318 192.195 98.4979 191.89 98.2299C191.585 97.962 191.433 97.5266 191.433 96.9238V93.5187H190.707V92.4805H191.433V90.951H192.716V92.4805H194.212V93.5187H192.716ZM200.956 92.4805V98.6318H199.684V97.9062C199.483 98.1592 199.218 98.3602 198.891 98.509C198.571 98.6504 198.228 98.7211 197.864 98.7211C197.38 98.7211 196.945 98.6207 196.558 98.4197C196.178 98.2188 195.877 97.9211 195.653 97.5266C195.437 97.1321 195.33 96.6558 195.33 96.0976V92.4805H196.591V95.9078C196.591 96.4586 196.729 96.8828 197.004 97.1805C197.28 97.4708 197.655 97.6159 198.132 97.6159C198.608 97.6159 198.984 97.4708 199.259 97.1805C199.542 96.8828 199.684 96.4586 199.684 95.9078V92.4805H200.956ZM203.283 91.6655C203.052 91.6655 202.859 91.5874 202.702 91.4311C202.546 91.2748 202.468 91.0813 202.468 90.8506C202.468 90.6198 202.546 90.4263 202.702 90.27C202.859 90.1137 203.052 90.0356 203.283 90.0356C203.506 90.0356 203.696 90.1137 203.852 90.27C204.009 90.4263 204.087 90.6198 204.087 90.8506C204.087 91.0813 204.009 91.2748 203.852 91.4311C203.696 91.5874 203.506 91.6655 203.283 91.6655ZM203.908 92.4805V98.6318H202.635V92.4805H203.908ZM207.064 93.5187V96.9238C207.064 97.1545 207.116 97.3219 207.22 97.4261C207.332 97.5229 207.518 97.5713 207.778 97.5713H208.56V98.6318H207.555C206.982 98.6318 206.543 98.4979 206.238 98.2299C205.933 97.962 205.78 97.5266 205.78 96.9238V93.5187H205.054V92.4805H205.78V90.951H207.064V92.4805H208.56V93.5187H207.064ZM210.38 91.6655C210.15 91.6655 209.956 91.5874 209.8 91.4311C209.643 91.2748 209.565 91.0813 209.565 90.8506C209.565 90.6198 209.643 90.4263 209.8 90.27C209.956 90.1137 210.15 90.0356 210.38 90.0356C210.604 90.0356 210.793 90.1137 210.95 90.27C211.106 90.4263 211.184 90.6198 211.184 90.8506C211.184 91.0813 211.106 91.2748 210.95 91.4311C210.793 91.5874 210.604 91.6655 210.38 91.6655ZM211.005 92.4805V98.6318H209.733V92.4805H211.005ZM215.054 97.4931L216.796 92.4805H218.147L215.802 98.6318H214.284L211.951 92.4805H213.313L215.054 97.4931ZM221.777 98.7323C221.196 98.7323 220.672 98.6021 220.203 98.3416C219.734 98.0736 219.366 97.7015 219.098 97.2252C218.83 96.7414 218.696 96.1832 218.696 95.5506C218.696 94.9254 218.833 94.3709 219.109 93.8872C219.384 93.4034 219.76 93.0313 220.236 92.7708C220.713 92.5103 221.245 92.38 221.833 92.38C222.421 92.38 222.953 92.5103 223.429 92.7708C223.906 93.0313 224.281 93.4034 224.557 93.8872C224.832 94.3709 224.97 94.9254 224.97 95.5506C224.97 96.1758 224.828 96.7302 224.546 97.214C224.263 97.6978 223.876 98.0736 223.385 98.3416C222.901 98.6021 222.365 98.7323 221.777 98.7323ZM221.777 97.6271C222.104 97.6271 222.41 97.5489 222.692 97.3926C222.983 97.2363 223.217 97.0019 223.396 96.6893C223.574 96.3767 223.664 95.9971 223.664 95.5506C223.664 95.104 223.578 94.7282 223.407 94.423C223.236 94.1104 223.009 93.876 222.726 93.7197C222.443 93.5634 222.138 93.4853 221.81 93.4853C221.483 93.4853 221.178 93.5634 220.895 93.7197C220.62 93.876 220.4 94.1104 220.236 94.423C220.073 94.7282 219.991 95.104 219.991 95.5506C219.991 96.213 220.158 96.7265 220.493 97.0912C220.835 97.4485 221.263 97.6271 221.777 97.6271ZM234.766 95.4055C234.766 95.6362 234.751 95.8446 234.721 96.0306H230.021C230.058 96.5219 230.241 96.9163 230.568 97.214C230.896 97.5117 231.297 97.6606 231.774 97.6606C232.459 97.6606 232.942 97.374 233.225 96.8009H234.598C234.412 97.3666 234.074 97.8318 233.582 98.1964C233.099 98.5537 232.496 98.7323 231.774 98.7323C231.186 98.7323 230.657 98.6021 230.189 98.3416C229.727 98.0736 229.362 97.7015 229.094 97.2252C228.834 96.7414 228.704 96.1832 228.704 95.5506C228.704 94.918 228.83 94.3635 229.083 93.8872C229.344 93.4034 229.705 93.0313 230.166 92.7708C230.635 92.5103 231.171 92.38 231.774 92.38C232.354 92.38 232.872 92.5066 233.326 92.7596C233.78 93.0127 234.133 93.3699 234.386 93.8313C234.639 94.2853 234.766 94.81 234.766 95.4055ZM233.437 95.0036C233.43 94.5347 233.262 94.1588 232.935 93.876C232.607 93.5932 232.202 93.4518 231.718 93.4518C231.279 93.4518 230.903 93.5932 230.59 93.876C230.278 94.1514 230.092 94.5272 230.032 95.0036H233.437ZM244.556 95.4055C244.556 95.6362 244.541 95.8446 244.511 96.0306H239.811C239.849 96.5219 240.031 96.9163 240.358 97.214C240.686 97.5117 241.088 97.6606 241.564 97.6606C242.249 97.6606 242.733 97.374 243.015 96.8009H244.389C244.202 97.3666 243.864 97.8318 243.373 98.1964C242.889 98.5537 242.286 98.7323 241.564 98.7323C240.976 98.7323 240.448 98.6021 239.979 98.3416C239.517 98.0736 239.153 97.7015 238.885 97.2252C238.624 96.7414 238.494 96.1832 238.494 95.5506C238.494 94.918 238.621 94.3635 238.874 93.8872C239.134 93.4034 239.495 93.0313 239.956 92.7708C240.425 92.5103 240.961 92.38 241.564 92.38C242.145 92.38 242.662 92.5066 243.116 92.7596C243.57 93.0127 243.923 93.3699 244.176 93.8313C244.429 94.2853 244.556 94.81 244.556 95.4055ZM243.227 95.0036C243.22 94.5347 243.053 94.1588 242.725 93.876C242.398 93.5932 241.992 93.4518 241.508 93.4518C241.069 93.4518 240.693 93.5932 240.381 93.876C240.068 94.1514 239.882 94.5272 239.822 95.0036H243.227ZM248.912 92.38C249.396 92.38 249.827 92.4805 250.207 92.6815C250.594 92.8824 250.895 93.1801 251.111 93.5746C251.327 93.969 251.435 94.4454 251.435 95.0036V98.6318H250.174V95.1933C250.174 94.6426 250.036 94.2221 249.76 93.9318C249.485 93.6341 249.109 93.4853 248.633 93.4853C248.157 93.4853 247.777 93.6341 247.494 93.9318C247.219 94.2221 247.081 94.6426 247.081 95.1933V98.6318H245.808V92.4805H247.081V93.1838C247.29 92.9308 247.554 92.7336 247.874 92.5921C248.201 92.4507 248.547 92.38 248.912 92.38ZM254.543 93.5187V96.9238C254.543 97.1545 254.595 97.3219 254.7 97.4261C254.811 97.5229 254.997 97.5713 255.258 97.5713H256.039V98.6318H255.035C254.461 98.6318 254.022 98.4979 253.717 98.2299C253.412 97.962 253.259 97.5266 253.259 96.9238V93.5187H252.534V92.4805H253.259V90.951H254.543V92.4805H256.039V93.5187H254.543ZM258.485 93.3736C258.671 93.061 258.917 92.8191 259.222 92.648C259.534 92.4693 259.903 92.38 260.327 92.38V93.6974H260.003C259.505 93.6974 259.125 93.8239 258.865 94.0769C258.611 94.33 258.485 94.7691 258.485 95.3943V98.6318H257.212V92.4805H258.485V93.3736ZM267.135 95.4055C267.135 95.6362 267.12 95.8446 267.09 96.0306H262.39C262.427 96.5219 262.61 96.9163 262.937 97.214C263.264 97.5117 263.666 97.6606 264.143 97.6606C264.827 97.6606 265.311 97.374 265.594 96.8009H266.967C266.781 97.3666 266.442 97.8318 265.951 98.1964C265.467 98.5537 264.865 98.7323 264.143 98.7323C263.555 98.7323 263.026 98.6021 262.557 98.3416C262.096 98.0736 261.731 97.7015 261.463 97.2252C261.203 96.7414 261.073 96.1832 261.073 95.5506C261.073 94.918 261.199 94.3635 261.452 93.8872C261.713 93.4034 262.074 93.0313 262.535 92.7708C263.004 92.5103 263.54 92.38 264.143 92.38C264.723 92.38 265.24 92.5066 265.694 92.7596C266.148 93.0127 266.502 93.3699 266.755 93.8313C267.008 94.2853 267.135 94.81 267.135 95.4055ZM265.806 95.0036C265.799 94.5347 265.631 94.1588 265.304 93.876C264.976 93.5932 264.571 93.4518 264.087 93.4518C263.648 93.4518 263.272 93.5932 262.959 93.876C262.647 94.1514 262.461 94.5272 262.401 95.0036H265.806ZM276.925 95.4055C276.925 95.6362 276.91 95.8446 276.88 96.0306H272.18C272.217 96.5219 272.4 96.9163 272.727 97.214C273.055 97.5117 273.457 97.6606 273.933 97.6606C274.618 97.6606 275.101 97.374 275.384 96.8009H276.757C276.571 97.3666 276.233 97.8318 275.742 98.1964C275.258 98.5537 274.655 98.7323 273.933 98.7323C273.345 98.7323 272.817 98.6021 272.348 98.3416C271.886 98.0736 271.522 97.7015 271.254 97.2252C270.993 96.7414 270.863 96.1832 270.863 95.5506C270.863 94.918 270.989 94.3635 271.242 93.8872C271.503 93.4034 271.864 93.0313 272.325 92.7708C272.794 92.5103 273.33 92.38 273.933 92.38C274.513 92.38 275.031 92.5066 275.485 92.7596C275.939 93.0127 276.292 93.3699 276.545 93.8313C276.798 94.2853 276.925 94.81 276.925 95.4055ZM275.596 95.0036C275.589 94.5347 275.421 94.1588 275.094 93.876C274.767 93.5932 274.361 93.4518 273.877 93.4518C273.438 93.4518 273.062 93.5932 272.75 93.876C272.437 94.1514 272.251 94.5272 272.191 95.0036H275.596ZM285.624 92.38C286.107 92.38 286.539 92.4805 286.919 92.6815C287.306 92.8824 287.607 93.1801 287.823 93.5746C288.046 93.969 288.158 94.4454 288.158 95.0036V98.6318H286.896V95.1933C286.896 94.6426 286.759 94.2221 286.483 93.9318C286.208 93.6341 285.832 93.4853 285.356 93.4853C284.879 93.4853 284.5 93.6341 284.217 93.9318C283.942 94.2221 283.804 94.6426 283.804 95.1933V98.6318H282.542V95.1933C282.542 94.6426 282.405 94.2221 282.129 93.9318C281.854 93.6341 281.478 93.4853 281.002 93.4853C280.526 93.4853 280.146 93.6341 279.863 93.9318C279.588 94.2221 279.45 94.6426 279.45 95.1933V98.6318H278.177V92.4805H279.45V93.1838C279.658 92.9308 279.923 92.7336 280.243 92.5921C280.563 92.4507 280.905 92.38 281.27 92.38C281.761 92.38 282.2 92.4842 282.587 92.6926C282.974 92.901 283.272 93.2024 283.48 93.5969C283.666 93.2248 283.957 92.9308 284.351 92.7149C284.745 92.4917 285.17 92.38 285.624 92.38ZM92.3979 112.551C92.3979 111.918 92.5244 111.363 92.7775 110.887C93.038 110.403 93.3952 110.031 93.8492 109.771C94.3032 109.51 94.8242 109.38 95.4122 109.38C96.1564 109.38 96.7704 109.559 97.2542 109.916C97.7454 110.266 98.0766 110.768 98.2478 111.423H96.8746C96.763 111.118 96.5844 110.88 96.3388 110.709C96.0932 110.537 95.7843 110.452 95.4122 110.452C94.8912 110.452 94.4744 110.638 94.1618 111.01C93.8566 111.375 93.7041 111.888 93.7041 112.551C93.7041 113.213 93.8566 113.73 94.1618 114.102C94.4744 114.475 94.8912 114.661 95.4122 114.661C96.149 114.661 96.6365 114.337 96.8746 113.689H98.2478C98.0692 114.314 97.7343 114.813 97.243 115.185C96.7518 115.55 96.1415 115.732 95.4122 115.732C94.8242 115.732 94.3032 115.602 93.8492 115.342C93.3952 115.074 93.038 114.702 92.7775 114.225C92.5244 113.741 92.3979 113.183 92.3979 112.551ZM102.184 115.732C101.604 115.732 101.079 115.602 100.61 115.342C100.141 115.074 99.7729 114.702 99.505 114.225C99.237 113.741 99.1031 113.183 99.1031 112.551C99.1031 111.925 99.2407 111.371 99.5161 110.887C99.7915 110.403 100.167 110.031 100.644 109.771C101.12 109.51 101.652 109.38 102.24 109.38C102.828 109.38 103.36 109.51 103.837 109.771C104.313 110.031 104.689 110.403 104.964 110.887C105.24 111.371 105.377 111.925 105.377 112.551C105.377 113.176 105.236 113.73 104.953 114.214C104.67 114.698 104.283 115.074 103.792 115.342C103.308 115.602 102.772 115.732 102.184 115.732ZM102.184 114.627C102.512 114.627 102.817 114.549 103.1 114.393C103.39 114.236 103.624 114.002 103.803 113.689C103.982 113.377 104.071 112.997 104.071 112.551C104.071 112.104 103.985 111.728 103.814 111.423C103.643 111.11 103.416 110.876 103.133 110.72C102.85 110.563 102.545 110.485 102.218 110.485C101.89 110.485 101.585 110.563 101.302 110.72C101.027 110.876 100.807 111.11 100.644 111.423C100.48 111.728 100.398 112.104 100.398 112.551C100.398 113.213 100.566 113.727 100.9 114.091C101.243 114.448 101.671 114.627 102.184 114.627ZM109.739 109.38C110.223 109.38 110.654 109.481 111.034 109.681C111.421 109.882 111.722 110.18 111.938 110.575C112.154 110.969 112.262 111.445 112.262 112.004V115.632H111V112.193C111 111.643 110.863 111.222 110.587 110.932C110.312 110.634 109.936 110.485 109.46 110.485C108.983 110.485 108.604 110.634 108.321 110.932C108.046 111.222 107.908 111.643 107.908 112.193V115.632H106.635V109.481H107.908V110.184C108.116 109.931 108.381 109.734 108.701 109.592C109.028 109.451 109.374 109.38 109.739 109.38ZM115.37 110.519V113.924C115.37 114.154 115.422 114.322 115.526 114.426C115.638 114.523 115.824 114.571 116.085 114.571H116.866V115.632H115.861C115.288 115.632 114.849 115.498 114.544 115.23C114.239 114.962 114.086 114.527 114.086 113.924V110.519H113.361V109.481H114.086V107.951H115.37V109.481H116.866V110.519H115.37ZM117.615 112.528C117.615 111.911 117.741 111.363 117.994 110.887C118.255 110.411 118.605 110.042 119.044 109.782C119.49 109.514 119.982 109.38 120.518 109.38C121.001 109.38 121.422 109.477 121.779 109.67C122.144 109.856 122.434 110.091 122.65 110.374V109.481H123.934V115.632H122.65V114.716C122.434 115.007 122.14 115.249 121.768 115.442C121.396 115.636 120.972 115.732 120.495 115.732C119.967 115.732 119.483 115.598 119.044 115.33C118.605 115.055 118.255 114.675 117.994 114.192C117.741 113.7 117.615 113.146 117.615 112.528ZM122.65 112.551C122.65 112.126 122.561 111.758 122.382 111.445C122.211 111.133 121.984 110.895 121.701 110.731C121.418 110.567 121.113 110.485 120.785 110.485C120.458 110.485 120.153 110.567 119.87 110.731C119.587 110.887 119.356 111.122 119.178 111.434C119.007 111.739 118.921 112.104 118.921 112.528C118.921 112.952 119.007 113.325 119.178 113.645C119.356 113.965 119.587 114.21 119.87 114.381C120.16 114.545 120.465 114.627 120.785 114.627C121.113 114.627 121.418 114.545 121.701 114.381C121.984 114.218 122.211 113.98 122.382 113.667C122.561 113.347 122.65 112.975 122.65 112.551ZM127.09 110.519V113.924C127.09 114.154 127.142 114.322 127.246 114.426C127.358 114.523 127.544 114.571 127.805 114.571H128.586V115.632H127.581C127.008 115.632 126.569 115.498 126.264 115.23C125.959 114.962 125.806 114.527 125.806 113.924V110.519H125.081V109.481H125.806V107.951H127.09V109.481H128.586V110.519H127.09ZM132.427 115.732C131.847 115.732 131.322 115.602 130.853 115.342C130.384 115.074 130.016 114.702 129.748 114.225C129.48 113.741 129.346 113.183 129.346 112.551C129.346 111.925 129.484 111.371 129.759 110.887C130.034 110.403 130.41 110.031 130.887 109.771C131.363 109.51 131.895 109.38 132.483 109.38C133.071 109.38 133.603 109.51 134.08 109.771C134.556 110.031 134.932 110.403 135.207 110.887C135.482 111.371 135.62 111.925 135.62 112.551C135.62 113.176 135.479 113.73 135.196 114.214C134.913 114.698 134.526 115.074 134.035 115.342C133.551 115.602 133.015 115.732 132.427 115.732ZM132.427 114.627C132.755 114.627 133.06 114.549 133.343 114.393C133.633 114.236 133.867 114.002 134.046 113.689C134.225 113.377 134.314 112.997 134.314 112.551C134.314 112.104 134.228 111.728 134.057 111.423C133.886 111.11 133.659 110.876 133.376 110.72C133.093 110.563 132.788 110.485 132.461 110.485C132.133 110.485 131.828 110.563 131.545 110.72C131.27 110.876 131.05 111.11 130.887 111.423C130.723 111.728 130.641 112.104 130.641 112.551C130.641 113.213 130.808 113.727 131.143 114.091C131.486 114.448 131.914 114.627 132.427 114.627ZM142.011 115.732C141.527 115.732 141.092 115.647 140.705 115.476C140.325 115.297 140.024 115.059 139.801 114.761C139.577 114.456 139.458 114.117 139.443 113.745H140.761C140.783 114.006 140.906 114.225 141.129 114.404C141.36 114.575 141.646 114.661 141.989 114.661C142.346 114.661 142.621 114.594 142.815 114.46C143.016 114.318 143.116 114.14 143.116 113.924C143.116 113.693 143.005 113.522 142.781 113.41C142.566 113.299 142.219 113.176 141.743 113.042C141.282 112.915 140.906 112.792 140.616 112.673C140.325 112.554 140.072 112.372 139.856 112.126C139.648 111.881 139.544 111.557 139.544 111.155C139.544 110.828 139.641 110.53 139.834 110.262C140.028 109.987 140.303 109.771 140.66 109.614C141.025 109.458 141.442 109.38 141.911 109.38C142.61 109.38 143.172 109.559 143.596 109.916C144.028 110.266 144.259 110.746 144.289 111.356H143.016C142.993 111.081 142.882 110.861 142.681 110.697C142.48 110.534 142.208 110.452 141.866 110.452C141.531 110.452 141.274 110.515 141.096 110.642C140.917 110.768 140.828 110.936 140.828 111.144C140.828 111.308 140.887 111.445 141.006 111.557C141.125 111.669 141.271 111.758 141.442 111.825C141.613 111.884 141.866 111.963 142.201 112.059C142.647 112.178 143.012 112.301 143.295 112.428C143.585 112.547 143.835 112.725 144.043 112.964C144.251 113.202 144.359 113.518 144.367 113.913C144.367 114.262 144.27 114.575 144.076 114.85C143.883 115.126 143.608 115.342 143.25 115.498C142.9 115.654 142.487 115.732 142.011 115.732ZM151.38 112.405C151.38 112.636 151.365 112.845 151.335 113.031H146.635C146.672 113.522 146.854 113.916 147.182 114.214C147.509 114.512 147.911 114.661 148.388 114.661C149.072 114.661 149.556 114.374 149.839 113.801H151.212C151.026 114.367 150.687 114.832 150.196 115.196C149.712 115.554 149.11 115.732 148.388 115.732C147.8 115.732 147.271 115.602 146.802 115.342C146.341 115.074 145.976 114.702 145.708 114.225C145.448 113.741 145.318 113.183 145.318 112.551C145.318 111.918 145.444 111.363 145.697 110.887C145.958 110.403 146.319 110.031 146.78 109.771C147.249 109.51 147.785 109.38 148.388 109.38C148.968 109.38 149.485 109.507 149.939 109.76C150.393 110.013 150.747 110.37 151 110.831C151.253 111.285 151.38 111.81 151.38 112.405ZM150.051 112.004C150.044 111.535 149.876 111.159 149.549 110.876C149.221 110.593 148.816 110.452 148.332 110.452C147.893 110.452 147.517 110.593 147.204 110.876C146.892 111.151 146.706 111.527 146.646 112.004H150.051ZM160.078 109.38C160.562 109.38 160.994 109.481 161.373 109.681C161.76 109.882 162.062 110.18 162.278 110.575C162.501 110.969 162.613 111.445 162.613 112.004V115.632H161.351V112.193C161.351 111.643 161.213 111.222 160.938 110.932C160.663 110.634 160.287 110.485 159.81 110.485C159.334 110.485 158.955 110.634 158.672 110.932C158.396 111.222 158.259 111.643 158.259 112.193V115.632H156.997V112.193C156.997 111.643 156.859 111.222 156.584 110.932C156.309 110.634 155.933 110.485 155.457 110.485C154.98 110.485 154.601 110.634 154.318 110.932C154.042 111.222 153.905 111.643 153.905 112.193V115.632H152.632V109.481H153.905V110.184C154.113 109.931 154.377 109.734 154.697 109.592C155.017 109.451 155.36 109.38 155.724 109.38C156.216 109.38 156.655 109.484 157.042 109.693C157.429 109.901 157.727 110.202 157.935 110.597C158.121 110.225 158.411 109.931 158.806 109.715C159.2 109.492 159.624 109.38 160.078 109.38ZM165.505 110.385C165.721 110.102 166.015 109.864 166.387 109.67C166.759 109.477 167.179 109.38 167.648 109.38C168.184 109.38 168.672 109.514 169.111 109.782C169.557 110.042 169.907 110.411 170.16 110.887C170.413 111.363 170.54 111.911 170.54 112.528C170.54 113.146 170.413 113.7 170.16 114.192C169.907 114.675 169.557 115.055 169.111 115.33C168.672 115.598 168.184 115.732 167.648 115.732C167.179 115.732 166.763 115.639 166.398 115.453C166.033 115.26 165.736 115.022 165.505 114.739V118.557H164.232V109.481H165.505V110.385ZM169.245 112.528C169.245 112.104 169.155 111.739 168.977 111.434C168.806 111.122 168.575 110.887 168.285 110.731C168.002 110.567 167.697 110.485 167.369 110.485C167.049 110.485 166.744 110.567 166.454 110.731C166.171 110.895 165.94 111.133 165.762 111.445C165.59 111.758 165.505 112.126 165.505 112.551C165.505 112.975 165.59 113.347 165.762 113.667C165.94 113.98 166.171 114.218 166.454 114.381C166.744 114.545 167.049 114.627 167.369 114.627C167.697 114.627 168.002 114.545 168.285 114.381C168.575 114.21 168.806 113.965 168.977 113.645C169.155 113.325 169.245 112.952 169.245 112.528ZM173.071 110.374C173.257 110.061 173.503 109.819 173.808 109.648C174.12 109.469 174.489 109.38 174.913 109.38V110.697H174.589C174.091 110.697 173.711 110.824 173.451 111.077C173.198 111.33 173.071 111.769 173.071 112.394V115.632H171.798V109.481H173.071V110.374ZM181.721 112.405C181.721 112.636 181.706 112.845 181.676 113.031H176.976C177.013 113.522 177.196 113.916 177.523 114.214C177.851 114.512 178.252 114.661 178.729 114.661C179.413 114.661 179.897 114.374 180.18 113.801H181.553C181.367 114.367 181.029 114.832 180.537 115.196C180.054 115.554 179.451 115.732 178.729 115.732C178.141 115.732 177.612 115.602 177.143 115.342C176.682 115.074 176.317 114.702 176.049 114.225C175.789 113.741 175.659 113.183 175.659 112.551C175.659 111.918 175.785 111.363 176.038 110.887C176.299 110.403 176.66 110.031 177.121 109.771C177.59 109.51 178.126 109.38 178.729 109.38C179.309 109.38 179.827 109.507 180.281 109.76C180.735 110.013 181.088 110.37 181.341 110.831C181.594 111.285 181.721 111.81 181.721 112.405ZM180.392 112.004C180.385 111.535 180.217 111.159 179.89 110.876C179.562 110.593 179.157 110.452 178.673 110.452C178.234 110.452 177.858 110.593 177.545 110.876C177.233 111.151 177.047 111.527 176.987 112.004H180.392ZM185.449 112.528C185.449 111.911 185.575 111.363 185.828 110.887C186.089 110.411 186.439 110.042 186.878 109.782C187.324 109.514 187.819 109.38 188.363 109.38C188.839 109.38 189.26 109.477 189.624 109.67C189.996 109.864 190.283 110.098 190.484 110.374V109.481H191.768V118.557H190.484V114.739C190.283 115.014 189.993 115.249 189.613 115.442C189.233 115.636 188.802 115.732 188.318 115.732C187.79 115.732 187.306 115.598 186.867 115.33C186.435 115.055 186.089 114.675 185.828 114.192C185.575 113.7 185.449 113.146 185.449 112.528ZM190.484 112.551C190.484 112.126 190.395 111.758 190.216 111.445C190.045 111.133 189.818 110.895 189.535 110.731C189.252 110.567 188.947 110.485 188.619 110.485C188.292 110.485 187.987 110.567 187.704 110.731C187.421 110.887 187.19 111.122 187.012 111.434C186.841 111.739 186.755 112.104 186.755 112.528C186.755 112.952 186.841 113.325 187.012 113.645C187.19 113.965 187.421 114.21 187.704 114.381C187.994 114.545 188.299 114.627 188.619 114.627C188.947 114.627 189.252 114.545 189.535 114.381C189.818 114.218 190.045 113.98 190.216 113.667C190.395 113.347 190.484 112.975 190.484 112.551ZM199.01 109.481V115.632H197.737V114.906C197.536 115.159 197.272 115.36 196.945 115.509C196.625 115.65 196.282 115.721 195.918 115.721C195.434 115.721 194.999 115.621 194.612 115.42C194.232 115.219 193.931 114.921 193.707 114.527C193.491 114.132 193.384 113.656 193.384 113.098V109.481H194.645V112.908C194.645 113.459 194.783 113.883 195.058 114.181C195.333 114.471 195.709 114.616 196.186 114.616C196.662 114.616 197.038 114.471 197.313 114.181C197.596 113.883 197.737 113.459 197.737 112.908V109.481H199.01ZM206.327 112.405C206.327 112.636 206.312 112.845 206.282 113.031H201.582C201.62 113.522 201.802 113.916 202.129 114.214C202.457 114.512 202.859 114.661 203.335 114.661C204.02 114.661 204.504 114.374 204.787 113.801H206.16C205.974 114.367 205.635 114.832 205.144 115.196C204.66 115.554 204.057 115.732 203.335 115.732C202.747 115.732 202.219 115.602 201.75 115.342C201.288 115.074 200.924 114.702 200.656 114.225C200.395 113.741 200.265 113.183 200.265 112.551C200.265 111.918 200.392 111.363 200.645 110.887C200.905 110.403 201.266 110.031 201.728 109.771C202.196 109.51 202.732 109.38 203.335 109.38C203.916 109.38 204.433 109.507 204.887 109.76C205.341 110.013 205.695 110.37 205.948 110.831C206.201 111.285 206.327 111.81 206.327 112.405ZM204.999 112.004C204.991 111.535 204.824 111.159 204.496 110.876C204.169 110.593 203.763 110.452 203.279 110.452C202.84 110.452 202.464 110.593 202.152 110.876C201.839 111.151 201.653 111.527 201.594 112.004H204.999ZM211.752 110.385C211.968 110.102 212.262 109.864 212.634 109.67C213.006 109.477 213.427 109.38 213.896 109.38C214.432 109.38 214.919 109.514 215.358 109.782C215.805 110.042 216.155 110.411 216.408 110.887C216.661 111.363 216.787 111.911 216.787 112.528C216.787 113.146 216.661 113.7 216.408 114.192C216.155 114.675 215.805 115.055 215.358 115.33C214.919 115.598 214.432 115.732 213.896 115.732C213.427 115.732 213.01 115.639 212.645 115.453C212.281 115.26 211.983 115.022 211.752 114.739V118.557H210.48V109.481H211.752V110.385ZM215.492 112.528C215.492 112.104 215.403 111.739 215.224 111.434C215.053 111.122 214.822 110.887 214.532 110.731C214.249 110.567 213.944 110.485 213.617 110.485C213.297 110.485 212.991 110.567 212.701 110.731C212.418 110.895 212.188 111.133 212.009 111.445C211.838 111.758 211.752 112.126 211.752 112.551C211.752 112.975 211.838 113.347 212.009 113.667C212.188 113.98 212.418 114.218 212.701 114.381C212.991 114.545 213.297 114.627 213.617 114.627C213.944 114.627 214.249 114.545 214.532 114.381C214.822 114.21 215.053 113.965 215.224 113.645C215.403 113.325 215.492 112.952 215.492 112.528ZM219.318 110.374C219.505 110.061 219.75 109.819 220.055 109.648C220.368 109.469 220.736 109.38 221.161 109.38V110.697H220.837C220.338 110.697 219.959 110.824 219.698 111.077C219.445 111.33 219.318 111.769 219.318 112.394V115.632H218.046V109.481H219.318V110.374ZM227.968 112.405C227.968 112.636 227.953 112.845 227.924 113.031H223.224C223.261 113.522 223.443 113.916 223.771 114.214C224.098 114.512 224.5 114.661 224.976 114.661C225.661 114.661 226.145 114.374 226.428 113.801H227.801C227.615 114.367 227.276 114.832 226.785 115.196C226.301 115.554 225.698 115.732 224.976 115.732C224.388 115.732 223.86 115.602 223.391 115.342C222.93 115.074 222.565 114.702 222.297 114.225C222.036 113.741 221.906 113.183 221.906 112.551C221.906 111.918 222.033 111.363 222.286 110.887C222.546 110.403 222.907 110.031 223.369 109.771C223.838 109.51 224.373 109.38 224.976 109.38C225.557 109.38 226.074 109.507 226.528 109.76C226.982 110.013 227.336 110.37 227.589 110.831C227.842 111.285 227.968 111.81 227.968 112.405ZM226.64 112.004C226.632 111.535 226.465 111.159 226.137 110.876C225.81 110.593 225.404 110.452 224.92 110.452C224.481 110.452 224.105 110.593 223.793 110.876C223.48 111.151 223.294 111.527 223.235 112.004H226.64ZM228.796 112.551C228.796 111.918 228.923 111.363 229.176 110.887C229.436 110.403 229.794 110.031 230.248 109.771C230.702 109.51 231.223 109.38 231.811 109.38C232.555 109.38 233.169 109.559 233.653 109.916C234.144 110.266 234.475 110.768 234.646 111.423H233.273C233.161 111.118 232.983 110.88 232.737 110.709C232.492 110.537 232.183 110.452 231.811 110.452C231.29 110.452 230.873 110.638 230.56 111.01C230.255 111.375 230.103 111.888 230.103 112.551C230.103 113.213 230.255 113.73 230.56 114.102C230.873 114.475 231.29 114.661 231.811 114.661C232.547 114.661 233.035 114.337 233.273 113.689H234.646C234.468 114.314 234.133 114.813 233.642 115.185C233.15 115.55 232.54 115.732 231.811 115.732C231.223 115.732 230.702 115.602 230.248 115.342C229.794 115.074 229.436 114.702 229.176 114.225C228.923 113.741 228.796 113.183 228.796 112.551ZM236.562 108.666C236.331 108.666 236.138 108.587 235.982 108.431C235.825 108.275 235.747 108.081 235.747 107.851C235.747 107.62 235.825 107.426 235.982 107.27C236.138 107.114 236.331 107.036 236.562 107.036C236.785 107.036 236.975 107.114 237.131 107.27C237.288 107.426 237.366 107.62 237.366 107.851C237.366 108.081 237.288 108.275 237.131 108.431C236.975 108.587 236.785 108.666 236.562 108.666ZM237.187 109.481V115.632H235.915V109.481H237.187ZM241.091 115.732C240.607 115.732 240.172 115.647 239.785 115.476C239.405 115.297 239.104 115.059 238.881 114.761C238.657 114.456 238.538 114.117 238.523 113.745H239.841C239.863 114.006 239.986 114.225 240.209 114.404C240.44 114.575 240.726 114.661 241.069 114.661C241.426 114.661 241.701 114.594 241.895 114.46C242.096 114.318 242.196 114.14 242.196 113.924C242.196 113.693 242.085 113.522 241.861 113.41C241.646 113.299 241.299 113.176 240.823 113.042C240.362 112.915 239.986 112.792 239.696 112.673C239.405 112.554 239.152 112.372 238.936 112.126C238.728 111.881 238.624 111.557 238.624 111.155C238.624 110.828 238.721 110.53 238.914 110.262C239.108 109.987 239.383 109.771 239.74 109.614C240.105 109.458 240.522 109.38 240.991 109.38C241.69 109.38 242.252 109.559 242.676 109.916C243.108 110.266 243.339 110.746 243.368 111.356H242.096C242.073 111.081 241.962 110.861 241.761 110.697C241.56 110.534 241.288 110.452 240.946 110.452C240.611 110.452 240.354 110.515 240.176 110.642C239.997 110.768 239.908 110.936 239.908 111.144C239.908 111.308 239.967 111.445 240.086 111.557C240.205 111.669 240.351 111.758 240.522 111.825C240.693 111.884 240.946 111.963 241.281 112.059C241.727 112.178 242.092 112.301 242.375 112.428C242.665 112.547 242.914 112.725 243.123 112.964C243.331 113.202 243.439 113.518 243.447 113.913C243.447 114.262 243.35 114.575 243.156 114.85C242.963 115.126 242.687 115.342 242.33 115.498C241.98 115.654 241.567 115.732 241.091 115.732ZM244.398 112.528C244.398 111.911 244.524 111.363 244.777 110.887C245.038 110.411 245.387 110.042 245.827 109.782C246.273 109.514 246.764 109.38 247.3 109.38C247.784 109.38 248.204 109.477 248.562 109.67C248.926 109.856 249.217 110.091 249.433 110.374V109.481H250.716V115.632H249.433V114.716C249.217 115.007 248.923 115.249 248.551 115.442C248.178 115.636 247.754 115.732 247.278 115.732C246.749 115.732 246.266 115.598 245.827 115.33C245.387 115.055 245.038 114.675 244.777 114.192C244.524 113.7 244.398 113.146 244.398 112.528ZM249.433 112.551C249.433 112.126 249.343 111.758 249.165 111.445C248.993 111.133 248.766 110.895 248.484 110.731C248.201 110.567 247.896 110.485 247.568 110.485C247.241 110.485 246.936 110.567 246.653 110.731C246.37 110.887 246.139 111.122 245.961 111.434C245.789 111.739 245.704 112.104 245.704 112.528C245.704 112.952 245.789 113.325 245.961 113.645C246.139 113.965 246.37 114.21 246.653 114.381C246.943 114.545 247.248 114.627 247.568 114.627C247.896 114.627 248.201 114.545 248.484 114.381C248.766 114.218 248.993 113.98 249.165 113.667C249.343 113.347 249.433 112.975 249.433 112.551ZM253.661 110.374C253.847 110.061 254.092 109.819 254.397 109.648C254.71 109.469 255.078 109.38 255.503 109.38V110.697H255.179C254.68 110.697 254.301 110.824 254.04 111.077C253.787 111.33 253.661 111.769 253.661 112.394V115.632H252.388V109.481H253.661V110.374ZM257.186 115.71C256.955 115.71 256.762 115.632 256.606 115.476C256.449 115.319 256.371 115.126 256.371 114.895C256.371 114.664 256.449 114.471 256.606 114.314C256.762 114.158 256.955 114.08 257.186 114.08C257.409 114.08 257.599 114.158 257.755 114.314C257.912 114.471 257.99 114.664 257.99 114.895C257.99 115.126 257.912 115.319 257.755 115.476C257.599 115.632 257.409 115.71 257.186 115.71Z" fill="black"/>
<path d="M99.2108 55.0733V59.0758H104.586V61.6145H99.2108V65.8458H105.272V68.4531H96.0088V52.4659H105.272V55.0733H99.2108ZM103.03 49.1724L97.7699 51.5739V49.2868L103.03 46.565V49.1724ZM119.441 58.4125H117.222V68.4531H113.975V58.4125H112.534V55.7823H113.975V55.1419C113.975 53.5866 114.417 52.443 115.301 51.7111C116.186 50.9793 117.52 50.6362 119.304 50.6819V53.3808C118.526 53.3655 117.985 53.4951 117.68 53.7696C117.375 54.044 117.222 54.5396 117.222 55.2562V55.7823H119.441V58.4125ZM120.693 62.072C120.693 60.7912 120.944 59.6552 121.447 58.6641C121.966 57.673 122.66 56.9106 123.529 56.3769C124.413 55.8433 125.396 55.5764 126.479 55.5764C127.424 55.5764 128.248 55.767 128.949 56.1482C129.666 56.5294 130.238 57.0097 130.665 57.5891V55.7823H133.889V68.4531H130.665V66.6005C130.253 67.1952 129.681 67.6907 128.949 68.0872C128.233 68.4684 127.402 68.659 126.456 68.659C125.389 68.659 124.413 68.3845 123.529 67.8356C122.66 67.2867 121.966 66.5167 121.447 65.5256C120.944 64.5192 120.693 63.368 120.693 62.072ZM130.665 62.1177C130.665 61.3401 130.512 60.6768 130.207 60.1279C129.902 59.5637 129.491 59.1368 128.972 58.8471C128.454 58.5421 127.897 58.3896 127.302 58.3896C126.708 58.3896 126.159 58.5345 125.656 58.8242C125.153 59.1139 124.741 59.5408 124.421 60.105C124.116 60.6539 123.963 61.3096 123.963 62.072C123.963 62.8343 124.116 63.5052 124.421 64.0847C124.741 64.6488 125.153 65.0834 125.656 65.3883C126.174 65.6933 126.723 65.8458 127.302 65.8458C127.897 65.8458 128.454 65.7009 128.972 65.4112C129.491 65.1063 129.902 64.6793 130.207 64.1304C130.512 63.5662 130.665 62.8953 130.665 62.1177ZM130.23 52.4888L124.97 54.8903V52.6031L130.23 49.8814V52.4888ZM136.193 62.1177C136.193 60.8064 136.46 59.6628 136.994 58.687C137.528 57.6959 138.267 56.9335 139.212 56.3998C140.158 55.8509 141.24 55.5764 142.46 55.5764C144.031 55.5764 145.327 55.9729 146.348 56.7658C147.385 57.5434 148.079 58.6412 148.43 60.0593H144.976C144.793 59.5103 144.481 59.0834 144.038 58.7785C143.611 58.4583 143.078 58.2982 142.437 58.2982C141.522 58.2982 140.798 58.6336 140.265 59.3045C139.731 59.9602 139.464 60.8979 139.464 62.1177C139.464 63.3223 139.731 64.26 140.265 64.9309C140.798 65.5866 141.522 65.9144 142.437 65.9144C143.733 65.9144 144.58 65.335 144.976 64.1761H148.43C148.079 65.5484 147.385 66.6386 146.348 67.4468C145.312 68.2549 144.015 68.659 142.46 68.659C141.24 68.659 140.158 68.3921 139.212 67.8585C138.267 67.3095 137.528 66.5472 136.994 65.5713C136.46 64.5802 136.193 63.429 136.193 62.1177ZM152.399 54.2728C151.835 54.2728 151.363 54.0974 150.981 53.7467C150.615 53.3808 150.432 52.931 150.432 52.3973C150.432 51.8636 150.615 51.4214 150.981 51.0707C151.363 50.7048 151.835 50.5218 152.399 50.5218C152.964 50.5218 153.429 50.7048 153.795 51.0707C154.176 51.4214 154.366 51.8636 154.366 52.3973C154.366 52.931 154.176 53.3808 153.795 53.7467C153.429 54.0974 152.964 54.2728 152.399 54.2728ZM153.977 55.7823V68.4531H150.775V55.7823H153.977ZM160.343 51.5282V68.4531H157.141V51.5282H160.343ZM168.133 62.072C168.133 60.7912 168.385 59.6552 168.888 58.6641C169.406 57.673 170.108 56.9106 170.992 56.3769C171.877 55.8433 172.86 55.5764 173.943 55.5764C174.766 55.5764 175.551 55.7594 176.298 56.1254C177.045 56.4761 177.64 56.9487 178.082 57.5434V51.5282H181.33V68.4531H178.082V66.5777C177.686 67.2028 177.129 67.706 176.413 68.0872C175.696 68.4684 174.865 68.659 173.92 68.659C172.852 68.659 171.877 68.3845 170.992 67.8356C170.108 67.2867 169.406 66.5167 168.888 65.5256C168.385 64.5192 168.133 63.368 168.133 62.072ZM178.105 62.1177C178.105 61.3401 177.953 60.6768 177.648 60.1279C177.343 59.5637 176.931 59.1368 176.413 58.8471C175.894 58.5421 175.338 58.3896 174.743 58.3896C174.148 58.3896 173.599 58.5345 173.096 58.8242C172.593 59.1139 172.181 59.5408 171.861 60.105C171.556 60.6539 171.404 61.3096 171.404 62.072C171.404 62.8343 171.556 63.5052 171.861 64.0847C172.181 64.6488 172.593 65.0834 173.096 65.3883C173.615 65.6933 174.164 65.8458 174.743 65.8458C175.338 65.8458 175.894 65.7009 176.413 65.4112C176.931 65.1063 177.343 64.6793 177.648 64.1304C177.953 63.5662 178.105 62.8953 178.105 62.1177ZM196.236 61.8432C196.236 62.3007 196.206 62.7124 196.145 63.0783H186.882C186.958 63.9932 187.278 64.7098 187.842 65.2282C188.407 65.7467 189.1 66.0059 189.924 66.0059C191.113 66.0059 191.959 65.4951 192.462 64.4735H195.916C195.55 65.6933 194.849 66.6996 193.812 67.4925C192.775 68.2702 191.502 68.659 189.992 68.659C188.773 68.659 187.675 68.3921 186.699 67.8585C185.738 67.3095 184.983 66.5395 184.435 65.5484C183.901 64.5573 183.634 63.4138 183.634 62.1177C183.634 60.8064 183.901 59.6552 184.435 58.6641C184.968 57.673 185.715 56.9106 186.676 56.3769C187.637 55.8433 188.742 55.5764 189.992 55.5764C191.197 55.5764 192.272 55.8356 193.217 56.3541C194.178 56.8725 194.917 57.612 195.436 58.5726C195.969 59.518 196.236 60.6082 196.236 61.8432ZM192.92 60.9284C192.905 60.105 192.607 59.4494 192.028 58.9614C191.448 58.4583 190.739 58.2067 189.901 58.2067C189.108 58.2067 188.437 58.4506 187.888 58.9386C187.354 59.4112 187.027 60.0745 186.905 60.9284H192.92ZM215.985 55.7823V68.4531H212.76V66.8521C212.349 67.401 211.807 67.8356 211.136 68.1558C210.481 68.4607 209.764 68.6132 208.986 68.6132C207.995 68.6132 207.119 68.4074 206.356 67.9957C205.594 67.5688 204.992 66.9512 204.549 66.1431C204.122 65.3197 203.909 64.3439 203.909 63.2155V55.7823H207.111V62.7581C207.111 63.7645 207.363 64.5421 207.866 65.091C208.369 65.6247 209.055 65.8915 209.924 65.8915C210.809 65.8915 211.502 65.6247 212.005 65.091C212.509 64.5421 212.76 63.7645 212.76 62.7581V55.7823H215.985ZM223.993 68.659C222.956 68.659 222.026 68.476 221.203 68.1101C220.38 67.7289 219.724 67.2181 219.236 66.5777C218.763 65.9373 218.504 65.2282 218.458 64.4506H221.683C221.744 64.9385 221.981 65.3426 222.392 65.6628C222.819 65.983 223.345 66.1431 223.97 66.1431C224.58 66.1431 225.053 66.0211 225.388 65.7772C225.739 65.5332 225.914 65.2206 225.914 64.8394C225.914 64.4277 225.701 64.1228 225.274 63.9246C224.862 63.7111 224.199 63.4824 223.284 63.2384C222.339 63.0097 221.561 62.7734 220.951 62.5294C220.357 62.2854 219.838 61.9119 219.396 61.4087C218.969 60.9055 218.756 60.227 218.756 59.3731C218.756 58.6717 218.954 58.0313 219.35 57.4519C219.762 56.8725 220.341 56.4151 221.089 56.0796C221.851 55.7442 222.743 55.5764 223.765 55.5764C225.274 55.5764 226.479 55.9576 227.378 56.72C228.278 57.4672 228.773 58.4811 228.865 59.7619H225.8C225.754 59.2588 225.541 58.8623 225.16 58.5726C224.794 58.2677 224.298 58.1152 223.673 58.1152C223.094 58.1152 222.644 58.2219 222.324 58.4354C222.019 58.6488 221.866 58.9462 221.866 59.3274C221.866 59.7543 222.08 60.0821 222.507 60.3108C222.934 60.5243 223.597 60.7454 224.496 60.9741C225.411 61.2028 226.166 61.4392 226.761 61.6831C227.355 61.9271 227.866 62.3083 228.293 62.8267C228.735 63.3299 228.964 64.0008 228.979 64.8394C228.979 65.5713 228.773 66.227 228.362 66.8064C227.965 67.3858 227.386 67.8432 226.623 68.1787C225.876 68.4989 225 68.659 223.993 68.659ZM230.784 62.072C230.784 60.7912 231.036 59.6552 231.539 58.6641C232.057 57.673 232.751 56.9106 233.62 56.3769C234.505 55.8433 235.488 55.5764 236.571 55.5764C237.516 55.5764 238.34 55.767 239.041 56.1482C239.758 56.5294 240.329 57.0097 240.756 57.5891V55.7823H243.981V68.4531H240.756V66.6005C240.345 67.1952 239.773 67.6907 239.041 68.0872C238.324 68.4684 237.493 68.659 236.548 68.659C235.481 68.659 234.505 68.3845 233.62 67.8356C232.751 67.2867 232.057 66.5167 231.539 65.5256C231.036 64.5192 230.784 63.368 230.784 62.072ZM240.756 62.1177C240.756 61.3401 240.604 60.6768 240.299 60.1279C239.994 59.5637 239.582 59.1368 239.064 58.8471C238.545 58.5421 237.989 58.3896 237.394 58.3896C236.8 58.3896 236.251 58.5345 235.747 58.8242C235.244 59.1139 234.833 59.5408 234.512 60.105C234.207 60.6539 234.055 61.3096 234.055 62.072C234.055 62.8343 234.207 63.5052 234.512 64.0847C234.833 64.6488 235.244 65.0834 235.747 65.3883C236.266 65.6933 236.815 65.8458 237.394 65.8458C237.989 65.8458 238.545 65.7009 239.064 65.4112C239.582 65.1063 239.994 64.6793 240.299 64.1304C240.604 63.5662 240.756 62.8953 240.756 62.1177ZM250.311 57.7492C250.722 57.0783 251.256 56.5523 251.912 56.1711C252.582 55.7899 253.345 55.5993 254.199 55.5993V58.9614H253.352C252.346 58.9614 251.584 59.1978 251.065 59.6704C250.562 60.1431 250.311 60.9665 250.311 62.1406V68.4531H247.109V55.7823H250.311V57.7492Z" fill="black"/>
</svg>
