<svg width="60" height="60" viewBox="0 0 33 33" fill="none" xmlns="http://www.w3.org/2000/svg">
<path fill-rule="evenodd" clip-rule="evenodd" d="M27.4504 0.997961C21.6442 2.16702 16.3686 4.82637 12.2005 8.68534C10.2241 10.5153 9.24778 11.1084 8.21216 11.1084C6.34536 11.1084 4.62143 11.8191 3.5656 13.0241C2.65713 14.0602 0.818629 17.7134 0.26645 19.5798C-0.0741127 20.7304 -0.241699 20.7232 5.32277 19.79C6.66256 19.5649 6.78297 19.6427 6.78297 20.7281C6.78297 22.5051 10.1023 25.935 11.8218 25.935C13.2824 25.935 13.2559 25.6474 12.3101 31.2631C12.0707 32.6856 12.1179 32.7539 13.1261 32.4475C18.4416 30.8323 21.1351 28.4982 21.504 25.1874C21.712 23.3219 22.1132 22.6134 24.3408 20.1773C28.3683 15.7734 31.2451 9.33231 32.1544 2.68415C32.5287 -0.054279 32.5817 -0.035409 27.4504 0.997961ZM19.8124 9.3112C19.3182 9.80542 18.9138 10.6141 18.9138 11.1084C18.9138 11.6026 19.3182 12.4113 19.8124 12.9055C20.3066 13.3997 21.1154 13.8041 21.6096 13.8041C22.767 13.8041 24.3053 12.2657 24.3053 11.1084C24.3053 10.6141 23.901 9.80542 23.4067 9.3112C22.9125 8.81698 22.1038 8.41261 21.6096 8.41261C21.1154 8.41261 20.3066 8.81698 19.8124 9.3112ZM4.41296 24.0264C3.45058 25.0894 2.73935 27.0591 2.73935 28.6599C2.73935 29.8285 2.89435 29.9786 4.1016 29.9786C6.827 29.9786 10.2088 27.8332 9.15073 26.7752C8.82455 26.449 8.58957 26.4548 8.37975 26.7945C8.21351 27.0631 7.48341 27.2829 6.75646 27.2829C5.5937 27.2829 5.4351 27.1242 5.4351 25.9615C5.4351 25.2345 5.64042 24.513 5.89158 24.358C6.37636 24.0583 6.07354 23.2392 5.47823 23.2392C5.28413 23.2392 4.80474 23.5933 4.41296 24.0264Z" fill="#FFF"/>
</svg>