<svg width="103" height="147" viewBox="0 0 103 147" fill="none" xmlns="http://www.w3.org/2000/svg">
<ellipse cx="44" cy="65.5" rx="44" ry="44.5" fill="#FDCE00"/>
<path d="M5.7614 93.0594C21.355 93.532 36.4522 84.6502 42.0516 80.1502C41.6964 80.7314 41.4977 81.2138 41.5944 81.4664C41.6276 81.5531 41.6955 81.6127 41.8038 81.64C41.8508 81.6519 41.9053 81.6576 41.9679 81.6569C33.0262 93.9814 19.9692 96.359 13.4494 96.3997C10.6067 96.4174 11.2686 95.5883 11.9862 95.2453C10.4969 95.1637 9.10542 94.9887 7.79059 94.8054C3.52751 94.2108 1.89449 93.0391 5.7614 93.0594Z" fill="url(#paint0_radial_1085_1877)"/>
<path d="M41.5944 81.4664C41.4977 81.2138 41.6964 80.7314 42.0516 80.1502C36.4522 84.6502 21.355 93.532 5.7614 93.0594C1.89449 93.039 3.52751 94.2108 7.79059 94.8054C9.10542 94.9887 10.4969 95.1637 11.9862 95.2453M41.5944 81.4664C41.6276 81.5531 41.6955 81.6127 41.8038 81.64M41.5944 81.4664C35.3265 87.2717 29.9978 90.7399 25.388 92.7509M41.8038 81.64C39.4433 84.5289 32.8554 90.7955 25.388 92.7509M41.8038 81.64C41.8508 81.6519 41.9053 81.6576 41.9679 81.6569C33.0262 93.9814 19.9692 96.359 13.4494 96.3997C10.6067 96.4174 11.2686 95.5883 11.9862 95.2453M25.388 92.7509C20.0797 95.0666 15.7245 95.4501 11.9862 95.2453" stroke="#006AC9"/>
<path d="M26.5937 100.028L28.137 100.082L31.402 100.028V99.8646L31.7829 97.6335L29.6954 97.1465C29.2798 97.0894 28.8247 97.0039 27.7364 97.1982C26.6481 97.3926 26.2128 98.4498 26.1584 99.2116C26.1148 99.821 26.4305 100.01 26.5937 100.028Z" fill="url(#paint1_linear_1085_1877)"/>
<path d="M35.7899 95.8044C37.2265 93.8019 39.8711 87.5555 41.0138 84.6826C41.5226 85.0874 42.2225 85.3341 43.0103 85.3566L40.6329 91.5599L38.7283 96.1309C38.6886 96.2343 38.6439 96.3956 38.6283 96.5662L38.7283 96.5118C40.4152 95.8588 41.177 96.675 41.4491 97.7633C41.6668 98.634 41.3584 98.8516 41.177 98.8516C40.7599 98.8879 39.4902 99.004 37.7489 99.1781C35.5722 99.3958 34.756 99.5046 34.4295 99.7767C34.1683 99.9944 32.5031 100.103 32.3035 100.103H29.9637C29.6869 100.103 29.6478 100.057 29.6414 99.9399C29.639 99.896 29.6412 99.842 29.6372 99.7767C29.619 99.4865 29.6481 98.7428 29.9092 98.0898C30.0787 97.6662 30.4534 97.3012 30.8887 97.1241C31.2922 96.9601 31.7477 96.9574 32.1403 97.2192C32.6844 97.7089 34.0849 97.4006 34.2663 97.2736C34.3932 97.1829 34.8757 96.7621 35.7899 95.8044Z" fill="url(#paint2_linear_1085_1877)"/>
<path d="M51.136 84.1265C51.5102 84.354 51.9826 84.5396 52.5508 84.5946C52.6806 84.6072 52.8077 84.6111 52.9317 84.6076C52.6415 85.6553 51.9196 88.3057 51.3537 90.5259C50.483 93.2467 50.4649 94.4982 50.483 95.2601C50.483 96.0763 51.2448 97.3823 53.0406 96.6205C53.4247 96.5052 53.7681 96.4309 54.0745 96.3901C55.851 96.1535 56.3834 97.043 56.4143 97.5999C56.4272 97.9341 56.4437 98.5268 56.4367 98.9059C56.4339 99.0619 56.427 99.1816 56.4143 99.2324C56.3599 99.4501 53.6391 99.4501 53.0406 99.2324C52.5617 99.0583 50.3016 98.7608 49.2315 98.6338C47.726 98.5431 43.0825 98.4162 43.0825 98.2529C42.9519 97.7305 43.0644 97.1646 43.1369 96.9469C43.4816 96.1488 44.5191 94.8139 45.9121 95.8586C46.8916 96.6749 47.2907 96.0219 47.4358 95.5321L48.4152 92.6481L51.136 84.1265Z" fill="url(#paint3_linear_1085_1877)"/>
<path d="M60.217 96.6579C59.6118 96.1199 58.1311 95.9583 57.3874 96.0166C56.6075 96.0788 54.9172 96.2417 54.3948 96.3955C55.9109 96.3037 56.379 97.1162 56.4079 97.6374C56.4189 97.9226 56.4325 98.3962 56.432 98.7645L59.5096 98.8345C60.5982 98.8733 60.7612 98.8164 60.7612 98.7257C60.8156 97.6918 60.7068 97.0932 60.217 96.6579Z" fill="url(#paint4_linear_1085_1877)"/>
<path d="M42.4937 34.7256L41.5864 37.5234C41.5098 37.7469 41.1581 38.2971 40.3647 38.7101C39.5713 39.1231 40.4554 37.6813 40.9966 36.9088C41.0768 36.7804 41.3631 36.1971 41.867 34.8911C40.4158 37.4257 39.0623 38.0867 38.5669 38.1003C38.4741 38.1561 38.5794 37.9312 39.573 36.7308C38.2431 38.2196 37.6276 38.1042 37.3339 37.8725L36.7296 37.3102C36.5655 37.0955 37.0821 36.8431 38.5239 35.8302C38.3315 35.6641 37.9013 35.1726 37.7199 34.5353C36.8864 34.576 36.3023 33.4661 36.1145 32.9061C36.0556 32.7957 36.1397 32.6533 36.9468 32.9667C36.6194 32.4698 36.8143 32.422 36.9527 32.4603C37.4731 32.6794 39.3151 32.5148 42.5199 30.1035C45.7246 27.6922 43.8378 32.1802 42.4937 34.7256Z" fill="#005BB2"/>
<path d="M61.5312 52.024C61.399 52.0865 56.9512 53.7644 56.7477 53.5739L57.2918 64.4571C57.7053 65.3187 61.3012 66.4878 61.8186 66.6189C77.1585 69.8168 89.9317 58.5924 94.5225 45.3582C95.2723 43.1968 96.5196 39.0291 95.5109 39.6495C91.4126 42.3881 87.347 42.8734 85.8265 42.7737C98.4257 39.6463 100.754 30.4502 101.112 25.8387C101.169 25.3337 101.152 24.4773 100.624 25.0913C97.2771 28.5739 90.7967 31.0217 87.5556 31.939C89.3789 31.3054 92.599 28.8758 94.0951 27.6415C95.4007 26.5238 98.2284 23.7485 99.0945 21.5888C99.9605 19.4292 100.276 16.6774 100.325 15.5714C100.357 14.2276 100.314 11.2151 99.8904 9.91607C99.4671 8.61702 98.9183 9.31311 98.6968 9.82353C98.4098 10.4744 97.404 12.2776 95.6767 14.2831C92.516 17.8804 90.1843 18.9513 89.4135 19.0371C89.9493 18.6966 91.5615 17.2388 93.7236 14.1317C96.4262 10.2478 94.721 0.564296 93.4466 2.92154C89.3064 9.85952 82.6379 15.619 78.4717 17.2608C75.1388 18.5743 74.5711 21.5794 74.7038 22.9178C75.0395 26.8007 74.8819 36.107 71.5661 42.2683C68.2502 48.4297 63.4946 51.3393 61.5312 52.024Z" fill="url(#paint5_linear_1085_1877)"/>
<path d="M55.5919 48.2119C54.7212 47.0365 56.1723 43.4695 56.6258 42.8124C52.5567 34.7491 55.1298 32.4232 58.3127 31.9416C55.5375 34.7168 60.2418 33.0652 60.1967 32.9755C60.8565 31.5063 60.9463 27.9257 56.0272 25.3573C51.2157 22.8451 46.6041 25.997 44.6691 27.6434C44.4461 27.8332 44.2586 28.003 44.1105 28.1418C43.9014 28.3377 43.7708 28.4718 43.7292 28.5134C43.5717 28.671 42.7172 29.6014 41.7162 31.1826C41.3644 31.7381 40.9946 32.374 40.6305 33.085C39.8835 34.5436 39.1608 36.3181 38.6686 38.3626C37.2538 44.2395 37.6347 48.3751 38.3965 51.1503C39.1583 53.9255 39.2128 52.6739 39.8113 55.3947L40.5732 68.6177C40.5732 70.5448 39.9637 74.2127 39.4942 76.6712C39.4543 76.8801 39.4154 77.0802 39.378 77.2698C39.3558 77.3825 39.3341 77.4914 39.313 77.5963L39.28 77.7596C39.2567 77.8742 39.2342 77.9832 39.2128 78.086L38.0922 82.6025L37.9706 83.0923L37.4981 84.9968L37.4171 85.3233C37.3967 85.4249 37.3763 85.5341 37.3561 85.6498C37.3438 85.72 37.3317 85.7927 37.3197 85.8675C37.2647 86.2102 37.2135 86.5985 37.1741 87.0102C37.0089 88.7389 37.0525 90.8812 37.9068 91.7988C37.9899 91.888 38.0809 91.9719 38.1789 92.0499C38.6877 92.4547 39.3876 92.7014 40.1754 92.7238C41.9194 92.7736 44.0942 91.7248 45.5794 88.8603C45.9267 88.1101 46.2796 87.5357 46.6133 87.1008V87.119C46.7439 89.165 47.103 90.0393 47.2663 90.2207C47.4028 90.4622 47.7314 90.8545 48.2457 91.1674C48.6199 91.3949 49.0923 91.5805 49.6606 91.6355C49.7903 91.6481 49.9174 91.652 50.0415 91.6485C51.208 91.6155 52.1079 90.9243 52.4358 90.5472C53.9775 88.9147 57.6705 84.9642 60.1084 82.2216C60.9172 81.3116 61.6916 80.3288 62.3938 79.2863C64.337 76.4016 65.7276 73.0603 65.7676 69.5428C65.8111 65.7119 64.516 62.3236 63.863 61.1083L60.2716 55.177L60.058 54.8506C59.9681 54.7132 59.8726 54.5676 59.7725 54.4152C58.4593 52.4152 56.3556 49.2429 55.5919 48.2119Z" fill="url(#paint6_linear_1085_1877)"/>
<path d="M55.5919 48.2119C54.7212 47.0365 56.1723 43.4695 56.6258 42.8124C52.5567 34.7491 55.1298 32.4232 58.3127 31.9416C55.5375 34.7168 60.2418 33.0652 60.1967 32.9755C60.8565 31.5063 60.9463 27.9257 56.0272 25.3573C51.2157 22.8451 46.6041 25.997 44.6691 27.6434C44.4461 27.8332 44.2586 28.003 44.1105 28.1418C43.9014 28.3377 43.7708 28.4718 43.7292 28.5134C43.5717 28.671 42.7172 29.6014 41.7162 31.1826C41.3644 31.7381 40.9946 32.374 40.6305 33.085C39.8835 34.5436 39.1608 36.3181 38.6686 38.3626C37.2538 44.2395 37.6347 48.3751 38.3965 51.1503C39.1583 53.9255 39.2128 52.6739 39.8113 55.3947L40.5732 68.6177C40.5732 70.5448 39.9637 74.2127 39.4942 76.6712C39.4543 76.8801 39.4154 77.0802 39.378 77.2698C39.3558 77.3825 39.3341 77.4914 39.313 77.5963L39.28 77.7596C39.2567 77.8742 39.2342 77.9832 39.2128 78.086L38.0922 82.6025L37.9706 83.0923L37.4981 84.9968L37.4171 85.3233C37.3967 85.4249 37.3763 85.5341 37.3561 85.6498C37.3438 85.72 37.3317 85.7927 37.3197 85.8675C37.2647 86.2102 37.2135 86.5985 37.1741 87.0102C37.0089 88.7389 37.0525 90.8812 37.9068 91.7988C37.9899 91.888 38.0809 91.9719 38.1789 92.0499C38.6877 92.4547 39.3876 92.7014 40.1754 92.7238C41.9194 92.7736 44.0942 91.7248 45.5794 88.8603C45.9267 88.1101 46.2796 87.5357 46.6133 87.1008V87.119C46.7439 89.165 47.103 90.0393 47.2663 90.2207C47.4028 90.4622 47.7314 90.8545 48.2457 91.1674C48.6199 91.3949 49.0923 91.5805 49.6606 91.6355C49.7903 91.6481 49.9174 91.652 50.0415 91.6485C51.208 91.6155 52.1079 90.9243 52.4358 90.5472C53.9775 88.9147 57.6705 84.9642 60.1084 82.2216C60.9172 81.3116 61.6916 80.3288 62.3938 79.2863C64.337 76.4016 65.7276 73.0603 65.7676 69.5428C65.8111 65.7119 64.516 62.3236 63.863 61.1083L60.2716 55.177L60.058 54.8506C59.9681 54.7132 59.8726 54.5676 59.7725 54.4152C58.4593 52.4152 56.3556 49.2429 55.5919 48.2119Z" fill="url(#paint7_radial_1085_1877)"/>
<path d="M39.2802 77.7593L39.3132 77.596C39.3343 77.4912 39.356 77.3822 39.3782 77.2695C38.7824 78.3708 37.989 80.0018 37.6199 81.1875C37.4175 81.8378 37.3428 82.3541 37.4983 82.5754C37.5516 82.6514 37.6321 82.6926 37.7438 82.6926C37.7922 82.6926 37.8465 82.6849 37.907 82.6689C37.9633 82.654 38.025 82.6319 38.0924 82.6023L39.213 78.0858C39.2344 77.9829 39.2569 77.8739 39.2802 77.7593Z" fill="#023170"/>
<path d="M37.9708 83.092L38.0924 82.6023M38.0924 82.6023L39.213 78.0858C39.2344 77.9829 39.2569 77.8739 39.2802 77.7593C39.291 77.706 39.302 77.6516 39.3132 77.596C39.3343 77.4912 39.356 77.3822 39.3782 77.2695C38.7824 78.3708 37.989 80.0018 37.6199 81.1875C37.4175 81.8378 37.3428 82.3541 37.4983 82.5754C37.5516 82.6514 37.6321 82.6926 37.7438 82.6926C37.7922 82.6926 37.8465 82.6849 37.907 82.6689C37.9633 82.654 38.025 82.6319 38.0924 82.6023Z" stroke="#006AC9"/>
<path d="M40.5857 62.6504L43.8283 54.6939C43.8904 54.5554 43.4938 54.408 43.5636 54.2528C43.647 54.0673 43.7355 53.8705 43.8283 53.6646C39.4902 56.2104 33.7226 58.4097 31.3811 59.1911C25.7528 60.722 14.692 65.7052 15.4754 73.3911C16.2589 81.077 22.0485 82.1103 24.8455 81.6662C20.6924 82.5987 19.1808 81.6781 18.574 81.2966C18.0886 80.9913 17.9722 81.2328 17.9747 81.3917C18.0808 82.49 18.8619 85.0877 21.1376 86.6926C24.171 88.9419 29.6507 87.7077 31.7239 86.7185C31.0069 87.2193 29.3591 88.3366 28.5042 88.8C27.4356 89.3793 25.3501 89.5739 24.6873 89.2695C24.157 89.026 24.1697 89.3062 24.2423 89.4767C24.8205 90.6821 26.9214 93.1067 30.6989 93.1623C36.5963 93.1544 42.9924 87.458 45.4532 84.6108C49.6882 79.7111 51.4998 70.1316 34.5358 69.4712C34.4829 69.4691 34.4298 69.4671 34.3766 69.4652C32.3538 69.3541 31.2723 67.8696 40.5857 62.6504Z" fill="#014D9B"/>
<path d="M55.8647 41.0837L58.0414 40.0492C57.1526 37.3103 52.9154 34.303 50.2599 34.39C47.9744 34.7165 46.5584 39.468 49.6614 41.5191C52.8719 43.6413 53.5248 42.6618 55.8647 41.0837Z" fill="url(#paint8_linear_1085_1877)"/>
<path d="M53.3073 31.7561C51.8272 33.4974 50.6228 34.1867 50.2057 34.3136C50.1411 34.3846 50.0537 34.5482 49.9678 34.8256L50.5321 35.021C50.849 35.209 50.8243 35.1922 51.111 35.4019C52.1293 36.1469 52.9558 37.0027 53.5794 37.7816C54.2034 38.561 54.6242 39.2634 54.831 39.7008C54.9854 40.0386 55.2098 40.7536 55.3596 41.7686C55.4913 42.6607 55.5654 43.7846 55.484 45.0879C55.6498 45.0598 55.8131 45.019 55.9737 44.9668C58.3005 44.2102 60.0512 41.0576 60.4358 39.4287C60.7441 38.1227 61.1758 35.0972 60.4358 33.443C60.3948 33.3513 60.3516 33.2606 60.3065 33.1709C59.5371 31.6411 58.2059 30.4059 57.6062 29.9604C56.7899 29.8334 54.7874 30.0148 53.3073 31.7561Z" fill="url(#paint9_radial_1085_1877)"/>
<path d="M50.5862 41.4644C50.2396 40.9099 49.6611 39.7117 49.6611 37.5786C49.6611 36.2042 49.8118 35.3282 49.9674 34.8257L50.5318 35.0211C50.8486 35.209 50.824 35.1923 51.1106 35.402C52.129 36.1469 52.9555 37.0028 53.5791 37.7817C54.203 38.561 54.6238 39.2634 54.8306 39.7008C54.9851 40.0387 55.2094 40.7537 55.3592 41.7686C55.3204 42.063 55.1405 42.3592 54.8306 42.7159C53.5246 43.9131 51.4024 42.7704 50.5862 41.4644Z" fill="url(#paint10_radial_1085_1877)"/>
<path d="M49.7094 33.1423C46.8064 33.0148 44.2983 34.9543 43.4071 35.94C43.139 33.6957 43.5924 31.978 43.8526 31.3997C44.5178 30.0592 46.2191 27.549 48.5501 27.8881C50.7267 28.2048 51.0781 29.9267 50.9912 30.691C50.8567 31.5255 50.412 33.184 49.7094 33.1423Z" fill="url(#paint11_linear_1085_1877)"/>
<path d="M48.0646 32.1577C47.484 32.0965 47.1097 31.9536 46.9951 31.8898C46.3712 31.4944 45.4366 30.3897 46.6895 29.1345C47.9423 27.8793 49.1623 28.4907 49.5825 29.1345C50.079 29.8953 50.4633 31.1934 49.516 32.5404C48.7903 32.0812 48.7903 32.2342 48.0646 32.1577Z" fill="url(#paint12_radial_1085_1877)"/>
<ellipse cx="48.7908" cy="30.5265" rx="0.435325" ry="0.272078" fill="#D9D9D9"/>
<path d="M30.6996 93.1625C36.597 93.1546 42.9931 87.4582 45.4539 84.611C49.6889 79.7113 51.5005 70.1318 34.5365 69.4713C33.6511 69.4369 32.7145 69.4267 31.7245 69.4428C27.1609 69.1666 18.6546 67.6719 21.1383 63.9027C17.7118 66.3101 15.08 69.5052 15.4761 73.3913C16.2596 81.0772 22.0492 82.1105 24.8462 81.6664C20.6931 82.5989 19.1815 81.6783 18.5747 81.2968C18.0893 80.9915 17.9729 81.233 17.9754 81.3919C18.0815 82.4902 18.8626 85.0879 21.1383 86.6928C24.1717 88.9421 29.6514 87.7079 31.7246 86.7187C31.0076 87.2195 29.3598 88.3368 28.5049 88.8002C27.4363 89.3795 25.3507 89.5741 24.688 89.2697C24.1577 89.0262 24.1704 89.3064 24.243 89.4769C24.8212 90.6823 26.9221 93.1069 30.6996 93.1625Z" fill="url(#paint13_radial_1085_1877)"/>
<path d="M2.20383 139V118.702H4.52366L12.962 132.591H11.4541L19.8925 118.702H22.2123V139H18.8776V124.559L19.6315 124.762L13.368 135.056H11.0482L4.78464 124.762L5.53858 124.559V139H2.20383ZM30.6738 139.145L24.7293 125.081H28.238L32.2977 135.404H31.2828L35.5744 125.081H39.1122L32.6457 139.145H30.6738ZM26.5271 144.8L30.8478 135.897L32.6457 139.145L30.0648 144.8H26.5271ZM40.1149 139L48.4662 118.702H50.7861L59.0794 139H55.4837L48.9882 122.558H50.2061L43.6526 139H40.1149ZM44.2325 135.085V132.186H54.9907V135.085H44.2325ZM61.5486 139V125.081H64.7383V139H61.5486ZM64.7383 131.258L63.6364 130.707C63.6364 128.947 64.023 127.527 64.7963 126.444C65.5889 125.342 66.7778 124.791 68.363 124.791C69.059 124.791 69.6873 124.917 70.2479 125.168C70.8085 125.419 71.3305 125.825 71.8138 126.386L69.7259 128.532C69.4746 128.261 69.1943 128.068 68.885 127.952C68.5757 127.836 68.2181 127.778 67.8121 127.778C66.9228 127.778 66.1882 128.058 65.6082 128.619C65.0283 129.179 64.7383 130.059 64.7383 131.258ZM78.761 139.29C77.5045 139.29 76.3639 138.971 75.3393 138.333C74.334 137.695 73.5318 136.835 72.9325 135.752C72.3525 134.65 72.0625 133.423 72.0625 132.07C72.0625 130.697 72.3525 129.469 72.9325 128.387C73.5318 127.285 74.334 126.415 75.3393 125.777C76.3639 125.12 77.5045 124.791 78.761 124.791C79.8243 124.791 80.7619 125.023 81.5738 125.487C82.4051 125.932 83.0624 126.55 83.5457 127.343C84.029 128.135 84.2706 129.034 84.2706 130.04V134.041C84.2706 135.047 84.029 135.946 83.5457 136.738C83.0817 137.531 82.4341 138.159 81.6028 138.623C80.7715 139.068 79.8243 139.29 78.761 139.29ZM79.283 136.274C80.4622 136.274 81.4095 135.878 82.1248 135.085C82.8594 134.293 83.2267 133.278 83.2267 132.041C83.2267 131.209 83.0624 130.475 82.7337 129.837C82.4051 129.199 81.9411 128.706 81.3418 128.358C80.7619 127.99 80.0756 127.807 79.283 127.807C78.5097 127.807 77.8234 127.99 77.2241 128.358C76.6442 128.706 76.1802 129.199 75.8322 129.837C75.5036 130.475 75.3393 131.209 75.3393 132.041C75.3393 132.872 75.5036 133.606 75.8322 134.244C76.1802 134.882 76.6442 135.385 77.2241 135.752C77.8234 136.1 78.5097 136.274 79.283 136.274ZM83.0237 139V135.259L83.5747 131.867L83.0237 128.503V125.081H86.2135V139H83.0237Z" fill="black"/>
<defs>
<radialGradient id="paint0_radial_1085_1877" cx="0" cy="0" r="1" gradientUnits="userSpaceOnUse" gradientTransform="translate(39.1227 83.5648) rotate(138.749) scale(13.2224 19.7451)">
<stop stop-color="#02387B"/>
<stop offset="1" stop-color="#006AC9"/>
</radialGradient>
<linearGradient id="paint1_linear_1085_1877" x1="29.9326" y1="101.769" x2="28.6266" y2="96.4364" gradientUnits="userSpaceOnUse">
<stop offset="0.120044"/>
<stop offset="1" stop-color="#838383"/>
</linearGradient>
<linearGradient id="paint2_linear_1085_1877" x1="36.6021" y1="99.3085" x2="29.256" y2="92.3977" gradientUnits="userSpaceOnUse">
<stop/>
<stop offset="1" stop-color="#D5D4D4"/>
</linearGradient>
<linearGradient id="paint3_linear_1085_1877" x1="43.4034" y1="96.0435" x2="55.1571" y2="97.6759" gradientUnits="userSpaceOnUse">
<stop stop-color="#737373"/>
<stop offset="1"/>
</linearGradient>
<linearGradient id="paint4_linear_1085_1877" x1="54.7211" y1="97.1865" x2="56.9041" y2="99.4331" gradientUnits="userSpaceOnUse">
<stop stop-color="#575757"/>
<stop offset="0.734831"/>
</linearGradient>
<linearGradient id="paint5_linear_1085_1877" x1="71.7542" y1="68.1285" x2="85.6301" y2="-3.7545" gradientUnits="userSpaceOnUse">
<stop stop-color="#023170"/>
<stop offset="0.720241" stop-color="#006AC9"/>
</linearGradient>
<linearGradient id="paint6_linear_1085_1877" x1="51.4332" y1="24.4199" x2="51.4332" y2="92.7255" gradientUnits="userSpaceOnUse">
<stop offset="0.569099" stop-color="#006AC9"/>
<stop offset="1" stop-color="#023271"/>
</linearGradient>
<radialGradient id="paint7_radial_1085_1877" cx="0" cy="0" r="1" gradientUnits="userSpaceOnUse" gradientTransform="translate(29.2006 25.9565) rotate(57.8455) scale(68.7092 28.8404)">
<stop offset="0.14659" stop-color="#006AC9"/>
<stop offset="0.817017" stop-color="#023271"/>
</radialGradient>
<linearGradient id="paint8_linear_1085_1877" x1="54.831" y1="34.3906" x2="48.1923" y2="44.131" gradientUnits="userSpaceOnUse">
<stop stop-color="#FDCE00"/>
<stop offset="1" stop-color="#FFEEA6"/>
</linearGradient>
<radialGradient id="paint9_radial_1085_1877" cx="0" cy="0" r="1" gradientUnits="userSpaceOnUse" gradientTransform="translate(54.7765 37.5464) rotate(85.2281) scale(7.56773 5.42963)">
<stop stop-color="#4B4B4B"/>
<stop offset="0.787641" stop-color="#100F0F"/>
</radialGradient>
<radialGradient id="paint10_radial_1085_1877" cx="0" cy="0" r="1" gradientUnits="userSpaceOnUse" gradientTransform="translate(52.2187 38.798) rotate(59.8194) scale(8.87575 6.54741)">
<stop stop-color="#4D4949"/>
<stop offset="0.443776"/>
</radialGradient>
<linearGradient id="paint11_linear_1085_1877" x1="49.6076" y1="29.3298" x2="43.4042" y2="36.4038" gradientUnits="userSpaceOnUse">
<stop stop-color="#FDCE00"/>
<stop offset="1" stop-color="#FEEB99"/>
</linearGradient>
<radialGradient id="paint12_radial_1085_1877" cx="0" cy="0" r="1" gradientUnits="userSpaceOnUse" gradientTransform="translate(48.4646 30.4726) rotate(104.036) scale(2.69234 3.602)">
<stop stop-color="#4F4F4F"/>
<stop offset="0.598958"/>
</radialGradient>
<radialGradient id="paint13_radial_1085_1877" cx="0" cy="0" r="1" gradientUnits="userSpaceOnUse" gradientTransform="translate(23.1074 84.7795) rotate(-16.607) scale(22.6569 18.7778)">
<stop stop-color="#006AC9"/>
<stop offset="1" stop-color="#006AC9" stop-opacity="0"/>
</radialGradient>
</defs>
</svg>
