<svg width="104" height="149" viewBox="0 0 104 149" fill="none" xmlns="http://www.w3.org/2000/svg">
<ellipse cx="44.4855" cy="66.2235" rx="44.4855" ry="44.9911" fill="#FDCE00"/>
<path d="M5.82546 94.0862C21.5911 94.564 36.8549 85.5842 42.5161 81.0345C42.157 81.6221 41.9561 82.1098 42.0539 82.3652C42.0875 82.4529 42.1561 82.5132 42.2656 82.5408C42.3131 82.5528 42.3683 82.5586 42.4315 82.5578C33.3911 95.0184 20.19 97.4222 13.5983 97.4633C10.7242 97.4812 11.3935 96.6429 12.1189 96.2962C10.6132 96.2137 9.20638 96.0368 7.87704 95.8514C3.56692 95.2503 1.91588 94.0656 5.82546 94.0862Z" fill="url(#paint0_radial_1297_1966)"/>
<path d="M42.0539 82.3652C41.9561 82.1098 42.157 81.6221 42.5161 81.0345C36.8549 85.5842 21.5911 94.564 5.82546 94.0862C1.91588 94.0656 3.56692 95.2503 7.87704 95.8514C9.20638 96.0368 10.6132 96.2137 12.1189 96.2962M42.0539 82.3652C42.0875 82.4529 42.1561 82.5132 42.2656 82.5408M42.0539 82.3652C35.7168 88.2346 30.3293 91.741 25.6687 93.7742M42.2656 82.5408C39.8791 85.4615 33.2185 91.7973 25.6687 93.7742M42.2656 82.5408C42.3131 82.5528 42.3683 82.5586 42.4315 82.5578C33.3911 95.0184 20.19 97.4222 13.5983 97.4633C10.7242 97.4812 11.3935 96.6429 12.1189 96.2962M25.6687 93.7742C20.3017 96.1155 15.8985 96.5033 12.1189 96.2962" stroke="#006AC9" stroke-width="1.01103"/>
<path d="M26.8871 101.131L28.4475 101.186L31.7485 101.131V100.966L32.1336 98.7105L30.023 98.218C29.6029 98.1603 29.1428 98.0738 28.0425 98.2703C26.9421 98.4669 26.502 99.5357 26.447 100.306C26.403 100.922 26.7221 101.113 26.8871 101.131Z" fill="url(#paint1_linear_1297_1966)"/>
<path d="M36.1845 96.8607C37.6369 94.8361 40.3107 88.5208 41.466 85.6162C41.9805 86.0255 42.6881 86.2749 43.4846 86.2976L41.0809 92.5694L39.1554 97.1908C39.1152 97.2953 39.07 97.4584 39.0543 97.6309L39.1554 97.5759C40.8609 96.9157 41.6311 97.7409 41.9062 98.8413C42.1262 99.7215 41.8145 99.9416 41.6311 99.9416C41.2093 99.9783 39.9256 100.096 38.1651 100.272C35.9644 100.492 35.1392 100.602 34.8091 100.877C34.545 101.097 32.8614 101.207 32.6597 101.207H30.294C30.0141 101.207 29.9747 101.16 29.9682 101.042C29.9658 100.997 29.968 100.943 29.9639 100.877C29.9455 100.583 29.9749 99.8316 30.239 99.1714C30.4103 98.743 30.7891 98.374 31.2292 98.195C31.6371 98.0291 32.0977 98.0265 32.4946 98.2911C33.0448 98.7862 34.4607 98.4745 34.644 98.3461C34.7724 98.2544 35.2602 97.829 36.1845 96.8607Z" fill="url(#paint2_linear_1297_1966)"/>
<path d="M51.6992 85.0547C52.0775 85.2848 52.5551 85.4724 53.1296 85.528C53.2608 85.5407 53.3893 85.5447 53.5147 85.5411C53.2213 86.6004 52.4914 89.2801 51.9192 91.5247C51.039 94.2755 51.0206 95.5409 51.039 96.3111C51.039 97.1364 51.8092 98.4568 53.6247 97.6865C54.0132 97.57 54.3603 97.4949 54.67 97.4537C56.4662 97.2145 57.0045 98.1137 57.0357 98.6768C57.0487 99.0147 57.0654 99.6139 57.0584 99.9972C57.0555 100.155 57.0486 100.276 57.0357 100.327C56.9807 100.547 54.2299 100.547 53.6247 100.327C53.1406 100.151 50.8556 99.8505 49.7736 99.7221C48.2515 99.6304 43.5568 99.5021 43.5568 99.337C43.4248 98.8089 43.5385 98.2367 43.6118 98.0166C43.9603 97.2097 45.0092 95.86 46.4177 96.9163C47.4079 97.7416 47.8114 97.0814 47.9581 96.5862L48.9484 93.6704L51.6992 85.0547Z" fill="url(#paint3_linear_1297_1966)"/>
<path d="M60.8818 97.7242C60.2699 97.1803 58.7728 97.0169 58.0209 97.0758C57.2324 97.1387 55.5234 97.3034 54.9952 97.4589C56.5281 97.3661 57.0013 98.1875 57.0306 98.7145C57.0417 99.0028 57.0555 99.4816 57.0549 99.854L60.1665 99.9248C61.2671 99.9641 61.4319 99.9065 61.4319 99.8148C61.4869 98.7695 61.3769 98.1643 60.8818 97.7242Z" fill="url(#paint4_linear_1297_1966)"/>
<path d="M42.962 35.1089L42.0447 37.9376C41.9672 38.1636 41.6116 38.7198 40.8095 39.1374C40.0073 39.555 40.9011 38.0972 41.4483 37.3162C41.5294 37.1864 41.8189 36.5967 42.3284 35.2763C40.8611 37.8388 39.4927 38.5071 38.9919 38.5209C38.8981 38.5773 39.0045 38.3499 40.0091 37.1363C38.6645 38.6415 38.0421 38.5248 37.7453 38.2905L37.1343 37.7221C36.9684 37.505 37.4906 37.2498 38.9484 36.2257C38.7539 36.0578 38.3189 35.5609 38.1355 34.9166C37.2928 34.9576 36.7023 33.8355 36.5124 33.2693C36.4529 33.1578 36.5378 33.0138 37.3539 33.3307C37.0228 32.8282 37.2199 32.78 37.3598 32.8186C37.886 33.0401 39.7483 32.8737 42.9884 30.4358C46.2285 27.9979 44.3209 32.5354 42.962 35.1089Z" fill="#005BB2"/>
<path d="M62.2099 52.5983C62.0762 52.6615 57.5794 54.3579 57.3736 54.1653L57.9237 65.1686C58.3418 66.0397 61.9773 67.2217 62.5005 67.3542C78.0096 70.5874 90.9238 59.2392 95.5652 45.859C96.3232 43.6737 97.5844 39.46 96.5645 40.0872C92.421 42.8561 88.3105 43.3467 86.7733 43.2459C99.5115 40.084 101.866 30.7864 102.227 26.124C102.285 25.6135 102.268 24.7476 101.734 25.3684C98.3502 28.8895 91.7983 31.3642 88.5214 32.2916C90.3648 31.6511 93.6205 29.1947 95.1331 27.9468C96.4531 26.8167 99.312 24.0108 100.188 21.8273C101.063 19.6438 101.382 16.8616 101.432 15.7435C101.464 14.3848 101.42 11.3391 100.992 10.0257C100.564 8.71234 100.01 9.4161 99.7856 9.93215C99.4954 10.5902 98.4785 12.4133 96.7321 14.441C93.5365 18.0779 91.1791 19.1607 90.3999 19.2474C90.9416 18.9031 92.5715 17.4292 94.7575 14.2879C97.4899 10.3611 95.7659 0.570749 94.4774 2.954C90.2916 9.96854 83.5494 15.7916 79.3373 17.4515C75.9676 18.7795 75.3936 21.8178 75.5278 23.1709C75.8672 27.0967 75.7079 36.5056 72.3554 42.735C69.003 48.9643 64.1949 51.9061 62.2099 52.5983Z" fill="url(#paint5_linear_1297_1966)"/>
<path d="M56.2046 48.7439C55.3244 47.5556 56.7915 43.9493 57.25 43.2849C53.1359 35.1326 55.7375 32.781 58.9555 32.2941C56.1496 35.1 60.9059 33.4301 60.8603 33.3394C61.5274 31.854 61.6182 28.2339 56.6447 25.6372C51.7801 23.0972 47.1176 26.2839 45.1614 27.9485C44.9359 28.1404 44.7463 28.3121 44.5965 28.4524C44.3852 28.6504 44.2531 28.7861 44.2111 28.8281C44.0518 28.9874 43.1879 29.9281 42.1758 31.5267C41.8202 32.0884 41.4463 32.7313 41.0782 33.4501C40.3229 34.9249 39.5922 36.719 39.0946 38.786C37.6642 44.7278 38.0493 48.909 38.8195 51.7148C39.5898 54.5206 39.6448 53.2553 40.25 56.0061L41.0202 69.375C41.0202 71.3233 40.404 75.0316 39.9293 77.5174C39.889 77.7285 39.8497 77.9309 39.8119 78.1225C39.7894 78.2365 39.7674 78.3466 39.7461 78.4526L39.7127 78.6177C39.6892 78.7336 39.6665 78.8438 39.6448 78.9478L38.5118 83.5141L38.389 84.0093L37.9112 85.9348L37.8293 86.2649C37.8087 86.3677 37.7881 86.478 37.7676 86.595C37.7552 86.666 37.7429 86.7394 37.7308 86.8151C37.6753 87.1616 37.6235 87.5541 37.5837 87.9704C37.4166 89.7182 37.4607 91.8841 38.3244 92.8118C38.4085 92.9021 38.5004 92.9869 38.5995 93.0657C39.1139 93.475 39.8216 93.7244 40.6181 93.7471C42.3813 93.7974 44.58 92.737 46.0817 89.841C46.4329 89.0824 46.7896 88.5017 47.127 88.062V88.0804C47.259 90.149 47.6221 91.033 47.7872 91.2163C47.9252 91.4605 48.2574 91.8571 48.7775 92.1735C49.1557 92.4035 49.6333 92.5912 50.2079 92.6468C50.339 92.6594 50.4675 92.6634 50.593 92.6599C51.7724 92.6265 52.6822 91.9277 53.0137 91.5464C54.5725 89.896 58.3062 85.9018 60.771 83.129C61.5888 82.209 62.3717 81.2153 63.0816 80.1613C65.0463 77.2447 66.4522 73.8665 66.4926 70.3102C66.5366 66.4371 65.2273 63.0114 64.5671 61.7827L60.936 55.786L60.7201 55.4559C60.6291 55.317 60.5326 55.1698 60.4314 55.0158C59.1038 52.9936 56.9768 49.7864 56.2046 48.7439Z" fill="url(#paint6_linear_1297_1966)"/>
<path d="M56.2046 48.7439C55.3244 47.5556 56.7915 43.9493 57.25 43.2849C53.1359 35.1326 55.7375 32.781 58.9555 32.2941C56.1496 35.1 60.9059 33.4301 60.8603 33.3394C61.5274 31.854 61.6182 28.2339 56.6447 25.6372C51.7801 23.0972 47.1176 26.2839 45.1614 27.9485C44.9359 28.1404 44.7463 28.3121 44.5965 28.4524C44.3852 28.6504 44.2531 28.7861 44.2111 28.8281C44.0518 28.9874 43.1879 29.9281 42.1758 31.5267C41.8202 32.0884 41.4463 32.7313 41.0782 33.4501C40.3229 34.9249 39.5922 36.719 39.0946 38.786C37.6642 44.7278 38.0493 48.909 38.8195 51.7148C39.5898 54.5206 39.6448 53.2553 40.25 56.0061L41.0202 69.375C41.0202 71.3233 40.404 75.0316 39.9293 77.5174C39.889 77.7285 39.8497 77.9309 39.8119 78.1225C39.7894 78.2365 39.7674 78.3466 39.7461 78.4526L39.7127 78.6177C39.6892 78.7336 39.6665 78.8438 39.6448 78.9478L38.5118 83.5141L38.389 84.0093L37.9112 85.9348L37.8293 86.2649C37.8087 86.3677 37.7881 86.478 37.7676 86.595C37.7552 86.666 37.7429 86.7394 37.7308 86.8151C37.6753 87.1616 37.6235 87.5541 37.5837 87.9704C37.4166 89.7182 37.4607 91.8841 38.3244 92.8118C38.4085 92.9021 38.5004 92.9869 38.5995 93.0657C39.1139 93.475 39.8216 93.7244 40.6181 93.7471C42.3813 93.7974 44.58 92.737 46.0817 89.841C46.4329 89.0824 46.7896 88.5017 47.127 88.062V88.0804C47.259 90.149 47.6221 91.033 47.7872 91.2163C47.9252 91.4605 48.2574 91.8571 48.7775 92.1735C49.1557 92.4035 49.6333 92.5912 50.2079 92.6468C50.339 92.6594 50.4675 92.6634 50.593 92.6599C51.7724 92.6265 52.6822 91.9277 53.0137 91.5464C54.5725 89.896 58.3062 85.9018 60.771 83.129C61.5888 82.209 62.3717 81.2153 63.0816 80.1613C65.0463 77.2447 66.4522 73.8665 66.4926 70.3102C66.5366 66.4371 65.2273 63.0114 64.5671 61.7827L60.936 55.786L60.7201 55.4559C60.6291 55.317 60.5326 55.1698 60.4314 55.0158C59.1038 52.9936 56.9768 49.7864 56.2046 48.7439Z" fill="url(#paint7_radial_1297_1966)"/>
<path d="M39.7124 78.6172L39.7457 78.4522C39.7671 78.3462 39.789 78.236 39.8115 78.1221C39.2091 79.2355 38.4069 80.8845 38.0338 82.0832C37.8292 82.7407 37.7536 83.2627 37.9108 83.4865C37.9648 83.5633 38.0461 83.605 38.159 83.605C38.208 83.605 38.2629 83.5972 38.3241 83.581C38.381 83.5659 38.4434 83.5436 38.5115 83.5136L39.6445 78.9473C39.6661 78.8433 39.6888 78.7331 39.7124 78.6172Z" fill="#023170"/>
<path d="M38.3886 84.0088L38.5115 83.5136M38.5115 83.5136L39.6445 78.9473C39.6661 78.8433 39.6888 78.7331 39.7124 78.6172C39.7233 78.5634 39.7344 78.5084 39.7457 78.4522C39.7671 78.3462 39.789 78.236 39.8115 78.1221C39.2091 79.2355 38.4069 80.8845 38.0338 82.0832C37.8292 82.7407 37.7536 83.2627 37.9108 83.4865C37.9648 83.5633 38.0461 83.605 38.159 83.605C38.208 83.605 38.2629 83.5972 38.3241 83.581C38.381 83.5659 38.4434 83.5436 38.5115 83.5136Z" stroke="#006AC9" stroke-width="1.01103"/>
<path d="M41.0343 63.3422L44.3127 55.2978C44.3754 55.1579 43.9744 55.0089 44.045 54.8519C44.1293 54.6643 44.2188 54.4654 44.3127 54.2572C39.9267 56.8311 34.0954 59.0547 31.7281 59.8447C26.0377 61.3925 14.8548 66.4307 15.6469 74.2014C16.439 81.9721 22.2925 83.0168 25.1203 82.5678C20.9214 83.5106 19.3931 82.5799 18.7797 82.1941C18.2889 81.8855 18.1712 82.1297 18.1737 82.2903C18.281 83.4007 19.0707 86.0271 21.3715 87.6497C24.4384 89.9238 29.9786 88.676 32.0746 87.6759C31.3497 88.1822 29.6838 89.3118 28.8195 89.7804C27.739 90.3661 25.6305 90.5628 24.9604 90.2551C24.4243 90.0089 24.4371 90.2921 24.5105 90.4645C25.0951 91.6832 27.2192 94.1346 31.0383 94.1908C37.0008 94.1828 43.4675 88.4236 45.9555 85.545C50.2372 80.5911 52.0687 70.906 34.9176 70.2382C34.8641 70.2361 34.8104 70.2341 34.7566 70.2322C32.7115 70.1199 31.6181 68.6189 41.0343 63.3422Z" fill="#014D9B"/>
<path d="M56.4822 41.538L58.6829 40.4921C57.7843 37.7229 53.5003 34.6824 50.8155 34.7704C48.5048 35.1005 47.0732 39.9044 50.2104 41.9781C53.4563 44.1238 54.1165 43.1335 56.4822 41.538Z" fill="url(#paint8_linear_1297_1966)"/>
<path d="M53.8955 32.1068C52.399 33.8673 51.1813 34.5642 50.7595 34.6926C50.6943 34.7643 50.6059 34.9298 50.519 35.2102L51.0896 35.4078C51.41 35.5978 51.3851 35.5809 51.6749 35.7929C52.7045 36.5461 53.5401 37.4113 54.1705 38.1989C54.8014 38.9868 55.2269 39.6969 55.4359 40.1392C55.5921 40.4808 55.8189 41.2036 55.9704 42.2298C56.1035 43.1318 56.1785 44.2681 56.0961 45.5858C56.2638 45.5573 56.4289 45.5161 56.5912 45.4633C58.9438 44.6983 60.7137 41.5109 61.1026 39.8641C61.4143 38.5437 61.8508 35.4848 61.1026 33.8123C61.0611 33.7197 61.0175 33.6279 60.9718 33.5372C60.1939 31.9906 58.848 30.7417 58.2417 30.2913C57.4165 30.1629 55.3919 30.3463 53.8955 32.1068Z" fill="url(#paint9_radial_1297_1966)"/>
<path d="M51.1447 41.9219C50.7944 41.3613 50.2095 40.1499 50.2095 37.9933C50.2095 36.6036 50.3618 35.7181 50.5191 35.21L51.0897 35.4075C51.4101 35.5975 51.3851 35.5806 51.675 35.7926C52.7046 36.5458 53.5401 37.4111 54.1706 38.1986C54.8014 38.9865 55.2269 39.6967 55.436 40.1389C55.5922 40.4805 55.819 41.2033 55.9704 42.2295C55.9311 42.5271 55.7493 42.8267 55.436 43.1873C54.1156 44.3976 51.97 43.2423 51.1447 41.9219Z" fill="url(#paint10_radial_1297_1966)"/>
<path d="M50.2577 33.5083C47.3227 33.3793 44.7869 35.3402 43.8859 36.3368C43.6149 34.0677 44.0733 32.3311 44.3363 31.7464C45.0089 30.3911 46.7289 27.8532 49.0857 28.1961C51.2863 28.5162 51.6416 30.2571 51.5537 31.0299C51.4177 31.8736 50.9681 33.5504 50.2577 33.5083Z" fill="url(#paint11_linear_1297_1966)"/>
<path d="M48.5949 32.5121C48.0079 32.4502 47.6294 32.3057 47.5136 32.2413C46.8828 31.8415 45.9379 30.7246 47.2046 29.4555C48.4713 28.1865 49.7047 28.8047 50.1295 29.4555C50.6316 30.2247 51.0201 31.5371 50.0624 32.899C49.3286 32.4347 49.3286 32.5895 48.5949 32.5121Z" fill="url(#paint12_radial_1297_1966)"/>
<ellipse cx="49.3306" cy="30.8642" rx="0.4405" ry="0.275313" fill="#D9D9D9"/>
<path d="M31.0379 94.1904C37.0004 94.1824 43.4671 88.4232 45.9551 85.5445C50.2368 80.5907 52.0684 70.9056 34.9172 70.2378C34.022 70.2029 33.0751 70.1926 32.0741 70.2089C27.4602 69.9296 18.86 68.4185 21.3711 64.6077C17.9068 67.0416 15.246 70.272 15.6465 74.201C16.4386 81.9717 22.2922 83.0164 25.1199 82.5674C20.921 83.5102 19.3927 82.5795 18.7793 82.1937C18.2885 81.8851 18.1708 82.1292 18.1733 82.2899C18.2806 83.4003 19.0704 86.0267 21.3712 87.6493C24.438 89.9234 29.9782 88.6756 32.0742 87.6755C31.3493 88.1818 29.6834 89.3114 28.8191 89.7799C27.7386 90.3656 25.6301 90.5624 24.96 90.2546C24.4239 90.0084 24.4367 90.2917 24.5101 90.4641C25.0947 91.6828 27.2188 94.1341 31.0379 94.1904Z" fill="url(#paint13_radial_1297_1966)"/>
<path d="M2.22815 140.214V119.691H4.57358L13.1051 133.735H11.5805L20.112 119.691H22.4574V140.214H19.0859V125.614L19.8482 125.819L13.5155 136.227H11.1701L4.83744 125.819L5.5997 125.614V140.214H2.22815ZM31.0123 140.36L25.0021 126.141H28.5496L32.6541 136.578H31.628L35.967 126.141H39.5438L33.0059 140.36H31.0123ZM26.8198 146.077L31.1882 137.077L33.0059 140.36L30.3966 146.077H26.8198ZM40.5575 140.214L49.0011 119.691H51.3465L59.7314 140.214H56.096L49.5288 123.591H50.7601L44.1343 140.214H40.5575ZM44.7207 136.256V133.324H55.5976V136.256H44.7207ZM62.2277 140.214V126.141H65.4527V140.214H62.2277ZM65.4527 132.386L64.3386 131.829C64.3386 130.05 64.7295 128.614 65.5113 127.519C66.3127 126.405 67.5147 125.848 69.1174 125.848C69.8211 125.848 70.4563 125.975 71.0231 126.229C71.5899 126.483 72.1176 126.894 72.6062 127.461L70.4954 129.63C70.2413 129.357 69.9579 129.161 69.6451 129.044C69.3324 128.927 68.9708 128.868 68.5604 128.868C67.6613 128.868 66.9186 129.151 66.3322 129.718C65.7459 130.285 65.4527 131.174 65.4527 132.386ZM79.6302 140.507C78.3597 140.507 77.2065 140.185 76.1706 139.54C75.1543 138.895 74.3432 138.025 73.7373 136.93C73.1509 135.816 72.8577 134.575 72.8577 133.207C72.8577 131.819 73.1509 130.578 73.7373 129.484C74.3432 128.369 75.1543 127.49 76.1706 126.845C77.2065 126.18 78.3597 125.848 79.6302 125.848C80.7051 125.848 81.6531 126.083 82.474 126.552C83.3144 127.001 83.979 127.627 84.4676 128.428C84.9562 129.229 85.2005 130.138 85.2005 131.155V135.201C85.2005 136.217 84.9562 137.126 84.4676 137.927C83.9985 138.728 83.3437 139.364 82.5033 139.833C81.6629 140.282 80.7051 140.507 79.6302 140.507ZM80.1579 137.458C81.3501 137.458 82.3078 137.057 83.031 136.256C83.7737 135.455 84.1451 134.428 84.1451 133.178C84.1451 132.337 83.979 131.594 83.6467 130.949C83.3144 130.304 82.8453 129.806 82.2394 129.454C81.6531 129.083 80.9592 128.897 80.1579 128.897C79.3761 128.897 78.6822 129.083 78.0763 129.454C77.4899 129.806 77.0209 130.304 76.6691 130.949C76.3368 131.594 76.1706 132.337 76.1706 133.178C76.1706 134.018 76.3368 134.761 76.6691 135.406C77.0209 136.051 77.4899 136.559 78.0763 136.93C78.6822 137.282 79.3761 137.458 80.1579 137.458ZM83.9399 140.214V136.432L84.4969 133.002L83.9399 129.601V126.141H87.1648V140.214H83.9399Z" fill="#EBEBEB"/>
<defs>
<radialGradient id="paint0_radial_1297_1966" cx="0" cy="0" r="1" gradientUnits="userSpaceOnUse" gradientTransform="translate(39.5549 84.4868) rotate(138.749) scale(13.3683 19.963)">
<stop stop-color="#02387B"/>
<stop offset="1" stop-color="#006AC9"/>
</radialGradient>
<linearGradient id="paint1_linear_1297_1966" x1="30.2628" y1="102.892" x2="28.9424" y2="97.5001" gradientUnits="userSpaceOnUse">
<stop offset="0.120044"/>
<stop offset="1" stop-color="#838383"/>
</linearGradient>
<linearGradient id="paint2_linear_1297_1966" x1="37.0057" y1="100.403" x2="29.5785" y2="93.4164" gradientUnits="userSpaceOnUse">
<stop/>
<stop offset="1" stop-color="#D5D4D4"/>
</linearGradient>
<linearGradient id="paint3_linear_1297_1966" x1="43.8812" y1="97.1032" x2="55.7647" y2="98.7537" gradientUnits="userSpaceOnUse">
<stop stop-color="#737373"/>
<stop offset="1"/>
</linearGradient>
<linearGradient id="paint4_linear_1297_1966" x1="55.3251" y1="98.2586" x2="57.5322" y2="100.53" gradientUnits="userSpaceOnUse">
<stop stop-color="#575757"/>
<stop offset="0.734831"/>
</linearGradient>
<linearGradient id="paint5_linear_1297_1966" x1="72.5456" y1="68.8805" x2="86.5747" y2="-3.7957" gradientUnits="userSpaceOnUse">
<stop stop-color="#023170"/>
<stop offset="0.720241" stop-color="#006AC9"/>
</linearGradient>
<linearGradient id="paint6_linear_1297_1966" x1="52" y1="24.6895" x2="52" y2="93.7488" gradientUnits="userSpaceOnUse">
<stop offset="0.569099" stop-color="#006AC9"/>
<stop offset="1" stop-color="#023271"/>
</linearGradient>
<radialGradient id="paint7_radial_1297_1966" cx="0" cy="0" r="1" gradientUnits="userSpaceOnUse" gradientTransform="translate(29.5221 26.243) rotate(57.8455) scale(69.4673 29.1586)">
<stop offset="0.14659" stop-color="#006AC9"/>
<stop offset="0.817017" stop-color="#023271"/>
</radialGradient>
<linearGradient id="paint8_linear_1297_1966" x1="55.4371" y1="34.771" x2="48.7251" y2="44.6189" gradientUnits="userSpaceOnUse">
<stop stop-color="#FDCE00"/>
<stop offset="1" stop-color="#FFEEA6"/>
</linearGradient>
<radialGradient id="paint9_radial_1297_1966" cx="0" cy="0" r="1" gradientUnits="userSpaceOnUse" gradientTransform="translate(55.3809 37.961) rotate(85.2281) scale(7.65124 5.48954)">
<stop stop-color="#4B4B4B"/>
<stop offset="0.787641" stop-color="#100F0F"/>
</radialGradient>
<radialGradient id="paint10_radial_1297_1966" cx="0" cy="0" r="1" gradientUnits="userSpaceOnUse" gradientTransform="translate(52.7952 39.2261) rotate(59.8194) scale(8.97369 6.61966)">
<stop stop-color="#4D4949"/>
<stop offset="0.443776"/>
</radialGradient>
<linearGradient id="paint11_linear_1297_1966" x1="50.1548" y1="29.6536" x2="43.883" y2="36.8057" gradientUnits="userSpaceOnUse">
<stop stop-color="#FDCE00"/>
<stop offset="1" stop-color="#FEEB99"/>
</linearGradient>
<radialGradient id="paint12_radial_1297_1966" cx="0" cy="0" r="1" gradientUnits="userSpaceOnUse" gradientTransform="translate(48.9993 30.8084) rotate(104.036) scale(2.72204 3.64174)">
<stop stop-color="#4F4F4F"/>
<stop offset="0.598958"/>
</radialGradient>
<radialGradient id="paint13_radial_1297_1966" cx="0" cy="0" r="1" gradientUnits="userSpaceOnUse" gradientTransform="translate(23.362 85.7148) rotate(-16.607) scale(22.9069 18.985)">
<stop stop-color="#006AC9"/>
<stop offset="1" stop-color="#006AC9" stop-opacity="0"/>
</radialGradient>
</defs>
</svg>
